%TF.GenerationSoftware,KiCad,Pcbnew,8.0.2*%
%TF.CreationDate,2024-11-08T18:32:23-08:00*%
%TF.ProjectId,gh80-5000-left,67683830-2d35-4303-9030-2d6c6566742e,rev?*%
%TF.SameCoordinates,Original*%
%TF.FileFunction,Paste,Bot*%
%TF.FilePolarity,Positive*%
%FSLAX46Y46*%
G04 Gerber Fmt 4.6, Leading zero omitted, Abs format (unit mm)*
G04 Created by KiCad (PCBNEW 8.0.2) date 2024-11-08 18:32:23*
%MOMM*%
%LPD*%
G01*
G04 APERTURE LIST*
G04 Aperture macros list*
%AMRoundRect*
0 Rectangle with rounded corners*
0 $1 Rounding radius*
0 $2 $3 $4 $5 $6 $7 $8 $9 X,Y pos of 4 corners*
0 Add a 4 corners polygon primitive as box body*
4,1,4,$2,$3,$4,$5,$6,$7,$8,$9,$2,$3,0*
0 Add four circle primitives for the rounded corners*
1,1,$1+$1,$2,$3*
1,1,$1+$1,$4,$5*
1,1,$1+$1,$6,$7*
1,1,$1+$1,$8,$9*
0 Add four rect primitives between the rounded corners*
20,1,$1+$1,$2,$3,$4,$5,0*
20,1,$1+$1,$4,$5,$6,$7,0*
20,1,$1+$1,$6,$7,$8,$9,0*
20,1,$1+$1,$8,$9,$2,$3,0*%
%AMRotRect*
0 Rectangle, with rotation*
0 The origin of the aperture is its center*
0 $1 length*
0 $2 width*
0 $3 Rotation angle, in degrees counterclockwise*
0 Add horizontal line*
21,1,$1,$2,0,0,$3*%
G04 Aperture macros list end*
%ADD10RotRect,0.600000X1.450000X293.000000*%
%ADD11RotRect,0.300000X1.450000X293.000000*%
%ADD12RoundRect,0.150000X-0.150000X-0.625000X0.150000X-0.625000X0.150000X0.625000X-0.150000X0.625000X0*%
%ADD13RoundRect,0.250000X-0.350000X-0.650000X0.350000X-0.650000X0.350000X0.650000X-0.350000X0.650000X0*%
%ADD14RoundRect,0.225000X0.375000X-0.225000X0.375000X0.225000X-0.375000X0.225000X-0.375000X-0.225000X0*%
%ADD15RoundRect,0.140000X0.170000X-0.140000X0.170000X0.140000X-0.170000X0.140000X-0.170000X-0.140000X0*%
%ADD16RoundRect,0.135000X0.223042X-0.051983X0.117545X0.196553X-0.223042X0.051983X-0.117545X-0.196553X0*%
%ADD17RoundRect,0.249999X0.395001X0.395001X-0.395001X0.395001X-0.395001X-0.395001X0.395001X-0.395001X0*%
%ADD18RoundRect,0.050000X0.387500X0.050000X-0.387500X0.050000X-0.387500X-0.050000X0.387500X-0.050000X0*%
%ADD19RoundRect,0.050000X0.050000X0.387500X-0.050000X0.387500X-0.050000X-0.387500X0.050000X-0.387500X0*%
%ADD20RoundRect,0.140000X0.219203X0.021213X0.021213X0.219203X-0.219203X-0.021213X-0.021213X-0.219203X0*%
%ADD21RoundRect,0.150000X0.150000X-0.650000X0.150000X0.650000X-0.150000X0.650000X-0.150000X-0.650000X0*%
%ADD22RoundRect,0.135000X0.185000X-0.135000X0.185000X0.135000X-0.185000X0.135000X-0.185000X-0.135000X0*%
%ADD23RoundRect,0.140000X0.021213X-0.219203X0.219203X-0.021213X-0.021213X0.219203X-0.219203X0.021213X0*%
%ADD24RoundRect,0.140000X-0.021213X0.219203X-0.219203X0.021213X0.021213X-0.219203X0.219203X-0.021213X0*%
%ADD25RoundRect,0.250000X0.625000X-0.400000X0.625000X0.400000X-0.625000X0.400000X-0.625000X-0.400000X0*%
%ADD26RoundRect,0.135000X-0.185000X0.135000X-0.185000X-0.135000X0.185000X-0.135000X0.185000X0.135000X0*%
%ADD27RoundRect,0.140000X-0.140000X-0.170000X0.140000X-0.170000X0.140000X0.170000X-0.140000X0.170000X0*%
%ADD28RoundRect,0.150000X-0.150000X0.475000X-0.150000X-0.475000X0.150000X-0.475000X0.150000X0.475000X0*%
%ADD29RoundRect,0.225000X-0.250000X0.225000X-0.250000X-0.225000X0.250000X-0.225000X0.250000X0.225000X0*%
%ADD30RoundRect,0.237500X0.250000X0.237500X-0.250000X0.237500X-0.250000X-0.237500X0.250000X-0.237500X0*%
%ADD31RoundRect,0.140000X0.140000X0.170000X-0.140000X0.170000X-0.140000X-0.170000X0.140000X-0.170000X0*%
%ADD32RoundRect,0.150000X0.150000X-0.512500X0.150000X0.512500X-0.150000X0.512500X-0.150000X-0.512500X0*%
%ADD33RoundRect,0.135000X-0.223042X0.051983X-0.117545X-0.196553X0.223042X-0.051983X0.117545X0.196553X0*%
%ADD34RotRect,1.400000X1.200000X45.000000*%
%ADD35RoundRect,0.135000X-0.135000X-0.185000X0.135000X-0.185000X0.135000X0.185000X-0.135000X0.185000X0*%
%ADD36RoundRect,0.250000X0.375000X0.625000X-0.375000X0.625000X-0.375000X-0.625000X0.375000X-0.625000X0*%
%ADD37RoundRect,0.135000X0.035355X-0.226274X0.226274X-0.035355X-0.035355X0.226274X-0.226274X0.035355X0*%
G04 APERTURE END LIST*
D10*
%TO.C,J2*%
X94722165Y-56570058D03*
X95034750Y-57306462D03*
D11*
X95503627Y-58411067D03*
X95894358Y-59331572D03*
X96089724Y-59791825D03*
X96480455Y-60712329D03*
D10*
X96949332Y-61816935D03*
X97261917Y-62553339D03*
X97261917Y-62553339D03*
X96949332Y-61816935D03*
D11*
X96675820Y-61172582D03*
X96285089Y-60252077D03*
X95698993Y-58871320D03*
X95308261Y-57950815D03*
D10*
X95034750Y-57306462D03*
X94722165Y-56570058D03*
%TD*%
D12*
%TO.C,J4*%
X205300000Y-65875000D03*
X206300000Y-65875000D03*
X207300000Y-65875000D03*
X208300000Y-65875000D03*
D13*
X204000000Y-62000000D03*
X209600000Y-62000000D03*
%TD*%
D14*
%TO.C,D12*%
X124618750Y-189768750D03*
X124618750Y-186468750D03*
%TD*%
D15*
%TO.C,C12*%
X102400000Y-84280000D03*
X102400000Y-83320000D03*
%TD*%
D16*
%TO.C,R9*%
X95399273Y-62869457D03*
X95000727Y-61930543D03*
%TD*%
D17*
%TO.C,U1*%
X103400000Y-91200000D03*
X103400000Y-89600000D03*
X101800000Y-91200000D03*
X101800000Y-89600000D03*
D18*
X106037500Y-87800000D03*
X106037500Y-88200000D03*
X106037500Y-88600000D03*
X106037500Y-89000000D03*
X106037500Y-89400000D03*
X106037500Y-89800000D03*
X106037500Y-90200000D03*
X106037500Y-90600000D03*
X106037500Y-91000000D03*
X106037500Y-91400000D03*
X106037500Y-91800000D03*
X106037500Y-92200000D03*
X106037500Y-92600000D03*
X106037500Y-93000000D03*
D19*
X105200000Y-93837500D03*
X104800000Y-93837500D03*
X104400000Y-93837500D03*
X104000000Y-93837500D03*
X103600000Y-93837500D03*
X103200000Y-93837500D03*
X102800000Y-93837500D03*
X102400000Y-93837500D03*
X102000000Y-93837500D03*
X101600000Y-93837500D03*
X101200000Y-93837500D03*
X100800000Y-93837500D03*
X100400000Y-93837500D03*
X100000000Y-93837500D03*
D18*
X99162500Y-93000000D03*
X99162500Y-92600000D03*
X99162500Y-92200000D03*
X99162500Y-91800000D03*
X99162500Y-91400000D03*
X99162500Y-91000000D03*
X99162500Y-90600000D03*
X99162500Y-90200000D03*
X99162500Y-89800000D03*
X99162500Y-89400000D03*
X99162500Y-89000000D03*
X99162500Y-88600000D03*
X99162500Y-88200000D03*
X99162500Y-87800000D03*
D19*
X100000000Y-86962500D03*
X100400000Y-86962500D03*
X100800000Y-86962500D03*
X101200000Y-86962500D03*
X101600000Y-86962500D03*
X102000000Y-86962500D03*
X102400000Y-86962500D03*
X102800000Y-86962500D03*
X103200000Y-86962500D03*
X103600000Y-86962500D03*
X104000000Y-86962500D03*
X104400000Y-86962500D03*
X104800000Y-86962500D03*
X105200000Y-86962500D03*
%TD*%
D20*
%TO.C,C15*%
X102139411Y-101339411D03*
X101460589Y-100660589D03*
%TD*%
D14*
%TO.C,D19*%
X157956250Y-113568750D03*
X157956250Y-110268750D03*
%TD*%
%TO.C,D8*%
X119856250Y-113568750D03*
X119856250Y-110268750D03*
%TD*%
%TO.C,D17*%
X147637500Y-170718750D03*
X147637500Y-167418750D03*
%TD*%
%TO.C,D25*%
X177006250Y-113568750D03*
X177006250Y-110268750D03*
%TD*%
%TO.C,D37*%
X223837500Y-75468750D03*
X223837500Y-72168750D03*
%TD*%
%TO.C,D29*%
X196056250Y-113568750D03*
X196056250Y-110268750D03*
%TD*%
%TO.C,D16*%
X153193750Y-151668750D03*
X153193750Y-148368750D03*
%TD*%
D21*
%TO.C,U2*%
X115805000Y-76700000D03*
X114535000Y-76700000D03*
X113265000Y-76700000D03*
X111995000Y-76700000D03*
X111995000Y-69500000D03*
X113265000Y-69500000D03*
X114535000Y-69500000D03*
X115805000Y-69500000D03*
%TD*%
D22*
%TO.C,R6*%
X117475000Y-75916250D03*
X117475000Y-74896250D03*
%TD*%
D23*
%TO.C,C14*%
X104960589Y-101239411D03*
X105639411Y-100560589D03*
%TD*%
D14*
%TO.C,D26*%
X186531250Y-132618750D03*
X186531250Y-129318750D03*
%TD*%
%TO.C,D23*%
X162718750Y-189768750D03*
X162718750Y-186468750D03*
%TD*%
D15*
%TO.C,C8*%
X117500000Y-71080000D03*
X117500000Y-70120000D03*
%TD*%
D14*
%TO.C,D24*%
X186531250Y-75468750D03*
X186531250Y-72168750D03*
%TD*%
%TO.C,D35*%
X219868750Y-170718750D03*
X219868750Y-167418750D03*
%TD*%
D24*
%TO.C,C10*%
X99539411Y-98360589D03*
X98860589Y-99039411D03*
%TD*%
D14*
%TO.C,D41*%
X228600000Y-170718750D03*
X228600000Y-167418750D03*
%TD*%
%TO.C,D20*%
X167481250Y-132618750D03*
X167481250Y-129318750D03*
%TD*%
%TO.C,D27*%
X191293750Y-151668750D03*
X191293750Y-148368750D03*
%TD*%
D15*
%TO.C,C5*%
X99300000Y-84280000D03*
X99300000Y-83320000D03*
%TD*%
D22*
%TO.C,R4*%
X126206250Y-105285000D03*
X126206250Y-104265000D03*
%TD*%
D25*
%TO.C,R12*%
X136525000Y-149550000D03*
X136525000Y-146450000D03*
%TD*%
D22*
%TO.C,R3*%
X100800000Y-81510000D03*
X100800000Y-80490000D03*
%TD*%
D24*
%TO.C,C3*%
X98239411Y-98160589D03*
X97560589Y-98839411D03*
%TD*%
D14*
%TO.C,D9*%
X124618750Y-132618750D03*
X124618750Y-129318750D03*
%TD*%
%TO.C,D1*%
X91281250Y-75468750D03*
X91281250Y-72168750D03*
%TD*%
%TO.C,D21*%
X172243750Y-151668750D03*
X172243750Y-148368750D03*
%TD*%
D26*
%TO.C,R2*%
X101900000Y-80490000D03*
X101900000Y-81510000D03*
%TD*%
D14*
%TO.C,D15*%
X148431250Y-132618750D03*
X148431250Y-129318750D03*
%TD*%
D27*
%TO.C,C13*%
X108520000Y-91610000D03*
X109480000Y-91610000D03*
%TD*%
D14*
%TO.C,D33*%
X215106250Y-75468750D03*
X215106250Y-72168750D03*
%TD*%
%TO.C,D31*%
X210343750Y-151668750D03*
X210343750Y-148368750D03*
%TD*%
%TO.C,D11*%
X131762500Y-170718750D03*
X131762500Y-167418750D03*
%TD*%
D15*
%TO.C,C1*%
X100400000Y-84280000D03*
X100400000Y-83320000D03*
%TD*%
D28*
%TO.C,U4*%
X96650000Y-66425000D03*
X97600000Y-66425000D03*
X98550000Y-66425000D03*
X98550000Y-68775000D03*
X97600000Y-68775000D03*
X96650000Y-68775000D03*
%TD*%
D14*
%TO.C,D7*%
X129381250Y-75468750D03*
X129381250Y-72168750D03*
%TD*%
D29*
%TO.C,C4*%
X96650000Y-77175000D03*
X96650000Y-78725000D03*
%TD*%
D14*
%TO.C,D30*%
X205581250Y-132618750D03*
X205581250Y-129318750D03*
%TD*%
%TO.C,D39*%
X214312500Y-132618750D03*
X214312500Y-129318750D03*
%TD*%
D30*
%TO.C,R8*%
X96956250Y-93000000D03*
X95131250Y-93000000D03*
%TD*%
D31*
%TO.C,C7*%
X96080000Y-91610000D03*
X95120000Y-91610000D03*
%TD*%
D15*
%TO.C,C16*%
X108874174Y-87605793D03*
X108874174Y-86645793D03*
%TD*%
D32*
%TO.C,U3*%
X98550000Y-75387500D03*
X96650000Y-75387500D03*
X97600000Y-73112500D03*
%TD*%
D33*
%TO.C,R10*%
X93563377Y-58843566D03*
X93961923Y-59782480D03*
%TD*%
D14*
%TO.C,D14*%
X138906250Y-113568750D03*
X138906250Y-110268750D03*
%TD*%
%TO.C,D34*%
X215106250Y-113568750D03*
X215106250Y-110268750D03*
%TD*%
D34*
%TO.C,Y1*%
X102421142Y-99376777D03*
X103976777Y-97821142D03*
X105178858Y-99023223D03*
X103623223Y-100578858D03*
%TD*%
D14*
%TO.C,D10*%
X127000000Y-151668750D03*
X127000000Y-148368750D03*
%TD*%
%TO.C,D36*%
X211137500Y-190362500D03*
X211137500Y-187062500D03*
%TD*%
D35*
%TO.C,R1*%
X103490000Y-111800000D03*
X104510000Y-111800000D03*
%TD*%
D14*
%TO.C,D6*%
X91281250Y-189768750D03*
X91281250Y-186468750D03*
%TD*%
%TO.C,D2*%
X91281250Y-113568750D03*
X91281250Y-110268750D03*
%TD*%
D36*
%TO.C,F1*%
X91000000Y-58800000D03*
X88200000Y-58800000D03*
%TD*%
D14*
%TO.C,D32*%
X200818750Y-170718750D03*
X200818750Y-167418750D03*
%TD*%
D27*
%TO.C,C11*%
X97920000Y-77100000D03*
X98880000Y-77100000D03*
%TD*%
%TO.C,C6*%
X97620000Y-71400000D03*
X98580000Y-71400000D03*
%TD*%
D14*
%TO.C,D38*%
X223837500Y-113568750D03*
X223837500Y-110268750D03*
%TD*%
D15*
%TO.C,C2*%
X103600000Y-82880000D03*
X103600000Y-81920000D03*
%TD*%
D14*
%TO.C,D28*%
X181768750Y-170718750D03*
X181768750Y-167418750D03*
%TD*%
%TO.C,D22*%
X162718750Y-170718750D03*
X162718750Y-167418750D03*
%TD*%
%TO.C,D3*%
X91281250Y-132618750D03*
X91281250Y-129318750D03*
%TD*%
%TO.C,D13*%
X148431250Y-75468750D03*
X148431250Y-72168750D03*
%TD*%
%TO.C,D5*%
X91281250Y-170718750D03*
X91281250Y-167418750D03*
%TD*%
%TO.C,D40*%
X219075000Y-151668750D03*
X219075000Y-148368750D03*
%TD*%
%TO.C,D4*%
X91281250Y-151668750D03*
X91281250Y-148368750D03*
%TD*%
D37*
%TO.C,R7*%
X101739376Y-97960624D03*
X102460624Y-97239376D03*
%TD*%
D22*
%TO.C,R5*%
X117475000Y-73810000D03*
X117475000Y-72790000D03*
%TD*%
D14*
%TO.C,D18*%
X167481250Y-75468750D03*
X167481250Y-72168750D03*
%TD*%
D31*
%TO.C,C9*%
X96680000Y-87590000D03*
X95720000Y-87590000D03*
%TD*%
M02*
