%TF.GenerationSoftware,KiCad,Pcbnew,8.0.2*%
%TF.CreationDate,2024-11-08T18:32:23-08:00*%
%TF.ProjectId,gh80-5000-left,67683830-2d35-4303-9030-2d6c6566742e,rev?*%
%TF.SameCoordinates,Original*%
%TF.FileFunction,Soldermask,Bot*%
%TF.FilePolarity,Negative*%
%FSLAX46Y46*%
G04 Gerber Fmt 4.6, Leading zero omitted, Abs format (unit mm)*
G04 Created by KiCad (PCBNEW 8.0.2) date 2024-11-08 18:32:23*
%MOMM*%
%LPD*%
G01*
G04 APERTURE LIST*
G04 Aperture macros list*
%AMRoundRect*
0 Rectangle with rounded corners*
0 $1 Rounding radius*
0 $2 $3 $4 $5 $6 $7 $8 $9 X,Y pos of 4 corners*
0 Add a 4 corners polygon primitive as box body*
4,1,4,$2,$3,$4,$5,$6,$7,$8,$9,$2,$3,0*
0 Add four circle primitives for the rounded corners*
1,1,$1+$1,$2,$3*
1,1,$1+$1,$4,$5*
1,1,$1+$1,$6,$7*
1,1,$1+$1,$8,$9*
0 Add four rect primitives between the rounded corners*
20,1,$1+$1,$2,$3,$4,$5,0*
20,1,$1+$1,$4,$5,$6,$7,0*
20,1,$1+$1,$6,$7,$8,$9,0*
20,1,$1+$1,$8,$9,$2,$3,0*%
%AMHorizOval*
0 Thick line with rounded ends*
0 $1 width*
0 $2 $3 position (X,Y) of the first rounded end (center of the circle)*
0 $4 $5 position (X,Y) of the second rounded end (center of the circle)*
0 Add line between two ends*
20,1,$1,$2,$3,$4,$5,0*
0 Add two circle primitives to create the rounded ends*
1,1,$1,$2,$3*
1,1,$1,$4,$5*%
%AMRotRect*
0 Rectangle, with rotation*
0 The origin of the aperture is its center*
0 $1 length*
0 $2 width*
0 $3 Rotation angle, in degrees counterclockwise*
0 Add horizontal line*
21,1,$1,$2,0,0,$3*%
G04 Aperture macros list end*
%ADD10C,2.900000*%
%ADD11C,1.600000*%
%ADD12C,3.048000*%
%ADD13C,3.987800*%
%ADD14C,1.750000*%
%ADD15C,2.300000*%
%ADD16RoundRect,0.285750X0.666750X0.666750X-0.666750X0.666750X-0.666750X-0.666750X0.666750X-0.666750X0*%
%ADD17C,1.905000*%
%ADD18RoundRect,0.285750X-0.666750X-0.666750X0.666750X-0.666750X0.666750X0.666750X-0.666750X0.666750X0*%
%ADD19C,4.000000*%
%ADD20C,0.650000*%
%ADD21RotRect,0.600000X1.450000X293.000000*%
%ADD22RotRect,0.300000X1.450000X293.000000*%
%ADD23HorizOval,1.000000X-0.506278X-0.214902X0.506278X0.214902X0*%
%ADD24HorizOval,1.000000X-0.276151X-0.117219X0.276151X0.117219X0*%
%ADD25RoundRect,0.150000X-0.150000X-0.625000X0.150000X-0.625000X0.150000X0.625000X-0.150000X0.625000X0*%
%ADD26RoundRect,0.250000X-0.350000X-0.650000X0.350000X-0.650000X0.350000X0.650000X-0.350000X0.650000X0*%
%ADD27RoundRect,0.225000X0.375000X-0.225000X0.375000X0.225000X-0.375000X0.225000X-0.375000X-0.225000X0*%
%ADD28RoundRect,0.140000X0.170000X-0.140000X0.170000X0.140000X-0.170000X0.140000X-0.170000X-0.140000X0*%
%ADD29RoundRect,0.135000X0.223042X-0.051983X0.117545X0.196553X-0.223042X0.051983X-0.117545X-0.196553X0*%
%ADD30RoundRect,0.050000X0.387500X0.050000X-0.387500X0.050000X-0.387500X-0.050000X0.387500X-0.050000X0*%
%ADD31RoundRect,0.050000X0.050000X0.387500X-0.050000X0.387500X-0.050000X-0.387500X0.050000X-0.387500X0*%
%ADD32R,3.200000X3.200000*%
%ADD33RoundRect,0.140000X0.219203X0.021213X0.021213X0.219203X-0.219203X-0.021213X-0.021213X-0.219203X0*%
%ADD34O,1.600000X1.600000*%
%ADD35R,1.700000X1.700000*%
%ADD36O,1.700000X1.700000*%
%ADD37RoundRect,0.150000X0.150000X-0.650000X0.150000X0.650000X-0.150000X0.650000X-0.150000X-0.650000X0*%
%ADD38RoundRect,0.135000X0.185000X-0.135000X0.185000X0.135000X-0.185000X0.135000X-0.185000X-0.135000X0*%
%ADD39RoundRect,0.140000X0.021213X-0.219203X0.219203X-0.021213X-0.021213X0.219203X-0.219203X0.021213X0*%
%ADD40RoundRect,0.140000X-0.021213X0.219203X-0.219203X0.021213X0.021213X-0.219203X0.219203X-0.021213X0*%
%ADD41RoundRect,0.250000X0.625000X-0.400000X0.625000X0.400000X-0.625000X0.400000X-0.625000X-0.400000X0*%
%ADD42RoundRect,0.135000X-0.185000X0.135000X-0.185000X-0.135000X0.185000X-0.135000X0.185000X0.135000X0*%
%ADD43RoundRect,0.140000X-0.140000X-0.170000X0.140000X-0.170000X0.140000X0.170000X-0.140000X0.170000X0*%
%ADD44RoundRect,0.150000X-0.150000X0.475000X-0.150000X-0.475000X0.150000X-0.475000X0.150000X0.475000X0*%
%ADD45RoundRect,0.225000X-0.250000X0.225000X-0.250000X-0.225000X0.250000X-0.225000X0.250000X0.225000X0*%
%ADD46RoundRect,0.237500X0.250000X0.237500X-0.250000X0.237500X-0.250000X-0.237500X0.250000X-0.237500X0*%
%ADD47RoundRect,0.140000X0.140000X0.170000X-0.140000X0.170000X-0.140000X-0.170000X0.140000X-0.170000X0*%
%ADD48RoundRect,0.150000X0.150000X-0.512500X0.150000X0.512500X-0.150000X0.512500X-0.150000X-0.512500X0*%
%ADD49RoundRect,0.135000X-0.223042X0.051983X-0.117545X-0.196553X0.223042X-0.051983X0.117545X0.196553X0*%
%ADD50C,1.200000*%
%ADD51O,2.100000X1.100000*%
%ADD52RotRect,1.400000X1.200000X45.000000*%
%ADD53RoundRect,0.135000X-0.135000X-0.185000X0.135000X-0.185000X0.135000X0.185000X-0.135000X0.185000X0*%
%ADD54RoundRect,0.250000X0.375000X0.625000X-0.375000X0.625000X-0.375000X-0.625000X0.375000X-0.625000X0*%
%ADD55RoundRect,0.135000X0.035355X-0.226274X0.226274X-0.035355X-0.035355X0.226274X-0.226274X0.035355X0*%
G04 APERTURE END LIST*
D10*
%TO.C,S3*%
X179463750Y-191625000D03*
D11*
X187063750Y-186050000D03*
X187063750Y-197200000D03*
D10*
X194663750Y-191625000D03*
X220963750Y-191625000D03*
D11*
X228563750Y-186050000D03*
X228563750Y-197200000D03*
D10*
X236163750Y-191625000D03*
%TD*%
D12*
%TO.C,S2*%
X228563750Y-197210000D03*
D13*
X228563750Y-181970000D03*
D12*
X187063750Y-197210000D03*
D13*
X187063750Y-181970000D03*
%TD*%
D14*
%TO.C,MX40*%
X230981250Y-116205000D03*
D13*
X230981250Y-111125000D03*
D14*
X230981250Y-106045000D03*
D15*
X228441250Y-114935000D03*
X225901250Y-108585000D03*
%TD*%
D14*
%TO.C,MX36*%
X206851250Y-111125000D03*
D13*
X211931250Y-111125000D03*
D14*
X217011250Y-111125000D03*
D15*
X208121250Y-108585000D03*
X214471250Y-106045000D03*
%TD*%
D14*
%TO.C,MX19*%
X135413750Y-168275000D03*
D13*
X140493750Y-168275000D03*
D14*
X145573750Y-168275000D03*
D15*
X136683750Y-165735000D03*
X143033750Y-163195000D03*
%TD*%
D16*
%TO.C,LED2*%
X117792500Y-154304750D03*
D17*
X120332500Y-154304750D03*
%TD*%
D14*
%TO.C,MX24*%
X154463750Y-168275000D03*
D13*
X159543750Y-168275000D03*
D14*
X164623750Y-168275000D03*
D15*
X155733750Y-165735000D03*
X162083750Y-163195000D03*
%TD*%
D14*
%TO.C,MX4*%
X83026250Y-149225000D03*
D13*
X88106250Y-149225000D03*
D14*
X93186250Y-149225000D03*
D15*
X84296250Y-146685000D03*
X90646250Y-144145000D03*
%TD*%
D14*
%TO.C,MX15*%
X140176250Y-73025000D03*
D13*
X145256250Y-73025000D03*
D14*
X150336250Y-73025000D03*
D15*
X141446250Y-70485000D03*
X147796250Y-67945000D03*
%TD*%
D18*
%TO.C,LED1*%
X125095000Y-154304750D03*
D17*
X122555000Y-154304750D03*
%TD*%
D14*
%TO.C,MX20*%
X159226250Y-73025000D03*
D13*
X164306250Y-73025000D03*
D14*
X169386250Y-73025000D03*
D15*
X160496250Y-70485000D03*
X166846250Y-67945000D03*
%TD*%
D14*
%TO.C,MX12*%
X116363750Y-187325000D03*
D13*
X121443750Y-187325000D03*
D14*
X126523750Y-187325000D03*
D15*
X117633750Y-184785000D03*
X123983750Y-182245000D03*
%TD*%
D14*
%TO.C,MX42*%
X226218750Y-154305000D03*
D13*
X226218750Y-149225000D03*
D14*
X226218750Y-144145000D03*
D15*
X223678750Y-153035000D03*
X221138750Y-146685000D03*
%TD*%
D14*
%TO.C,MX29*%
X183038750Y-149225000D03*
D13*
X188118750Y-149225000D03*
D14*
X193198750Y-149225000D03*
D15*
X184308750Y-146685000D03*
X190658750Y-144145000D03*
%TD*%
D14*
%TO.C,MX35*%
X206851250Y-73025000D03*
D13*
X211931250Y-73025000D03*
D14*
X217011250Y-73025000D03*
D15*
X208121250Y-70485000D03*
X214471250Y-67945000D03*
%TD*%
D14*
%TO.C,MX22*%
X159226250Y-130175000D03*
D13*
X164306250Y-130175000D03*
D14*
X169386250Y-130175000D03*
D15*
X160496250Y-127635000D03*
X166846250Y-125095000D03*
%TD*%
D14*
%TO.C,MX1*%
X83026250Y-73025000D03*
D13*
X88106250Y-73025000D03*
D14*
X93186250Y-73025000D03*
D15*
X84296250Y-70485000D03*
X90646250Y-67945000D03*
%TD*%
D14*
%TO.C,MX5*%
X83026250Y-168275000D03*
D13*
X88106250Y-168275000D03*
D14*
X93186250Y-168275000D03*
D15*
X84296250Y-165735000D03*
X90646250Y-163195000D03*
%TD*%
D14*
%TO.C,MX9*%
X116363750Y-130175000D03*
D13*
X121443750Y-130175000D03*
D14*
X126523750Y-130175000D03*
D15*
X117633750Y-127635000D03*
X123983750Y-125095000D03*
%TD*%
D14*
%TO.C,MX10*%
X113982500Y-149225000D03*
D13*
X119062500Y-149225000D03*
D14*
X124142500Y-149225000D03*
D15*
X115252500Y-146685000D03*
X121602500Y-144145000D03*
%TD*%
D14*
%TO.C,MX38*%
X202733750Y-188125000D03*
D13*
X207813750Y-188125000D03*
D14*
X212893750Y-188125000D03*
D15*
X204003750Y-185585000D03*
X210353750Y-183045000D03*
%TD*%
D14*
%TO.C,MX27*%
X168751250Y-111125000D03*
D13*
X173831250Y-111125000D03*
D14*
X178911250Y-111125000D03*
D15*
X170021250Y-108585000D03*
X176371250Y-106045000D03*
%TD*%
D14*
%TO.C,MX18*%
X144938750Y-149225000D03*
D13*
X150018750Y-149225000D03*
D14*
X155098750Y-149225000D03*
D15*
X146208750Y-146685000D03*
X152558750Y-144145000D03*
%TD*%
D14*
%TO.C,MX3*%
X83026250Y-130175000D03*
D13*
X88106250Y-130175000D03*
D14*
X93186250Y-130175000D03*
D15*
X84296250Y-127635000D03*
X90646250Y-125095000D03*
%TD*%
D14*
%TO.C,MX25*%
X154463750Y-187325000D03*
D13*
X159543750Y-187325000D03*
D14*
X164623750Y-187325000D03*
D15*
X155733750Y-184785000D03*
X162083750Y-182245000D03*
%TD*%
D14*
%TO.C,MX2*%
X83026250Y-111125000D03*
D13*
X88106250Y-111125000D03*
D14*
X93186250Y-111125000D03*
D15*
X84296250Y-108585000D03*
X90646250Y-106045000D03*
%TD*%
D14*
%TO.C,MX28*%
X178276250Y-130175000D03*
D13*
X183356250Y-130175000D03*
D14*
X188436250Y-130175000D03*
D15*
X179546250Y-127635000D03*
X185896250Y-125095000D03*
%TD*%
D19*
%TO.C,S1*%
X116681250Y-161290000D03*
D13*
X116681250Y-176530000D03*
D19*
X140493750Y-161290000D03*
D13*
X140493750Y-176530000D03*
%TD*%
D14*
%TO.C,MX41*%
X221456250Y-135255000D03*
D13*
X221456250Y-130175000D03*
D14*
X221456250Y-125095000D03*
D15*
X218916250Y-133985000D03*
X216376250Y-127635000D03*
%TD*%
D14*
%TO.C,MX7*%
X121126250Y-73025000D03*
D13*
X126206250Y-73025000D03*
D14*
X131286250Y-73025000D03*
D15*
X122396250Y-70485000D03*
X128746250Y-67945000D03*
%TD*%
D14*
%TO.C,MX13*%
X118745000Y-149225000D03*
D13*
X123825000Y-149225000D03*
D14*
X128905000Y-149225000D03*
D15*
X120015000Y-146685000D03*
X126365000Y-144145000D03*
%TD*%
D14*
%TO.C,MX33*%
X202088750Y-149225000D03*
D13*
X207168750Y-149225000D03*
D14*
X212248750Y-149225000D03*
D15*
X203358750Y-146685000D03*
X209708750Y-144145000D03*
%TD*%
D14*
%TO.C,MX32*%
X197326250Y-130175000D03*
D13*
X202406250Y-130175000D03*
D14*
X207486250Y-130175000D03*
D15*
X198596250Y-127635000D03*
X204946250Y-125095000D03*
%TD*%
D14*
%TO.C,MX16*%
X130651250Y-111125000D03*
D13*
X135731250Y-111125000D03*
D14*
X140811250Y-111125000D03*
D15*
X131921250Y-108585000D03*
X138271250Y-106045000D03*
%TD*%
D14*
%TO.C,MX6*%
X83026250Y-187325000D03*
D13*
X88106250Y-187325000D03*
D14*
X93186250Y-187325000D03*
D15*
X84296250Y-184785000D03*
X90646250Y-182245000D03*
%TD*%
D14*
%TO.C,MX43*%
X235743750Y-173355000D03*
D13*
X235743750Y-168275000D03*
D14*
X235743750Y-163195000D03*
D15*
X233203750Y-172085000D03*
X230663750Y-165735000D03*
%TD*%
D14*
%TO.C,MX34*%
X192563750Y-168275000D03*
D13*
X197643750Y-168275000D03*
D14*
X202723750Y-168275000D03*
D15*
X193833750Y-165735000D03*
X200183750Y-163195000D03*
%TD*%
D14*
%TO.C,MX11*%
X113982500Y-168275000D03*
D13*
X119062500Y-168275000D03*
D14*
X124142500Y-168275000D03*
D15*
X115252500Y-165735000D03*
X121602500Y-163195000D03*
%TD*%
D14*
%TO.C,MX14*%
X123507500Y-168275000D03*
D13*
X128587500Y-168275000D03*
D14*
X133667500Y-168275000D03*
D15*
X124777500Y-165735000D03*
X131127500Y-163195000D03*
%TD*%
D14*
%TO.C,MX39*%
X230981250Y-78105000D03*
D13*
X230981250Y-73025000D03*
D14*
X230981250Y-67945000D03*
D15*
X228441250Y-76835000D03*
X225901250Y-70485000D03*
%TD*%
D14*
%TO.C,MX37*%
X211613750Y-168275000D03*
D13*
X216693750Y-168275000D03*
D14*
X221773750Y-168275000D03*
D15*
X212883750Y-165735000D03*
X219233750Y-163195000D03*
%TD*%
D14*
%TO.C,MX17*%
X140176250Y-130175000D03*
D13*
X145256250Y-130175000D03*
D14*
X150336250Y-130175000D03*
D15*
X141446250Y-127635000D03*
X147796250Y-125095000D03*
%TD*%
D14*
%TO.C,MX31*%
X187801250Y-111125000D03*
D13*
X192881250Y-111125000D03*
D14*
X197961250Y-111125000D03*
D15*
X189071250Y-108585000D03*
X195421250Y-106045000D03*
%TD*%
D14*
%TO.C,MX30*%
X173513750Y-168275000D03*
D13*
X178593750Y-168275000D03*
D14*
X183673750Y-168275000D03*
D15*
X174783750Y-165735000D03*
X181133750Y-163195000D03*
%TD*%
D14*
%TO.C,MX23*%
X163988750Y-149225000D03*
D13*
X169068750Y-149225000D03*
D14*
X174148750Y-149225000D03*
D15*
X165258750Y-146685000D03*
X171608750Y-144145000D03*
%TD*%
D14*
%TO.C,MX8*%
X111601250Y-111125000D03*
D13*
X116681250Y-111125000D03*
D14*
X121761250Y-111125000D03*
D15*
X112871250Y-108585000D03*
X119221250Y-106045000D03*
%TD*%
D14*
%TO.C,MX26*%
X178276250Y-73025000D03*
D13*
X183356250Y-73025000D03*
D14*
X188436250Y-73025000D03*
D15*
X179546250Y-70485000D03*
X185896250Y-67945000D03*
%TD*%
D14*
%TO.C,MX21*%
X149701250Y-111125000D03*
D13*
X154781250Y-111125000D03*
D14*
X159861250Y-111125000D03*
D15*
X150971250Y-108585000D03*
X157321250Y-106045000D03*
%TD*%
D20*
%TO.C,J2*%
X96192957Y-56336833D03*
X98451383Y-61657351D03*
D21*
X94722165Y-56570058D03*
X95034750Y-57306462D03*
D22*
X95503627Y-58411067D03*
X95894358Y-59331572D03*
X96089724Y-59791825D03*
X96480455Y-60712329D03*
D21*
X96949332Y-61816935D03*
X97261917Y-62553339D03*
X97261917Y-62553339D03*
X96949332Y-61816935D03*
D22*
X96675820Y-61172582D03*
X96285089Y-60252077D03*
X95698993Y-58871320D03*
X95308261Y-57950815D03*
D21*
X95034750Y-57306462D03*
X94722165Y-56570058D03*
D23*
X95146344Y-55227598D03*
D24*
X98994055Y-53594342D03*
X102369972Y-61547504D03*
D23*
X98522261Y-63180760D03*
%TD*%
D25*
%TO.C,J4*%
X205300000Y-65875000D03*
X206300000Y-65875000D03*
X207300000Y-65875000D03*
X208300000Y-65875000D03*
D26*
X204000000Y-62000000D03*
X209600000Y-62000000D03*
%TD*%
D27*
%TO.C,D12*%
X124618750Y-189768750D03*
X124618750Y-186468750D03*
%TD*%
D28*
%TO.C,C12*%
X102400000Y-84280000D03*
X102400000Y-83320000D03*
%TD*%
D29*
%TO.C,R9*%
X95399273Y-62869457D03*
X95000727Y-61930543D03*
%TD*%
D30*
%TO.C,U1*%
X106037500Y-87800000D03*
X106037500Y-88200000D03*
X106037500Y-88600000D03*
X106037500Y-89000000D03*
X106037500Y-89400000D03*
X106037500Y-89800000D03*
X106037500Y-90200000D03*
X106037500Y-90600000D03*
X106037500Y-91000000D03*
X106037500Y-91400000D03*
X106037500Y-91800000D03*
X106037500Y-92200000D03*
X106037500Y-92600000D03*
X106037500Y-93000000D03*
D31*
X105200000Y-93837500D03*
X104800000Y-93837500D03*
X104400000Y-93837500D03*
X104000000Y-93837500D03*
X103600000Y-93837500D03*
X103200000Y-93837500D03*
X102800000Y-93837500D03*
X102400000Y-93837500D03*
X102000000Y-93837500D03*
X101600000Y-93837500D03*
X101200000Y-93837500D03*
X100800000Y-93837500D03*
X100400000Y-93837500D03*
X100000000Y-93837500D03*
D30*
X99162500Y-93000000D03*
X99162500Y-92600000D03*
X99162500Y-92200000D03*
X99162500Y-91800000D03*
X99162500Y-91400000D03*
X99162500Y-91000000D03*
X99162500Y-90600000D03*
X99162500Y-90200000D03*
X99162500Y-89800000D03*
X99162500Y-89400000D03*
X99162500Y-89000000D03*
X99162500Y-88600000D03*
X99162500Y-88200000D03*
X99162500Y-87800000D03*
D31*
X100000000Y-86962500D03*
X100400000Y-86962500D03*
X100800000Y-86962500D03*
X101200000Y-86962500D03*
X101600000Y-86962500D03*
X102000000Y-86962500D03*
X102400000Y-86962500D03*
X102800000Y-86962500D03*
X103200000Y-86962500D03*
X103600000Y-86962500D03*
X104000000Y-86962500D03*
X104400000Y-86962500D03*
X104800000Y-86962500D03*
X105200000Y-86962500D03*
D32*
X102600000Y-90400000D03*
%TD*%
D33*
%TO.C,C15*%
X102139411Y-101339411D03*
X101460589Y-100660589D03*
%TD*%
D11*
%TO.C,R11*%
X136525000Y-154305000D03*
D34*
X136525000Y-144145000D03*
%TD*%
D27*
%TO.C,D19*%
X157956250Y-113568750D03*
X157956250Y-110268750D03*
%TD*%
%TO.C,D8*%
X119856250Y-113568750D03*
X119856250Y-110268750D03*
%TD*%
%TO.C,D17*%
X147637500Y-170718750D03*
X147637500Y-167418750D03*
%TD*%
D35*
%TO.C,J1*%
X97525000Y-106400000D03*
D36*
X100065000Y-106400000D03*
X102605000Y-106400000D03*
X105145000Y-106400000D03*
X107685000Y-106400000D03*
%TD*%
D27*
%TO.C,D25*%
X177006250Y-113568750D03*
X177006250Y-110268750D03*
%TD*%
%TO.C,D37*%
X223837500Y-75468750D03*
X223837500Y-72168750D03*
%TD*%
%TO.C,D29*%
X196056250Y-113568750D03*
X196056250Y-110268750D03*
%TD*%
%TO.C,D16*%
X153193750Y-151668750D03*
X153193750Y-148368750D03*
%TD*%
D37*
%TO.C,U2*%
X115805000Y-76700000D03*
X114535000Y-76700000D03*
X113265000Y-76700000D03*
X111995000Y-76700000D03*
X111995000Y-69500000D03*
X113265000Y-69500000D03*
X114535000Y-69500000D03*
X115805000Y-69500000D03*
%TD*%
D38*
%TO.C,R6*%
X117475000Y-75916250D03*
X117475000Y-74896250D03*
%TD*%
D39*
%TO.C,C14*%
X104960589Y-101239411D03*
X105639411Y-100560589D03*
%TD*%
D27*
%TO.C,D26*%
X186531250Y-132618750D03*
X186531250Y-129318750D03*
%TD*%
%TO.C,D23*%
X162718750Y-189768750D03*
X162718750Y-186468750D03*
%TD*%
D28*
%TO.C,C8*%
X117500000Y-71080000D03*
X117500000Y-70120000D03*
%TD*%
D27*
%TO.C,D24*%
X186531250Y-75468750D03*
X186531250Y-72168750D03*
%TD*%
%TO.C,D35*%
X219868750Y-170718750D03*
X219868750Y-167418750D03*
%TD*%
D40*
%TO.C,C10*%
X99539411Y-98360589D03*
X98860589Y-99039411D03*
%TD*%
D27*
%TO.C,D41*%
X228600000Y-170718750D03*
X228600000Y-167418750D03*
%TD*%
%TO.C,D20*%
X167481250Y-132618750D03*
X167481250Y-129318750D03*
%TD*%
%TO.C,D27*%
X191293750Y-151668750D03*
X191293750Y-148368750D03*
%TD*%
D28*
%TO.C,C5*%
X99300000Y-84280000D03*
X99300000Y-83320000D03*
%TD*%
D38*
%TO.C,R4*%
X126206250Y-105285000D03*
X126206250Y-104265000D03*
%TD*%
D41*
%TO.C,R12*%
X136525000Y-149550000D03*
X136525000Y-146450000D03*
%TD*%
D38*
%TO.C,R3*%
X100800000Y-81510000D03*
X100800000Y-80490000D03*
%TD*%
D40*
%TO.C,C3*%
X98239411Y-98160589D03*
X97560589Y-98839411D03*
%TD*%
D27*
%TO.C,D9*%
X124618750Y-132618750D03*
X124618750Y-129318750D03*
%TD*%
%TO.C,D1*%
X91281250Y-75468750D03*
X91281250Y-72168750D03*
%TD*%
%TO.C,D21*%
X172243750Y-151668750D03*
X172243750Y-148368750D03*
%TD*%
D42*
%TO.C,R2*%
X101900000Y-80490000D03*
X101900000Y-81510000D03*
%TD*%
D27*
%TO.C,D15*%
X148431250Y-132618750D03*
X148431250Y-129318750D03*
%TD*%
D43*
%TO.C,C13*%
X108520000Y-91610000D03*
X109480000Y-91610000D03*
%TD*%
D27*
%TO.C,D33*%
X215106250Y-75468750D03*
X215106250Y-72168750D03*
%TD*%
%TO.C,D31*%
X210343750Y-151668750D03*
X210343750Y-148368750D03*
%TD*%
%TO.C,D11*%
X131762500Y-170718750D03*
X131762500Y-167418750D03*
%TD*%
D28*
%TO.C,C1*%
X100400000Y-84280000D03*
X100400000Y-83320000D03*
%TD*%
D44*
%TO.C,U4*%
X96650000Y-66425000D03*
X97600000Y-66425000D03*
X98550000Y-66425000D03*
X98550000Y-68775000D03*
X97600000Y-68775000D03*
X96650000Y-68775000D03*
%TD*%
D27*
%TO.C,D7*%
X129381250Y-75468750D03*
X129381250Y-72168750D03*
%TD*%
D45*
%TO.C,C4*%
X96650000Y-77175000D03*
X96650000Y-78725000D03*
%TD*%
D27*
%TO.C,D30*%
X205581250Y-132618750D03*
X205581250Y-129318750D03*
%TD*%
%TO.C,D39*%
X214312500Y-132618750D03*
X214312500Y-129318750D03*
%TD*%
D46*
%TO.C,R8*%
X96956250Y-93000000D03*
X95131250Y-93000000D03*
%TD*%
D47*
%TO.C,C7*%
X96080000Y-91610000D03*
X95120000Y-91610000D03*
%TD*%
D28*
%TO.C,C16*%
X108874174Y-87605793D03*
X108874174Y-86645793D03*
%TD*%
D48*
%TO.C,U3*%
X98550000Y-75387500D03*
X96650000Y-75387500D03*
X97600000Y-73112500D03*
%TD*%
D49*
%TO.C,R10*%
X93563377Y-58843566D03*
X93961923Y-59782480D03*
%TD*%
D50*
%TO.C,J3*%
X142256650Y-55155000D03*
X135256750Y-55155000D03*
D51*
X137656750Y-52755000D03*
X140656750Y-52755000D03*
X132656750Y-57555000D03*
X133656750Y-52755000D03*
%TD*%
D27*
%TO.C,D14*%
X138906250Y-113568750D03*
X138906250Y-110268750D03*
%TD*%
%TO.C,D34*%
X215106250Y-113568750D03*
X215106250Y-110268750D03*
%TD*%
D52*
%TO.C,Y1*%
X102421142Y-99376777D03*
X103976777Y-97821142D03*
X105178858Y-99023223D03*
X103623223Y-100578858D03*
%TD*%
D27*
%TO.C,D10*%
X127000000Y-151668750D03*
X127000000Y-148368750D03*
%TD*%
%TO.C,D36*%
X211137500Y-190362500D03*
X211137500Y-187062500D03*
%TD*%
D53*
%TO.C,R1*%
X103490000Y-111800000D03*
X104510000Y-111800000D03*
%TD*%
D27*
%TO.C,D6*%
X91281250Y-189768750D03*
X91281250Y-186468750D03*
%TD*%
%TO.C,D2*%
X91281250Y-113568750D03*
X91281250Y-110268750D03*
%TD*%
D54*
%TO.C,F1*%
X91000000Y-58800000D03*
X88200000Y-58800000D03*
%TD*%
D27*
%TO.C,D32*%
X200818750Y-170718750D03*
X200818750Y-167418750D03*
%TD*%
D43*
%TO.C,C11*%
X97920000Y-77100000D03*
X98880000Y-77100000D03*
%TD*%
%TO.C,C6*%
X97620000Y-71400000D03*
X98580000Y-71400000D03*
%TD*%
D27*
%TO.C,D38*%
X223837500Y-113568750D03*
X223837500Y-110268750D03*
%TD*%
D28*
%TO.C,C2*%
X103600000Y-82880000D03*
X103600000Y-81920000D03*
%TD*%
D27*
%TO.C,D28*%
X181768750Y-170718750D03*
X181768750Y-167418750D03*
%TD*%
%TO.C,D22*%
X162718750Y-170718750D03*
X162718750Y-167418750D03*
%TD*%
%TO.C,D3*%
X91281250Y-132618750D03*
X91281250Y-129318750D03*
%TD*%
%TO.C,D13*%
X148431250Y-75468750D03*
X148431250Y-72168750D03*
%TD*%
%TO.C,D5*%
X91281250Y-170718750D03*
X91281250Y-167418750D03*
%TD*%
%TO.C,D40*%
X219075000Y-151668750D03*
X219075000Y-148368750D03*
%TD*%
%TO.C,D4*%
X91281250Y-151668750D03*
X91281250Y-148368750D03*
%TD*%
D55*
%TO.C,R7*%
X101739376Y-97960624D03*
X102460624Y-97239376D03*
%TD*%
D38*
%TO.C,R5*%
X117475000Y-73810000D03*
X117475000Y-72790000D03*
%TD*%
D35*
%TO.C,BOOT1*%
X126206250Y-108262500D03*
D36*
X126206250Y-110802500D03*
%TD*%
D27*
%TO.C,D18*%
X167481250Y-75468750D03*
X167481250Y-72168750D03*
%TD*%
D47*
%TO.C,C9*%
X96680000Y-87590000D03*
X95720000Y-87590000D03*
%TD*%
M02*
