%TF.GenerationSoftware,KiCad,Pcbnew,8.0.2*%
%TF.CreationDate,2024-11-08T18:32:23-08:00*%
%TF.ProjectId,gh80-5000-left,67683830-2d35-4303-9030-2d6c6566742e,rev?*%
%TF.SameCoordinates,Original*%
%TF.FileFunction,Other,Comment*%
%FSLAX46Y46*%
G04 Gerber Fmt 4.6, Leading zero omitted, Abs format (unit mm)*
G04 Created by KiCad (PCBNEW 8.0.2) date 2024-11-08 18:32:23*
%MOMM*%
%LPD*%
G01*
G04 APERTURE LIST*
%ADD10C,0.150000*%
%ADD11C,0.120000*%
G04 APERTURE END LIST*
D10*
X205028035Y-180451819D02*
X205028035Y-179451819D01*
X205028035Y-179451819D02*
X205361368Y-180166104D01*
X205361368Y-180166104D02*
X205694701Y-179451819D01*
X205694701Y-179451819D02*
X205694701Y-180451819D01*
X206075654Y-179451819D02*
X206742320Y-180451819D01*
X206742320Y-179451819D02*
X206075654Y-180451819D01*
X206885178Y-180547057D02*
X207647082Y-180547057D01*
X207837559Y-180404200D02*
X207932797Y-180451819D01*
X207932797Y-180451819D02*
X208123273Y-180451819D01*
X208123273Y-180451819D02*
X208218511Y-180404200D01*
X208218511Y-180404200D02*
X208266130Y-180308961D01*
X208266130Y-180308961D02*
X208266130Y-180261342D01*
X208266130Y-180261342D02*
X208218511Y-180166104D01*
X208218511Y-180166104D02*
X208123273Y-180118485D01*
X208123273Y-180118485D02*
X207980416Y-180118485D01*
X207980416Y-180118485D02*
X207885178Y-180070866D01*
X207885178Y-180070866D02*
X207837559Y-179975628D01*
X207837559Y-179975628D02*
X207837559Y-179928009D01*
X207837559Y-179928009D02*
X207885178Y-179832771D01*
X207885178Y-179832771D02*
X207980416Y-179785152D01*
X207980416Y-179785152D02*
X208123273Y-179785152D01*
X208123273Y-179785152D02*
X208218511Y-179832771D01*
X208551845Y-179785152D02*
X208932797Y-179785152D01*
X208694702Y-179451819D02*
X208694702Y-180308961D01*
X208694702Y-180308961D02*
X208742321Y-180404200D01*
X208742321Y-180404200D02*
X208837559Y-180451819D01*
X208837559Y-180451819D02*
X208932797Y-180451819D01*
X209694702Y-180451819D02*
X209694702Y-179928009D01*
X209694702Y-179928009D02*
X209647083Y-179832771D01*
X209647083Y-179832771D02*
X209551845Y-179785152D01*
X209551845Y-179785152D02*
X209361369Y-179785152D01*
X209361369Y-179785152D02*
X209266131Y-179832771D01*
X209694702Y-180404200D02*
X209599464Y-180451819D01*
X209599464Y-180451819D02*
X209361369Y-180451819D01*
X209361369Y-180451819D02*
X209266131Y-180404200D01*
X209266131Y-180404200D02*
X209218512Y-180308961D01*
X209218512Y-180308961D02*
X209218512Y-180213723D01*
X209218512Y-180213723D02*
X209266131Y-180118485D01*
X209266131Y-180118485D02*
X209361369Y-180070866D01*
X209361369Y-180070866D02*
X209599464Y-180070866D01*
X209599464Y-180070866D02*
X209694702Y-180023247D01*
X210170893Y-180451819D02*
X210170893Y-179451819D01*
X210170893Y-179832771D02*
X210266131Y-179785152D01*
X210266131Y-179785152D02*
X210456607Y-179785152D01*
X210456607Y-179785152D02*
X210551845Y-179832771D01*
X210551845Y-179832771D02*
X210599464Y-179880390D01*
X210599464Y-179880390D02*
X210647083Y-179975628D01*
X210647083Y-179975628D02*
X210647083Y-180261342D01*
X210647083Y-180261342D02*
X210599464Y-180356580D01*
X210599464Y-180356580D02*
X210551845Y-180404200D01*
X210551845Y-180404200D02*
X210456607Y-180451819D01*
X210456607Y-180451819D02*
X210266131Y-180451819D01*
X210266131Y-180451819D02*
X210170893Y-180404200D01*
X114205356Y-160961950D02*
X114300594Y-161009569D01*
X114300594Y-161009569D02*
X114491070Y-161009569D01*
X114491070Y-161009569D02*
X114586308Y-160961950D01*
X114586308Y-160961950D02*
X114633927Y-160866711D01*
X114633927Y-160866711D02*
X114633927Y-160819092D01*
X114633927Y-160819092D02*
X114586308Y-160723854D01*
X114586308Y-160723854D02*
X114491070Y-160676235D01*
X114491070Y-160676235D02*
X114348213Y-160676235D01*
X114348213Y-160676235D02*
X114252975Y-160628616D01*
X114252975Y-160628616D02*
X114205356Y-160533378D01*
X114205356Y-160533378D02*
X114205356Y-160485759D01*
X114205356Y-160485759D02*
X114252975Y-160390521D01*
X114252975Y-160390521D02*
X114348213Y-160342902D01*
X114348213Y-160342902D02*
X114491070Y-160342902D01*
X114491070Y-160342902D02*
X114586308Y-160390521D01*
X114967261Y-160342902D02*
X115157737Y-161009569D01*
X115157737Y-161009569D02*
X115348213Y-160533378D01*
X115348213Y-160533378D02*
X115538689Y-161009569D01*
X115538689Y-161009569D02*
X115729165Y-160342902D01*
X116110118Y-161009569D02*
X116110118Y-160342902D01*
X116110118Y-160009569D02*
X116062499Y-160057188D01*
X116062499Y-160057188D02*
X116110118Y-160104807D01*
X116110118Y-160104807D02*
X116157737Y-160057188D01*
X116157737Y-160057188D02*
X116110118Y-160009569D01*
X116110118Y-160009569D02*
X116110118Y-160104807D01*
X116443451Y-160342902D02*
X116824403Y-160342902D01*
X116586308Y-160009569D02*
X116586308Y-160866711D01*
X116586308Y-160866711D02*
X116633927Y-160961950D01*
X116633927Y-160961950D02*
X116729165Y-161009569D01*
X116729165Y-161009569D02*
X116824403Y-161009569D01*
X117586308Y-160961950D02*
X117491070Y-161009569D01*
X117491070Y-161009569D02*
X117300594Y-161009569D01*
X117300594Y-161009569D02*
X117205356Y-160961950D01*
X117205356Y-160961950D02*
X117157737Y-160914330D01*
X117157737Y-160914330D02*
X117110118Y-160819092D01*
X117110118Y-160819092D02*
X117110118Y-160533378D01*
X117110118Y-160533378D02*
X117157737Y-160438140D01*
X117157737Y-160438140D02*
X117205356Y-160390521D01*
X117205356Y-160390521D02*
X117300594Y-160342902D01*
X117300594Y-160342902D02*
X117491070Y-160342902D01*
X117491070Y-160342902D02*
X117586308Y-160390521D01*
X118014880Y-161009569D02*
X118014880Y-160009569D01*
X118443451Y-161009569D02*
X118443451Y-160485759D01*
X118443451Y-160485759D02*
X118395832Y-160390521D01*
X118395832Y-160390521D02*
X118300594Y-160342902D01*
X118300594Y-160342902D02*
X118157737Y-160342902D01*
X118157737Y-160342902D02*
X118062499Y-160390521D01*
X118062499Y-160390521D02*
X118014880Y-160438140D01*
X120110118Y-160961950D02*
X120014880Y-161009569D01*
X120014880Y-161009569D02*
X119824404Y-161009569D01*
X119824404Y-161009569D02*
X119729166Y-160961950D01*
X119729166Y-160961950D02*
X119681547Y-160914330D01*
X119681547Y-160914330D02*
X119633928Y-160819092D01*
X119633928Y-160819092D02*
X119633928Y-160533378D01*
X119633928Y-160533378D02*
X119681547Y-160438140D01*
X119681547Y-160438140D02*
X119729166Y-160390521D01*
X119729166Y-160390521D02*
X119824404Y-160342902D01*
X119824404Y-160342902D02*
X120014880Y-160342902D01*
X120014880Y-160342902D02*
X120110118Y-160390521D01*
X120919642Y-160961950D02*
X120824404Y-161009569D01*
X120824404Y-161009569D02*
X120633928Y-161009569D01*
X120633928Y-161009569D02*
X120538690Y-160961950D01*
X120538690Y-160961950D02*
X120491071Y-160866711D01*
X120491071Y-160866711D02*
X120491071Y-160485759D01*
X120491071Y-160485759D02*
X120538690Y-160390521D01*
X120538690Y-160390521D02*
X120633928Y-160342902D01*
X120633928Y-160342902D02*
X120824404Y-160342902D01*
X120824404Y-160342902D02*
X120919642Y-160390521D01*
X120919642Y-160390521D02*
X120967261Y-160485759D01*
X120967261Y-160485759D02*
X120967261Y-160580997D01*
X120967261Y-160580997D02*
X120491071Y-160676235D01*
X121395833Y-160342902D02*
X121395833Y-161009569D01*
X121395833Y-160438140D02*
X121443452Y-160390521D01*
X121443452Y-160390521D02*
X121538690Y-160342902D01*
X121538690Y-160342902D02*
X121681547Y-160342902D01*
X121681547Y-160342902D02*
X121776785Y-160390521D01*
X121776785Y-160390521D02*
X121824404Y-160485759D01*
X121824404Y-160485759D02*
X121824404Y-161009569D01*
X122157738Y-160342902D02*
X122538690Y-160342902D01*
X122300595Y-160009569D02*
X122300595Y-160866711D01*
X122300595Y-160866711D02*
X122348214Y-160961950D01*
X122348214Y-160961950D02*
X122443452Y-161009569D01*
X122443452Y-161009569D02*
X122538690Y-161009569D01*
X123252976Y-160961950D02*
X123157738Y-161009569D01*
X123157738Y-161009569D02*
X122967262Y-161009569D01*
X122967262Y-161009569D02*
X122872024Y-160961950D01*
X122872024Y-160961950D02*
X122824405Y-160866711D01*
X122824405Y-160866711D02*
X122824405Y-160485759D01*
X122824405Y-160485759D02*
X122872024Y-160390521D01*
X122872024Y-160390521D02*
X122967262Y-160342902D01*
X122967262Y-160342902D02*
X123157738Y-160342902D01*
X123157738Y-160342902D02*
X123252976Y-160390521D01*
X123252976Y-160390521D02*
X123300595Y-160485759D01*
X123300595Y-160485759D02*
X123300595Y-160580997D01*
X123300595Y-160580997D02*
X122824405Y-160676235D01*
X123729167Y-161009569D02*
X123729167Y-160342902D01*
X123729167Y-160533378D02*
X123776786Y-160438140D01*
X123776786Y-160438140D02*
X123824405Y-160390521D01*
X123824405Y-160390521D02*
X123919643Y-160342902D01*
X123919643Y-160342902D02*
X124014881Y-160342902D01*
X118967856Y-148461950D02*
X119063094Y-148509569D01*
X119063094Y-148509569D02*
X119253570Y-148509569D01*
X119253570Y-148509569D02*
X119348808Y-148461950D01*
X119348808Y-148461950D02*
X119396427Y-148366711D01*
X119396427Y-148366711D02*
X119396427Y-148319092D01*
X119396427Y-148319092D02*
X119348808Y-148223854D01*
X119348808Y-148223854D02*
X119253570Y-148176235D01*
X119253570Y-148176235D02*
X119110713Y-148176235D01*
X119110713Y-148176235D02*
X119015475Y-148128616D01*
X119015475Y-148128616D02*
X118967856Y-148033378D01*
X118967856Y-148033378D02*
X118967856Y-147985759D01*
X118967856Y-147985759D02*
X119015475Y-147890521D01*
X119015475Y-147890521D02*
X119110713Y-147842902D01*
X119110713Y-147842902D02*
X119253570Y-147842902D01*
X119253570Y-147842902D02*
X119348808Y-147890521D01*
X119729761Y-147842902D02*
X119920237Y-148509569D01*
X119920237Y-148509569D02*
X120110713Y-148033378D01*
X120110713Y-148033378D02*
X120301189Y-148509569D01*
X120301189Y-148509569D02*
X120491665Y-147842902D01*
X120872618Y-148509569D02*
X120872618Y-147842902D01*
X120872618Y-147509569D02*
X120824999Y-147557188D01*
X120824999Y-147557188D02*
X120872618Y-147604807D01*
X120872618Y-147604807D02*
X120920237Y-147557188D01*
X120920237Y-147557188D02*
X120872618Y-147509569D01*
X120872618Y-147509569D02*
X120872618Y-147604807D01*
X121205951Y-147842902D02*
X121586903Y-147842902D01*
X121348808Y-147509569D02*
X121348808Y-148366711D01*
X121348808Y-148366711D02*
X121396427Y-148461950D01*
X121396427Y-148461950D02*
X121491665Y-148509569D01*
X121491665Y-148509569D02*
X121586903Y-148509569D01*
X122348808Y-148461950D02*
X122253570Y-148509569D01*
X122253570Y-148509569D02*
X122063094Y-148509569D01*
X122063094Y-148509569D02*
X121967856Y-148461950D01*
X121967856Y-148461950D02*
X121920237Y-148414330D01*
X121920237Y-148414330D02*
X121872618Y-148319092D01*
X121872618Y-148319092D02*
X121872618Y-148033378D01*
X121872618Y-148033378D02*
X121920237Y-147938140D01*
X121920237Y-147938140D02*
X121967856Y-147890521D01*
X121967856Y-147890521D02*
X122063094Y-147842902D01*
X122063094Y-147842902D02*
X122253570Y-147842902D01*
X122253570Y-147842902D02*
X122348808Y-147890521D01*
X122777380Y-148509569D02*
X122777380Y-147509569D01*
X123205951Y-148509569D02*
X123205951Y-147985759D01*
X123205951Y-147985759D02*
X123158332Y-147890521D01*
X123158332Y-147890521D02*
X123063094Y-147842902D01*
X123063094Y-147842902D02*
X122920237Y-147842902D01*
X122920237Y-147842902D02*
X122824999Y-147890521D01*
X122824999Y-147890521D02*
X122777380Y-147938140D01*
X124872618Y-148461950D02*
X124777380Y-148509569D01*
X124777380Y-148509569D02*
X124586904Y-148509569D01*
X124586904Y-148509569D02*
X124491666Y-148461950D01*
X124491666Y-148461950D02*
X124444047Y-148414330D01*
X124444047Y-148414330D02*
X124396428Y-148319092D01*
X124396428Y-148319092D02*
X124396428Y-148033378D01*
X124396428Y-148033378D02*
X124444047Y-147938140D01*
X124444047Y-147938140D02*
X124491666Y-147890521D01*
X124491666Y-147890521D02*
X124586904Y-147842902D01*
X124586904Y-147842902D02*
X124777380Y-147842902D01*
X124777380Y-147842902D02*
X124872618Y-147890521D01*
X125682142Y-148461950D02*
X125586904Y-148509569D01*
X125586904Y-148509569D02*
X125396428Y-148509569D01*
X125396428Y-148509569D02*
X125301190Y-148461950D01*
X125301190Y-148461950D02*
X125253571Y-148366711D01*
X125253571Y-148366711D02*
X125253571Y-147985759D01*
X125253571Y-147985759D02*
X125301190Y-147890521D01*
X125301190Y-147890521D02*
X125396428Y-147842902D01*
X125396428Y-147842902D02*
X125586904Y-147842902D01*
X125586904Y-147842902D02*
X125682142Y-147890521D01*
X125682142Y-147890521D02*
X125729761Y-147985759D01*
X125729761Y-147985759D02*
X125729761Y-148080997D01*
X125729761Y-148080997D02*
X125253571Y-148176235D01*
X126158333Y-147842902D02*
X126158333Y-148509569D01*
X126158333Y-147938140D02*
X126205952Y-147890521D01*
X126205952Y-147890521D02*
X126301190Y-147842902D01*
X126301190Y-147842902D02*
X126444047Y-147842902D01*
X126444047Y-147842902D02*
X126539285Y-147890521D01*
X126539285Y-147890521D02*
X126586904Y-147985759D01*
X126586904Y-147985759D02*
X126586904Y-148509569D01*
X126920238Y-147842902D02*
X127301190Y-147842902D01*
X127063095Y-147509569D02*
X127063095Y-148366711D01*
X127063095Y-148366711D02*
X127110714Y-148461950D01*
X127110714Y-148461950D02*
X127205952Y-148509569D01*
X127205952Y-148509569D02*
X127301190Y-148509569D01*
X128015476Y-148461950D02*
X127920238Y-148509569D01*
X127920238Y-148509569D02*
X127729762Y-148509569D01*
X127729762Y-148509569D02*
X127634524Y-148461950D01*
X127634524Y-148461950D02*
X127586905Y-148366711D01*
X127586905Y-148366711D02*
X127586905Y-147985759D01*
X127586905Y-147985759D02*
X127634524Y-147890521D01*
X127634524Y-147890521D02*
X127729762Y-147842902D01*
X127729762Y-147842902D02*
X127920238Y-147842902D01*
X127920238Y-147842902D02*
X128015476Y-147890521D01*
X128015476Y-147890521D02*
X128063095Y-147985759D01*
X128063095Y-147985759D02*
X128063095Y-148080997D01*
X128063095Y-148080997D02*
X127586905Y-148176235D01*
X128491667Y-148509569D02*
X128491667Y-147842902D01*
X128491667Y-148033378D02*
X128539286Y-147938140D01*
X128539286Y-147938140D02*
X128586905Y-147890521D01*
X128586905Y-147890521D02*
X128682143Y-147842902D01*
X128682143Y-147842902D02*
X128777381Y-147842902D01*
X125801785Y-176857819D02*
X125801785Y-175857819D01*
X125801785Y-175857819D02*
X126135118Y-176572104D01*
X126135118Y-176572104D02*
X126468451Y-175857819D01*
X126468451Y-175857819D02*
X126468451Y-176857819D01*
X126849404Y-175857819D02*
X127516070Y-176857819D01*
X127516070Y-175857819D02*
X126849404Y-176857819D01*
X127658928Y-176953057D02*
X128420832Y-176953057D01*
X128611309Y-176810200D02*
X128706547Y-176857819D01*
X128706547Y-176857819D02*
X128897023Y-176857819D01*
X128897023Y-176857819D02*
X128992261Y-176810200D01*
X128992261Y-176810200D02*
X129039880Y-176714961D01*
X129039880Y-176714961D02*
X129039880Y-176667342D01*
X129039880Y-176667342D02*
X128992261Y-176572104D01*
X128992261Y-176572104D02*
X128897023Y-176524485D01*
X128897023Y-176524485D02*
X128754166Y-176524485D01*
X128754166Y-176524485D02*
X128658928Y-176476866D01*
X128658928Y-176476866D02*
X128611309Y-176381628D01*
X128611309Y-176381628D02*
X128611309Y-176334009D01*
X128611309Y-176334009D02*
X128658928Y-176238771D01*
X128658928Y-176238771D02*
X128754166Y-176191152D01*
X128754166Y-176191152D02*
X128897023Y-176191152D01*
X128897023Y-176191152D02*
X128992261Y-176238771D01*
X129325595Y-176191152D02*
X129706547Y-176191152D01*
X129468452Y-175857819D02*
X129468452Y-176714961D01*
X129468452Y-176714961D02*
X129516071Y-176810200D01*
X129516071Y-176810200D02*
X129611309Y-176857819D01*
X129611309Y-176857819D02*
X129706547Y-176857819D01*
X130468452Y-176857819D02*
X130468452Y-176334009D01*
X130468452Y-176334009D02*
X130420833Y-176238771D01*
X130420833Y-176238771D02*
X130325595Y-176191152D01*
X130325595Y-176191152D02*
X130135119Y-176191152D01*
X130135119Y-176191152D02*
X130039881Y-176238771D01*
X130468452Y-176810200D02*
X130373214Y-176857819D01*
X130373214Y-176857819D02*
X130135119Y-176857819D01*
X130135119Y-176857819D02*
X130039881Y-176810200D01*
X130039881Y-176810200D02*
X129992262Y-176714961D01*
X129992262Y-176714961D02*
X129992262Y-176619723D01*
X129992262Y-176619723D02*
X130039881Y-176524485D01*
X130039881Y-176524485D02*
X130135119Y-176476866D01*
X130135119Y-176476866D02*
X130373214Y-176476866D01*
X130373214Y-176476866D02*
X130468452Y-176429247D01*
X130944643Y-176857819D02*
X130944643Y-175857819D01*
X130944643Y-176238771D02*
X131039881Y-176191152D01*
X131039881Y-176191152D02*
X131230357Y-176191152D01*
X131230357Y-176191152D02*
X131325595Y-176238771D01*
X131325595Y-176238771D02*
X131373214Y-176286390D01*
X131373214Y-176286390D02*
X131420833Y-176381628D01*
X131420833Y-176381628D02*
X131420833Y-176667342D01*
X131420833Y-176667342D02*
X131373214Y-176762580D01*
X131373214Y-176762580D02*
X131325595Y-176810200D01*
X131325595Y-176810200D02*
X131230357Y-176857819D01*
X131230357Y-176857819D02*
X131039881Y-176857819D01*
X131039881Y-176857819D02*
X130944643Y-176810200D01*
D11*
%TO.C,LED2*%
X118812500Y-159134750D02*
X119062500Y-159384750D01*
X119062500Y-159384750D02*
X118812500Y-159634750D01*
X119062500Y-159384750D02*
X119312500Y-159634750D01*
X119312500Y-159134750D02*
X119062500Y-159384750D01*
%TO.C,LED1*%
X123575000Y-149474750D02*
X123825000Y-149224750D01*
X123825000Y-149224750D02*
X123575000Y-148974750D01*
X123825000Y-149224750D02*
X124075000Y-148974750D01*
X124075000Y-149474750D02*
X123825000Y-149224750D01*
%TD*%
M02*
