M48
; DRILL file {KiCad 8.0.2} date 2024-11-08T18:32:23-0800
; FORMAT={-:-/ absolute / inch / decimal}
; #@! TF.CreationDate,2024-11-08T18:32:23-08:00
; #@! TF.GenerationSoftware,Kicad,Pcbnew,8.0.2
; #@! TF.FileFunction,NonPlated,1,2,NPTH
FMAT,2
INCH
; #@! TA.AperFunction,NonPlated,NPTH,ComponentDrill
T1C0.0256
; #@! TA.AperFunction,NonPlated,NPTH,ComponentDrill
T2C0.0472
; #@! TA.AperFunction,NonPlated,NPTH,ComponentDrill
T3C0.0630
; #@! TA.AperFunction,NonPlated,NPTH,ComponentDrill
T4C0.0689
; #@! TA.AperFunction,NonPlated,NPTH,ComponentDrill
T5C0.1142
; #@! TA.AperFunction,NonPlated,NPTH,ComponentDrill
T6C0.1200
; #@! TA.AperFunction,NonPlated,NPTH,ComponentDrill
T7C0.1570
%
G90
G05
T1
X3.7871Y-2.218
X3.876Y-2.4275
T2
X5.3251Y-2.1715
X5.6007Y-2.1715
T3
X7.3647Y-7.3248
X7.3647Y-7.7638
X8.9986Y-7.3248
X8.9986Y-7.7638
T4
X3.2687Y-2.875
X3.2687Y-4.375
X3.2687Y-5.125
X3.2687Y-5.875
X3.2687Y-6.625
X3.2687Y-7.375
X3.6687Y-2.875
X3.6687Y-4.375
X3.6687Y-5.125
X3.6687Y-5.875
X3.6687Y-6.625
X3.6687Y-7.375
X4.3937Y-4.375
X4.4875Y-5.875
X4.4875Y-6.625
X4.5812Y-5.125
X4.5812Y-7.375
X4.675Y-5.875
X4.7687Y-2.875
X4.7938Y-4.375
X4.8625Y-6.625
X4.8875Y-5.875
X4.8875Y-6.625
X4.9813Y-5.125
X4.9813Y-7.375
X5.075Y-5.875
X5.1437Y-4.375
X5.1688Y-2.875
X5.2625Y-6.625
X5.3312Y-6.625
X5.5187Y-2.875
X5.5187Y-5.125
X5.5438Y-4.375
X5.7062Y-5.875
X5.7313Y-6.625
X5.8937Y-4.375
X5.9188Y-2.875
X5.9188Y-5.125
X6.0812Y-6.625
X6.0812Y-7.375
X6.1063Y-5.875
X6.2687Y-2.875
X6.2687Y-5.125
X6.2938Y-4.375
X6.4562Y-5.875
X6.4813Y-6.625
X6.4813Y-7.375
X6.6437Y-4.375
X6.6688Y-2.875
X6.6688Y-5.125
X6.8312Y-6.625
X6.8563Y-5.875
X7.0187Y-2.875
X7.0187Y-5.125
X7.0438Y-4.375
X7.2062Y-5.875
X7.2313Y-6.625
X7.3937Y-4.375
X7.4188Y-2.875
X7.4188Y-5.125
X7.5812Y-6.625
X7.6063Y-5.875
X7.7687Y-5.125
X7.7938Y-4.375
X7.9562Y-5.875
X7.9813Y-6.625
X7.9816Y-7.4065
X8.1437Y-2.875
X8.1437Y-4.375
X8.1687Y-5.125
X8.3312Y-6.625
X8.3562Y-5.875
X8.3816Y-7.4065
X8.5437Y-2.875
X8.5437Y-4.375
X8.7188Y-4.925
X8.7188Y-5.325
X8.7312Y-6.625
X8.9062Y-5.675
X8.9062Y-6.075
X9.0938Y-2.675
X9.0938Y-3.075
X9.0938Y-4.175
X9.0938Y-4.575
X9.2812Y-6.425
X9.2812Y-6.825
T5
X7.0655Y-7.5443
X7.6639Y-7.5443
X8.6994Y-7.5443
X9.2978Y-7.5443
T6
X7.3647Y-7.7642
X8.9986Y-7.7642
T7
X3.4688Y-2.875
X3.4688Y-4.375
X3.4688Y-5.125
X3.4688Y-5.875
X3.4688Y-6.625
X3.4688Y-7.375
X4.5938Y-4.375
X4.5938Y-6.95
X4.6875Y-5.875
X4.6875Y-6.625
X4.7812Y-5.125
X4.7812Y-7.375
X4.875Y-5.875
X4.9688Y-2.875
X5.0625Y-6.625
X5.3438Y-4.375
X5.5312Y-6.625
X5.5312Y-6.95
X5.7188Y-2.875
X5.7188Y-5.125
X5.9062Y-5.875
X6.0938Y-4.375
X6.2812Y-6.625
X6.2812Y-7.375
X6.4688Y-2.875
X6.4688Y-5.125
X6.6562Y-5.875
X6.8438Y-4.375
X7.0312Y-6.625
X7.2188Y-2.875
X7.2188Y-5.125
X7.3647Y-7.1642
X7.4062Y-5.875
X7.5938Y-4.375
X7.7812Y-6.625
X7.9688Y-5.125
X8.1562Y-5.875
X8.1816Y-7.4065
X8.3438Y-2.875
X8.3438Y-4.375
X8.5312Y-6.625
X8.7188Y-5.125
X8.9062Y-5.875
X8.9986Y-7.1642
X9.0938Y-2.875
X9.0938Y-4.375
X9.2812Y-6.625
M30
