%TF.GenerationSoftware,KiCad,Pcbnew,8.0.2*%
%TF.CreationDate,2024-11-08T18:32:23-08:00*%
%TF.ProjectId,gh80-5000-left,67683830-2d35-4303-9030-2d6c6566742e,rev?*%
%TF.SameCoordinates,Original*%
%TF.FileFunction,Soldermask,Top*%
%TF.FilePolarity,Negative*%
%FSLAX46Y46*%
G04 Gerber Fmt 4.6, Leading zero omitted, Abs format (unit mm)*
G04 Created by KiCad (PCBNEW 8.0.2) date 2024-11-08 18:32:23*
%MOMM*%
%LPD*%
G01*
G04 APERTURE LIST*
G04 Aperture macros list*
%AMHorizOval*
0 Thick line with rounded ends*
0 $1 width*
0 $2 $3 position (X,Y) of the first rounded end (center of the circle)*
0 $4 $5 position (X,Y) of the second rounded end (center of the circle)*
0 Add line between two ends*
20,1,$1,$2,$3,$4,$5,0*
0 Add two circle primitives to create the rounded ends*
1,1,$1,$2,$3*
1,1,$1,$4,$5*%
G04 Aperture macros list end*
%ADD10C,2.900000*%
%ADD11C,1.600000*%
%ADD12C,3.048000*%
%ADD13C,3.987800*%
%ADD14C,1.750000*%
%ADD15C,0.650000*%
%ADD16HorizOval,1.000000X-0.506278X-0.214902X0.506278X0.214902X0*%
%ADD17HorizOval,1.000000X-0.276151X-0.117219X0.276151X0.117219X0*%
%ADD18O,1.600000X1.600000*%
%ADD19R,1.700000X1.700000*%
%ADD20O,1.700000X1.700000*%
%ADD21C,1.200000*%
%ADD22O,2.100000X1.100000*%
G04 APERTURE END LIST*
D10*
%TO.C,S3*%
X179463750Y-191625000D03*
D11*
X187063750Y-186050000D03*
X187063750Y-197200000D03*
D10*
X194663750Y-191625000D03*
X220963750Y-191625000D03*
D11*
X228563750Y-186050000D03*
X228563750Y-197200000D03*
D10*
X236163750Y-191625000D03*
%TD*%
D12*
%TO.C,S2*%
X228563750Y-197210000D03*
D13*
X228563750Y-181970000D03*
D12*
X187063750Y-197210000D03*
D13*
X187063750Y-181970000D03*
%TD*%
D14*
%TO.C,MX40*%
X230981250Y-116205000D03*
D13*
X230981250Y-111125000D03*
D14*
X230981250Y-106045000D03*
%TD*%
%TO.C,MX36*%
X206851250Y-111125000D03*
D13*
X211931250Y-111125000D03*
D14*
X217011250Y-111125000D03*
%TD*%
%TO.C,MX19*%
X135413750Y-168275000D03*
D13*
X140493750Y-168275000D03*
D14*
X145573750Y-168275000D03*
%TD*%
%TO.C,MX24*%
X154463750Y-168275000D03*
D13*
X159543750Y-168275000D03*
D14*
X164623750Y-168275000D03*
%TD*%
%TO.C,MX4*%
X83026250Y-149225000D03*
D13*
X88106250Y-149225000D03*
D14*
X93186250Y-149225000D03*
%TD*%
%TO.C,MX15*%
X140176250Y-73025000D03*
D13*
X145256250Y-73025000D03*
D14*
X150336250Y-73025000D03*
%TD*%
%TO.C,MX20*%
X159226250Y-73025000D03*
D13*
X164306250Y-73025000D03*
D14*
X169386250Y-73025000D03*
%TD*%
%TO.C,MX12*%
X116363750Y-187325000D03*
D13*
X121443750Y-187325000D03*
D14*
X126523750Y-187325000D03*
%TD*%
%TO.C,MX42*%
X226218750Y-154305000D03*
D13*
X226218750Y-149225000D03*
D14*
X226218750Y-144145000D03*
%TD*%
%TO.C,MX29*%
X183038750Y-149225000D03*
D13*
X188118750Y-149225000D03*
D14*
X193198750Y-149225000D03*
%TD*%
%TO.C,MX35*%
X206851250Y-73025000D03*
D13*
X211931250Y-73025000D03*
D14*
X217011250Y-73025000D03*
%TD*%
%TO.C,MX22*%
X159226250Y-130175000D03*
D13*
X164306250Y-130175000D03*
D14*
X169386250Y-130175000D03*
%TD*%
%TO.C,MX1*%
X83026250Y-73025000D03*
D13*
X88106250Y-73025000D03*
D14*
X93186250Y-73025000D03*
%TD*%
%TO.C,MX5*%
X83026250Y-168275000D03*
D13*
X88106250Y-168275000D03*
D14*
X93186250Y-168275000D03*
%TD*%
%TO.C,MX9*%
X116363750Y-130175000D03*
D13*
X121443750Y-130175000D03*
D14*
X126523750Y-130175000D03*
%TD*%
%TO.C,MX10*%
X113982500Y-149225000D03*
D13*
X119062500Y-149225000D03*
D14*
X124142500Y-149225000D03*
%TD*%
%TO.C,MX38*%
X202733750Y-188125000D03*
D13*
X207813750Y-188125000D03*
D14*
X212893750Y-188125000D03*
%TD*%
%TO.C,MX27*%
X168751250Y-111125000D03*
D13*
X173831250Y-111125000D03*
D14*
X178911250Y-111125000D03*
%TD*%
%TO.C,MX18*%
X144938750Y-149225000D03*
D13*
X150018750Y-149225000D03*
D14*
X155098750Y-149225000D03*
%TD*%
%TO.C,MX3*%
X83026250Y-130175000D03*
D13*
X88106250Y-130175000D03*
D14*
X93186250Y-130175000D03*
%TD*%
%TO.C,MX25*%
X154463750Y-187325000D03*
D13*
X159543750Y-187325000D03*
D14*
X164623750Y-187325000D03*
%TD*%
%TO.C,MX2*%
X83026250Y-111125000D03*
D13*
X88106250Y-111125000D03*
D14*
X93186250Y-111125000D03*
%TD*%
%TO.C,MX28*%
X178276250Y-130175000D03*
D13*
X183356250Y-130175000D03*
D14*
X188436250Y-130175000D03*
%TD*%
D13*
%TO.C,S1*%
X116681250Y-176530000D03*
X140493750Y-176530000D03*
%TD*%
D14*
%TO.C,MX41*%
X221456250Y-135255000D03*
D13*
X221456250Y-130175000D03*
D14*
X221456250Y-125095000D03*
%TD*%
%TO.C,MX7*%
X121126250Y-73025000D03*
D13*
X126206250Y-73025000D03*
D14*
X131286250Y-73025000D03*
%TD*%
%TO.C,MX13*%
X118745000Y-149225000D03*
D13*
X123825000Y-149225000D03*
D14*
X128905000Y-149225000D03*
%TD*%
%TO.C,MX33*%
X202088750Y-149225000D03*
D13*
X207168750Y-149225000D03*
D14*
X212248750Y-149225000D03*
%TD*%
%TO.C,MX32*%
X197326250Y-130175000D03*
D13*
X202406250Y-130175000D03*
D14*
X207486250Y-130175000D03*
%TD*%
%TO.C,MX16*%
X130651250Y-111125000D03*
D13*
X135731250Y-111125000D03*
D14*
X140811250Y-111125000D03*
%TD*%
%TO.C,MX6*%
X83026250Y-187325000D03*
D13*
X88106250Y-187325000D03*
D14*
X93186250Y-187325000D03*
%TD*%
%TO.C,MX43*%
X235743750Y-173355000D03*
D13*
X235743750Y-168275000D03*
D14*
X235743750Y-163195000D03*
%TD*%
%TO.C,MX34*%
X192563750Y-168275000D03*
D13*
X197643750Y-168275000D03*
D14*
X202723750Y-168275000D03*
%TD*%
%TO.C,MX11*%
X113982500Y-168275000D03*
D13*
X119062500Y-168275000D03*
D14*
X124142500Y-168275000D03*
%TD*%
%TO.C,MX14*%
X123507500Y-168275000D03*
D13*
X128587500Y-168275000D03*
D14*
X133667500Y-168275000D03*
%TD*%
%TO.C,MX39*%
X230981250Y-78105000D03*
D13*
X230981250Y-73025000D03*
D14*
X230981250Y-67945000D03*
%TD*%
%TO.C,MX37*%
X211613750Y-168275000D03*
D13*
X216693750Y-168275000D03*
D14*
X221773750Y-168275000D03*
%TD*%
%TO.C,MX17*%
X140176250Y-130175000D03*
D13*
X145256250Y-130175000D03*
D14*
X150336250Y-130175000D03*
%TD*%
%TO.C,MX31*%
X187801250Y-111125000D03*
D13*
X192881250Y-111125000D03*
D14*
X197961250Y-111125000D03*
%TD*%
%TO.C,MX30*%
X173513750Y-168275000D03*
D13*
X178593750Y-168275000D03*
D14*
X183673750Y-168275000D03*
%TD*%
%TO.C,MX23*%
X163988750Y-149225000D03*
D13*
X169068750Y-149225000D03*
D14*
X174148750Y-149225000D03*
%TD*%
%TO.C,MX8*%
X111601250Y-111125000D03*
D13*
X116681250Y-111125000D03*
D14*
X121761250Y-111125000D03*
%TD*%
%TO.C,MX26*%
X178276250Y-73025000D03*
D13*
X183356250Y-73025000D03*
D14*
X188436250Y-73025000D03*
%TD*%
%TO.C,MX21*%
X149701250Y-111125000D03*
D13*
X154781250Y-111125000D03*
D14*
X159861250Y-111125000D03*
%TD*%
D15*
%TO.C,J2*%
X96192957Y-56336833D03*
X98451383Y-61657351D03*
D16*
X95146344Y-55227598D03*
D17*
X98994055Y-53594342D03*
X102369972Y-61547504D03*
D16*
X98522261Y-63180760D03*
%TD*%
D11*
%TO.C,R11*%
X136525000Y-154305000D03*
D18*
X136525000Y-144145000D03*
%TD*%
D19*
%TO.C,J1*%
X97525000Y-106400000D03*
D20*
X100065000Y-106400000D03*
X102605000Y-106400000D03*
X105145000Y-106400000D03*
X107685000Y-106400000D03*
%TD*%
D21*
%TO.C,J3*%
X142256650Y-55155000D03*
X135256750Y-55155000D03*
D22*
X137656750Y-52755000D03*
X140656750Y-52755000D03*
X132656750Y-57555000D03*
X133656750Y-52755000D03*
%TD*%
D19*
%TO.C,BOOT1*%
X126206250Y-108262500D03*
D20*
X126206250Y-110802500D03*
%TD*%
M02*
