%TF.GenerationSoftware,KiCad,Pcbnew,8.0.2*%
%TF.CreationDate,2024-11-08T18:32:23-08:00*%
%TF.ProjectId,gh80-5000-left,67683830-2d35-4303-9030-2d6c6566742e,rev?*%
%TF.SameCoordinates,Original*%
%TF.FileFunction,Legend,Top*%
%TF.FilePolarity,Positive*%
%FSLAX46Y46*%
G04 Gerber Fmt 4.6, Leading zero omitted, Abs format (unit mm)*
G04 Created by KiCad (PCBNEW 8.0.2) date 2024-11-08 18:32:23*
%MOMM*%
%LPD*%
G01*
G04 APERTURE LIST*
G04 Aperture macros list*
%AMHorizOval*
0 Thick line with rounded ends*
0 $1 width*
0 $2 $3 position (X,Y) of the first rounded end (center of the circle)*
0 $4 $5 position (X,Y) of the second rounded end (center of the circle)*
0 Add line between two ends*
20,1,$1,$2,$3,$4,$5,0*
0 Add two circle primitives to create the rounded ends*
1,1,$1,$2,$3*
1,1,$1,$4,$5*%
G04 Aperture macros list end*
%ADD10C,0.150000*%
%ADD11C,0.125000*%
%ADD12C,0.200000*%
%ADD13C,2.900000*%
%ADD14C,1.600000*%
%ADD15C,3.048000*%
%ADD16C,3.987800*%
%ADD17C,1.750000*%
%ADD18C,0.650000*%
%ADD19HorizOval,1.000000X-0.506278X-0.214902X0.506278X0.214902X0*%
%ADD20HorizOval,1.000000X-0.276151X-0.117219X0.276151X0.117219X0*%
%ADD21O,1.600000X1.600000*%
%ADD22R,1.700000X1.700000*%
%ADD23O,1.700000X1.700000*%
%ADD24C,1.200000*%
%ADD25O,2.100000X1.100000*%
G04 APERTURE END LIST*
D10*
X216422493Y-61469819D02*
X216422493Y-62184104D01*
X216422493Y-62184104D02*
X216374874Y-62326961D01*
X216374874Y-62326961D02*
X216279636Y-62422200D01*
X216279636Y-62422200D02*
X216136779Y-62469819D01*
X216136779Y-62469819D02*
X216041541Y-62469819D01*
X217374874Y-62469819D02*
X216898684Y-62469819D01*
X216898684Y-62469819D02*
X216898684Y-61469819D01*
X218279636Y-62374580D02*
X218232017Y-62422200D01*
X218232017Y-62422200D02*
X218089160Y-62469819D01*
X218089160Y-62469819D02*
X217993922Y-62469819D01*
X217993922Y-62469819D02*
X217851065Y-62422200D01*
X217851065Y-62422200D02*
X217755827Y-62326961D01*
X217755827Y-62326961D02*
X217708208Y-62231723D01*
X217708208Y-62231723D02*
X217660589Y-62041247D01*
X217660589Y-62041247D02*
X217660589Y-61898390D01*
X217660589Y-61898390D02*
X217708208Y-61707914D01*
X217708208Y-61707914D02*
X217755827Y-61612676D01*
X217755827Y-61612676D02*
X217851065Y-61517438D01*
X217851065Y-61517438D02*
X217993922Y-61469819D01*
X217993922Y-61469819D02*
X218089160Y-61469819D01*
X218089160Y-61469819D02*
X218232017Y-61517438D01*
X218232017Y-61517438D02*
X218279636Y-61565057D01*
X218993922Y-61469819D02*
X218993922Y-62184104D01*
X218993922Y-62184104D02*
X218946303Y-62326961D01*
X218946303Y-62326961D02*
X218851065Y-62422200D01*
X218851065Y-62422200D02*
X218708208Y-62469819D01*
X218708208Y-62469819D02*
X218612970Y-62469819D01*
X219946303Y-62469819D02*
X219470113Y-62469819D01*
X219470113Y-62469819D02*
X219470113Y-61469819D01*
X220851065Y-62374580D02*
X220803446Y-62422200D01*
X220803446Y-62422200D02*
X220660589Y-62469819D01*
X220660589Y-62469819D02*
X220565351Y-62469819D01*
X220565351Y-62469819D02*
X220422494Y-62422200D01*
X220422494Y-62422200D02*
X220327256Y-62326961D01*
X220327256Y-62326961D02*
X220279637Y-62231723D01*
X220279637Y-62231723D02*
X220232018Y-62041247D01*
X220232018Y-62041247D02*
X220232018Y-61898390D01*
X220232018Y-61898390D02*
X220279637Y-61707914D01*
X220279637Y-61707914D02*
X220327256Y-61612676D01*
X220327256Y-61612676D02*
X220422494Y-61517438D01*
X220422494Y-61517438D02*
X220565351Y-61469819D01*
X220565351Y-61469819D02*
X220660589Y-61469819D01*
X220660589Y-61469819D02*
X220803446Y-61517438D01*
X220803446Y-61517438D02*
X220851065Y-61565057D01*
X221565351Y-61469819D02*
X221565351Y-62184104D01*
X221565351Y-62184104D02*
X221517732Y-62326961D01*
X221517732Y-62326961D02*
X221422494Y-62422200D01*
X221422494Y-62422200D02*
X221279637Y-62469819D01*
X221279637Y-62469819D02*
X221184399Y-62469819D01*
X222517732Y-62469819D02*
X222041542Y-62469819D01*
X222041542Y-62469819D02*
X222041542Y-61469819D01*
X223422494Y-62374580D02*
X223374875Y-62422200D01*
X223374875Y-62422200D02*
X223232018Y-62469819D01*
X223232018Y-62469819D02*
X223136780Y-62469819D01*
X223136780Y-62469819D02*
X222993923Y-62422200D01*
X222993923Y-62422200D02*
X222898685Y-62326961D01*
X222898685Y-62326961D02*
X222851066Y-62231723D01*
X222851066Y-62231723D02*
X222803447Y-62041247D01*
X222803447Y-62041247D02*
X222803447Y-61898390D01*
X222803447Y-61898390D02*
X222851066Y-61707914D01*
X222851066Y-61707914D02*
X222898685Y-61612676D01*
X222898685Y-61612676D02*
X222993923Y-61517438D01*
X222993923Y-61517438D02*
X223136780Y-61469819D01*
X223136780Y-61469819D02*
X223232018Y-61469819D01*
X223232018Y-61469819D02*
X223374875Y-61517438D01*
X223374875Y-61517438D02*
X223422494Y-61565057D01*
X224136780Y-61469819D02*
X224136780Y-62184104D01*
X224136780Y-62184104D02*
X224089161Y-62326961D01*
X224089161Y-62326961D02*
X223993923Y-62422200D01*
X223993923Y-62422200D02*
X223851066Y-62469819D01*
X223851066Y-62469819D02*
X223755828Y-62469819D01*
X225089161Y-62469819D02*
X224612971Y-62469819D01*
X224612971Y-62469819D02*
X224612971Y-61469819D01*
X225993923Y-62374580D02*
X225946304Y-62422200D01*
X225946304Y-62422200D02*
X225803447Y-62469819D01*
X225803447Y-62469819D02*
X225708209Y-62469819D01*
X225708209Y-62469819D02*
X225565352Y-62422200D01*
X225565352Y-62422200D02*
X225470114Y-62326961D01*
X225470114Y-62326961D02*
X225422495Y-62231723D01*
X225422495Y-62231723D02*
X225374876Y-62041247D01*
X225374876Y-62041247D02*
X225374876Y-61898390D01*
X225374876Y-61898390D02*
X225422495Y-61707914D01*
X225422495Y-61707914D02*
X225470114Y-61612676D01*
X225470114Y-61612676D02*
X225565352Y-61517438D01*
X225565352Y-61517438D02*
X225708209Y-61469819D01*
X225708209Y-61469819D02*
X225803447Y-61469819D01*
X225803447Y-61469819D02*
X225946304Y-61517438D01*
X225946304Y-61517438D02*
X225993923Y-61565057D01*
X103122200Y-110710839D02*
X103169819Y-110567982D01*
X103169819Y-110567982D02*
X103169819Y-110329887D01*
X103169819Y-110329887D02*
X103122200Y-110234649D01*
X103122200Y-110234649D02*
X103074580Y-110187030D01*
X103074580Y-110187030D02*
X102979342Y-110139411D01*
X102979342Y-110139411D02*
X102884104Y-110139411D01*
X102884104Y-110139411D02*
X102788866Y-110187030D01*
X102788866Y-110187030D02*
X102741247Y-110234649D01*
X102741247Y-110234649D02*
X102693628Y-110329887D01*
X102693628Y-110329887D02*
X102646009Y-110520363D01*
X102646009Y-110520363D02*
X102598390Y-110615601D01*
X102598390Y-110615601D02*
X102550771Y-110663220D01*
X102550771Y-110663220D02*
X102455533Y-110710839D01*
X102455533Y-110710839D02*
X102360295Y-110710839D01*
X102360295Y-110710839D02*
X102265057Y-110663220D01*
X102265057Y-110663220D02*
X102217438Y-110615601D01*
X102217438Y-110615601D02*
X102169819Y-110520363D01*
X102169819Y-110520363D02*
X102169819Y-110282268D01*
X102169819Y-110282268D02*
X102217438Y-110139411D01*
X102169819Y-109806077D02*
X103169819Y-109567982D01*
X103169819Y-109567982D02*
X102455533Y-109377506D01*
X102455533Y-109377506D02*
X103169819Y-109187030D01*
X103169819Y-109187030D02*
X102169819Y-108948935D01*
X103169819Y-108567982D02*
X102169819Y-108567982D01*
X102169819Y-108567982D02*
X102169819Y-108329887D01*
X102169819Y-108329887D02*
X102217438Y-108187030D01*
X102217438Y-108187030D02*
X102312676Y-108091792D01*
X102312676Y-108091792D02*
X102407914Y-108044173D01*
X102407914Y-108044173D02*
X102598390Y-107996554D01*
X102598390Y-107996554D02*
X102741247Y-107996554D01*
X102741247Y-107996554D02*
X102931723Y-108044173D01*
X102931723Y-108044173D02*
X103026961Y-108091792D01*
X103026961Y-108091792D02*
X103122200Y-108187030D01*
X103122200Y-108187030D02*
X103169819Y-108329887D01*
X103169819Y-108329887D02*
X103169819Y-108567982D01*
X100569819Y-111191792D02*
X100093628Y-111525125D01*
X100569819Y-111763220D02*
X99569819Y-111763220D01*
X99569819Y-111763220D02*
X99569819Y-111382268D01*
X99569819Y-111382268D02*
X99617438Y-111287030D01*
X99617438Y-111287030D02*
X99665057Y-111239411D01*
X99665057Y-111239411D02*
X99760295Y-111191792D01*
X99760295Y-111191792D02*
X99903152Y-111191792D01*
X99903152Y-111191792D02*
X99998390Y-111239411D01*
X99998390Y-111239411D02*
X100046009Y-111287030D01*
X100046009Y-111287030D02*
X100093628Y-111382268D01*
X100093628Y-111382268D02*
X100093628Y-111763220D01*
X100522200Y-110382268D02*
X100569819Y-110477506D01*
X100569819Y-110477506D02*
X100569819Y-110667982D01*
X100569819Y-110667982D02*
X100522200Y-110763220D01*
X100522200Y-110763220D02*
X100426961Y-110810839D01*
X100426961Y-110810839D02*
X100046009Y-110810839D01*
X100046009Y-110810839D02*
X99950771Y-110763220D01*
X99950771Y-110763220D02*
X99903152Y-110667982D01*
X99903152Y-110667982D02*
X99903152Y-110477506D01*
X99903152Y-110477506D02*
X99950771Y-110382268D01*
X99950771Y-110382268D02*
X100046009Y-110334649D01*
X100046009Y-110334649D02*
X100141247Y-110334649D01*
X100141247Y-110334649D02*
X100236485Y-110810839D01*
X100522200Y-109953696D02*
X100569819Y-109858458D01*
X100569819Y-109858458D02*
X100569819Y-109667982D01*
X100569819Y-109667982D02*
X100522200Y-109572744D01*
X100522200Y-109572744D02*
X100426961Y-109525125D01*
X100426961Y-109525125D02*
X100379342Y-109525125D01*
X100379342Y-109525125D02*
X100284104Y-109572744D01*
X100284104Y-109572744D02*
X100236485Y-109667982D01*
X100236485Y-109667982D02*
X100236485Y-109810839D01*
X100236485Y-109810839D02*
X100188866Y-109906077D01*
X100188866Y-109906077D02*
X100093628Y-109953696D01*
X100093628Y-109953696D02*
X100046009Y-109953696D01*
X100046009Y-109953696D02*
X99950771Y-109906077D01*
X99950771Y-109906077D02*
X99903152Y-109810839D01*
X99903152Y-109810839D02*
X99903152Y-109667982D01*
X99903152Y-109667982D02*
X99950771Y-109572744D01*
X100522200Y-108715601D02*
X100569819Y-108810839D01*
X100569819Y-108810839D02*
X100569819Y-109001315D01*
X100569819Y-109001315D02*
X100522200Y-109096553D01*
X100522200Y-109096553D02*
X100426961Y-109144172D01*
X100426961Y-109144172D02*
X100046009Y-109144172D01*
X100046009Y-109144172D02*
X99950771Y-109096553D01*
X99950771Y-109096553D02*
X99903152Y-109001315D01*
X99903152Y-109001315D02*
X99903152Y-108810839D01*
X99903152Y-108810839D02*
X99950771Y-108715601D01*
X99950771Y-108715601D02*
X100046009Y-108667982D01*
X100046009Y-108667982D02*
X100141247Y-108667982D01*
X100141247Y-108667982D02*
X100236485Y-109144172D01*
X99903152Y-108382267D02*
X99903152Y-108001315D01*
X99569819Y-108239410D02*
X100426961Y-108239410D01*
X100426961Y-108239410D02*
X100522200Y-108191791D01*
X100522200Y-108191791D02*
X100569819Y-108096553D01*
X100569819Y-108096553D02*
X100569819Y-108001315D01*
D11*
X132504761Y-58961175D02*
X133076189Y-58961175D01*
X132790475Y-59961175D02*
X132790475Y-58961175D01*
X133980951Y-59961175D02*
X133647618Y-59484984D01*
X133409523Y-59961175D02*
X133409523Y-58961175D01*
X133409523Y-58961175D02*
X133790475Y-58961175D01*
X133790475Y-58961175D02*
X133885713Y-59008794D01*
X133885713Y-59008794D02*
X133933332Y-59056413D01*
X133933332Y-59056413D02*
X133980951Y-59151651D01*
X133980951Y-59151651D02*
X133980951Y-59294508D01*
X133980951Y-59294508D02*
X133933332Y-59389746D01*
X133933332Y-59389746D02*
X133885713Y-59437365D01*
X133885713Y-59437365D02*
X133790475Y-59484984D01*
X133790475Y-59484984D02*
X133409523Y-59484984D01*
X134980951Y-59961175D02*
X134647618Y-59484984D01*
X134409523Y-59961175D02*
X134409523Y-58961175D01*
X134409523Y-58961175D02*
X134790475Y-58961175D01*
X134790475Y-58961175D02*
X134885713Y-59008794D01*
X134885713Y-59008794D02*
X134933332Y-59056413D01*
X134933332Y-59056413D02*
X134980951Y-59151651D01*
X134980951Y-59151651D02*
X134980951Y-59294508D01*
X134980951Y-59294508D02*
X134933332Y-59389746D01*
X134933332Y-59389746D02*
X134885713Y-59437365D01*
X134885713Y-59437365D02*
X134790475Y-59484984D01*
X134790475Y-59484984D02*
X134409523Y-59484984D01*
X135361904Y-59913556D02*
X135504761Y-59961175D01*
X135504761Y-59961175D02*
X135742856Y-59961175D01*
X135742856Y-59961175D02*
X135838094Y-59913556D01*
X135838094Y-59913556D02*
X135885713Y-59865936D01*
X135885713Y-59865936D02*
X135933332Y-59770698D01*
X135933332Y-59770698D02*
X135933332Y-59675460D01*
X135933332Y-59675460D02*
X135885713Y-59580222D01*
X135885713Y-59580222D02*
X135838094Y-59532603D01*
X135838094Y-59532603D02*
X135742856Y-59484984D01*
X135742856Y-59484984D02*
X135552380Y-59437365D01*
X135552380Y-59437365D02*
X135457142Y-59389746D01*
X135457142Y-59389746D02*
X135409523Y-59342127D01*
X135409523Y-59342127D02*
X135361904Y-59246889D01*
X135361904Y-59246889D02*
X135361904Y-59151651D01*
X135361904Y-59151651D02*
X135409523Y-59056413D01*
X135409523Y-59056413D02*
X135457142Y-59008794D01*
X135457142Y-59008794D02*
X135552380Y-58961175D01*
X135552380Y-58961175D02*
X135790475Y-58961175D01*
X135790475Y-58961175D02*
X135933332Y-59008794D01*
X136980952Y-58961175D02*
X137552380Y-58961175D01*
X137266666Y-59961175D02*
X137266666Y-58961175D01*
X138076190Y-58961175D02*
X138266666Y-58961175D01*
X138266666Y-58961175D02*
X138361904Y-59008794D01*
X138361904Y-59008794D02*
X138457142Y-59104032D01*
X138457142Y-59104032D02*
X138504761Y-59294508D01*
X138504761Y-59294508D02*
X138504761Y-59627841D01*
X138504761Y-59627841D02*
X138457142Y-59818317D01*
X138457142Y-59818317D02*
X138361904Y-59913556D01*
X138361904Y-59913556D02*
X138266666Y-59961175D01*
X138266666Y-59961175D02*
X138076190Y-59961175D01*
X138076190Y-59961175D02*
X137980952Y-59913556D01*
X137980952Y-59913556D02*
X137885714Y-59818317D01*
X137885714Y-59818317D02*
X137838095Y-59627841D01*
X137838095Y-59627841D02*
X137838095Y-59294508D01*
X137838095Y-59294508D02*
X137885714Y-59104032D01*
X137885714Y-59104032D02*
X137980952Y-59008794D01*
X137980952Y-59008794D02*
X138076190Y-58961175D01*
X140171428Y-59961175D02*
X139695238Y-59961175D01*
X139695238Y-59961175D02*
X139695238Y-58961175D01*
X140504762Y-59437365D02*
X140838095Y-59437365D01*
X140980952Y-59961175D02*
X140504762Y-59961175D01*
X140504762Y-59961175D02*
X140504762Y-58961175D01*
X140504762Y-58961175D02*
X140980952Y-58961175D01*
X141742857Y-59437365D02*
X141409524Y-59437365D01*
X141409524Y-59961175D02*
X141409524Y-58961175D01*
X141409524Y-58961175D02*
X141885714Y-58961175D01*
X142123810Y-58961175D02*
X142695238Y-58961175D01*
X142409524Y-59961175D02*
X142409524Y-58961175D01*
X131219047Y-61571119D02*
X131219047Y-60571119D01*
X131219047Y-60571119D02*
X131457142Y-60571119D01*
X131457142Y-60571119D02*
X131599999Y-60618738D01*
X131599999Y-60618738D02*
X131695237Y-60713976D01*
X131695237Y-60713976D02*
X131742856Y-60809214D01*
X131742856Y-60809214D02*
X131790475Y-60999690D01*
X131790475Y-60999690D02*
X131790475Y-61142547D01*
X131790475Y-61142547D02*
X131742856Y-61333023D01*
X131742856Y-61333023D02*
X131695237Y-61428261D01*
X131695237Y-61428261D02*
X131599999Y-61523500D01*
X131599999Y-61523500D02*
X131457142Y-61571119D01*
X131457142Y-61571119D02*
X131219047Y-61571119D01*
X132409523Y-60571119D02*
X132599999Y-60571119D01*
X132599999Y-60571119D02*
X132695237Y-60618738D01*
X132695237Y-60618738D02*
X132790475Y-60713976D01*
X132790475Y-60713976D02*
X132838094Y-60904452D01*
X132838094Y-60904452D02*
X132838094Y-61237785D01*
X132838094Y-61237785D02*
X132790475Y-61428261D01*
X132790475Y-61428261D02*
X132695237Y-61523500D01*
X132695237Y-61523500D02*
X132599999Y-61571119D01*
X132599999Y-61571119D02*
X132409523Y-61571119D01*
X132409523Y-61571119D02*
X132314285Y-61523500D01*
X132314285Y-61523500D02*
X132219047Y-61428261D01*
X132219047Y-61428261D02*
X132171428Y-61237785D01*
X132171428Y-61237785D02*
X132171428Y-60904452D01*
X132171428Y-60904452D02*
X132219047Y-60713976D01*
X132219047Y-60713976D02*
X132314285Y-60618738D01*
X132314285Y-60618738D02*
X132409523Y-60571119D01*
X134028571Y-61571119D02*
X134028571Y-60571119D01*
X134028571Y-60571119D02*
X134599999Y-61571119D01*
X134599999Y-61571119D02*
X134599999Y-60571119D01*
X135266666Y-60571119D02*
X135457142Y-60571119D01*
X135457142Y-60571119D02*
X135552380Y-60618738D01*
X135552380Y-60618738D02*
X135647618Y-60713976D01*
X135647618Y-60713976D02*
X135695237Y-60904452D01*
X135695237Y-60904452D02*
X135695237Y-61237785D01*
X135695237Y-61237785D02*
X135647618Y-61428261D01*
X135647618Y-61428261D02*
X135552380Y-61523500D01*
X135552380Y-61523500D02*
X135457142Y-61571119D01*
X135457142Y-61571119D02*
X135266666Y-61571119D01*
X135266666Y-61571119D02*
X135171428Y-61523500D01*
X135171428Y-61523500D02*
X135076190Y-61428261D01*
X135076190Y-61428261D02*
X135028571Y-61237785D01*
X135028571Y-61237785D02*
X135028571Y-60904452D01*
X135028571Y-60904452D02*
X135076190Y-60713976D01*
X135076190Y-60713976D02*
X135171428Y-60618738D01*
X135171428Y-60618738D02*
X135266666Y-60571119D01*
X135980952Y-60571119D02*
X136552380Y-60571119D01*
X136266666Y-61571119D02*
X136266666Y-60571119D01*
X137647619Y-61571119D02*
X137647619Y-60571119D01*
X137647619Y-61047309D02*
X138219047Y-61047309D01*
X138219047Y-61571119D02*
X138219047Y-60571119D01*
X138885714Y-60571119D02*
X139076190Y-60571119D01*
X139076190Y-60571119D02*
X139171428Y-60618738D01*
X139171428Y-60618738D02*
X139266666Y-60713976D01*
X139266666Y-60713976D02*
X139314285Y-60904452D01*
X139314285Y-60904452D02*
X139314285Y-61237785D01*
X139314285Y-61237785D02*
X139266666Y-61428261D01*
X139266666Y-61428261D02*
X139171428Y-61523500D01*
X139171428Y-61523500D02*
X139076190Y-61571119D01*
X139076190Y-61571119D02*
X138885714Y-61571119D01*
X138885714Y-61571119D02*
X138790476Y-61523500D01*
X138790476Y-61523500D02*
X138695238Y-61428261D01*
X138695238Y-61428261D02*
X138647619Y-61237785D01*
X138647619Y-61237785D02*
X138647619Y-60904452D01*
X138647619Y-60904452D02*
X138695238Y-60713976D01*
X138695238Y-60713976D02*
X138790476Y-60618738D01*
X138790476Y-60618738D02*
X138885714Y-60571119D01*
X139600000Y-60571119D02*
X140171428Y-60571119D01*
X139885714Y-61571119D02*
X139885714Y-60571119D01*
X140457143Y-61523500D02*
X140600000Y-61571119D01*
X140600000Y-61571119D02*
X140838095Y-61571119D01*
X140838095Y-61571119D02*
X140933333Y-61523500D01*
X140933333Y-61523500D02*
X140980952Y-61475880D01*
X140980952Y-61475880D02*
X141028571Y-61380642D01*
X141028571Y-61380642D02*
X141028571Y-61285404D01*
X141028571Y-61285404D02*
X140980952Y-61190166D01*
X140980952Y-61190166D02*
X140933333Y-61142547D01*
X140933333Y-61142547D02*
X140838095Y-61094928D01*
X140838095Y-61094928D02*
X140647619Y-61047309D01*
X140647619Y-61047309D02*
X140552381Y-60999690D01*
X140552381Y-60999690D02*
X140504762Y-60952071D01*
X140504762Y-60952071D02*
X140457143Y-60856833D01*
X140457143Y-60856833D02*
X140457143Y-60761595D01*
X140457143Y-60761595D02*
X140504762Y-60666357D01*
X140504762Y-60666357D02*
X140552381Y-60618738D01*
X140552381Y-60618738D02*
X140647619Y-60571119D01*
X140647619Y-60571119D02*
X140885714Y-60571119D01*
X140885714Y-60571119D02*
X141028571Y-60618738D01*
X141361905Y-60571119D02*
X141600000Y-61571119D01*
X141600000Y-61571119D02*
X141790476Y-60856833D01*
X141790476Y-60856833D02*
X141980952Y-61571119D01*
X141980952Y-61571119D02*
X142219048Y-60571119D01*
X142552381Y-61285404D02*
X143028571Y-61285404D01*
X142457143Y-61571119D02*
X142790476Y-60571119D01*
X142790476Y-60571119D02*
X143123809Y-61571119D01*
X143457143Y-61571119D02*
X143457143Y-60571119D01*
X143457143Y-60571119D02*
X143838095Y-60571119D01*
X143838095Y-60571119D02*
X143933333Y-60618738D01*
X143933333Y-60618738D02*
X143980952Y-60666357D01*
X143980952Y-60666357D02*
X144028571Y-60761595D01*
X144028571Y-60761595D02*
X144028571Y-60904452D01*
X144028571Y-60904452D02*
X143980952Y-60999690D01*
X143980952Y-60999690D02*
X143933333Y-61047309D01*
X143933333Y-61047309D02*
X143838095Y-61094928D01*
X143838095Y-61094928D02*
X143457143Y-61094928D01*
D10*
X105622200Y-110710839D02*
X105669819Y-110567982D01*
X105669819Y-110567982D02*
X105669819Y-110329887D01*
X105669819Y-110329887D02*
X105622200Y-110234649D01*
X105622200Y-110234649D02*
X105574580Y-110187030D01*
X105574580Y-110187030D02*
X105479342Y-110139411D01*
X105479342Y-110139411D02*
X105384104Y-110139411D01*
X105384104Y-110139411D02*
X105288866Y-110187030D01*
X105288866Y-110187030D02*
X105241247Y-110234649D01*
X105241247Y-110234649D02*
X105193628Y-110329887D01*
X105193628Y-110329887D02*
X105146009Y-110520363D01*
X105146009Y-110520363D02*
X105098390Y-110615601D01*
X105098390Y-110615601D02*
X105050771Y-110663220D01*
X105050771Y-110663220D02*
X104955533Y-110710839D01*
X104955533Y-110710839D02*
X104860295Y-110710839D01*
X104860295Y-110710839D02*
X104765057Y-110663220D01*
X104765057Y-110663220D02*
X104717438Y-110615601D01*
X104717438Y-110615601D02*
X104669819Y-110520363D01*
X104669819Y-110520363D02*
X104669819Y-110282268D01*
X104669819Y-110282268D02*
X104717438Y-110139411D01*
X104669819Y-109806077D02*
X105669819Y-109567982D01*
X105669819Y-109567982D02*
X104955533Y-109377506D01*
X104955533Y-109377506D02*
X105669819Y-109187030D01*
X105669819Y-109187030D02*
X104669819Y-108948935D01*
X105574580Y-107996554D02*
X105622200Y-108044173D01*
X105622200Y-108044173D02*
X105669819Y-108187030D01*
X105669819Y-108187030D02*
X105669819Y-108282268D01*
X105669819Y-108282268D02*
X105622200Y-108425125D01*
X105622200Y-108425125D02*
X105526961Y-108520363D01*
X105526961Y-108520363D02*
X105431723Y-108567982D01*
X105431723Y-108567982D02*
X105241247Y-108615601D01*
X105241247Y-108615601D02*
X105098390Y-108615601D01*
X105098390Y-108615601D02*
X104907914Y-108567982D01*
X104907914Y-108567982D02*
X104812676Y-108520363D01*
X104812676Y-108520363D02*
X104717438Y-108425125D01*
X104717438Y-108425125D02*
X104669819Y-108282268D01*
X104669819Y-108282268D02*
X104669819Y-108187030D01*
X104669819Y-108187030D02*
X104717438Y-108044173D01*
X104717438Y-108044173D02*
X104765057Y-107996554D01*
X125070112Y-113346009D02*
X125212969Y-113393628D01*
X125212969Y-113393628D02*
X125260588Y-113441247D01*
X125260588Y-113441247D02*
X125308207Y-113536485D01*
X125308207Y-113536485D02*
X125308207Y-113679342D01*
X125308207Y-113679342D02*
X125260588Y-113774580D01*
X125260588Y-113774580D02*
X125212969Y-113822200D01*
X125212969Y-113822200D02*
X125117731Y-113869819D01*
X125117731Y-113869819D02*
X124736779Y-113869819D01*
X124736779Y-113869819D02*
X124736779Y-112869819D01*
X124736779Y-112869819D02*
X125070112Y-112869819D01*
X125070112Y-112869819D02*
X125165350Y-112917438D01*
X125165350Y-112917438D02*
X125212969Y-112965057D01*
X125212969Y-112965057D02*
X125260588Y-113060295D01*
X125260588Y-113060295D02*
X125260588Y-113155533D01*
X125260588Y-113155533D02*
X125212969Y-113250771D01*
X125212969Y-113250771D02*
X125165350Y-113298390D01*
X125165350Y-113298390D02*
X125070112Y-113346009D01*
X125070112Y-113346009D02*
X124736779Y-113346009D01*
X125879636Y-113869819D02*
X125784398Y-113822200D01*
X125784398Y-113822200D02*
X125736779Y-113774580D01*
X125736779Y-113774580D02*
X125689160Y-113679342D01*
X125689160Y-113679342D02*
X125689160Y-113393628D01*
X125689160Y-113393628D02*
X125736779Y-113298390D01*
X125736779Y-113298390D02*
X125784398Y-113250771D01*
X125784398Y-113250771D02*
X125879636Y-113203152D01*
X125879636Y-113203152D02*
X126022493Y-113203152D01*
X126022493Y-113203152D02*
X126117731Y-113250771D01*
X126117731Y-113250771D02*
X126165350Y-113298390D01*
X126165350Y-113298390D02*
X126212969Y-113393628D01*
X126212969Y-113393628D02*
X126212969Y-113679342D01*
X126212969Y-113679342D02*
X126165350Y-113774580D01*
X126165350Y-113774580D02*
X126117731Y-113822200D01*
X126117731Y-113822200D02*
X126022493Y-113869819D01*
X126022493Y-113869819D02*
X125879636Y-113869819D01*
X126784398Y-113869819D02*
X126689160Y-113822200D01*
X126689160Y-113822200D02*
X126641541Y-113774580D01*
X126641541Y-113774580D02*
X126593922Y-113679342D01*
X126593922Y-113679342D02*
X126593922Y-113393628D01*
X126593922Y-113393628D02*
X126641541Y-113298390D01*
X126641541Y-113298390D02*
X126689160Y-113250771D01*
X126689160Y-113250771D02*
X126784398Y-113203152D01*
X126784398Y-113203152D02*
X126927255Y-113203152D01*
X126927255Y-113203152D02*
X127022493Y-113250771D01*
X127022493Y-113250771D02*
X127070112Y-113298390D01*
X127070112Y-113298390D02*
X127117731Y-113393628D01*
X127117731Y-113393628D02*
X127117731Y-113679342D01*
X127117731Y-113679342D02*
X127070112Y-113774580D01*
X127070112Y-113774580D02*
X127022493Y-113822200D01*
X127022493Y-113822200D02*
X126927255Y-113869819D01*
X126927255Y-113869819D02*
X126784398Y-113869819D01*
X127403446Y-113203152D02*
X127784398Y-113203152D01*
X127546303Y-112869819D02*
X127546303Y-113726961D01*
X127546303Y-113726961D02*
X127593922Y-113822200D01*
X127593922Y-113822200D02*
X127689160Y-113869819D01*
X127689160Y-113869819D02*
X127784398Y-113869819D01*
X107169819Y-110458458D02*
X107169819Y-109839411D01*
X107169819Y-109839411D02*
X107550771Y-110172744D01*
X107550771Y-110172744D02*
X107550771Y-110029887D01*
X107550771Y-110029887D02*
X107598390Y-109934649D01*
X107598390Y-109934649D02*
X107646009Y-109887030D01*
X107646009Y-109887030D02*
X107741247Y-109839411D01*
X107741247Y-109839411D02*
X107979342Y-109839411D01*
X107979342Y-109839411D02*
X108074580Y-109887030D01*
X108074580Y-109887030D02*
X108122200Y-109934649D01*
X108122200Y-109934649D02*
X108169819Y-110029887D01*
X108169819Y-110029887D02*
X108169819Y-110315601D01*
X108169819Y-110315601D02*
X108122200Y-110410839D01*
X108122200Y-110410839D02*
X108074580Y-110458458D01*
X107169819Y-109553696D02*
X108169819Y-109220363D01*
X108169819Y-109220363D02*
X107169819Y-108887030D01*
X107169819Y-108648934D02*
X107169819Y-108029887D01*
X107169819Y-108029887D02*
X107550771Y-108363220D01*
X107550771Y-108363220D02*
X107550771Y-108220363D01*
X107550771Y-108220363D02*
X107598390Y-108125125D01*
X107598390Y-108125125D02*
X107646009Y-108077506D01*
X107646009Y-108077506D02*
X107741247Y-108029887D01*
X107741247Y-108029887D02*
X107979342Y-108029887D01*
X107979342Y-108029887D02*
X108074580Y-108077506D01*
X108074580Y-108077506D02*
X108122200Y-108125125D01*
X108122200Y-108125125D02*
X108169819Y-108220363D01*
X108169819Y-108220363D02*
X108169819Y-108506077D01*
X108169819Y-108506077D02*
X108122200Y-108601315D01*
X108122200Y-108601315D02*
X108074580Y-108648934D01*
X97017438Y-110139411D02*
X96969819Y-110234649D01*
X96969819Y-110234649D02*
X96969819Y-110377506D01*
X96969819Y-110377506D02*
X97017438Y-110520363D01*
X97017438Y-110520363D02*
X97112676Y-110615601D01*
X97112676Y-110615601D02*
X97207914Y-110663220D01*
X97207914Y-110663220D02*
X97398390Y-110710839D01*
X97398390Y-110710839D02*
X97541247Y-110710839D01*
X97541247Y-110710839D02*
X97731723Y-110663220D01*
X97731723Y-110663220D02*
X97826961Y-110615601D01*
X97826961Y-110615601D02*
X97922200Y-110520363D01*
X97922200Y-110520363D02*
X97969819Y-110377506D01*
X97969819Y-110377506D02*
X97969819Y-110282268D01*
X97969819Y-110282268D02*
X97922200Y-110139411D01*
X97922200Y-110139411D02*
X97874580Y-110091792D01*
X97874580Y-110091792D02*
X97541247Y-110091792D01*
X97541247Y-110091792D02*
X97541247Y-110282268D01*
X97969819Y-109663220D02*
X96969819Y-109663220D01*
X96969819Y-109663220D02*
X97969819Y-109091792D01*
X97969819Y-109091792D02*
X96969819Y-109091792D01*
X97969819Y-108615601D02*
X96969819Y-108615601D01*
X96969819Y-108615601D02*
X96969819Y-108377506D01*
X96969819Y-108377506D02*
X97017438Y-108234649D01*
X97017438Y-108234649D02*
X97112676Y-108139411D01*
X97112676Y-108139411D02*
X97207914Y-108091792D01*
X97207914Y-108091792D02*
X97398390Y-108044173D01*
X97398390Y-108044173D02*
X97541247Y-108044173D01*
X97541247Y-108044173D02*
X97731723Y-108091792D01*
X97731723Y-108091792D02*
X97826961Y-108139411D01*
X97826961Y-108139411D02*
X97922200Y-108234649D01*
X97922200Y-108234649D02*
X97969819Y-108377506D01*
X97969819Y-108377506D02*
X97969819Y-108615601D01*
X138162969Y-80849342D02*
X138848684Y-80849342D01*
X138505826Y-82049342D02*
X138505826Y-80849342D01*
X139420112Y-81363628D02*
X139305827Y-81306485D01*
X139305827Y-81306485D02*
X139248684Y-81249342D01*
X139248684Y-81249342D02*
X139191541Y-81135057D01*
X139191541Y-81135057D02*
X139191541Y-81077914D01*
X139191541Y-81077914D02*
X139248684Y-80963628D01*
X139248684Y-80963628D02*
X139305827Y-80906485D01*
X139305827Y-80906485D02*
X139420112Y-80849342D01*
X139420112Y-80849342D02*
X139648684Y-80849342D01*
X139648684Y-80849342D02*
X139762970Y-80906485D01*
X139762970Y-80906485D02*
X139820112Y-80963628D01*
X139820112Y-80963628D02*
X139877255Y-81077914D01*
X139877255Y-81077914D02*
X139877255Y-81135057D01*
X139877255Y-81135057D02*
X139820112Y-81249342D01*
X139820112Y-81249342D02*
X139762970Y-81306485D01*
X139762970Y-81306485D02*
X139648684Y-81363628D01*
X139648684Y-81363628D02*
X139420112Y-81363628D01*
X139420112Y-81363628D02*
X139305827Y-81420771D01*
X139305827Y-81420771D02*
X139248684Y-81477914D01*
X139248684Y-81477914D02*
X139191541Y-81592200D01*
X139191541Y-81592200D02*
X139191541Y-81820771D01*
X139191541Y-81820771D02*
X139248684Y-81935057D01*
X139248684Y-81935057D02*
X139305827Y-81992200D01*
X139305827Y-81992200D02*
X139420112Y-82049342D01*
X139420112Y-82049342D02*
X139648684Y-82049342D01*
X139648684Y-82049342D02*
X139762970Y-81992200D01*
X139762970Y-81992200D02*
X139820112Y-81935057D01*
X139820112Y-81935057D02*
X139877255Y-81820771D01*
X139877255Y-81820771D02*
X139877255Y-81592200D01*
X139877255Y-81592200D02*
X139820112Y-81477914D01*
X139820112Y-81477914D02*
X139762970Y-81420771D01*
X139762970Y-81420771D02*
X139648684Y-81363628D01*
X140620112Y-80849342D02*
X140734398Y-80849342D01*
X140734398Y-80849342D02*
X140848684Y-80906485D01*
X140848684Y-80906485D02*
X140905827Y-80963628D01*
X140905827Y-80963628D02*
X140962969Y-81077914D01*
X140962969Y-81077914D02*
X141020112Y-81306485D01*
X141020112Y-81306485D02*
X141020112Y-81592200D01*
X141020112Y-81592200D02*
X140962969Y-81820771D01*
X140962969Y-81820771D02*
X140905827Y-81935057D01*
X140905827Y-81935057D02*
X140848684Y-81992200D01*
X140848684Y-81992200D02*
X140734398Y-82049342D01*
X140734398Y-82049342D02*
X140620112Y-82049342D01*
X140620112Y-82049342D02*
X140505827Y-81992200D01*
X140505827Y-81992200D02*
X140448684Y-81935057D01*
X140448684Y-81935057D02*
X140391541Y-81820771D01*
X140391541Y-81820771D02*
X140334398Y-81592200D01*
X140334398Y-81592200D02*
X140334398Y-81306485D01*
X140334398Y-81306485D02*
X140391541Y-81077914D01*
X140391541Y-81077914D02*
X140448684Y-80963628D01*
X140448684Y-80963628D02*
X140505827Y-80906485D01*
X140505827Y-80906485D02*
X140620112Y-80849342D01*
X141534398Y-81592200D02*
X142448684Y-81592200D01*
X143591540Y-80849342D02*
X143020112Y-80849342D01*
X143020112Y-80849342D02*
X142962969Y-81420771D01*
X142962969Y-81420771D02*
X143020112Y-81363628D01*
X143020112Y-81363628D02*
X143134398Y-81306485D01*
X143134398Y-81306485D02*
X143420112Y-81306485D01*
X143420112Y-81306485D02*
X143534398Y-81363628D01*
X143534398Y-81363628D02*
X143591540Y-81420771D01*
X143591540Y-81420771D02*
X143648683Y-81535057D01*
X143648683Y-81535057D02*
X143648683Y-81820771D01*
X143648683Y-81820771D02*
X143591540Y-81935057D01*
X143591540Y-81935057D02*
X143534398Y-81992200D01*
X143534398Y-81992200D02*
X143420112Y-82049342D01*
X143420112Y-82049342D02*
X143134398Y-82049342D01*
X143134398Y-82049342D02*
X143020112Y-81992200D01*
X143020112Y-81992200D02*
X142962969Y-81935057D01*
X144391540Y-80849342D02*
X144505826Y-80849342D01*
X144505826Y-80849342D02*
X144620112Y-80906485D01*
X144620112Y-80906485D02*
X144677255Y-80963628D01*
X144677255Y-80963628D02*
X144734397Y-81077914D01*
X144734397Y-81077914D02*
X144791540Y-81306485D01*
X144791540Y-81306485D02*
X144791540Y-81592200D01*
X144791540Y-81592200D02*
X144734397Y-81820771D01*
X144734397Y-81820771D02*
X144677255Y-81935057D01*
X144677255Y-81935057D02*
X144620112Y-81992200D01*
X144620112Y-81992200D02*
X144505826Y-82049342D01*
X144505826Y-82049342D02*
X144391540Y-82049342D01*
X144391540Y-82049342D02*
X144277255Y-81992200D01*
X144277255Y-81992200D02*
X144220112Y-81935057D01*
X144220112Y-81935057D02*
X144162969Y-81820771D01*
X144162969Y-81820771D02*
X144105826Y-81592200D01*
X144105826Y-81592200D02*
X144105826Y-81306485D01*
X144105826Y-81306485D02*
X144162969Y-81077914D01*
X144162969Y-81077914D02*
X144220112Y-80963628D01*
X144220112Y-80963628D02*
X144277255Y-80906485D01*
X144277255Y-80906485D02*
X144391540Y-80849342D01*
X145534397Y-80849342D02*
X145648683Y-80849342D01*
X145648683Y-80849342D02*
X145762969Y-80906485D01*
X145762969Y-80906485D02*
X145820112Y-80963628D01*
X145820112Y-80963628D02*
X145877254Y-81077914D01*
X145877254Y-81077914D02*
X145934397Y-81306485D01*
X145934397Y-81306485D02*
X145934397Y-81592200D01*
X145934397Y-81592200D02*
X145877254Y-81820771D01*
X145877254Y-81820771D02*
X145820112Y-81935057D01*
X145820112Y-81935057D02*
X145762969Y-81992200D01*
X145762969Y-81992200D02*
X145648683Y-82049342D01*
X145648683Y-82049342D02*
X145534397Y-82049342D01*
X145534397Y-82049342D02*
X145420112Y-81992200D01*
X145420112Y-81992200D02*
X145362969Y-81935057D01*
X145362969Y-81935057D02*
X145305826Y-81820771D01*
X145305826Y-81820771D02*
X145248683Y-81592200D01*
X145248683Y-81592200D02*
X145248683Y-81306485D01*
X145248683Y-81306485D02*
X145305826Y-81077914D01*
X145305826Y-81077914D02*
X145362969Y-80963628D01*
X145362969Y-80963628D02*
X145420112Y-80906485D01*
X145420112Y-80906485D02*
X145534397Y-80849342D01*
X146677254Y-80849342D02*
X146791540Y-80849342D01*
X146791540Y-80849342D02*
X146905826Y-80906485D01*
X146905826Y-80906485D02*
X146962969Y-80963628D01*
X146962969Y-80963628D02*
X147020111Y-81077914D01*
X147020111Y-81077914D02*
X147077254Y-81306485D01*
X147077254Y-81306485D02*
X147077254Y-81592200D01*
X147077254Y-81592200D02*
X147020111Y-81820771D01*
X147020111Y-81820771D02*
X146962969Y-81935057D01*
X146962969Y-81935057D02*
X146905826Y-81992200D01*
X146905826Y-81992200D02*
X146791540Y-82049342D01*
X146791540Y-82049342D02*
X146677254Y-82049342D01*
X146677254Y-82049342D02*
X146562969Y-81992200D01*
X146562969Y-81992200D02*
X146505826Y-81935057D01*
X146505826Y-81935057D02*
X146448683Y-81820771D01*
X146448683Y-81820771D02*
X146391540Y-81592200D01*
X146391540Y-81592200D02*
X146391540Y-81306485D01*
X146391540Y-81306485D02*
X146448683Y-81077914D01*
X146448683Y-81077914D02*
X146505826Y-80963628D01*
X146505826Y-80963628D02*
X146562969Y-80906485D01*
X146562969Y-80906485D02*
X146677254Y-80849342D01*
X148391540Y-81249342D02*
X148677254Y-82049342D01*
X148677254Y-82049342D02*
X148962969Y-81249342D01*
X149648683Y-80849342D02*
X149762969Y-80849342D01*
X149762969Y-80849342D02*
X149877255Y-80906485D01*
X149877255Y-80906485D02*
X149934398Y-80963628D01*
X149934398Y-80963628D02*
X149991540Y-81077914D01*
X149991540Y-81077914D02*
X150048683Y-81306485D01*
X150048683Y-81306485D02*
X150048683Y-81592200D01*
X150048683Y-81592200D02*
X149991540Y-81820771D01*
X149991540Y-81820771D02*
X149934398Y-81935057D01*
X149934398Y-81935057D02*
X149877255Y-81992200D01*
X149877255Y-81992200D02*
X149762969Y-82049342D01*
X149762969Y-82049342D02*
X149648683Y-82049342D01*
X149648683Y-82049342D02*
X149534398Y-81992200D01*
X149534398Y-81992200D02*
X149477255Y-81935057D01*
X149477255Y-81935057D02*
X149420112Y-81820771D01*
X149420112Y-81820771D02*
X149362969Y-81592200D01*
X149362969Y-81592200D02*
X149362969Y-81306485D01*
X149362969Y-81306485D02*
X149420112Y-81077914D01*
X149420112Y-81077914D02*
X149477255Y-80963628D01*
X149477255Y-80963628D02*
X149534398Y-80906485D01*
X149534398Y-80906485D02*
X149648683Y-80849342D01*
X150562969Y-81935057D02*
X150620112Y-81992200D01*
X150620112Y-81992200D02*
X150562969Y-82049342D01*
X150562969Y-82049342D02*
X150505826Y-81992200D01*
X150505826Y-81992200D02*
X150562969Y-81935057D01*
X150562969Y-81935057D02*
X150562969Y-82049342D01*
X151762969Y-82049342D02*
X151077255Y-82049342D01*
X151420112Y-82049342D02*
X151420112Y-80849342D01*
X151420112Y-80849342D02*
X151305826Y-81020771D01*
X151305826Y-81020771D02*
X151191541Y-81135057D01*
X151191541Y-81135057D02*
X151077255Y-81192200D01*
X153534398Y-82506485D02*
X153477255Y-82449342D01*
X153477255Y-82449342D02*
X153362969Y-82277914D01*
X153362969Y-82277914D02*
X153305827Y-82163628D01*
X153305827Y-82163628D02*
X153248684Y-81992200D01*
X153248684Y-81992200D02*
X153191541Y-81706485D01*
X153191541Y-81706485D02*
X153191541Y-81477914D01*
X153191541Y-81477914D02*
X153248684Y-81192200D01*
X153248684Y-81192200D02*
X153305827Y-81020771D01*
X153305827Y-81020771D02*
X153362969Y-80906485D01*
X153362969Y-80906485D02*
X153477255Y-80735057D01*
X153477255Y-80735057D02*
X153534398Y-80677914D01*
X154562969Y-82049342D02*
X153991541Y-82049342D01*
X153991541Y-82049342D02*
X153991541Y-80849342D01*
X155420113Y-81992200D02*
X155305827Y-82049342D01*
X155305827Y-82049342D02*
X155077256Y-82049342D01*
X155077256Y-82049342D02*
X154962970Y-81992200D01*
X154962970Y-81992200D02*
X154905827Y-81877914D01*
X154905827Y-81877914D02*
X154905827Y-81420771D01*
X154905827Y-81420771D02*
X154962970Y-81306485D01*
X154962970Y-81306485D02*
X155077256Y-81249342D01*
X155077256Y-81249342D02*
X155305827Y-81249342D01*
X155305827Y-81249342D02*
X155420113Y-81306485D01*
X155420113Y-81306485D02*
X155477256Y-81420771D01*
X155477256Y-81420771D02*
X155477256Y-81535057D01*
X155477256Y-81535057D02*
X154905827Y-81649342D01*
X155820112Y-81249342D02*
X156277255Y-81249342D01*
X155991541Y-82049342D02*
X155991541Y-81020771D01*
X155991541Y-81020771D02*
X156048684Y-80906485D01*
X156048684Y-80906485D02*
X156162969Y-80849342D01*
X156162969Y-80849342D02*
X156277255Y-80849342D01*
X156505826Y-81249342D02*
X156962969Y-81249342D01*
X156677255Y-80849342D02*
X156677255Y-81877914D01*
X156677255Y-81877914D02*
X156734398Y-81992200D01*
X156734398Y-81992200D02*
X156848683Y-82049342D01*
X156848683Y-82049342D02*
X156962969Y-82049342D01*
X157248683Y-82506485D02*
X157305826Y-82449342D01*
X157305826Y-82449342D02*
X157420112Y-82277914D01*
X157420112Y-82277914D02*
X157477255Y-82163628D01*
X157477255Y-82163628D02*
X157534397Y-81992200D01*
X157534397Y-81992200D02*
X157591540Y-81706485D01*
X157591540Y-81706485D02*
X157591540Y-81477914D01*
X157591540Y-81477914D02*
X157534397Y-81192200D01*
X157534397Y-81192200D02*
X157477255Y-81020771D01*
X157477255Y-81020771D02*
X157420112Y-80906485D01*
X157420112Y-80906485D02*
X157305826Y-80735057D01*
X157305826Y-80735057D02*
X157248683Y-80677914D01*
X139020112Y-83981275D02*
X138620112Y-83409847D01*
X138334398Y-83981275D02*
X138334398Y-82781275D01*
X138334398Y-82781275D02*
X138791541Y-82781275D01*
X138791541Y-82781275D02*
X138905826Y-82838418D01*
X138905826Y-82838418D02*
X138962969Y-82895561D01*
X138962969Y-82895561D02*
X139020112Y-83009847D01*
X139020112Y-83009847D02*
X139020112Y-83181275D01*
X139020112Y-83181275D02*
X138962969Y-83295561D01*
X138962969Y-83295561D02*
X138905826Y-83352704D01*
X138905826Y-83352704D02*
X138791541Y-83409847D01*
X138791541Y-83409847D02*
X138334398Y-83409847D01*
X139991541Y-83924133D02*
X139877255Y-83981275D01*
X139877255Y-83981275D02*
X139648684Y-83981275D01*
X139648684Y-83981275D02*
X139534398Y-83924133D01*
X139534398Y-83924133D02*
X139477255Y-83809847D01*
X139477255Y-83809847D02*
X139477255Y-83352704D01*
X139477255Y-83352704D02*
X139534398Y-83238418D01*
X139534398Y-83238418D02*
X139648684Y-83181275D01*
X139648684Y-83181275D02*
X139877255Y-83181275D01*
X139877255Y-83181275D02*
X139991541Y-83238418D01*
X139991541Y-83238418D02*
X140048684Y-83352704D01*
X140048684Y-83352704D02*
X140048684Y-83466990D01*
X140048684Y-83466990D02*
X139477255Y-83581275D01*
X140562969Y-83181275D02*
X140562969Y-84381275D01*
X140562969Y-83238418D02*
X140677255Y-83181275D01*
X140677255Y-83181275D02*
X140905826Y-83181275D01*
X140905826Y-83181275D02*
X141020112Y-83238418D01*
X141020112Y-83238418D02*
X141077255Y-83295561D01*
X141077255Y-83295561D02*
X141134397Y-83409847D01*
X141134397Y-83409847D02*
X141134397Y-83752704D01*
X141134397Y-83752704D02*
X141077255Y-83866990D01*
X141077255Y-83866990D02*
X141020112Y-83924133D01*
X141020112Y-83924133D02*
X140905826Y-83981275D01*
X140905826Y-83981275D02*
X140677255Y-83981275D01*
X140677255Y-83981275D02*
X140562969Y-83924133D01*
X141820111Y-83981275D02*
X141705826Y-83924133D01*
X141705826Y-83924133D02*
X141648683Y-83809847D01*
X141648683Y-83809847D02*
X141648683Y-82781275D01*
X142791540Y-83981275D02*
X142791540Y-83352704D01*
X142791540Y-83352704D02*
X142734397Y-83238418D01*
X142734397Y-83238418D02*
X142620111Y-83181275D01*
X142620111Y-83181275D02*
X142391540Y-83181275D01*
X142391540Y-83181275D02*
X142277254Y-83238418D01*
X142791540Y-83924133D02*
X142677254Y-83981275D01*
X142677254Y-83981275D02*
X142391540Y-83981275D01*
X142391540Y-83981275D02*
X142277254Y-83924133D01*
X142277254Y-83924133D02*
X142220111Y-83809847D01*
X142220111Y-83809847D02*
X142220111Y-83695561D01*
X142220111Y-83695561D02*
X142277254Y-83581275D01*
X142277254Y-83581275D02*
X142391540Y-83524133D01*
X142391540Y-83524133D02*
X142677254Y-83524133D01*
X142677254Y-83524133D02*
X142791540Y-83466990D01*
X143877254Y-83924133D02*
X143762968Y-83981275D01*
X143762968Y-83981275D02*
X143534396Y-83981275D01*
X143534396Y-83981275D02*
X143420111Y-83924133D01*
X143420111Y-83924133D02*
X143362968Y-83866990D01*
X143362968Y-83866990D02*
X143305825Y-83752704D01*
X143305825Y-83752704D02*
X143305825Y-83409847D01*
X143305825Y-83409847D02*
X143362968Y-83295561D01*
X143362968Y-83295561D02*
X143420111Y-83238418D01*
X143420111Y-83238418D02*
X143534396Y-83181275D01*
X143534396Y-83181275D02*
X143762968Y-83181275D01*
X143762968Y-83181275D02*
X143877254Y-83238418D01*
X144848682Y-83924133D02*
X144734396Y-83981275D01*
X144734396Y-83981275D02*
X144505825Y-83981275D01*
X144505825Y-83981275D02*
X144391539Y-83924133D01*
X144391539Y-83924133D02*
X144334396Y-83809847D01*
X144334396Y-83809847D02*
X144334396Y-83352704D01*
X144334396Y-83352704D02*
X144391539Y-83238418D01*
X144391539Y-83238418D02*
X144505825Y-83181275D01*
X144505825Y-83181275D02*
X144734396Y-83181275D01*
X144734396Y-83181275D02*
X144848682Y-83238418D01*
X144848682Y-83238418D02*
X144905825Y-83352704D01*
X144905825Y-83352704D02*
X144905825Y-83466990D01*
X144905825Y-83466990D02*
X144334396Y-83581275D01*
X145420110Y-83981275D02*
X145420110Y-83181275D01*
X145420110Y-83295561D02*
X145477253Y-83238418D01*
X145477253Y-83238418D02*
X145591538Y-83181275D01*
X145591538Y-83181275D02*
X145762967Y-83181275D01*
X145762967Y-83181275D02*
X145877253Y-83238418D01*
X145877253Y-83238418D02*
X145934396Y-83352704D01*
X145934396Y-83352704D02*
X145934396Y-83981275D01*
X145934396Y-83352704D02*
X145991538Y-83238418D01*
X145991538Y-83238418D02*
X146105824Y-83181275D01*
X146105824Y-83181275D02*
X146277253Y-83181275D01*
X146277253Y-83181275D02*
X146391538Y-83238418D01*
X146391538Y-83238418D02*
X146448681Y-83352704D01*
X146448681Y-83352704D02*
X146448681Y-83981275D01*
X147477253Y-83924133D02*
X147362967Y-83981275D01*
X147362967Y-83981275D02*
X147134396Y-83981275D01*
X147134396Y-83981275D02*
X147020110Y-83924133D01*
X147020110Y-83924133D02*
X146962967Y-83809847D01*
X146962967Y-83809847D02*
X146962967Y-83352704D01*
X146962967Y-83352704D02*
X147020110Y-83238418D01*
X147020110Y-83238418D02*
X147134396Y-83181275D01*
X147134396Y-83181275D02*
X147362967Y-83181275D01*
X147362967Y-83181275D02*
X147477253Y-83238418D01*
X147477253Y-83238418D02*
X147534396Y-83352704D01*
X147534396Y-83352704D02*
X147534396Y-83466990D01*
X147534396Y-83466990D02*
X146962967Y-83581275D01*
X148048681Y-83181275D02*
X148048681Y-83981275D01*
X148048681Y-83295561D02*
X148105824Y-83238418D01*
X148105824Y-83238418D02*
X148220109Y-83181275D01*
X148220109Y-83181275D02*
X148391538Y-83181275D01*
X148391538Y-83181275D02*
X148505824Y-83238418D01*
X148505824Y-83238418D02*
X148562967Y-83352704D01*
X148562967Y-83352704D02*
X148562967Y-83981275D01*
X148962966Y-83181275D02*
X149420109Y-83181275D01*
X149134395Y-82781275D02*
X149134395Y-83809847D01*
X149134395Y-83809847D02*
X149191538Y-83924133D01*
X149191538Y-83924133D02*
X149305823Y-83981275D01*
X149305823Y-83981275D02*
X149420109Y-83981275D01*
X150734395Y-83981275D02*
X150734395Y-82781275D01*
X150734395Y-82781275D02*
X151191538Y-82781275D01*
X151191538Y-82781275D02*
X151305823Y-82838418D01*
X151305823Y-82838418D02*
X151362966Y-82895561D01*
X151362966Y-82895561D02*
X151420109Y-83009847D01*
X151420109Y-83009847D02*
X151420109Y-83181275D01*
X151420109Y-83181275D02*
X151362966Y-83295561D01*
X151362966Y-83295561D02*
X151305823Y-83352704D01*
X151305823Y-83352704D02*
X151191538Y-83409847D01*
X151191538Y-83409847D02*
X150734395Y-83409847D01*
X152620109Y-83866990D02*
X152562966Y-83924133D01*
X152562966Y-83924133D02*
X152391538Y-83981275D01*
X152391538Y-83981275D02*
X152277252Y-83981275D01*
X152277252Y-83981275D02*
X152105823Y-83924133D01*
X152105823Y-83924133D02*
X151991538Y-83809847D01*
X151991538Y-83809847D02*
X151934395Y-83695561D01*
X151934395Y-83695561D02*
X151877252Y-83466990D01*
X151877252Y-83466990D02*
X151877252Y-83295561D01*
X151877252Y-83295561D02*
X151934395Y-83066990D01*
X151934395Y-83066990D02*
X151991538Y-82952704D01*
X151991538Y-82952704D02*
X152105823Y-82838418D01*
X152105823Y-82838418D02*
X152277252Y-82781275D01*
X152277252Y-82781275D02*
X152391538Y-82781275D01*
X152391538Y-82781275D02*
X152562966Y-82838418D01*
X152562966Y-82838418D02*
X152620109Y-82895561D01*
X153534395Y-83352704D02*
X153705823Y-83409847D01*
X153705823Y-83409847D02*
X153762966Y-83466990D01*
X153762966Y-83466990D02*
X153820109Y-83581275D01*
X153820109Y-83581275D02*
X153820109Y-83752704D01*
X153820109Y-83752704D02*
X153762966Y-83866990D01*
X153762966Y-83866990D02*
X153705823Y-83924133D01*
X153705823Y-83924133D02*
X153591538Y-83981275D01*
X153591538Y-83981275D02*
X153134395Y-83981275D01*
X153134395Y-83981275D02*
X153134395Y-82781275D01*
X153134395Y-82781275D02*
X153534395Y-82781275D01*
X153534395Y-82781275D02*
X153648681Y-82838418D01*
X153648681Y-82838418D02*
X153705823Y-82895561D01*
X153705823Y-82895561D02*
X153762966Y-83009847D01*
X153762966Y-83009847D02*
X153762966Y-83124133D01*
X153762966Y-83124133D02*
X153705823Y-83238418D01*
X153705823Y-83238418D02*
X153648681Y-83295561D01*
X153648681Y-83295561D02*
X153534395Y-83352704D01*
X153534395Y-83352704D02*
X153134395Y-83352704D01*
X155077252Y-83181275D02*
X155534395Y-83181275D01*
X155248681Y-83981275D02*
X155248681Y-82952704D01*
X155248681Y-82952704D02*
X155305824Y-82838418D01*
X155305824Y-82838418D02*
X155420109Y-82781275D01*
X155420109Y-82781275D02*
X155534395Y-82781275D01*
X156105823Y-83981275D02*
X155991538Y-83924133D01*
X155991538Y-83924133D02*
X155934395Y-83866990D01*
X155934395Y-83866990D02*
X155877252Y-83752704D01*
X155877252Y-83752704D02*
X155877252Y-83409847D01*
X155877252Y-83409847D02*
X155934395Y-83295561D01*
X155934395Y-83295561D02*
X155991538Y-83238418D01*
X155991538Y-83238418D02*
X156105823Y-83181275D01*
X156105823Y-83181275D02*
X156277252Y-83181275D01*
X156277252Y-83181275D02*
X156391538Y-83238418D01*
X156391538Y-83238418D02*
X156448681Y-83295561D01*
X156448681Y-83295561D02*
X156505823Y-83409847D01*
X156505823Y-83409847D02*
X156505823Y-83752704D01*
X156505823Y-83752704D02*
X156448681Y-83866990D01*
X156448681Y-83866990D02*
X156391538Y-83924133D01*
X156391538Y-83924133D02*
X156277252Y-83981275D01*
X156277252Y-83981275D02*
X156105823Y-83981275D01*
X157020109Y-83981275D02*
X157020109Y-83181275D01*
X157020109Y-83409847D02*
X157077252Y-83295561D01*
X157077252Y-83295561D02*
X157134395Y-83238418D01*
X157134395Y-83238418D02*
X157248680Y-83181275D01*
X157248680Y-83181275D02*
X157362966Y-83181275D01*
X158505823Y-83181275D02*
X158962966Y-83181275D01*
X158677252Y-82781275D02*
X158677252Y-83809847D01*
X158677252Y-83809847D02*
X158734395Y-83924133D01*
X158734395Y-83924133D02*
X158848680Y-83981275D01*
X158848680Y-83981275D02*
X158962966Y-83981275D01*
X159362966Y-83981275D02*
X159362966Y-82781275D01*
X159877252Y-83981275D02*
X159877252Y-83352704D01*
X159877252Y-83352704D02*
X159820109Y-83238418D01*
X159820109Y-83238418D02*
X159705823Y-83181275D01*
X159705823Y-83181275D02*
X159534394Y-83181275D01*
X159534394Y-83181275D02*
X159420109Y-83238418D01*
X159420109Y-83238418D02*
X159362966Y-83295561D01*
X160905823Y-83924133D02*
X160791537Y-83981275D01*
X160791537Y-83981275D02*
X160562966Y-83981275D01*
X160562966Y-83981275D02*
X160448680Y-83924133D01*
X160448680Y-83924133D02*
X160391537Y-83809847D01*
X160391537Y-83809847D02*
X160391537Y-83352704D01*
X160391537Y-83352704D02*
X160448680Y-83238418D01*
X160448680Y-83238418D02*
X160562966Y-83181275D01*
X160562966Y-83181275D02*
X160791537Y-83181275D01*
X160791537Y-83181275D02*
X160905823Y-83238418D01*
X160905823Y-83238418D02*
X160962966Y-83352704D01*
X160962966Y-83352704D02*
X160962966Y-83466990D01*
X160962966Y-83466990D02*
X160391537Y-83581275D01*
X163077251Y-83866990D02*
X163020108Y-83924133D01*
X163020108Y-83924133D02*
X162848680Y-83981275D01*
X162848680Y-83981275D02*
X162734394Y-83981275D01*
X162734394Y-83981275D02*
X162562965Y-83924133D01*
X162562965Y-83924133D02*
X162448680Y-83809847D01*
X162448680Y-83809847D02*
X162391537Y-83695561D01*
X162391537Y-83695561D02*
X162334394Y-83466990D01*
X162334394Y-83466990D02*
X162334394Y-83295561D01*
X162334394Y-83295561D02*
X162391537Y-83066990D01*
X162391537Y-83066990D02*
X162448680Y-82952704D01*
X162448680Y-82952704D02*
X162562965Y-82838418D01*
X162562965Y-82838418D02*
X162734394Y-82781275D01*
X162734394Y-82781275D02*
X162848680Y-82781275D01*
X162848680Y-82781275D02*
X163020108Y-82838418D01*
X163020108Y-82838418D02*
X163077251Y-82895561D01*
X163591537Y-83981275D02*
X163591537Y-82781275D01*
X164105823Y-83981275D02*
X164105823Y-83352704D01*
X164105823Y-83352704D02*
X164048680Y-83238418D01*
X164048680Y-83238418D02*
X163934394Y-83181275D01*
X163934394Y-83181275D02*
X163762965Y-83181275D01*
X163762965Y-83181275D02*
X163648680Y-83238418D01*
X163648680Y-83238418D02*
X163591537Y-83295561D01*
X165134394Y-83924133D02*
X165020108Y-83981275D01*
X165020108Y-83981275D02*
X164791537Y-83981275D01*
X164791537Y-83981275D02*
X164677251Y-83924133D01*
X164677251Y-83924133D02*
X164620108Y-83809847D01*
X164620108Y-83809847D02*
X164620108Y-83352704D01*
X164620108Y-83352704D02*
X164677251Y-83238418D01*
X164677251Y-83238418D02*
X164791537Y-83181275D01*
X164791537Y-83181275D02*
X165020108Y-83181275D01*
X165020108Y-83181275D02*
X165134394Y-83238418D01*
X165134394Y-83238418D02*
X165191537Y-83352704D01*
X165191537Y-83352704D02*
X165191537Y-83466990D01*
X165191537Y-83466990D02*
X164620108Y-83581275D01*
X165705822Y-83981275D02*
X165705822Y-83181275D01*
X165705822Y-83409847D02*
X165762965Y-83295561D01*
X165762965Y-83295561D02*
X165820108Y-83238418D01*
X165820108Y-83238418D02*
X165934393Y-83181275D01*
X165934393Y-83181275D02*
X166048679Y-83181275D01*
X166448679Y-83981275D02*
X166448679Y-83181275D01*
X166448679Y-83409847D02*
X166505822Y-83295561D01*
X166505822Y-83295561D02*
X166562965Y-83238418D01*
X166562965Y-83238418D02*
X166677250Y-83181275D01*
X166677250Y-83181275D02*
X166791536Y-83181275D01*
X167077250Y-83181275D02*
X167362964Y-83981275D01*
X167648679Y-83181275D02*
X167362964Y-83981275D01*
X167362964Y-83981275D02*
X167248679Y-84266990D01*
X167248679Y-84266990D02*
X167191536Y-84324133D01*
X167191536Y-84324133D02*
X167077250Y-84381275D01*
X169648679Y-82838418D02*
X169534394Y-82781275D01*
X169534394Y-82781275D02*
X169362965Y-82781275D01*
X169362965Y-82781275D02*
X169191536Y-82838418D01*
X169191536Y-82838418D02*
X169077251Y-82952704D01*
X169077251Y-82952704D02*
X169020108Y-83066990D01*
X169020108Y-83066990D02*
X168962965Y-83295561D01*
X168962965Y-83295561D02*
X168962965Y-83466990D01*
X168962965Y-83466990D02*
X169020108Y-83695561D01*
X169020108Y-83695561D02*
X169077251Y-83809847D01*
X169077251Y-83809847D02*
X169191536Y-83924133D01*
X169191536Y-83924133D02*
X169362965Y-83981275D01*
X169362965Y-83981275D02*
X169477251Y-83981275D01*
X169477251Y-83981275D02*
X169648679Y-83924133D01*
X169648679Y-83924133D02*
X169705822Y-83866990D01*
X169705822Y-83866990D02*
X169705822Y-83466990D01*
X169705822Y-83466990D02*
X169477251Y-83466990D01*
X170391536Y-83295561D02*
X170277251Y-83238418D01*
X170277251Y-83238418D02*
X170220108Y-83181275D01*
X170220108Y-83181275D02*
X170162965Y-83066990D01*
X170162965Y-83066990D02*
X170162965Y-83009847D01*
X170162965Y-83009847D02*
X170220108Y-82895561D01*
X170220108Y-82895561D02*
X170277251Y-82838418D01*
X170277251Y-82838418D02*
X170391536Y-82781275D01*
X170391536Y-82781275D02*
X170620108Y-82781275D01*
X170620108Y-82781275D02*
X170734394Y-82838418D01*
X170734394Y-82838418D02*
X170791536Y-82895561D01*
X170791536Y-82895561D02*
X170848679Y-83009847D01*
X170848679Y-83009847D02*
X170848679Y-83066990D01*
X170848679Y-83066990D02*
X170791536Y-83181275D01*
X170791536Y-83181275D02*
X170734394Y-83238418D01*
X170734394Y-83238418D02*
X170620108Y-83295561D01*
X170620108Y-83295561D02*
X170391536Y-83295561D01*
X170391536Y-83295561D02*
X170277251Y-83352704D01*
X170277251Y-83352704D02*
X170220108Y-83409847D01*
X170220108Y-83409847D02*
X170162965Y-83524133D01*
X170162965Y-83524133D02*
X170162965Y-83752704D01*
X170162965Y-83752704D02*
X170220108Y-83866990D01*
X170220108Y-83866990D02*
X170277251Y-83924133D01*
X170277251Y-83924133D02*
X170391536Y-83981275D01*
X170391536Y-83981275D02*
X170620108Y-83981275D01*
X170620108Y-83981275D02*
X170734394Y-83924133D01*
X170734394Y-83924133D02*
X170791536Y-83866990D01*
X170791536Y-83866990D02*
X170848679Y-83752704D01*
X170848679Y-83752704D02*
X170848679Y-83524133D01*
X170848679Y-83524133D02*
X170791536Y-83409847D01*
X170791536Y-83409847D02*
X170734394Y-83352704D01*
X170734394Y-83352704D02*
X170620108Y-83295561D01*
X171591536Y-82781275D02*
X171705822Y-82781275D01*
X171705822Y-82781275D02*
X171820108Y-82838418D01*
X171820108Y-82838418D02*
X171877251Y-82895561D01*
X171877251Y-82895561D02*
X171934393Y-83009847D01*
X171934393Y-83009847D02*
X171991536Y-83238418D01*
X171991536Y-83238418D02*
X171991536Y-83524133D01*
X171991536Y-83524133D02*
X171934393Y-83752704D01*
X171934393Y-83752704D02*
X171877251Y-83866990D01*
X171877251Y-83866990D02*
X171820108Y-83924133D01*
X171820108Y-83924133D02*
X171705822Y-83981275D01*
X171705822Y-83981275D02*
X171591536Y-83981275D01*
X171591536Y-83981275D02*
X171477251Y-83924133D01*
X171477251Y-83924133D02*
X171420108Y-83866990D01*
X171420108Y-83866990D02*
X171362965Y-83752704D01*
X171362965Y-83752704D02*
X171305822Y-83524133D01*
X171305822Y-83524133D02*
X171305822Y-83238418D01*
X171305822Y-83238418D02*
X171362965Y-83009847D01*
X171362965Y-83009847D02*
X171420108Y-82895561D01*
X171420108Y-82895561D02*
X171477251Y-82838418D01*
X171477251Y-82838418D02*
X171591536Y-82781275D01*
X172505822Y-83524133D02*
X173420108Y-83524133D01*
X174562964Y-82781275D02*
X173991536Y-82781275D01*
X173991536Y-82781275D02*
X173934393Y-83352704D01*
X173934393Y-83352704D02*
X173991536Y-83295561D01*
X173991536Y-83295561D02*
X174105822Y-83238418D01*
X174105822Y-83238418D02*
X174391536Y-83238418D01*
X174391536Y-83238418D02*
X174505822Y-83295561D01*
X174505822Y-83295561D02*
X174562964Y-83352704D01*
X174562964Y-83352704D02*
X174620107Y-83466990D01*
X174620107Y-83466990D02*
X174620107Y-83752704D01*
X174620107Y-83752704D02*
X174562964Y-83866990D01*
X174562964Y-83866990D02*
X174505822Y-83924133D01*
X174505822Y-83924133D02*
X174391536Y-83981275D01*
X174391536Y-83981275D02*
X174105822Y-83981275D01*
X174105822Y-83981275D02*
X173991536Y-83924133D01*
X173991536Y-83924133D02*
X173934393Y-83866990D01*
X175362964Y-82781275D02*
X175477250Y-82781275D01*
X175477250Y-82781275D02*
X175591536Y-82838418D01*
X175591536Y-82838418D02*
X175648679Y-82895561D01*
X175648679Y-82895561D02*
X175705821Y-83009847D01*
X175705821Y-83009847D02*
X175762964Y-83238418D01*
X175762964Y-83238418D02*
X175762964Y-83524133D01*
X175762964Y-83524133D02*
X175705821Y-83752704D01*
X175705821Y-83752704D02*
X175648679Y-83866990D01*
X175648679Y-83866990D02*
X175591536Y-83924133D01*
X175591536Y-83924133D02*
X175477250Y-83981275D01*
X175477250Y-83981275D02*
X175362964Y-83981275D01*
X175362964Y-83981275D02*
X175248679Y-83924133D01*
X175248679Y-83924133D02*
X175191536Y-83866990D01*
X175191536Y-83866990D02*
X175134393Y-83752704D01*
X175134393Y-83752704D02*
X175077250Y-83524133D01*
X175077250Y-83524133D02*
X175077250Y-83238418D01*
X175077250Y-83238418D02*
X175134393Y-83009847D01*
X175134393Y-83009847D02*
X175191536Y-82895561D01*
X175191536Y-82895561D02*
X175248679Y-82838418D01*
X175248679Y-82838418D02*
X175362964Y-82781275D01*
X176505821Y-82781275D02*
X176620107Y-82781275D01*
X176620107Y-82781275D02*
X176734393Y-82838418D01*
X176734393Y-82838418D02*
X176791536Y-82895561D01*
X176791536Y-82895561D02*
X176848678Y-83009847D01*
X176848678Y-83009847D02*
X176905821Y-83238418D01*
X176905821Y-83238418D02*
X176905821Y-83524133D01*
X176905821Y-83524133D02*
X176848678Y-83752704D01*
X176848678Y-83752704D02*
X176791536Y-83866990D01*
X176791536Y-83866990D02*
X176734393Y-83924133D01*
X176734393Y-83924133D02*
X176620107Y-83981275D01*
X176620107Y-83981275D02*
X176505821Y-83981275D01*
X176505821Y-83981275D02*
X176391536Y-83924133D01*
X176391536Y-83924133D02*
X176334393Y-83866990D01*
X176334393Y-83866990D02*
X176277250Y-83752704D01*
X176277250Y-83752704D02*
X176220107Y-83524133D01*
X176220107Y-83524133D02*
X176220107Y-83238418D01*
X176220107Y-83238418D02*
X176277250Y-83009847D01*
X176277250Y-83009847D02*
X176334393Y-82895561D01*
X176334393Y-82895561D02*
X176391536Y-82838418D01*
X176391536Y-82838418D02*
X176505821Y-82781275D01*
X177648678Y-82781275D02*
X177762964Y-82781275D01*
X177762964Y-82781275D02*
X177877250Y-82838418D01*
X177877250Y-82838418D02*
X177934393Y-82895561D01*
X177934393Y-82895561D02*
X177991535Y-83009847D01*
X177991535Y-83009847D02*
X178048678Y-83238418D01*
X178048678Y-83238418D02*
X178048678Y-83524133D01*
X178048678Y-83524133D02*
X177991535Y-83752704D01*
X177991535Y-83752704D02*
X177934393Y-83866990D01*
X177934393Y-83866990D02*
X177877250Y-83924133D01*
X177877250Y-83924133D02*
X177762964Y-83981275D01*
X177762964Y-83981275D02*
X177648678Y-83981275D01*
X177648678Y-83981275D02*
X177534393Y-83924133D01*
X177534393Y-83924133D02*
X177477250Y-83866990D01*
X177477250Y-83866990D02*
X177420107Y-83752704D01*
X177420107Y-83752704D02*
X177362964Y-83524133D01*
X177362964Y-83524133D02*
X177362964Y-83238418D01*
X177362964Y-83238418D02*
X177420107Y-83009847D01*
X177420107Y-83009847D02*
X177477250Y-82895561D01*
X177477250Y-82895561D02*
X177534393Y-82838418D01*
X177534393Y-82838418D02*
X177648678Y-82781275D01*
X138848684Y-85113208D02*
X138848684Y-86084637D01*
X138848684Y-86084637D02*
X138791541Y-86198923D01*
X138791541Y-86198923D02*
X138734398Y-86256066D01*
X138734398Y-86256066D02*
X138620112Y-86313208D01*
X138620112Y-86313208D02*
X138448684Y-86313208D01*
X138448684Y-86313208D02*
X138334398Y-86256066D01*
X138848684Y-85856066D02*
X138734398Y-85913208D01*
X138734398Y-85913208D02*
X138505826Y-85913208D01*
X138505826Y-85913208D02*
X138391541Y-85856066D01*
X138391541Y-85856066D02*
X138334398Y-85798923D01*
X138334398Y-85798923D02*
X138277255Y-85684637D01*
X138277255Y-85684637D02*
X138277255Y-85341780D01*
X138277255Y-85341780D02*
X138334398Y-85227494D01*
X138334398Y-85227494D02*
X138391541Y-85170351D01*
X138391541Y-85170351D02*
X138505826Y-85113208D01*
X138505826Y-85113208D02*
X138734398Y-85113208D01*
X138734398Y-85113208D02*
X138848684Y-85170351D01*
X139420112Y-85913208D02*
X139420112Y-85113208D01*
X139420112Y-84713208D02*
X139362969Y-84770351D01*
X139362969Y-84770351D02*
X139420112Y-84827494D01*
X139420112Y-84827494D02*
X139477255Y-84770351D01*
X139477255Y-84770351D02*
X139420112Y-84713208D01*
X139420112Y-84713208D02*
X139420112Y-84827494D01*
X139820112Y-85113208D02*
X140277255Y-85113208D01*
X139991541Y-84713208D02*
X139991541Y-85741780D01*
X139991541Y-85741780D02*
X140048684Y-85856066D01*
X140048684Y-85856066D02*
X140162969Y-85913208D01*
X140162969Y-85913208D02*
X140277255Y-85913208D01*
X140677255Y-85913208D02*
X140677255Y-84713208D01*
X141191541Y-85913208D02*
X141191541Y-85284637D01*
X141191541Y-85284637D02*
X141134398Y-85170351D01*
X141134398Y-85170351D02*
X141020112Y-85113208D01*
X141020112Y-85113208D02*
X140848683Y-85113208D01*
X140848683Y-85113208D02*
X140734398Y-85170351D01*
X140734398Y-85170351D02*
X140677255Y-85227494D01*
X142277255Y-85113208D02*
X142277255Y-85913208D01*
X141762969Y-85113208D02*
X141762969Y-85741780D01*
X141762969Y-85741780D02*
X141820112Y-85856066D01*
X141820112Y-85856066D02*
X141934397Y-85913208D01*
X141934397Y-85913208D02*
X142105826Y-85913208D01*
X142105826Y-85913208D02*
X142220112Y-85856066D01*
X142220112Y-85856066D02*
X142277255Y-85798923D01*
X142848683Y-85913208D02*
X142848683Y-84713208D01*
X142848683Y-85170351D02*
X142962969Y-85113208D01*
X142962969Y-85113208D02*
X143191540Y-85113208D01*
X143191540Y-85113208D02*
X143305826Y-85170351D01*
X143305826Y-85170351D02*
X143362969Y-85227494D01*
X143362969Y-85227494D02*
X143420111Y-85341780D01*
X143420111Y-85341780D02*
X143420111Y-85684637D01*
X143420111Y-85684637D02*
X143362969Y-85798923D01*
X143362969Y-85798923D02*
X143305826Y-85856066D01*
X143305826Y-85856066D02*
X143191540Y-85913208D01*
X143191540Y-85913208D02*
X142962969Y-85913208D01*
X142962969Y-85913208D02*
X142848683Y-85856066D01*
X143934397Y-85798923D02*
X143991540Y-85856066D01*
X143991540Y-85856066D02*
X143934397Y-85913208D01*
X143934397Y-85913208D02*
X143877254Y-85856066D01*
X143877254Y-85856066D02*
X143934397Y-85798923D01*
X143934397Y-85798923D02*
X143934397Y-85913208D01*
X145020112Y-85856066D02*
X144905826Y-85913208D01*
X144905826Y-85913208D02*
X144677254Y-85913208D01*
X144677254Y-85913208D02*
X144562969Y-85856066D01*
X144562969Y-85856066D02*
X144505826Y-85798923D01*
X144505826Y-85798923D02*
X144448683Y-85684637D01*
X144448683Y-85684637D02*
X144448683Y-85341780D01*
X144448683Y-85341780D02*
X144505826Y-85227494D01*
X144505826Y-85227494D02*
X144562969Y-85170351D01*
X144562969Y-85170351D02*
X144677254Y-85113208D01*
X144677254Y-85113208D02*
X144905826Y-85113208D01*
X144905826Y-85113208D02*
X145020112Y-85170351D01*
X145705825Y-85913208D02*
X145591540Y-85856066D01*
X145591540Y-85856066D02*
X145534397Y-85798923D01*
X145534397Y-85798923D02*
X145477254Y-85684637D01*
X145477254Y-85684637D02*
X145477254Y-85341780D01*
X145477254Y-85341780D02*
X145534397Y-85227494D01*
X145534397Y-85227494D02*
X145591540Y-85170351D01*
X145591540Y-85170351D02*
X145705825Y-85113208D01*
X145705825Y-85113208D02*
X145877254Y-85113208D01*
X145877254Y-85113208D02*
X145991540Y-85170351D01*
X145991540Y-85170351D02*
X146048683Y-85227494D01*
X146048683Y-85227494D02*
X146105825Y-85341780D01*
X146105825Y-85341780D02*
X146105825Y-85684637D01*
X146105825Y-85684637D02*
X146048683Y-85798923D01*
X146048683Y-85798923D02*
X145991540Y-85856066D01*
X145991540Y-85856066D02*
X145877254Y-85913208D01*
X145877254Y-85913208D02*
X145705825Y-85913208D01*
X146620111Y-85913208D02*
X146620111Y-85113208D01*
X146620111Y-85227494D02*
X146677254Y-85170351D01*
X146677254Y-85170351D02*
X146791539Y-85113208D01*
X146791539Y-85113208D02*
X146962968Y-85113208D01*
X146962968Y-85113208D02*
X147077254Y-85170351D01*
X147077254Y-85170351D02*
X147134397Y-85284637D01*
X147134397Y-85284637D02*
X147134397Y-85913208D01*
X147134397Y-85284637D02*
X147191539Y-85170351D01*
X147191539Y-85170351D02*
X147305825Y-85113208D01*
X147305825Y-85113208D02*
X147477254Y-85113208D01*
X147477254Y-85113208D02*
X147591539Y-85170351D01*
X147591539Y-85170351D02*
X147648682Y-85284637D01*
X147648682Y-85284637D02*
X147648682Y-85913208D01*
X149077254Y-84656066D02*
X148048682Y-86198923D01*
X149477254Y-85113208D02*
X149477254Y-85913208D01*
X149477254Y-85227494D02*
X149534397Y-85170351D01*
X149534397Y-85170351D02*
X149648682Y-85113208D01*
X149648682Y-85113208D02*
X149820111Y-85113208D01*
X149820111Y-85113208D02*
X149934397Y-85170351D01*
X149934397Y-85170351D02*
X149991540Y-85284637D01*
X149991540Y-85284637D02*
X149991540Y-85913208D01*
X151020111Y-85856066D02*
X150905825Y-85913208D01*
X150905825Y-85913208D02*
X150677254Y-85913208D01*
X150677254Y-85913208D02*
X150562968Y-85856066D01*
X150562968Y-85856066D02*
X150505825Y-85741780D01*
X150505825Y-85741780D02*
X150505825Y-85284637D01*
X150505825Y-85284637D02*
X150562968Y-85170351D01*
X150562968Y-85170351D02*
X150677254Y-85113208D01*
X150677254Y-85113208D02*
X150905825Y-85113208D01*
X150905825Y-85113208D02*
X151020111Y-85170351D01*
X151020111Y-85170351D02*
X151077254Y-85284637D01*
X151077254Y-85284637D02*
X151077254Y-85398923D01*
X151077254Y-85398923D02*
X150505825Y-85513208D01*
X152105825Y-85913208D02*
X152105825Y-85284637D01*
X152105825Y-85284637D02*
X152048682Y-85170351D01*
X152048682Y-85170351D02*
X151934396Y-85113208D01*
X151934396Y-85113208D02*
X151705825Y-85113208D01*
X151705825Y-85113208D02*
X151591539Y-85170351D01*
X152105825Y-85856066D02*
X151991539Y-85913208D01*
X151991539Y-85913208D02*
X151705825Y-85913208D01*
X151705825Y-85913208D02*
X151591539Y-85856066D01*
X151591539Y-85856066D02*
X151534396Y-85741780D01*
X151534396Y-85741780D02*
X151534396Y-85627494D01*
X151534396Y-85627494D02*
X151591539Y-85513208D01*
X151591539Y-85513208D02*
X151705825Y-85456066D01*
X151705825Y-85456066D02*
X151991539Y-85456066D01*
X151991539Y-85456066D02*
X152105825Y-85398923D01*
X152677253Y-85913208D02*
X152677253Y-85113208D01*
X152677253Y-85341780D02*
X152734396Y-85227494D01*
X152734396Y-85227494D02*
X152791539Y-85170351D01*
X152791539Y-85170351D02*
X152905824Y-85113208D01*
X152905824Y-85113208D02*
X153020110Y-85113208D01*
X153877253Y-85856066D02*
X153762967Y-85913208D01*
X153762967Y-85913208D02*
X153534396Y-85913208D01*
X153534396Y-85913208D02*
X153420110Y-85856066D01*
X153420110Y-85856066D02*
X153362967Y-85741780D01*
X153362967Y-85741780D02*
X153362967Y-85284637D01*
X153362967Y-85284637D02*
X153420110Y-85170351D01*
X153420110Y-85170351D02*
X153534396Y-85113208D01*
X153534396Y-85113208D02*
X153762967Y-85113208D01*
X153762967Y-85113208D02*
X153877253Y-85170351D01*
X153877253Y-85170351D02*
X153934396Y-85284637D01*
X153934396Y-85284637D02*
X153934396Y-85398923D01*
X153934396Y-85398923D02*
X153362967Y-85513208D01*
X154391538Y-85856066D02*
X154505824Y-85913208D01*
X154505824Y-85913208D02*
X154734395Y-85913208D01*
X154734395Y-85913208D02*
X154848681Y-85856066D01*
X154848681Y-85856066D02*
X154905824Y-85741780D01*
X154905824Y-85741780D02*
X154905824Y-85684637D01*
X154905824Y-85684637D02*
X154848681Y-85570351D01*
X154848681Y-85570351D02*
X154734395Y-85513208D01*
X154734395Y-85513208D02*
X154562967Y-85513208D01*
X154562967Y-85513208D02*
X154448681Y-85456066D01*
X154448681Y-85456066D02*
X154391538Y-85341780D01*
X154391538Y-85341780D02*
X154391538Y-85284637D01*
X154391538Y-85284637D02*
X154448681Y-85170351D01*
X154448681Y-85170351D02*
X154562967Y-85113208D01*
X154562967Y-85113208D02*
X154734395Y-85113208D01*
X154734395Y-85113208D02*
X154848681Y-85170351D01*
X155248681Y-85113208D02*
X155705824Y-85113208D01*
X155420110Y-84713208D02*
X155420110Y-85741780D01*
X155420110Y-85741780D02*
X155477253Y-85856066D01*
X155477253Y-85856066D02*
X155591538Y-85913208D01*
X155591538Y-85913208D02*
X155705824Y-85913208D01*
X156562967Y-85856066D02*
X156448681Y-85913208D01*
X156448681Y-85913208D02*
X156220110Y-85913208D01*
X156220110Y-85913208D02*
X156105824Y-85856066D01*
X156105824Y-85856066D02*
X156048681Y-85741780D01*
X156048681Y-85741780D02*
X156048681Y-85284637D01*
X156048681Y-85284637D02*
X156105824Y-85170351D01*
X156105824Y-85170351D02*
X156220110Y-85113208D01*
X156220110Y-85113208D02*
X156448681Y-85113208D01*
X156448681Y-85113208D02*
X156562967Y-85170351D01*
X156562967Y-85170351D02*
X156620110Y-85284637D01*
X156620110Y-85284637D02*
X156620110Y-85398923D01*
X156620110Y-85398923D02*
X156048681Y-85513208D01*
X157020109Y-85913208D02*
X157648681Y-85113208D01*
X157020109Y-85113208D02*
X157648681Y-85913208D01*
X158105824Y-85913208D02*
X158105824Y-85113208D01*
X158105824Y-84713208D02*
X158048681Y-84770351D01*
X158048681Y-84770351D02*
X158105824Y-84827494D01*
X158105824Y-84827494D02*
X158162967Y-84770351D01*
X158162967Y-84770351D02*
X158105824Y-84713208D01*
X158105824Y-84713208D02*
X158105824Y-84827494D01*
X158505824Y-85113208D02*
X158962967Y-85113208D01*
X158677253Y-84713208D02*
X158677253Y-85741780D01*
X158677253Y-85741780D02*
X158734396Y-85856066D01*
X158734396Y-85856066D02*
X158848681Y-85913208D01*
X158848681Y-85913208D02*
X158962967Y-85913208D01*
X160220110Y-84656066D02*
X159191538Y-86198923D01*
X160448681Y-85113208D02*
X160905824Y-85113208D01*
X160620110Y-84713208D02*
X160620110Y-85741780D01*
X160620110Y-85741780D02*
X160677253Y-85856066D01*
X160677253Y-85856066D02*
X160791538Y-85913208D01*
X160791538Y-85913208D02*
X160905824Y-85913208D01*
X161477252Y-85227494D02*
X161362967Y-85170351D01*
X161362967Y-85170351D02*
X161305824Y-85113208D01*
X161305824Y-85113208D02*
X161248681Y-84998923D01*
X161248681Y-84998923D02*
X161248681Y-84941780D01*
X161248681Y-84941780D02*
X161305824Y-84827494D01*
X161305824Y-84827494D02*
X161362967Y-84770351D01*
X161362967Y-84770351D02*
X161477252Y-84713208D01*
X161477252Y-84713208D02*
X161705824Y-84713208D01*
X161705824Y-84713208D02*
X161820110Y-84770351D01*
X161820110Y-84770351D02*
X161877252Y-84827494D01*
X161877252Y-84827494D02*
X161934395Y-84941780D01*
X161934395Y-84941780D02*
X161934395Y-84998923D01*
X161934395Y-84998923D02*
X161877252Y-85113208D01*
X161877252Y-85113208D02*
X161820110Y-85170351D01*
X161820110Y-85170351D02*
X161705824Y-85227494D01*
X161705824Y-85227494D02*
X161477252Y-85227494D01*
X161477252Y-85227494D02*
X161362967Y-85284637D01*
X161362967Y-85284637D02*
X161305824Y-85341780D01*
X161305824Y-85341780D02*
X161248681Y-85456066D01*
X161248681Y-85456066D02*
X161248681Y-85684637D01*
X161248681Y-85684637D02*
X161305824Y-85798923D01*
X161305824Y-85798923D02*
X161362967Y-85856066D01*
X161362967Y-85856066D02*
X161477252Y-85913208D01*
X161477252Y-85913208D02*
X161705824Y-85913208D01*
X161705824Y-85913208D02*
X161820110Y-85856066D01*
X161820110Y-85856066D02*
X161877252Y-85798923D01*
X161877252Y-85798923D02*
X161934395Y-85684637D01*
X161934395Y-85684637D02*
X161934395Y-85456066D01*
X161934395Y-85456066D02*
X161877252Y-85341780D01*
X161877252Y-85341780D02*
X161820110Y-85284637D01*
X161820110Y-85284637D02*
X161705824Y-85227494D01*
X162677252Y-84713208D02*
X162791538Y-84713208D01*
X162791538Y-84713208D02*
X162905824Y-84770351D01*
X162905824Y-84770351D02*
X162962967Y-84827494D01*
X162962967Y-84827494D02*
X163020109Y-84941780D01*
X163020109Y-84941780D02*
X163077252Y-85170351D01*
X163077252Y-85170351D02*
X163077252Y-85456066D01*
X163077252Y-85456066D02*
X163020109Y-85684637D01*
X163020109Y-85684637D02*
X162962967Y-85798923D01*
X162962967Y-85798923D02*
X162905824Y-85856066D01*
X162905824Y-85856066D02*
X162791538Y-85913208D01*
X162791538Y-85913208D02*
X162677252Y-85913208D01*
X162677252Y-85913208D02*
X162562967Y-85856066D01*
X162562967Y-85856066D02*
X162505824Y-85798923D01*
X162505824Y-85798923D02*
X162448681Y-85684637D01*
X162448681Y-85684637D02*
X162391538Y-85456066D01*
X162391538Y-85456066D02*
X162391538Y-85170351D01*
X162391538Y-85170351D02*
X162448681Y-84941780D01*
X162448681Y-84941780D02*
X162505824Y-84827494D01*
X162505824Y-84827494D02*
X162562967Y-84770351D01*
X162562967Y-84770351D02*
X162677252Y-84713208D01*
X163591538Y-85456066D02*
X164505824Y-85456066D01*
X165648680Y-84713208D02*
X165077252Y-84713208D01*
X165077252Y-84713208D02*
X165020109Y-85284637D01*
X165020109Y-85284637D02*
X165077252Y-85227494D01*
X165077252Y-85227494D02*
X165191538Y-85170351D01*
X165191538Y-85170351D02*
X165477252Y-85170351D01*
X165477252Y-85170351D02*
X165591538Y-85227494D01*
X165591538Y-85227494D02*
X165648680Y-85284637D01*
X165648680Y-85284637D02*
X165705823Y-85398923D01*
X165705823Y-85398923D02*
X165705823Y-85684637D01*
X165705823Y-85684637D02*
X165648680Y-85798923D01*
X165648680Y-85798923D02*
X165591538Y-85856066D01*
X165591538Y-85856066D02*
X165477252Y-85913208D01*
X165477252Y-85913208D02*
X165191538Y-85913208D01*
X165191538Y-85913208D02*
X165077252Y-85856066D01*
X165077252Y-85856066D02*
X165020109Y-85798923D01*
X166448680Y-84713208D02*
X166562966Y-84713208D01*
X166562966Y-84713208D02*
X166677252Y-84770351D01*
X166677252Y-84770351D02*
X166734395Y-84827494D01*
X166734395Y-84827494D02*
X166791537Y-84941780D01*
X166791537Y-84941780D02*
X166848680Y-85170351D01*
X166848680Y-85170351D02*
X166848680Y-85456066D01*
X166848680Y-85456066D02*
X166791537Y-85684637D01*
X166791537Y-85684637D02*
X166734395Y-85798923D01*
X166734395Y-85798923D02*
X166677252Y-85856066D01*
X166677252Y-85856066D02*
X166562966Y-85913208D01*
X166562966Y-85913208D02*
X166448680Y-85913208D01*
X166448680Y-85913208D02*
X166334395Y-85856066D01*
X166334395Y-85856066D02*
X166277252Y-85798923D01*
X166277252Y-85798923D02*
X166220109Y-85684637D01*
X166220109Y-85684637D02*
X166162966Y-85456066D01*
X166162966Y-85456066D02*
X166162966Y-85170351D01*
X166162966Y-85170351D02*
X166220109Y-84941780D01*
X166220109Y-84941780D02*
X166277252Y-84827494D01*
X166277252Y-84827494D02*
X166334395Y-84770351D01*
X166334395Y-84770351D02*
X166448680Y-84713208D01*
X167591537Y-84713208D02*
X167705823Y-84713208D01*
X167705823Y-84713208D02*
X167820109Y-84770351D01*
X167820109Y-84770351D02*
X167877252Y-84827494D01*
X167877252Y-84827494D02*
X167934394Y-84941780D01*
X167934394Y-84941780D02*
X167991537Y-85170351D01*
X167991537Y-85170351D02*
X167991537Y-85456066D01*
X167991537Y-85456066D02*
X167934394Y-85684637D01*
X167934394Y-85684637D02*
X167877252Y-85798923D01*
X167877252Y-85798923D02*
X167820109Y-85856066D01*
X167820109Y-85856066D02*
X167705823Y-85913208D01*
X167705823Y-85913208D02*
X167591537Y-85913208D01*
X167591537Y-85913208D02*
X167477252Y-85856066D01*
X167477252Y-85856066D02*
X167420109Y-85798923D01*
X167420109Y-85798923D02*
X167362966Y-85684637D01*
X167362966Y-85684637D02*
X167305823Y-85456066D01*
X167305823Y-85456066D02*
X167305823Y-85170351D01*
X167305823Y-85170351D02*
X167362966Y-84941780D01*
X167362966Y-84941780D02*
X167420109Y-84827494D01*
X167420109Y-84827494D02*
X167477252Y-84770351D01*
X167477252Y-84770351D02*
X167591537Y-84713208D01*
X168734394Y-84713208D02*
X168848680Y-84713208D01*
X168848680Y-84713208D02*
X168962966Y-84770351D01*
X168962966Y-84770351D02*
X169020109Y-84827494D01*
X169020109Y-84827494D02*
X169077251Y-84941780D01*
X169077251Y-84941780D02*
X169134394Y-85170351D01*
X169134394Y-85170351D02*
X169134394Y-85456066D01*
X169134394Y-85456066D02*
X169077251Y-85684637D01*
X169077251Y-85684637D02*
X169020109Y-85798923D01*
X169020109Y-85798923D02*
X168962966Y-85856066D01*
X168962966Y-85856066D02*
X168848680Y-85913208D01*
X168848680Y-85913208D02*
X168734394Y-85913208D01*
X168734394Y-85913208D02*
X168620109Y-85856066D01*
X168620109Y-85856066D02*
X168562966Y-85798923D01*
X168562966Y-85798923D02*
X168505823Y-85684637D01*
X168505823Y-85684637D02*
X168448680Y-85456066D01*
X168448680Y-85456066D02*
X168448680Y-85170351D01*
X168448680Y-85170351D02*
X168505823Y-84941780D01*
X168505823Y-84941780D02*
X168562966Y-84827494D01*
X168562966Y-84827494D02*
X168620109Y-84770351D01*
X168620109Y-84770351D02*
X168734394Y-84713208D01*
D12*
X137050000Y-79900000D02*
X179950000Y-79900000D01*
X179950000Y-87000000D01*
X137050000Y-87000000D01*
X137050000Y-79900000D01*
%LPC*%
D13*
%TO.C,S3*%
X179463750Y-191625000D03*
D14*
X187063750Y-186050000D03*
X187063750Y-197200000D03*
D13*
X194663750Y-191625000D03*
X220963750Y-191625000D03*
D14*
X228563750Y-186050000D03*
X228563750Y-197200000D03*
D13*
X236163750Y-191625000D03*
%TD*%
D15*
%TO.C,S2*%
X228563750Y-197210000D03*
D16*
X228563750Y-181970000D03*
D15*
X187063750Y-197210000D03*
D16*
X187063750Y-181970000D03*
%TD*%
D17*
%TO.C,MX40*%
X230981250Y-116205000D03*
D16*
X230981250Y-111125000D03*
D17*
X230981250Y-106045000D03*
%TD*%
%TO.C,MX36*%
X206851250Y-111125000D03*
D16*
X211931250Y-111125000D03*
D17*
X217011250Y-111125000D03*
%TD*%
%TO.C,MX19*%
X135413750Y-168275000D03*
D16*
X140493750Y-168275000D03*
D17*
X145573750Y-168275000D03*
%TD*%
%TO.C,MX24*%
X154463750Y-168275000D03*
D16*
X159543750Y-168275000D03*
D17*
X164623750Y-168275000D03*
%TD*%
%TO.C,MX4*%
X83026250Y-149225000D03*
D16*
X88106250Y-149225000D03*
D17*
X93186250Y-149225000D03*
%TD*%
%TO.C,MX15*%
X140176250Y-73025000D03*
D16*
X145256250Y-73025000D03*
D17*
X150336250Y-73025000D03*
%TD*%
%TO.C,MX20*%
X159226250Y-73025000D03*
D16*
X164306250Y-73025000D03*
D17*
X169386250Y-73025000D03*
%TD*%
%TO.C,MX12*%
X116363750Y-187325000D03*
D16*
X121443750Y-187325000D03*
D17*
X126523750Y-187325000D03*
%TD*%
%TO.C,MX42*%
X226218750Y-154305000D03*
D16*
X226218750Y-149225000D03*
D17*
X226218750Y-144145000D03*
%TD*%
%TO.C,MX29*%
X183038750Y-149225000D03*
D16*
X188118750Y-149225000D03*
D17*
X193198750Y-149225000D03*
%TD*%
%TO.C,MX35*%
X206851250Y-73025000D03*
D16*
X211931250Y-73025000D03*
D17*
X217011250Y-73025000D03*
%TD*%
%TO.C,MX22*%
X159226250Y-130175000D03*
D16*
X164306250Y-130175000D03*
D17*
X169386250Y-130175000D03*
%TD*%
%TO.C,MX1*%
X83026250Y-73025000D03*
D16*
X88106250Y-73025000D03*
D17*
X93186250Y-73025000D03*
%TD*%
%TO.C,MX5*%
X83026250Y-168275000D03*
D16*
X88106250Y-168275000D03*
D17*
X93186250Y-168275000D03*
%TD*%
%TO.C,MX9*%
X116363750Y-130175000D03*
D16*
X121443750Y-130175000D03*
D17*
X126523750Y-130175000D03*
%TD*%
%TO.C,MX10*%
X113982500Y-149225000D03*
D16*
X119062500Y-149225000D03*
D17*
X124142500Y-149225000D03*
%TD*%
%TO.C,MX38*%
X202733750Y-188125000D03*
D16*
X207813750Y-188125000D03*
D17*
X212893750Y-188125000D03*
%TD*%
%TO.C,MX27*%
X168751250Y-111125000D03*
D16*
X173831250Y-111125000D03*
D17*
X178911250Y-111125000D03*
%TD*%
%TO.C,MX18*%
X144938750Y-149225000D03*
D16*
X150018750Y-149225000D03*
D17*
X155098750Y-149225000D03*
%TD*%
%TO.C,MX3*%
X83026250Y-130175000D03*
D16*
X88106250Y-130175000D03*
D17*
X93186250Y-130175000D03*
%TD*%
%TO.C,MX25*%
X154463750Y-187325000D03*
D16*
X159543750Y-187325000D03*
D17*
X164623750Y-187325000D03*
%TD*%
%TO.C,MX2*%
X83026250Y-111125000D03*
D16*
X88106250Y-111125000D03*
D17*
X93186250Y-111125000D03*
%TD*%
%TO.C,MX28*%
X178276250Y-130175000D03*
D16*
X183356250Y-130175000D03*
D17*
X188436250Y-130175000D03*
%TD*%
D16*
%TO.C,S1*%
X116681250Y-176530000D03*
X140493750Y-176530000D03*
%TD*%
D17*
%TO.C,MX41*%
X221456250Y-135255000D03*
D16*
X221456250Y-130175000D03*
D17*
X221456250Y-125095000D03*
%TD*%
%TO.C,MX7*%
X121126250Y-73025000D03*
D16*
X126206250Y-73025000D03*
D17*
X131286250Y-73025000D03*
%TD*%
%TO.C,MX13*%
X118745000Y-149225000D03*
D16*
X123825000Y-149225000D03*
D17*
X128905000Y-149225000D03*
%TD*%
%TO.C,MX33*%
X202088750Y-149225000D03*
D16*
X207168750Y-149225000D03*
D17*
X212248750Y-149225000D03*
%TD*%
%TO.C,MX32*%
X197326250Y-130175000D03*
D16*
X202406250Y-130175000D03*
D17*
X207486250Y-130175000D03*
%TD*%
%TO.C,MX16*%
X130651250Y-111125000D03*
D16*
X135731250Y-111125000D03*
D17*
X140811250Y-111125000D03*
%TD*%
%TO.C,MX6*%
X83026250Y-187325000D03*
D16*
X88106250Y-187325000D03*
D17*
X93186250Y-187325000D03*
%TD*%
%TO.C,MX43*%
X235743750Y-173355000D03*
D16*
X235743750Y-168275000D03*
D17*
X235743750Y-163195000D03*
%TD*%
%TO.C,MX34*%
X192563750Y-168275000D03*
D16*
X197643750Y-168275000D03*
D17*
X202723750Y-168275000D03*
%TD*%
%TO.C,MX11*%
X113982500Y-168275000D03*
D16*
X119062500Y-168275000D03*
D17*
X124142500Y-168275000D03*
%TD*%
%TO.C,MX14*%
X123507500Y-168275000D03*
D16*
X128587500Y-168275000D03*
D17*
X133667500Y-168275000D03*
%TD*%
%TO.C,MX39*%
X230981250Y-78105000D03*
D16*
X230981250Y-73025000D03*
D17*
X230981250Y-67945000D03*
%TD*%
%TO.C,MX37*%
X211613750Y-168275000D03*
D16*
X216693750Y-168275000D03*
D17*
X221773750Y-168275000D03*
%TD*%
%TO.C,MX17*%
X140176250Y-130175000D03*
D16*
X145256250Y-130175000D03*
D17*
X150336250Y-130175000D03*
%TD*%
%TO.C,MX31*%
X187801250Y-111125000D03*
D16*
X192881250Y-111125000D03*
D17*
X197961250Y-111125000D03*
%TD*%
%TO.C,MX30*%
X173513750Y-168275000D03*
D16*
X178593750Y-168275000D03*
D17*
X183673750Y-168275000D03*
%TD*%
%TO.C,MX23*%
X163988750Y-149225000D03*
D16*
X169068750Y-149225000D03*
D17*
X174148750Y-149225000D03*
%TD*%
%TO.C,MX8*%
X111601250Y-111125000D03*
D16*
X116681250Y-111125000D03*
D17*
X121761250Y-111125000D03*
%TD*%
%TO.C,MX26*%
X178276250Y-73025000D03*
D16*
X183356250Y-73025000D03*
D17*
X188436250Y-73025000D03*
%TD*%
%TO.C,MX21*%
X149701250Y-111125000D03*
D16*
X154781250Y-111125000D03*
D17*
X159861250Y-111125000D03*
%TD*%
D18*
%TO.C,J2*%
X96192957Y-56336833D03*
X98451383Y-61657351D03*
D19*
X95146344Y-55227598D03*
D20*
X98994055Y-53594342D03*
X102369972Y-61547504D03*
D19*
X98522261Y-63180760D03*
%TD*%
D14*
%TO.C,R11*%
X136525000Y-154305000D03*
D21*
X136525000Y-144145000D03*
%TD*%
D22*
%TO.C,J1*%
X97525000Y-106400000D03*
D23*
X100065000Y-106400000D03*
X102605000Y-106400000D03*
X105145000Y-106400000D03*
X107685000Y-106400000D03*
%TD*%
D24*
%TO.C,J3*%
X142256650Y-55155000D03*
X135256750Y-55155000D03*
D25*
X137656750Y-52755000D03*
X140656750Y-52755000D03*
X132656750Y-57555000D03*
X133656750Y-52755000D03*
%TD*%
D22*
%TO.C,BOOT1*%
X126206250Y-108262500D03*
D23*
X126206250Y-110802500D03*
%TD*%
%LPD*%
M02*
