M48
; DRILL file {KiCad 8.0.2} date 2024-11-08T18:32:23-0800
; FORMAT={-:-/ absolute / inch / decimal}
; #@! TF.CreationDate,2024-11-08T18:32:23-08:00
; #@! TF.GenerationSoftware,Kicad,Pcbnew,8.0.2
; #@! TF.FileFunction,Plated,1,2,PTH
FMAT,2
INCH
; #@! TA.AperFunction,Plated,PTH,ViaDrill
T1C0.0118
; #@! TA.AperFunction,Plated,PTH,ComponentDrill
T2C0.0197
; #@! TA.AperFunction,Plated,PTH,ComponentDrill
T3C0.0236
; #@! TA.AperFunction,Plated,PTH,ComponentDrill
T4C0.0315
; #@! TA.AperFunction,Plated,PTH,ComponentDrill
T5C0.0394
; #@! TA.AperFunction,Plated,PTH,ComponentDrill
T6C0.0409
; #@! TA.AperFunction,Plated,PTH,ComponentDrill
T7C0.0600
; #@! TA.AperFunction,Plated,PTH,ComponentDrill
T8C0.1200
%
G90
G05
T1
X3.6378Y-2.5472
X3.6485Y-2.4183
X3.6562Y-2.9688
X3.6785Y-2.2077
X3.7087Y-2.7087
X3.7188Y-3.6063
X3.7306Y-3.4488
X3.7362Y-2.6063
X3.8031Y-3.1417
X3.8108Y-2.5194
X3.8425Y-2.5669
X3.8661Y-3.9291
X3.9173Y-2.811
X3.9252Y-3.0354
X3.937Y-2.7205
X3.9519Y-3.7944
X3.9528Y-3.252
X3.9538Y-2.9362
X3.954Y-3.0005
X3.9646Y-2.2677
X4.0Y-3.5197
X4.0Y-3.5591
X4.0Y-3.5984
X4.002Y-3.4764
X4.0217Y-3.6417
X4.0236Y-4.4016
X4.0259Y-3.0007
X4.0261Y-2.9364
X4.0312Y-3.25
X4.0394Y-3.5197
X4.0394Y-3.5591
X4.0394Y-3.5984
X4.0742Y-3.8096
X4.0787Y-3.2913
X4.0787Y-3.5197
X4.0787Y-3.5591
X4.0787Y-3.5984
X4.0787Y-4.0197
X4.1323Y-3.8008
X4.1654Y-4.4016
X4.2362Y-3.6063
X4.2441Y-3.4094
X4.3465Y-3.6063
X4.3661Y-3.2913
X4.3787Y-6.1575
X4.4094Y-2.9291
X4.4173Y-3.3704
X4.4173Y-3.8898
X4.4843Y-3.0866
X4.4843Y-3.2559
X4.5354Y-3.0827
X4.5354Y-3.2835
X4.5591Y-3.4173
X4.626Y-2.7244
X4.6299Y-3.3937
X4.6378Y-3.0472
X4.6929Y-3.4449
X4.7168Y-2.9368
X4.7172Y-3.0008
X4.7717Y-2.4409
X4.7812Y-2.9688
X5.0709Y-3.5433
X5.311Y-3.4449
X5.311Y-3.5157
X5.3438Y-3.748
X5.3543Y-2.2677
X5.3748Y-5.9437
X5.378Y-3.4449
X5.378Y-3.5157
X5.4803Y-2.1378
X5.4803Y-2.3031
X5.5039Y-2.5197
X5.6535Y-2.5827
X5.6929Y-2.5354
X5.6929Y-2.5827
X5.7283Y-2.5354
X6.0591Y-3.4449
X6.0591Y-3.5157
X6.0938Y-3.7244
X6.126Y-3.4449
X6.126Y-3.5157
X6.811Y-3.4449
X6.811Y-3.5157
X6.8438Y-3.6701
X6.878Y-3.4449
X6.878Y-3.5157
X7.4055Y-2.9712
X7.5938Y-3.6543
X7.9528Y-2.5984
X7.9567Y-2.6772
X7.9567Y-2.937
X7.9567Y-3.0039
X8.0276Y-2.937
X8.0276Y-3.0039
X8.0315Y-2.4409
X8.0394Y-2.5669
X8.1732Y-2.9712
X8.2008Y-2.6575
X8.2205Y-3.6378
X8.252Y-2.4409
X8.4724Y-3.6142
T4
X5.375Y-5.675
X5.375Y-6.075
T5
X3.8396Y-4.189
X3.9396Y-4.189
X4.0396Y-4.189
X4.1396Y-4.189
X4.2396Y-4.189
X4.9688Y-4.2623
X4.9688Y-4.3623
T6
X4.6375Y-6.075
X4.7375Y-6.075
X4.825Y-6.075
X4.925Y-6.075
T7
X3.3188Y-2.775
X3.3188Y-4.275
X3.3188Y-5.025
X3.3188Y-5.775
X3.3188Y-6.525
X3.3188Y-7.275
X3.5688Y-2.675
X3.5688Y-4.175
X3.5688Y-4.925
X3.5688Y-5.675
X3.5688Y-6.425
X3.5688Y-7.175
X4.4437Y-4.275
X4.5375Y-5.775
X4.5375Y-6.525
X4.6312Y-5.025
X4.6312Y-7.275
X4.6937Y-4.175
X4.725Y-5.775
X4.7875Y-5.675
X4.7875Y-6.425
X4.8187Y-2.775
X4.8812Y-4.925
X4.8812Y-7.175
X4.9125Y-6.525
X4.975Y-5.675
X5.0687Y-2.675
X5.1625Y-6.425
X5.1937Y-4.275
X5.3812Y-6.525
X5.4437Y-4.175
X5.5687Y-2.775
X5.5687Y-5.025
X5.6312Y-6.425
X5.7562Y-5.775
X5.8187Y-2.675
X5.8187Y-4.925
X5.9437Y-4.275
X6.0062Y-5.675
X6.1312Y-6.525
X6.1312Y-7.275
X6.1937Y-4.175
X6.3187Y-2.775
X6.3187Y-5.025
X6.3812Y-6.425
X6.3812Y-7.175
X6.5062Y-5.775
X6.5687Y-2.675
X6.5687Y-4.925
X6.6937Y-4.275
X6.7562Y-5.675
X6.8812Y-6.525
X6.9437Y-4.175
X7.0687Y-2.775
X7.0687Y-5.025
X7.1312Y-6.425
X7.2562Y-5.775
X7.3187Y-2.675
X7.3187Y-4.925
X7.4437Y-4.275
X7.5062Y-5.675
X7.6312Y-6.525
X7.6937Y-4.175
X7.8187Y-5.025
X7.8812Y-6.425
X8.0062Y-5.775
X8.0316Y-7.3065
X8.0687Y-4.925
X8.1937Y-2.775
X8.1937Y-4.275
X8.2562Y-5.675
X8.2816Y-7.2065
X8.3812Y-6.525
X8.4437Y-2.675
X8.4437Y-4.175
X8.5187Y-5.025
X8.6188Y-5.275
X8.6312Y-6.425
X8.7062Y-5.775
X8.8063Y-6.025
X8.8937Y-2.775
X8.8937Y-4.275
X8.9938Y-3.025
X8.9938Y-4.525
X9.0812Y-6.525
X9.1813Y-6.775
T8
X4.5938Y-6.35
X5.5312Y-6.35
T2
G00X5.203Y-2.2659
M15
G01X5.2424Y-2.2659
M16
G05
G00X5.2424Y-2.077
M15
G01X5.2818Y-2.077
M16
G05
G00X5.3999Y-2.077
M15
G01X5.4392Y-2.077
M16
G05
G00X5.518Y-2.077
M15
G01X5.5574Y-2.077
M16
G05
T3
G00X3.7659Y-2.1659
M15
G01X3.726Y-2.1828
M16
G05
G00X3.8988Y-2.479
M15
G01X3.8589Y-2.4959
M16
G05
G00X3.9083Y-2.1054
M15
G01X3.8865Y-2.1146
M16
G05
G00X4.0412Y-2.4185
M15
G01X4.0194Y-2.4277
M16
G05
M30
