%TF.GenerationSoftware,KiCad,Pcbnew,8.0.2*%
%TF.CreationDate,2024-11-08T17:25:48-08:00*%
%TF.ProjectId,gh80-5000-daughterboard,67683830-2d35-4303-9030-2d6461756768,rev?*%
%TF.SameCoordinates,Original*%
%TF.FileFunction,Copper,L2,Bot*%
%TF.FilePolarity,Positive*%
%FSLAX46Y46*%
G04 Gerber Fmt 4.6, Leading zero omitted, Abs format (unit mm)*
G04 Created by KiCad (PCBNEW 8.0.2) date 2024-11-08 17:25:48*
%MOMM*%
%LPD*%
G01*
G04 APERTURE LIST*
%TA.AperFunction,ComponentPad*%
%ADD10O,0.900000X2.100000*%
%TD*%
%TA.AperFunction,ComponentPad*%
%ADD11O,0.900000X1.800000*%
%TD*%
%TA.AperFunction,ViaPad*%
%ADD12C,0.600000*%
%TD*%
%TA.AperFunction,Conductor*%
%ADD13C,0.500000*%
%TD*%
G04 APERTURE END LIST*
D10*
%TO.P,J3,S1,SHIELD*%
%TO.N,GND*%
X195069900Y-51682600D03*
D11*
X195069900Y-47502800D03*
D10*
X186430100Y-51682600D03*
D11*
X186430100Y-47502800D03*
%TD*%
D12*
%TO.N,GND*%
X195050000Y-53250000D03*
X167200000Y-71600000D03*
X183137549Y-61356217D03*
X184815617Y-59659400D03*
X188900000Y-55000000D03*
X161500000Y-67300000D03*
X191300000Y-55000000D03*
X189200000Y-59000000D03*
X191100000Y-59000000D03*
X185300000Y-51700000D03*
X184824992Y-61374966D03*
X183193797Y-59640650D03*
X161500000Y-73000000D03*
%TO.N,+5V*%
X184000000Y-58000000D03*
X184000000Y-61300000D03*
%TD*%
D13*
%TO.N,+5V*%
X184000000Y-61300000D02*
X184000000Y-58000000D01*
%TD*%
%TA.AperFunction,Conductor*%
%TO.N,GND*%
G36*
X197133985Y-44900539D02*
G01*
X197196331Y-44900538D01*
X197203416Y-44900791D01*
X197406964Y-44915398D01*
X197420985Y-44917421D01*
X197616889Y-44960189D01*
X197630480Y-44964194D01*
X197812315Y-45032272D01*
X197818266Y-45034500D01*
X197831150Y-45040407D01*
X198006968Y-45136811D01*
X198018862Y-45144487D01*
X198179121Y-45265019D01*
X198189806Y-45274324D01*
X198331204Y-45416501D01*
X198340452Y-45427240D01*
X198460091Y-45588148D01*
X198467710Y-45600094D01*
X198563143Y-45776439D01*
X198568980Y-45789356D01*
X198638252Y-45977525D01*
X198642184Y-45991144D01*
X198683871Y-46187271D01*
X198685818Y-46201312D01*
X198699276Y-46404513D01*
X198699490Y-46411601D01*
X198699126Y-46477459D01*
X198699500Y-46483402D01*
X198699500Y-70396460D01*
X198699248Y-70403523D01*
X198684742Y-70606339D01*
X198682732Y-70620320D01*
X198640263Y-70815546D01*
X198636283Y-70829099D01*
X198566465Y-71016286D01*
X198560597Y-71029135D01*
X198464848Y-71204484D01*
X198457211Y-71216367D01*
X198337483Y-71376303D01*
X198328233Y-71386978D01*
X198186961Y-71528247D01*
X198176286Y-71537497D01*
X198016348Y-71657223D01*
X198004465Y-71664860D01*
X197829109Y-71760609D01*
X197816260Y-71766476D01*
X197629078Y-71836289D01*
X197615525Y-71840269D01*
X197420298Y-71882735D01*
X197406316Y-71884745D01*
X197203064Y-71899278D01*
X197196003Y-71899530D01*
X197128023Y-71899530D01*
X197128007Y-71899531D01*
X197127612Y-71899531D01*
X197127505Y-71899538D01*
X189485955Y-71899538D01*
X189476070Y-71899509D01*
X189344698Y-71899128D01*
X189084100Y-71932698D01*
X188830148Y-72000057D01*
X188830142Y-72000059D01*
X188587172Y-72100053D01*
X188359358Y-72230967D01*
X188150627Y-72390547D01*
X188150626Y-72390548D01*
X187964559Y-72576051D01*
X187804345Y-72784300D01*
X187804341Y-72784306D01*
X187672747Y-73011702D01*
X187672739Y-73011717D01*
X187572010Y-73254378D01*
X187572008Y-73254385D01*
X187503879Y-73508132D01*
X187503878Y-73508139D01*
X187469516Y-73768632D01*
X187469508Y-73827979D01*
X187469500Y-73828123D01*
X187469500Y-79156460D01*
X187469248Y-79163523D01*
X187454742Y-79366339D01*
X187452732Y-79380320D01*
X187410263Y-79575546D01*
X187406283Y-79589099D01*
X187336465Y-79776286D01*
X187330597Y-79789135D01*
X187234848Y-79964484D01*
X187227211Y-79976367D01*
X187107483Y-80136303D01*
X187098233Y-80146978D01*
X186956961Y-80288247D01*
X186946286Y-80297497D01*
X186786348Y-80417223D01*
X186774465Y-80424860D01*
X186599109Y-80520609D01*
X186586260Y-80526476D01*
X186399078Y-80596289D01*
X186385525Y-80600269D01*
X186190298Y-80642735D01*
X186176316Y-80644745D01*
X185973064Y-80659278D01*
X185966003Y-80659530D01*
X185898023Y-80659530D01*
X185898007Y-80659531D01*
X185897612Y-80659531D01*
X185897505Y-80659538D01*
X68853518Y-80659538D01*
X68846454Y-80659286D01*
X68643632Y-80644776D01*
X68629651Y-80642765D01*
X68465285Y-80607008D01*
X68434438Y-80600297D01*
X68420890Y-80596320D01*
X68327289Y-80561408D01*
X68233692Y-80526497D01*
X68220844Y-80520629D01*
X68045498Y-80424881D01*
X68033616Y-80417245D01*
X68004129Y-80395171D01*
X67873671Y-80297511D01*
X67863018Y-80288281D01*
X67721726Y-80146990D01*
X67712484Y-80136323D01*
X67592759Y-79976391D01*
X67585122Y-79964508D01*
X67489371Y-79789157D01*
X67483503Y-79776309D01*
X67413678Y-79589108D01*
X67409704Y-79575572D01*
X67367234Y-79380351D01*
X67365224Y-79366372D01*
X67350752Y-79164080D01*
X67350500Y-79157016D01*
X67350500Y-68750037D01*
X181024457Y-68750037D01*
X181024457Y-68750038D01*
X181044608Y-69057495D01*
X181104721Y-69359703D01*
X181203764Y-69651471D01*
X181340040Y-69927811D01*
X181340044Y-69927817D01*
X181511214Y-70183991D01*
X181511217Y-70183995D01*
X181511222Y-70184002D01*
X181714380Y-70415658D01*
X181946036Y-70618816D01*
X181946043Y-70618821D01*
X181946046Y-70618823D01*
X182202220Y-70789993D01*
X182202226Y-70789997D01*
X182478566Y-70926273D01*
X182478568Y-70926273D01*
X182478573Y-70926276D01*
X182660576Y-70988057D01*
X182770334Y-71025316D01*
X182770336Y-71025316D01*
X182770341Y-71025318D01*
X183072540Y-71085429D01*
X183380000Y-71105581D01*
X183687460Y-71085429D01*
X183989659Y-71025318D01*
X184281427Y-70926276D01*
X184557772Y-70789998D01*
X184813964Y-70618816D01*
X185045620Y-70415658D01*
X185248778Y-70184002D01*
X185419960Y-69927810D01*
X185556238Y-69651465D01*
X185655280Y-69359697D01*
X185715391Y-69057498D01*
X185735543Y-68750038D01*
X185715391Y-68442578D01*
X185655280Y-68140379D01*
X185556238Y-67848611D01*
X185419960Y-67572267D01*
X185248778Y-67316074D01*
X185045620Y-67084418D01*
X184813964Y-66881260D01*
X184813957Y-66881255D01*
X184813953Y-66881252D01*
X184557779Y-66710082D01*
X184557773Y-66710078D01*
X184281433Y-66573802D01*
X183989665Y-66474759D01*
X183687457Y-66414646D01*
X183380000Y-66394495D01*
X183072542Y-66414646D01*
X182770334Y-66474759D01*
X182478566Y-66573802D01*
X182202229Y-66710077D01*
X181946036Y-66881259D01*
X181946035Y-66881261D01*
X181714382Y-67084416D01*
X181714378Y-67084420D01*
X181656414Y-67150515D01*
X181550371Y-67271434D01*
X181511223Y-67316073D01*
X181511221Y-67316074D01*
X181340039Y-67572267D01*
X181203764Y-67848604D01*
X181104721Y-68140372D01*
X181044608Y-68442580D01*
X181024457Y-68750037D01*
X67350500Y-68750037D01*
X67350500Y-65590704D01*
X76545142Y-65590704D01*
X76561249Y-65823419D01*
X76611991Y-66051113D01*
X76696219Y-66268632D01*
X76696224Y-66268642D01*
X76779743Y-66414646D01*
X76812053Y-66471127D01*
X76812057Y-66471134D01*
X76956866Y-66654000D01*
X76956869Y-66654003D01*
X77127411Y-66813154D01*
X77127414Y-66813156D01*
X77319850Y-66945004D01*
X77319853Y-66945005D01*
X77319854Y-66945006D01*
X77529838Y-67046577D01*
X77529847Y-67046581D01*
X77594588Y-67066633D01*
X77752673Y-67115597D01*
X77956644Y-67146465D01*
X77983311Y-67150501D01*
X77983317Y-67150502D01*
X77987061Y-67150503D01*
X78027254Y-67150515D01*
X78027595Y-67150538D01*
X78099954Y-67150538D01*
X78165846Y-67150540D01*
X78165849Y-67150538D01*
X78172728Y-67150539D01*
X78172757Y-67150538D01*
X80191817Y-67150538D01*
X80192932Y-67150464D01*
X80236147Y-67150466D01*
X80465939Y-67115836D01*
X80688003Y-67047345D01*
X80897378Y-66946520D01*
X81089388Y-66815616D01*
X81259742Y-66657555D01*
X81404634Y-66475870D01*
X81520830Y-66274619D01*
X81605732Y-66058297D01*
X81657443Y-65831737D01*
X81674810Y-65600000D01*
X81671815Y-65560035D01*
X167324592Y-65560035D01*
X167324592Y-65560040D01*
X167344197Y-65821663D01*
X167344198Y-65821669D01*
X167402580Y-66077457D01*
X167498429Y-66321674D01*
X167498438Y-66321693D01*
X167629610Y-66548889D01*
X167629620Y-66548903D01*
X167793185Y-66754008D01*
X167793196Y-66754020D01*
X167985514Y-66932465D01*
X167985516Y-66932466D01*
X167985521Y-66932471D01*
X168202296Y-67080266D01*
X168275662Y-67115597D01*
X168438674Y-67194100D01*
X168438676Y-67194100D01*
X168438677Y-67194101D01*
X168689385Y-67271434D01*
X168948818Y-67310538D01*
X168948823Y-67310538D01*
X169211177Y-67310538D01*
X169211182Y-67310538D01*
X169470615Y-67271434D01*
X169721323Y-67194101D01*
X169957704Y-67080266D01*
X170174479Y-66932471D01*
X170366805Y-66754019D01*
X170530386Y-66548895D01*
X170661568Y-66321681D01*
X170753858Y-66086530D01*
X170757419Y-66077457D01*
X170795153Y-65912135D01*
X170815802Y-65821668D01*
X170832413Y-65600000D01*
X170835408Y-65560040D01*
X170835408Y-65560035D01*
X170815802Y-65298412D01*
X170815802Y-65298408D01*
X170757420Y-65042622D01*
X170757419Y-65042621D01*
X170757419Y-65042618D01*
X170673709Y-64829330D01*
X170661568Y-64798395D01*
X170661563Y-64798386D01*
X170661561Y-64798382D01*
X170530389Y-64571186D01*
X170530388Y-64571185D01*
X170530386Y-64571181D01*
X170499469Y-64532412D01*
X170366814Y-64366067D01*
X170366803Y-64366055D01*
X170174485Y-64187610D01*
X170174482Y-64187608D01*
X170174479Y-64187605D01*
X169957704Y-64039810D01*
X169957696Y-64039806D01*
X169721325Y-63925975D01*
X169470619Y-63848643D01*
X169470616Y-63848642D01*
X169470615Y-63848642D01*
X169470610Y-63848641D01*
X169470609Y-63848641D01*
X169211185Y-63809538D01*
X169211182Y-63809538D01*
X168948818Y-63809538D01*
X168948814Y-63809538D01*
X168689390Y-63848641D01*
X168689380Y-63848643D01*
X168438674Y-63925975D01*
X168202303Y-64039806D01*
X168202299Y-64039808D01*
X168202296Y-64039810D01*
X167985521Y-64187605D01*
X167985514Y-64187610D01*
X167793196Y-64366055D01*
X167793185Y-64366067D01*
X167629620Y-64571172D01*
X167629610Y-64571186D01*
X167498438Y-64798382D01*
X167498429Y-64798401D01*
X167402580Y-65042618D01*
X167344198Y-65298406D01*
X167344197Y-65298412D01*
X167324592Y-65560035D01*
X81671815Y-65560035D01*
X81657443Y-65368263D01*
X81605732Y-65141703D01*
X81520830Y-64925381D01*
X81404634Y-64724130D01*
X81259742Y-64542445D01*
X81089388Y-64384384D01*
X80897378Y-64253480D01*
X80688003Y-64152655D01*
X80688001Y-64152654D01*
X80619035Y-64131383D01*
X80465939Y-64084164D01*
X80465933Y-64084163D01*
X80236147Y-64049534D01*
X80119954Y-64049538D01*
X78116117Y-64049538D01*
X78114964Y-64049531D01*
X78001857Y-64048213D01*
X77770812Y-64080359D01*
X77770810Y-64080359D01*
X77547171Y-64146710D01*
X77547166Y-64146712D01*
X77335984Y-64245765D01*
X77335975Y-64245770D01*
X77141986Y-64375304D01*
X77141977Y-64375311D01*
X76969545Y-64532412D01*
X76822560Y-64713536D01*
X76822553Y-64713546D01*
X76704314Y-64914629D01*
X76617488Y-65131138D01*
X76564029Y-65358205D01*
X76545142Y-65590704D01*
X67350500Y-65590704D01*
X67350500Y-63663543D01*
X67350753Y-63656468D01*
X67365310Y-63453290D01*
X67367328Y-63439284D01*
X67409948Y-63243729D01*
X67413935Y-63230174D01*
X67484006Y-63042669D01*
X67489882Y-63029829D01*
X67585972Y-62854227D01*
X67593618Y-62842357D01*
X67713759Y-62682252D01*
X67723024Y-62671587D01*
X67864758Y-62530251D01*
X67875453Y-62521012D01*
X68035889Y-62401327D01*
X68047801Y-62393703D01*
X68223644Y-62298124D01*
X68236520Y-62292274D01*
X68424211Y-62222733D01*
X68437787Y-62218781D01*
X68633473Y-62176710D01*
X68647459Y-62174735D01*
X68850275Y-62160777D01*
X68857308Y-62160544D01*
X68920109Y-62160722D01*
X68920113Y-62160720D01*
X68924819Y-62160734D01*
X68927890Y-62160538D01*
X159772073Y-62160538D01*
X159772634Y-62160501D01*
X159831080Y-62160502D01*
X160091080Y-62126278D01*
X160344388Y-62058408D01*
X160586671Y-61958056D01*
X160813781Y-61826938D01*
X161002486Y-61682143D01*
X161021832Y-61667299D01*
X161207262Y-61481873D01*
X161207262Y-61481872D01*
X161207270Y-61481865D01*
X161366915Y-61273816D01*
X161498038Y-61046708D01*
X161598395Y-60804427D01*
X161666269Y-60551121D01*
X161700499Y-60291121D01*
X161700499Y-60245586D01*
X161700500Y-60245581D01*
X161700500Y-57999997D01*
X183494353Y-57999997D01*
X183494353Y-58000002D01*
X183514833Y-58142454D01*
X183528286Y-58171911D01*
X183540553Y-58198771D01*
X183549500Y-58239897D01*
X183549500Y-61060102D01*
X183540553Y-61101229D01*
X183514834Y-61157543D01*
X183494353Y-61299997D01*
X183494353Y-61300002D01*
X183514834Y-61442456D01*
X183547429Y-61513828D01*
X183574623Y-61573373D01*
X183656008Y-61667297D01*
X183668873Y-61682144D01*
X183674167Y-61685546D01*
X183789947Y-61759953D01*
X183896403Y-61791211D01*
X183928035Y-61800499D01*
X183928036Y-61800499D01*
X183928039Y-61800500D01*
X183928041Y-61800500D01*
X184071959Y-61800500D01*
X184071961Y-61800500D01*
X184210053Y-61759953D01*
X184331128Y-61682143D01*
X184425377Y-61573373D01*
X184485165Y-61442457D01*
X184505647Y-61300000D01*
X184501882Y-61273816D01*
X184485165Y-61157543D01*
X184459447Y-61101229D01*
X184450500Y-61060102D01*
X184450500Y-58239897D01*
X184459446Y-58198771D01*
X184485165Y-58142457D01*
X184485165Y-58142455D01*
X184485166Y-58142454D01*
X184505647Y-58000002D01*
X184505647Y-57999997D01*
X184485165Y-57857543D01*
X184425377Y-57726628D01*
X184425377Y-57726627D01*
X184331128Y-57617857D01*
X184331127Y-57617856D01*
X184331126Y-57617855D01*
X184210057Y-57540049D01*
X184210054Y-57540047D01*
X184210053Y-57540047D01*
X184210050Y-57540046D01*
X184071964Y-57499500D01*
X184071961Y-57499500D01*
X183928039Y-57499500D01*
X183928035Y-57499500D01*
X183789949Y-57540046D01*
X183789942Y-57540049D01*
X183668873Y-57617855D01*
X183574622Y-57726628D01*
X183514834Y-57857543D01*
X183494353Y-57999997D01*
X161700500Y-57999997D01*
X161700500Y-54663534D01*
X161700751Y-54656484D01*
X161715205Y-54454019D01*
X161717204Y-54440089D01*
X161759524Y-54245182D01*
X161763489Y-54231658D01*
X161771828Y-54209257D01*
X161833061Y-54044757D01*
X161838899Y-54031948D01*
X161934322Y-53856817D01*
X161941930Y-53844953D01*
X162061261Y-53685157D01*
X162070470Y-53674502D01*
X162211296Y-53533276D01*
X162221918Y-53524042D01*
X162381384Y-53404248D01*
X162393221Y-53396611D01*
X162568077Y-53300692D01*
X162580873Y-53294816D01*
X162767578Y-53224712D01*
X162781092Y-53220708D01*
X162975869Y-53177836D01*
X162989813Y-53175795D01*
X163191642Y-53160810D01*
X163198972Y-53160538D01*
X174772073Y-53160538D01*
X174772634Y-53160501D01*
X174831080Y-53160502D01*
X175091080Y-53126278D01*
X175344388Y-53058408D01*
X175586671Y-52958056D01*
X175813781Y-52826938D01*
X175925008Y-52741592D01*
X176021832Y-52667299D01*
X176207262Y-52481873D01*
X176207262Y-52481872D01*
X176207270Y-52481865D01*
X176366915Y-52273816D01*
X176498038Y-52046708D01*
X176598395Y-51804427D01*
X176666269Y-51551121D01*
X176700499Y-51291121D01*
X176700499Y-51245586D01*
X176700500Y-51245581D01*
X176700500Y-51008728D01*
X185680100Y-51008728D01*
X185680100Y-51482599D01*
X185680101Y-51482600D01*
X186130100Y-51482600D01*
X186130100Y-51882600D01*
X185680101Y-51882600D01*
X185680100Y-51882601D01*
X185680100Y-52356471D01*
X185708921Y-52501364D01*
X185708923Y-52501370D01*
X185765458Y-52637857D01*
X185847534Y-52760693D01*
X185952006Y-52865165D01*
X186074842Y-52947241D01*
X186211331Y-53003777D01*
X186230100Y-53007509D01*
X186230100Y-52456865D01*
X186245895Y-52472660D01*
X186314304Y-52512156D01*
X186390604Y-52532600D01*
X186469596Y-52532600D01*
X186545896Y-52512156D01*
X186614305Y-52472660D01*
X186630100Y-52456865D01*
X186630100Y-53007509D01*
X186648868Y-53003777D01*
X186785357Y-52947241D01*
X186908193Y-52865165D01*
X187012665Y-52760693D01*
X187094741Y-52637857D01*
X187151276Y-52501370D01*
X187151278Y-52501364D01*
X187180099Y-52356471D01*
X187180100Y-52356467D01*
X187180100Y-51882601D01*
X187180099Y-51882600D01*
X186730100Y-51882600D01*
X186730100Y-51482600D01*
X187180099Y-51482600D01*
X187180100Y-51482599D01*
X187180100Y-51465479D01*
X187199007Y-51407288D01*
X187248507Y-51371324D01*
X187309693Y-51371324D01*
X187359193Y-51407288D01*
X187364832Y-51415971D01*
X187399585Y-51476165D01*
X187506735Y-51583315D01*
X187506737Y-51583316D01*
X187506739Y-51583318D01*
X187637961Y-51659079D01*
X187637959Y-51659079D01*
X187637963Y-51659080D01*
X187637965Y-51659081D01*
X187784334Y-51698300D01*
X187784336Y-51698300D01*
X187935864Y-51698300D01*
X187935866Y-51698300D01*
X188082235Y-51659081D01*
X188082237Y-51659079D01*
X188082239Y-51659079D01*
X188213460Y-51583318D01*
X188213460Y-51583317D01*
X188213465Y-51583315D01*
X188320615Y-51476165D01*
X188355364Y-51415979D01*
X188396379Y-51344939D01*
X188396379Y-51344937D01*
X188396381Y-51344935D01*
X188435600Y-51198566D01*
X188435600Y-51047034D01*
X193064600Y-51047034D01*
X193064600Y-51198566D01*
X193089400Y-51291121D01*
X193103820Y-51344939D01*
X193179581Y-51476160D01*
X193179583Y-51476162D01*
X193179585Y-51476165D01*
X193286735Y-51583315D01*
X193286737Y-51583316D01*
X193286739Y-51583318D01*
X193417961Y-51659079D01*
X193417959Y-51659079D01*
X193417963Y-51659080D01*
X193417965Y-51659081D01*
X193564334Y-51698300D01*
X193564336Y-51698300D01*
X193715864Y-51698300D01*
X193715866Y-51698300D01*
X193862235Y-51659081D01*
X193862237Y-51659079D01*
X193862239Y-51659079D01*
X193993460Y-51583318D01*
X193993460Y-51583317D01*
X193993465Y-51583315D01*
X194100615Y-51476165D01*
X194135164Y-51416323D01*
X194180633Y-51375384D01*
X194241483Y-51368988D01*
X194294471Y-51399581D01*
X194319358Y-51455476D01*
X194319900Y-51465825D01*
X194319900Y-51482599D01*
X194319901Y-51482600D01*
X194769900Y-51482600D01*
X194769900Y-51882600D01*
X194319901Y-51882600D01*
X194319900Y-51882601D01*
X194319900Y-52356471D01*
X194348721Y-52501364D01*
X194348723Y-52501370D01*
X194405258Y-52637857D01*
X194487334Y-52760693D01*
X194591806Y-52865165D01*
X194714642Y-52947241D01*
X194851131Y-53003777D01*
X194869900Y-53007509D01*
X194869900Y-52456865D01*
X194885695Y-52472660D01*
X194954104Y-52512156D01*
X195030404Y-52532600D01*
X195109396Y-52532600D01*
X195185696Y-52512156D01*
X195254105Y-52472660D01*
X195269900Y-52456865D01*
X195269900Y-53007509D01*
X195288668Y-53003777D01*
X195425157Y-52947241D01*
X195547993Y-52865165D01*
X195652465Y-52760693D01*
X195734541Y-52637857D01*
X195791076Y-52501370D01*
X195791078Y-52501364D01*
X195819899Y-52356471D01*
X195819900Y-52356467D01*
X195819900Y-51882601D01*
X195819899Y-51882600D01*
X195369900Y-51882600D01*
X195369900Y-51482600D01*
X195819899Y-51482600D01*
X195819900Y-51482599D01*
X195819900Y-51008732D01*
X195819899Y-51008728D01*
X195791078Y-50863835D01*
X195791076Y-50863829D01*
X195734541Y-50727342D01*
X195652465Y-50604506D01*
X195547993Y-50500034D01*
X195425157Y-50417958D01*
X195288670Y-50361423D01*
X195288664Y-50361421D01*
X195269900Y-50357689D01*
X195269900Y-50908335D01*
X195254105Y-50892540D01*
X195185696Y-50853044D01*
X195109396Y-50832600D01*
X195030404Y-50832600D01*
X194954104Y-50853044D01*
X194885695Y-50892540D01*
X194869900Y-50908335D01*
X194869900Y-50357689D01*
X194851135Y-50361421D01*
X194851129Y-50361423D01*
X194714642Y-50417958D01*
X194591806Y-50500034D01*
X194487334Y-50604506D01*
X194405258Y-50727342D01*
X194348721Y-50863834D01*
X194348325Y-50865141D01*
X194347968Y-50865652D01*
X194346861Y-50868326D01*
X194346274Y-50868082D01*
X194313335Y-50915335D01*
X194255525Y-50935376D01*
X194196976Y-50917610D01*
X194167854Y-50885895D01*
X194100618Y-50769439D01*
X194100616Y-50769437D01*
X194100615Y-50769435D01*
X193993465Y-50662285D01*
X193993462Y-50662283D01*
X193993460Y-50662281D01*
X193862238Y-50586520D01*
X193862240Y-50586520D01*
X193805447Y-50571303D01*
X193715866Y-50547300D01*
X193564334Y-50547300D01*
X193474752Y-50571303D01*
X193417960Y-50586520D01*
X193286739Y-50662281D01*
X193179581Y-50769439D01*
X193103820Y-50900660D01*
X193096746Y-50927063D01*
X193064600Y-51047034D01*
X188435600Y-51047034D01*
X188396381Y-50900665D01*
X188396379Y-50900662D01*
X188396379Y-50900660D01*
X188320618Y-50769439D01*
X188320616Y-50769437D01*
X188320615Y-50769435D01*
X188213465Y-50662285D01*
X188213462Y-50662283D01*
X188213460Y-50662281D01*
X188082238Y-50586520D01*
X188082240Y-50586520D01*
X188025447Y-50571303D01*
X187935866Y-50547300D01*
X187784334Y-50547300D01*
X187694752Y-50571303D01*
X187637960Y-50586520D01*
X187506739Y-50662281D01*
X187399583Y-50769437D01*
X187332214Y-50886123D01*
X187286744Y-50927063D01*
X187225894Y-50933458D01*
X187172906Y-50902865D01*
X187153363Y-50868233D01*
X187153139Y-50868326D01*
X187152374Y-50866480D01*
X187151740Y-50865356D01*
X187151278Y-50863834D01*
X187094741Y-50727342D01*
X187012665Y-50604506D01*
X186908193Y-50500034D01*
X186785357Y-50417958D01*
X186648870Y-50361423D01*
X186648864Y-50361421D01*
X186630100Y-50357689D01*
X186630100Y-50908335D01*
X186614305Y-50892540D01*
X186545896Y-50853044D01*
X186469596Y-50832600D01*
X186390604Y-50832600D01*
X186314304Y-50853044D01*
X186245895Y-50892540D01*
X186230100Y-50908335D01*
X186230100Y-50357689D01*
X186211335Y-50361421D01*
X186211329Y-50361423D01*
X186074842Y-50417958D01*
X185952006Y-50500034D01*
X185847534Y-50604506D01*
X185765458Y-50727342D01*
X185708923Y-50863829D01*
X185708921Y-50863835D01*
X185680100Y-51008728D01*
X176700500Y-51008728D01*
X176700500Y-46978928D01*
X185680100Y-46978928D01*
X185680100Y-47302799D01*
X185680101Y-47302800D01*
X186130100Y-47302800D01*
X186130100Y-47702800D01*
X185680101Y-47702800D01*
X185680100Y-47702801D01*
X185680100Y-48026671D01*
X185708921Y-48171564D01*
X185708923Y-48171570D01*
X185765458Y-48308057D01*
X185847534Y-48430893D01*
X185952006Y-48535365D01*
X186074842Y-48617441D01*
X186211331Y-48673977D01*
X186230100Y-48677709D01*
X186230100Y-48127065D01*
X186245895Y-48142860D01*
X186314304Y-48182356D01*
X186390604Y-48202800D01*
X186469596Y-48202800D01*
X186545896Y-48182356D01*
X186614305Y-48142860D01*
X186630100Y-48127065D01*
X186630100Y-48677709D01*
X186648868Y-48673977D01*
X186785357Y-48617441D01*
X186908193Y-48535365D01*
X187012665Y-48430893D01*
X187094741Y-48308057D01*
X187151276Y-48171570D01*
X187151278Y-48171564D01*
X187180099Y-48026671D01*
X187180100Y-48026667D01*
X187180100Y-47702801D01*
X187180099Y-47702800D01*
X186730100Y-47702800D01*
X186730100Y-47302800D01*
X187180099Y-47302800D01*
X187180100Y-47302799D01*
X187180100Y-46978932D01*
X187180099Y-46978928D01*
X194319900Y-46978928D01*
X194319900Y-47302799D01*
X194319901Y-47302800D01*
X194769900Y-47302800D01*
X194769900Y-47702800D01*
X194319901Y-47702800D01*
X194319900Y-47702801D01*
X194319900Y-48026671D01*
X194348721Y-48171564D01*
X194348723Y-48171570D01*
X194405258Y-48308057D01*
X194487334Y-48430893D01*
X194591806Y-48535365D01*
X194714642Y-48617441D01*
X194851131Y-48673977D01*
X194869900Y-48677709D01*
X194869900Y-48127065D01*
X194885695Y-48142860D01*
X194954104Y-48182356D01*
X195030404Y-48202800D01*
X195109396Y-48202800D01*
X195185696Y-48182356D01*
X195254105Y-48142860D01*
X195269900Y-48127065D01*
X195269900Y-48677709D01*
X195288668Y-48673977D01*
X195425157Y-48617441D01*
X195547993Y-48535365D01*
X195652465Y-48430893D01*
X195734541Y-48308057D01*
X195791076Y-48171570D01*
X195791078Y-48171564D01*
X195819899Y-48026671D01*
X195819900Y-48026667D01*
X195819900Y-47702801D01*
X195819899Y-47702800D01*
X195369900Y-47702800D01*
X195369900Y-47302800D01*
X195819899Y-47302800D01*
X195819900Y-47302799D01*
X195819900Y-46978932D01*
X195819899Y-46978928D01*
X195791078Y-46834035D01*
X195791076Y-46834029D01*
X195734541Y-46697542D01*
X195652465Y-46574706D01*
X195547993Y-46470234D01*
X195425157Y-46388158D01*
X195288670Y-46331623D01*
X195288664Y-46331621D01*
X195269900Y-46327889D01*
X195269900Y-46878535D01*
X195254105Y-46862740D01*
X195185696Y-46823244D01*
X195109396Y-46802800D01*
X195030404Y-46802800D01*
X194954104Y-46823244D01*
X194885695Y-46862740D01*
X194869900Y-46878535D01*
X194869900Y-46327889D01*
X194851135Y-46331621D01*
X194851129Y-46331623D01*
X194714642Y-46388158D01*
X194591806Y-46470234D01*
X194487334Y-46574706D01*
X194405258Y-46697542D01*
X194348723Y-46834029D01*
X194348721Y-46834035D01*
X194319900Y-46978928D01*
X187180099Y-46978928D01*
X187151278Y-46834035D01*
X187151276Y-46834029D01*
X187094741Y-46697542D01*
X187012665Y-46574706D01*
X186908193Y-46470234D01*
X186785357Y-46388158D01*
X186648870Y-46331623D01*
X186648864Y-46331621D01*
X186630100Y-46327889D01*
X186630100Y-46878535D01*
X186614305Y-46862740D01*
X186545896Y-46823244D01*
X186469596Y-46802800D01*
X186390604Y-46802800D01*
X186314304Y-46823244D01*
X186245895Y-46862740D01*
X186230100Y-46878535D01*
X186230100Y-46327889D01*
X186211335Y-46331621D01*
X186211329Y-46331623D01*
X186074842Y-46388158D01*
X185952006Y-46470234D01*
X185847534Y-46574706D01*
X185765458Y-46697542D01*
X185708923Y-46834029D01*
X185708921Y-46834035D01*
X185680100Y-46978928D01*
X176700500Y-46978928D01*
X176700500Y-46403543D01*
X176700753Y-46396468D01*
X176705399Y-46331621D01*
X176715310Y-46193284D01*
X176717328Y-46179284D01*
X176759948Y-45983729D01*
X176763935Y-45970174D01*
X176834006Y-45782669D01*
X176839882Y-45769829D01*
X176935972Y-45594227D01*
X176943618Y-45582357D01*
X177063759Y-45422252D01*
X177073024Y-45411587D01*
X177214758Y-45270251D01*
X177225453Y-45261012D01*
X177385889Y-45141327D01*
X177397801Y-45133703D01*
X177573644Y-45038124D01*
X177586520Y-45032274D01*
X177774211Y-44962733D01*
X177787787Y-44958781D01*
X177983473Y-44916710D01*
X177997459Y-44914735D01*
X178200275Y-44900777D01*
X178207308Y-44900544D01*
X178270109Y-44900722D01*
X178270113Y-44900720D01*
X178274819Y-44900734D01*
X178277890Y-44900538D01*
X197133981Y-44900538D01*
X197133985Y-44900539D01*
G37*
%TD.AperFunction*%
%TD*%
M02*
