%TF.GenerationSoftware,KiCad,Pcbnew,8.0.2*%
%TF.CreationDate,2024-11-08T17:25:48-08:00*%
%TF.ProjectId,gh80-5000-daughterboard,67683830-2d35-4303-9030-2d6461756768,rev?*%
%TF.SameCoordinates,Original*%
%TF.FileFunction,Copper,L1,Top*%
%TF.FilePolarity,Positive*%
%FSLAX46Y46*%
G04 Gerber Fmt 4.6, Leading zero omitted, Abs format (unit mm)*
G04 Created by KiCad (PCBNEW 8.0.2) date 2024-11-08 17:25:48*
%MOMM*%
%LPD*%
G01*
G04 APERTURE LIST*
G04 Aperture macros list*
%AMRoundRect*
0 Rectangle with rounded corners*
0 $1 Rounding radius*
0 $2 $3 $4 $5 $6 $7 $8 $9 X,Y pos of 4 corners*
0 Add a 4 corners polygon primitive as box body*
4,1,4,$2,$3,$4,$5,$6,$7,$8,$9,$2,$3,0*
0 Add four circle primitives for the rounded corners*
1,1,$1+$1,$2,$3*
1,1,$1+$1,$4,$5*
1,1,$1+$1,$6,$7*
1,1,$1+$1,$8,$9*
0 Add four rect primitives between the rounded corners*
20,1,$1+$1,$2,$3,$4,$5,0*
20,1,$1+$1,$4,$5,$6,$7,0*
20,1,$1+$1,$6,$7,$8,$9,0*
20,1,$1+$1,$8,$9,$2,$3,0*%
G04 Aperture macros list end*
%TA.AperFunction,SMDPad,CuDef*%
%ADD10RoundRect,0.250000X-0.625000X0.375000X-0.625000X-0.375000X0.625000X-0.375000X0.625000X0.375000X0*%
%TD*%
%TA.AperFunction,SMDPad,CuDef*%
%ADD11RoundRect,0.135000X0.135000X0.185000X-0.135000X0.185000X-0.135000X-0.185000X0.135000X-0.185000X0*%
%TD*%
%TA.AperFunction,SMDPad,CuDef*%
%ADD12R,0.600000X1.150000*%
%TD*%
%TA.AperFunction,SMDPad,CuDef*%
%ADD13R,0.300000X1.150000*%
%TD*%
%TA.AperFunction,ComponentPad*%
%ADD14O,0.900000X2.100000*%
%TD*%
%TA.AperFunction,ComponentPad*%
%ADD15O,0.900000X1.800000*%
%TD*%
%TA.AperFunction,SMDPad,CuDef*%
%ADD16RoundRect,0.150000X-0.625000X0.150000X-0.625000X-0.150000X0.625000X-0.150000X0.625000X0.150000X0*%
%TD*%
%TA.AperFunction,SMDPad,CuDef*%
%ADD17RoundRect,0.250000X-0.650000X0.350000X-0.650000X-0.350000X0.650000X-0.350000X0.650000X0.350000X0*%
%TD*%
%TA.AperFunction,SMDPad,CuDef*%
%ADD18RoundRect,0.135000X-0.135000X-0.185000X0.135000X-0.185000X0.135000X0.185000X-0.135000X0.185000X0*%
%TD*%
%TA.AperFunction,SMDPad,CuDef*%
%ADD19RoundRect,0.150000X0.475000X0.150000X-0.475000X0.150000X-0.475000X-0.150000X0.475000X-0.150000X0*%
%TD*%
%TA.AperFunction,ViaPad*%
%ADD20C,0.600000*%
%TD*%
%TA.AperFunction,Conductor*%
%ADD21C,0.200000*%
%TD*%
%TA.AperFunction,Conductor*%
%ADD22C,0.500000*%
%TD*%
%TA.AperFunction,Conductor*%
%ADD23C,0.400000*%
%TD*%
%TA.AperFunction,Conductor*%
%ADD24C,0.300000*%
%TD*%
G04 APERTURE END LIST*
D10*
%TO.P,F1,1*%
%TO.N,VBUS*%
X184000000Y-53800000D03*
%TO.P,F1,2*%
%TO.N,+5V*%
X184000000Y-56600000D03*
%TD*%
D11*
%TO.P,R11,1*%
%TO.N,Net-(J3-CC2)*%
X188810000Y-54150000D03*
%TO.P,R11,2*%
%TO.N,VBUS*%
X187790000Y-54150000D03*
%TD*%
D12*
%TO.P,J3,A1,GND*%
%TO.N,GND*%
X193950000Y-52247800D03*
%TO.P,J3,A4,VBUS*%
%TO.N,VBUS*%
X193149900Y-52247800D03*
D13*
%TO.P,J3,A5,CC1*%
%TO.N,Net-(J3-CC1)*%
X192000100Y-52247800D03*
%TO.P,J3,A6,D+*%
%TO.N,D+*%
X191000100Y-52247800D03*
%TO.P,J3,A7,D-*%
%TO.N,D-*%
X190499900Y-52247800D03*
%TO.P,J3,A8,SBU1*%
%TO.N,unconnected-(J3-SBU1-PadA8)*%
X189499900Y-52247800D03*
D12*
%TO.P,J3,A9,VBUS*%
%TO.N,VBUS*%
X188350100Y-52247800D03*
%TO.P,J3,A12,GND*%
%TO.N,GND*%
X187550000Y-52247800D03*
%TO.P,J3,B1,GND*%
X187550000Y-52247800D03*
%TO.P,J3,B4,VBUS*%
%TO.N,VBUS*%
X188350100Y-52247800D03*
D13*
%TO.P,J3,B5,CC2*%
%TO.N,Net-(J3-CC2)*%
X189000100Y-52247800D03*
%TO.P,J3,B6,D+*%
%TO.N,D+*%
X190000100Y-52247800D03*
%TO.P,J3,B7,D-*%
%TO.N,D-*%
X191499900Y-52247800D03*
%TO.P,J3,B8,SBU2*%
%TO.N,unconnected-(J3-SBU2-PadB8)*%
X192499900Y-52247800D03*
D12*
%TO.P,J3,B9,VBUS*%
%TO.N,VBUS*%
X193149900Y-52247800D03*
%TO.P,J3,B12,GND*%
%TO.N,GND*%
X193950000Y-52247800D03*
D14*
%TO.P,J3,S1,SHIELD*%
X195069900Y-51682600D03*
D15*
X195069900Y-47502800D03*
D14*
X186430100Y-51682600D03*
D15*
X186430100Y-47502800D03*
%TD*%
D16*
%TO.P,J1,1,Pin_1*%
%TO.N,+5V*%
X165400000Y-68600000D03*
%TO.P,J1,2,Pin_2*%
%TO.N,D-*%
X165400000Y-69600000D03*
%TO.P,J1,3,Pin_3*%
%TO.N,D+*%
X165400000Y-70600000D03*
%TO.P,J1,4,Pin_4*%
%TO.N,GND*%
X165400000Y-71600000D03*
D17*
%TO.P,J1,MP,MountPin*%
X161525000Y-67300000D03*
X161525000Y-72900000D03*
%TD*%
D18*
%TO.P,R13,1*%
%TO.N,Net-(J3-CC1)*%
X191490000Y-54150000D03*
%TO.P,R13,2*%
%TO.N,VBUS*%
X192510000Y-54150000D03*
%TD*%
D19*
%TO.P,U6,1,IO1*%
%TO.N,D-*%
X191375000Y-57750000D03*
%TO.P,U6,2,VN*%
%TO.N,GND*%
X191375000Y-56800000D03*
%TO.P,U6,3,IO2*%
%TO.N,unconnected-(U6-IO2-Pad3)*%
X191375000Y-55850000D03*
%TO.P,U6,4,IO3*%
%TO.N,unconnected-(U6-IO3-Pad4)*%
X189025000Y-55850000D03*
%TO.P,U6,5,VP*%
%TO.N,+5V*%
X189025000Y-56800000D03*
%TO.P,U6,6,IO4*%
%TO.N,D+*%
X189025000Y-57750000D03*
%TD*%
D20*
%TO.N,GND*%
X195050000Y-53250000D03*
X167200000Y-71600000D03*
X183137549Y-61356217D03*
X184815617Y-59659400D03*
X188900000Y-55000000D03*
X161500000Y-67300000D03*
X191300000Y-55000000D03*
X189200000Y-59000000D03*
X191100000Y-59000000D03*
X185300000Y-51700000D03*
X184824992Y-61374966D03*
X183193797Y-59640650D03*
X161500000Y-73000000D03*
%TO.N,+5V*%
X184000000Y-58000000D03*
X184000000Y-61300000D03*
%TD*%
D21*
%TO.N,D-*%
X160600000Y-69900000D02*
X165400000Y-69900000D01*
X158800000Y-66600000D02*
X158800000Y-68100000D01*
X165400000Y-69900000D02*
X165400000Y-69600000D01*
X187463441Y-61110000D02*
X187273441Y-61110000D01*
X186242247Y-60700000D02*
X166600000Y-60700000D01*
X190499900Y-53250000D02*
X190499900Y-52247800D01*
X190750001Y-57750000D02*
X191375000Y-57750000D01*
X164800000Y-62500000D02*
X164800000Y-62600000D01*
X190499900Y-52247800D02*
X190499900Y-53200200D01*
X190400100Y-53300000D02*
X190400100Y-57192992D01*
X190750001Y-57750000D02*
X190546546Y-57953455D01*
X162600000Y-64800000D02*
X160600000Y-64800000D01*
X190499900Y-53200200D02*
X190400100Y-53300000D01*
X190546547Y-57546546D02*
X190750001Y-57750000D01*
X190400100Y-58307008D02*
X190400100Y-59300000D01*
X186863441Y-60700000D02*
X186673441Y-60700000D01*
X191499900Y-52247800D02*
X191499900Y-52950000D01*
X186673441Y-60700000D02*
X186242247Y-60700000D01*
X189000100Y-60700000D02*
X187873441Y-60700000D01*
X191199900Y-53250000D02*
X190499900Y-53250000D01*
X190400100Y-57192992D02*
G75*
G03*
X190546543Y-57546550I500000J-8D01*
G01*
X190400100Y-59300000D02*
G75*
G02*
X189000100Y-60700000I-1400000J0D01*
G01*
X187873441Y-60700000D02*
G75*
G03*
X187668400Y-60905000I-41J-205000D01*
G01*
X187068441Y-60905000D02*
G75*
G03*
X186863441Y-60699959I-205041J0D01*
G01*
X187668441Y-60905000D02*
G75*
G02*
X187463441Y-61110041I-205041J0D01*
G01*
X158800000Y-68100000D02*
G75*
G03*
X160600000Y-69900000I1800000J0D01*
G01*
X166600000Y-60700000D02*
G75*
G03*
X164800000Y-62500000I0J-1800000D01*
G01*
X160600000Y-64800000D02*
G75*
G03*
X158800000Y-66600000I0J-1800000D01*
G01*
X191499900Y-52950000D02*
G75*
G02*
X191199900Y-53250000I-300000J0D01*
G01*
X164800000Y-62600000D02*
G75*
G02*
X162600000Y-64800000I-2200000J0D01*
G01*
X187273441Y-61110000D02*
G75*
G02*
X187068400Y-60905000I-41J205000D01*
G01*
X190546546Y-57953455D02*
G75*
G03*
X190400106Y-58307008I353554J-353545D01*
G01*
D22*
%TO.N,GND*%
X195069900Y-53230100D02*
X195050000Y-53250000D01*
X193950000Y-52247800D02*
X194504700Y-52247800D01*
X195069900Y-51682600D02*
X195069900Y-53230100D01*
X194504700Y-52247800D02*
X195069900Y-51682600D01*
X185300000Y-51682600D02*
X185300000Y-51700000D01*
X186995300Y-52247800D02*
X186430100Y-51682600D01*
X165400000Y-71600000D02*
X167200000Y-71600000D01*
D23*
X187550000Y-52247800D02*
X187550000Y-52450000D01*
D22*
X186430100Y-51682600D02*
X185300000Y-51682600D01*
X187550000Y-52247800D02*
X186995300Y-52247800D01*
D21*
%TO.N,D+*%
X165400000Y-70300000D02*
X165400000Y-70600000D01*
X188999999Y-60300000D02*
X166600000Y-60300000D01*
X190000100Y-52247800D02*
X190000100Y-51650000D01*
X189853653Y-57546346D02*
X189649999Y-57750000D01*
X189853552Y-57953553D02*
X189649999Y-57750000D01*
X160600000Y-70300000D02*
X165400000Y-70300000D01*
X164400000Y-62500000D02*
X164400000Y-62600000D01*
X191000100Y-51650000D02*
X191000100Y-52247800D01*
X158400000Y-66600000D02*
X158400000Y-68100000D01*
X190000100Y-52247800D02*
X190000100Y-57192792D01*
X189649999Y-57750000D02*
X189025000Y-57750000D01*
X189999999Y-59300000D02*
X189999999Y-58307107D01*
X162600000Y-64400000D02*
X160600000Y-64400000D01*
X190300100Y-51350000D02*
X190700100Y-51350000D01*
X189853653Y-57546346D02*
G75*
G03*
X190000094Y-57192792I-353553J353546D01*
G01*
X162600000Y-64400000D02*
G75*
G03*
X164400000Y-62600000I0J1800000D01*
G01*
X166600000Y-60300000D02*
G75*
G03*
X164400000Y-62500000I0J-2200000D01*
G01*
X160600000Y-64400000D02*
G75*
G03*
X158400000Y-66600000I0J-2200000D01*
G01*
X190700100Y-51350000D02*
G75*
G02*
X191000100Y-51650000I0J-300000D01*
G01*
X190300100Y-51350000D02*
G75*
G03*
X190000100Y-51650000I0J-300000D01*
G01*
X189999999Y-59300000D02*
G75*
G02*
X188999999Y-60299999I-999999J0D01*
G01*
X189999999Y-58307107D02*
G75*
G03*
X189853555Y-57953550I-499999J7D01*
G01*
X158400000Y-68100000D02*
G75*
G03*
X160600000Y-70300000I2200000J0D01*
G01*
D22*
%TO.N,+5V*%
X173000000Y-68600000D02*
X165400000Y-68600000D01*
X184000000Y-61800000D02*
X184000000Y-62200000D01*
X182000000Y-64200000D02*
X177000000Y-64200000D01*
X184000000Y-58000000D02*
X184000000Y-56600000D01*
X184000000Y-61800000D02*
X184000000Y-61300000D01*
X184000000Y-56600000D02*
X184000000Y-56800000D01*
X175000000Y-66200000D02*
X175000000Y-66600000D01*
X184000000Y-56800000D02*
X189025000Y-56800000D01*
X173000000Y-68600000D02*
G75*
G03*
X175000000Y-66600000I0J2000000D01*
G01*
X175000000Y-66200000D02*
G75*
G02*
X177000000Y-64200000I2000000J0D01*
G01*
X182000000Y-64200000D02*
G75*
G03*
X184000000Y-62200000I0J2000000D01*
G01*
D23*
%TO.N,VBUS*%
X184000000Y-53529554D02*
X184000000Y-53800000D01*
X188350100Y-53529554D02*
X187790000Y-54089654D01*
D24*
X193149900Y-51657905D02*
X193149900Y-52247800D01*
D23*
X188350100Y-52247800D02*
X188350100Y-53529554D01*
X187790000Y-54089654D02*
X187790000Y-54150000D01*
D24*
X193149900Y-52247800D02*
X193149900Y-53095886D01*
D23*
X188350100Y-53529554D02*
X184000000Y-53529554D01*
D24*
X192857007Y-53802993D02*
X192510000Y-54150000D01*
X192743467Y-51251472D02*
X193149900Y-51657905D01*
X188350100Y-52247800D02*
X188350100Y-51658105D01*
X188350100Y-51658105D02*
X188756733Y-51251472D01*
X189605261Y-50900000D02*
X191894939Y-50900000D01*
X193149900Y-53095886D02*
G75*
G02*
X192857014Y-53803000I-1000000J-14D01*
G01*
X188756733Y-51251472D02*
G75*
G02*
X189605261Y-50899973I848567J-848528D01*
G01*
X191894939Y-50900000D02*
G75*
G02*
X192743448Y-51251491I-39J-1200000D01*
G01*
D21*
%TO.N,Net-(J3-CC2)*%
X189000100Y-52247800D02*
X189000100Y-53959900D01*
X189000100Y-53959900D02*
X188810000Y-54150000D01*
%TO.N,Net-(J3-CC1)*%
X192000100Y-52247800D02*
X192000100Y-53225686D01*
X191707207Y-53932793D02*
X191490000Y-54150000D01*
X191707207Y-53932793D02*
G75*
G03*
X192000090Y-53225686I-707107J707093D01*
G01*
%TD*%
%TA.AperFunction,Conductor*%
%TO.N,GND*%
G36*
X183490698Y-61019407D02*
G01*
X183526662Y-61068907D01*
X183526662Y-61130093D01*
X183522560Y-61140627D01*
X183514834Y-61157543D01*
X183494353Y-61299997D01*
X183494353Y-61300002D01*
X183514833Y-61442454D01*
X183528276Y-61471887D01*
X183540553Y-61498771D01*
X183549500Y-61539897D01*
X183549500Y-62196460D01*
X183549248Y-62203523D01*
X183534233Y-62413453D01*
X183532223Y-62427434D01*
X183488238Y-62629629D01*
X183484258Y-62643182D01*
X183411949Y-62837051D01*
X183406081Y-62849900D01*
X183306915Y-63031508D01*
X183299279Y-63043390D01*
X183175279Y-63209035D01*
X183166029Y-63219711D01*
X183019711Y-63366029D01*
X183009035Y-63375279D01*
X182843390Y-63499279D01*
X182831508Y-63506915D01*
X182649900Y-63606081D01*
X182637051Y-63611949D01*
X182443182Y-63684258D01*
X182429629Y-63688238D01*
X182227434Y-63732223D01*
X182213453Y-63734233D01*
X182003523Y-63749248D01*
X181996460Y-63749500D01*
X176851760Y-63749500D01*
X176557489Y-63785232D01*
X176557473Y-63785234D01*
X176269641Y-63856178D01*
X175992445Y-63961305D01*
X175729942Y-64099077D01*
X175729941Y-64099078D01*
X175485982Y-64267470D01*
X175485954Y-64267492D01*
X175264081Y-64464055D01*
X175264055Y-64464081D01*
X175067492Y-64685954D01*
X175067470Y-64685982D01*
X174899078Y-64929941D01*
X174899077Y-64929942D01*
X174761305Y-65192445D01*
X174656178Y-65469641D01*
X174585234Y-65757473D01*
X174585232Y-65757489D01*
X174549500Y-66051760D01*
X174549500Y-66596460D01*
X174549248Y-66603523D01*
X174534233Y-66813453D01*
X174532223Y-66827434D01*
X174488238Y-67029629D01*
X174484258Y-67043182D01*
X174411949Y-67237051D01*
X174406081Y-67249900D01*
X174306915Y-67431508D01*
X174299279Y-67443390D01*
X174175279Y-67609035D01*
X174166029Y-67619711D01*
X174019711Y-67766029D01*
X174009035Y-67775279D01*
X173843390Y-67899279D01*
X173831508Y-67906915D01*
X173649900Y-68006081D01*
X173637051Y-68011949D01*
X173443182Y-68084258D01*
X173429629Y-68088238D01*
X173227434Y-68132223D01*
X173213453Y-68134233D01*
X173003523Y-68149248D01*
X172996460Y-68149500D01*
X166231268Y-68149500D01*
X166187788Y-68139441D01*
X166173023Y-68132223D01*
X166126393Y-68109427D01*
X166058260Y-68099500D01*
X164741740Y-68099500D01*
X164707673Y-68104463D01*
X164673604Y-68109427D01*
X164568518Y-68160801D01*
X164485801Y-68243518D01*
X164434427Y-68348604D01*
X164434427Y-68348607D01*
X164424500Y-68416740D01*
X164424500Y-68783260D01*
X164431118Y-68828682D01*
X164434427Y-68851395D01*
X164466185Y-68916356D01*
X164485802Y-68956483D01*
X164559317Y-69029998D01*
X164587093Y-69084513D01*
X164577522Y-69144945D01*
X164559318Y-69170000D01*
X164517725Y-69211594D01*
X164485801Y-69243518D01*
X164434427Y-69348604D01*
X164424500Y-69416743D01*
X164424500Y-69500500D01*
X164405593Y-69558691D01*
X164356093Y-69594655D01*
X164325500Y-69599500D01*
X160603540Y-69599500D01*
X160596477Y-69599248D01*
X160393662Y-69584742D01*
X160379681Y-69582732D01*
X160184457Y-69540264D01*
X160170904Y-69536284D01*
X159983715Y-69466466D01*
X159970875Y-69460602D01*
X159795525Y-69364854D01*
X159783643Y-69357218D01*
X159675789Y-69276479D01*
X159623707Y-69237491D01*
X159613033Y-69228243D01*
X159471756Y-69086966D01*
X159462506Y-69076290D01*
X159451277Y-69061290D01*
X159342781Y-68916356D01*
X159335145Y-68904474D01*
X159306162Y-68851395D01*
X159239394Y-68729118D01*
X159233537Y-68716292D01*
X159163713Y-68529088D01*
X159159737Y-68515549D01*
X159117265Y-68320308D01*
X159115258Y-68306345D01*
X159100752Y-68103522D01*
X159100500Y-68096460D01*
X159100500Y-67500001D01*
X160325000Y-67500001D01*
X160325000Y-67693064D01*
X160335613Y-67781443D01*
X160391080Y-67922095D01*
X160482435Y-68042564D01*
X160602904Y-68133919D01*
X160743556Y-68189386D01*
X160831935Y-68199999D01*
X160831942Y-68200000D01*
X161324999Y-68200000D01*
X161325000Y-68199999D01*
X161325000Y-67500001D01*
X161725000Y-67500001D01*
X161725000Y-68199999D01*
X161725001Y-68200000D01*
X162218058Y-68200000D01*
X162218064Y-68199999D01*
X162306443Y-68189386D01*
X162447095Y-68133919D01*
X162567564Y-68042564D01*
X162658919Y-67922095D01*
X162714386Y-67781443D01*
X162724999Y-67693064D01*
X162725000Y-67693058D01*
X162725000Y-67500001D01*
X162724999Y-67500000D01*
X161725001Y-67500000D01*
X161725000Y-67500001D01*
X161325000Y-67500001D01*
X161324999Y-67500000D01*
X160325001Y-67500000D01*
X160325000Y-67500001D01*
X159100500Y-67500001D01*
X159100500Y-66906935D01*
X160325000Y-66906935D01*
X160325000Y-67099999D01*
X160325001Y-67100000D01*
X161324999Y-67100000D01*
X161325000Y-67099999D01*
X161325000Y-66400001D01*
X161725000Y-66400001D01*
X161725000Y-67099999D01*
X161725001Y-67100000D01*
X162724999Y-67100000D01*
X162725000Y-67099999D01*
X162725000Y-66906941D01*
X162724999Y-66906935D01*
X162714386Y-66818556D01*
X162658919Y-66677904D01*
X162567564Y-66557435D01*
X162447095Y-66466080D01*
X162306443Y-66410613D01*
X162218064Y-66400000D01*
X161725001Y-66400000D01*
X161725000Y-66400001D01*
X161325000Y-66400001D01*
X161324999Y-66400000D01*
X160831935Y-66400000D01*
X160743556Y-66410613D01*
X160602904Y-66466080D01*
X160482435Y-66557435D01*
X160391080Y-66677904D01*
X160335613Y-66818556D01*
X160325000Y-66906935D01*
X159100500Y-66906935D01*
X159100500Y-66603539D01*
X159100752Y-66596477D01*
X159102374Y-66573800D01*
X159115258Y-66393652D01*
X159117265Y-66379693D01*
X159159737Y-66184447D01*
X159163711Y-66170914D01*
X159233539Y-65983701D01*
X159239391Y-65970886D01*
X159335150Y-65795516D01*
X159342777Y-65783648D01*
X159462515Y-65623698D01*
X159471749Y-65613040D01*
X159524754Y-65560035D01*
X167324592Y-65560035D01*
X167324592Y-65560040D01*
X167344197Y-65821663D01*
X167344198Y-65821669D01*
X167402580Y-66077457D01*
X167498429Y-66321674D01*
X167498438Y-66321693D01*
X167629610Y-66548889D01*
X167629620Y-66548903D01*
X167793185Y-66754008D01*
X167793196Y-66754020D01*
X167985514Y-66932465D01*
X167985516Y-66932466D01*
X167985521Y-66932471D01*
X168202296Y-67080266D01*
X168275662Y-67115597D01*
X168438674Y-67194100D01*
X168438676Y-67194100D01*
X168438677Y-67194101D01*
X168689385Y-67271434D01*
X168948818Y-67310538D01*
X168948823Y-67310538D01*
X169211177Y-67310538D01*
X169211182Y-67310538D01*
X169470615Y-67271434D01*
X169721323Y-67194101D01*
X169957704Y-67080266D01*
X170174479Y-66932471D01*
X170366805Y-66754019D01*
X170371415Y-66748239D01*
X170443732Y-66657556D01*
X170530386Y-66548895D01*
X170661568Y-66321681D01*
X170753858Y-66086530D01*
X170757419Y-66077457D01*
X170761792Y-66058297D01*
X170815802Y-65821668D01*
X170832413Y-65600000D01*
X170835408Y-65560040D01*
X170835408Y-65560035D01*
X170818555Y-65335145D01*
X170815802Y-65298408D01*
X170757420Y-65042622D01*
X170757419Y-65042621D01*
X170757419Y-65042618D01*
X170673439Y-64828643D01*
X170661568Y-64798395D01*
X170661563Y-64798386D01*
X170661561Y-64798382D01*
X170530389Y-64571186D01*
X170530388Y-64571185D01*
X170530386Y-64571181D01*
X170508567Y-64543821D01*
X170366814Y-64366067D01*
X170366803Y-64366055D01*
X170174485Y-64187610D01*
X170174482Y-64187608D01*
X170174479Y-64187605D01*
X169957704Y-64039810D01*
X169955524Y-64038760D01*
X169721325Y-63925975D01*
X169470619Y-63848643D01*
X169470616Y-63848642D01*
X169470615Y-63848642D01*
X169470610Y-63848641D01*
X169470609Y-63848641D01*
X169211185Y-63809538D01*
X169211182Y-63809538D01*
X168948818Y-63809538D01*
X168948814Y-63809538D01*
X168689390Y-63848641D01*
X168689380Y-63848643D01*
X168438674Y-63925975D01*
X168202303Y-64039806D01*
X168202299Y-64039808D01*
X168202296Y-64039810D01*
X167985521Y-64187605D01*
X167985514Y-64187610D01*
X167793196Y-64366055D01*
X167793185Y-64366067D01*
X167629620Y-64571172D01*
X167629610Y-64571186D01*
X167498438Y-64798382D01*
X167498429Y-64798401D01*
X167402580Y-65042618D01*
X167344198Y-65298406D01*
X167344197Y-65298412D01*
X167324592Y-65560035D01*
X159524754Y-65560035D01*
X159613040Y-65471749D01*
X159623698Y-65462515D01*
X159783648Y-65342777D01*
X159795516Y-65335150D01*
X159970886Y-65239391D01*
X159983701Y-65233539D01*
X160170914Y-65163711D01*
X160184447Y-65159737D01*
X160379693Y-65117265D01*
X160393652Y-65115258D01*
X160573568Y-65102390D01*
X160596478Y-65100752D01*
X160603540Y-65100500D01*
X162751248Y-65100500D01*
X162751252Y-65100500D01*
X162751256Y-65100499D01*
X162751263Y-65100499D01*
X162878403Y-65085060D01*
X163051551Y-65064037D01*
X163345266Y-64991643D01*
X163628113Y-64884373D01*
X163895967Y-64743792D01*
X164144924Y-64571950D01*
X164371352Y-64371352D01*
X164571950Y-64144924D01*
X164743792Y-63895967D01*
X164884373Y-63628113D01*
X164991643Y-63345266D01*
X165064037Y-63051551D01*
X165088750Y-62848019D01*
X165100499Y-62751263D01*
X165100500Y-62751248D01*
X165100500Y-62503539D01*
X165100752Y-62496477D01*
X165101225Y-62489856D01*
X165115258Y-62293652D01*
X165117265Y-62279693D01*
X165159737Y-62084447D01*
X165163711Y-62070914D01*
X165233539Y-61883701D01*
X165239391Y-61870886D01*
X165335150Y-61695516D01*
X165342777Y-61683648D01*
X165462515Y-61523698D01*
X165471749Y-61513040D01*
X165613040Y-61371749D01*
X165623698Y-61362515D01*
X165783648Y-61242777D01*
X165795516Y-61235150D01*
X165970886Y-61139391D01*
X165983701Y-61133539D01*
X166170914Y-61063711D01*
X166184447Y-61059737D01*
X166379693Y-61017265D01*
X166393652Y-61015258D01*
X166573568Y-61002390D01*
X166596478Y-61000752D01*
X166603540Y-61000500D01*
X166647595Y-61000500D01*
X183432507Y-61000500D01*
X183490698Y-61019407D01*
G37*
%TD.AperFunction*%
%TA.AperFunction,Conductor*%
G36*
X187500717Y-51580760D02*
G01*
X187501115Y-51580071D01*
X187637960Y-51659079D01*
X187637962Y-51659079D01*
X187637965Y-51659081D01*
X187676624Y-51669439D01*
X187727937Y-51702761D01*
X187749864Y-51759882D01*
X187750000Y-51765065D01*
X187750000Y-52348800D01*
X187731093Y-52406991D01*
X187681593Y-52442955D01*
X187651000Y-52447800D01*
X187006000Y-52447800D01*
X186947809Y-52428893D01*
X186911845Y-52379393D01*
X186907000Y-52348800D01*
X186907000Y-52146800D01*
X186925907Y-52088609D01*
X186975407Y-52052645D01*
X187006000Y-52047800D01*
X187349999Y-52047800D01*
X187350000Y-52047799D01*
X187350000Y-51663800D01*
X187368907Y-51605609D01*
X187418407Y-51569645D01*
X187479593Y-51569645D01*
X187500717Y-51580760D01*
G37*
%TD.AperFunction*%
%TA.AperFunction,Conductor*%
G36*
X197133985Y-44900539D02*
G01*
X197196331Y-44900538D01*
X197203416Y-44900791D01*
X197406964Y-44915398D01*
X197420985Y-44917421D01*
X197616889Y-44960189D01*
X197630480Y-44964194D01*
X197812315Y-45032272D01*
X197818266Y-45034500D01*
X197831150Y-45040407D01*
X198006968Y-45136811D01*
X198018862Y-45144487D01*
X198179121Y-45265019D01*
X198189806Y-45274324D01*
X198331204Y-45416501D01*
X198340452Y-45427240D01*
X198460091Y-45588148D01*
X198467710Y-45600094D01*
X198563143Y-45776439D01*
X198568980Y-45789356D01*
X198638252Y-45977525D01*
X198642184Y-45991144D01*
X198683871Y-46187271D01*
X198685818Y-46201312D01*
X198699276Y-46404513D01*
X198699490Y-46411601D01*
X198699126Y-46477459D01*
X198699500Y-46483402D01*
X198699500Y-70396460D01*
X198699248Y-70403523D01*
X198684742Y-70606339D01*
X198682732Y-70620320D01*
X198640263Y-70815546D01*
X198636283Y-70829099D01*
X198566465Y-71016286D01*
X198560597Y-71029135D01*
X198464848Y-71204484D01*
X198457211Y-71216367D01*
X198337483Y-71376303D01*
X198328233Y-71386978D01*
X198186961Y-71528247D01*
X198176286Y-71537497D01*
X198016348Y-71657223D01*
X198004465Y-71664860D01*
X197829109Y-71760609D01*
X197816260Y-71766476D01*
X197629078Y-71836289D01*
X197615525Y-71840269D01*
X197420298Y-71882735D01*
X197406316Y-71884745D01*
X197203064Y-71899278D01*
X197196003Y-71899530D01*
X197128023Y-71899530D01*
X197128007Y-71899531D01*
X197127612Y-71899531D01*
X197127505Y-71899538D01*
X189485955Y-71899538D01*
X189476070Y-71899509D01*
X189344698Y-71899128D01*
X189084100Y-71932698D01*
X188830148Y-72000057D01*
X188830142Y-72000059D01*
X188587172Y-72100053D01*
X188359358Y-72230967D01*
X188150627Y-72390547D01*
X188150626Y-72390548D01*
X187964559Y-72576051D01*
X187804345Y-72784300D01*
X187804341Y-72784306D01*
X187672747Y-73011702D01*
X187672739Y-73011717D01*
X187572010Y-73254378D01*
X187572008Y-73254385D01*
X187503879Y-73508132D01*
X187503878Y-73508139D01*
X187469516Y-73768632D01*
X187469508Y-73827979D01*
X187469500Y-73828123D01*
X187469500Y-79156460D01*
X187469248Y-79163523D01*
X187454742Y-79366339D01*
X187452732Y-79380320D01*
X187410263Y-79575546D01*
X187406283Y-79589099D01*
X187336465Y-79776286D01*
X187330597Y-79789135D01*
X187234848Y-79964484D01*
X187227211Y-79976367D01*
X187107483Y-80136303D01*
X187098233Y-80146978D01*
X186956961Y-80288247D01*
X186946286Y-80297497D01*
X186786348Y-80417223D01*
X186774465Y-80424860D01*
X186599109Y-80520609D01*
X186586260Y-80526476D01*
X186399078Y-80596289D01*
X186385525Y-80600269D01*
X186190298Y-80642735D01*
X186176316Y-80644745D01*
X185973064Y-80659278D01*
X185966003Y-80659530D01*
X185898023Y-80659530D01*
X185898007Y-80659531D01*
X185897612Y-80659531D01*
X185897505Y-80659538D01*
X68853518Y-80659538D01*
X68846454Y-80659286D01*
X68643632Y-80644776D01*
X68629651Y-80642765D01*
X68465285Y-80607008D01*
X68434438Y-80600297D01*
X68420890Y-80596320D01*
X68327289Y-80561408D01*
X68233692Y-80526497D01*
X68220844Y-80520629D01*
X68045498Y-80424881D01*
X68033616Y-80417245D01*
X68004129Y-80395171D01*
X67873671Y-80297511D01*
X67863018Y-80288281D01*
X67721726Y-80146990D01*
X67712484Y-80136323D01*
X67592759Y-79976391D01*
X67585122Y-79964508D01*
X67489371Y-79789157D01*
X67483503Y-79776309D01*
X67413678Y-79589108D01*
X67409704Y-79575572D01*
X67367234Y-79380351D01*
X67365224Y-79366372D01*
X67350752Y-79164080D01*
X67350500Y-79157016D01*
X67350500Y-73100001D01*
X160325000Y-73100001D01*
X160325000Y-73293064D01*
X160335613Y-73381443D01*
X160391080Y-73522095D01*
X160482435Y-73642564D01*
X160602904Y-73733919D01*
X160743556Y-73789386D01*
X160831935Y-73799999D01*
X160831942Y-73800000D01*
X161324999Y-73800000D01*
X161325000Y-73799999D01*
X161325000Y-73100001D01*
X161725000Y-73100001D01*
X161725000Y-73799999D01*
X161725001Y-73800000D01*
X162218058Y-73800000D01*
X162218064Y-73799999D01*
X162306443Y-73789386D01*
X162447095Y-73733919D01*
X162567564Y-73642564D01*
X162658919Y-73522095D01*
X162714386Y-73381443D01*
X162724999Y-73293064D01*
X162725000Y-73293058D01*
X162725000Y-73100001D01*
X162724999Y-73100000D01*
X161725001Y-73100000D01*
X161725000Y-73100001D01*
X161325000Y-73100001D01*
X161324999Y-73100000D01*
X160325001Y-73100000D01*
X160325000Y-73100001D01*
X67350500Y-73100001D01*
X67350500Y-72506935D01*
X160325000Y-72506935D01*
X160325000Y-72699999D01*
X160325001Y-72700000D01*
X161324999Y-72700000D01*
X161325000Y-72699999D01*
X161325000Y-72000001D01*
X161725000Y-72000001D01*
X161725000Y-72699999D01*
X161725001Y-72700000D01*
X162724999Y-72700000D01*
X162725000Y-72699999D01*
X162725000Y-72506941D01*
X162724999Y-72506935D01*
X162714386Y-72418556D01*
X162658919Y-72277904D01*
X162567564Y-72157435D01*
X162447095Y-72066080D01*
X162306443Y-72010613D01*
X162218064Y-72000000D01*
X161725001Y-72000000D01*
X161725000Y-72000001D01*
X161325000Y-72000001D01*
X161324999Y-72000000D01*
X160831935Y-72000000D01*
X160743556Y-72010613D01*
X160602904Y-72066080D01*
X160482435Y-72157435D01*
X160391080Y-72277904D01*
X160335613Y-72418556D01*
X160325000Y-72506935D01*
X67350500Y-72506935D01*
X67350500Y-71800001D01*
X164325001Y-71800001D01*
X164325001Y-71804203D01*
X164327850Y-71834600D01*
X164327850Y-71834602D01*
X164372654Y-71962647D01*
X164453207Y-72071790D01*
X164453209Y-72071792D01*
X164562352Y-72152345D01*
X164690398Y-72197149D01*
X164720789Y-72199999D01*
X165199998Y-72199999D01*
X165200000Y-72199998D01*
X165200000Y-71800001D01*
X165600000Y-71800001D01*
X165600000Y-72199998D01*
X165600001Y-72199999D01*
X166079203Y-72199999D01*
X166109600Y-72197149D01*
X166109602Y-72197149D01*
X166237647Y-72152345D01*
X166346790Y-72071792D01*
X166346792Y-72071790D01*
X166427345Y-71962647D01*
X166472149Y-71834601D01*
X166474999Y-71804211D01*
X166475000Y-71804210D01*
X166475000Y-71800001D01*
X166474999Y-71800000D01*
X165600001Y-71800000D01*
X165600000Y-71800001D01*
X165200000Y-71800001D01*
X165199999Y-71800000D01*
X164325002Y-71800000D01*
X164325001Y-71800001D01*
X67350500Y-71800001D01*
X67350500Y-65590704D01*
X76545142Y-65590704D01*
X76561249Y-65823419D01*
X76611991Y-66051113D01*
X76696219Y-66268632D01*
X76696224Y-66268642D01*
X76799244Y-66448736D01*
X76812053Y-66471127D01*
X76812057Y-66471134D01*
X76956866Y-66654000D01*
X76956869Y-66654003D01*
X77127411Y-66813154D01*
X77127414Y-66813156D01*
X77319850Y-66945004D01*
X77319853Y-66945005D01*
X77319854Y-66945006D01*
X77529838Y-67046577D01*
X77529847Y-67046581D01*
X77594588Y-67066633D01*
X77752673Y-67115597D01*
X77956644Y-67146465D01*
X77983311Y-67150501D01*
X77983317Y-67150502D01*
X77987061Y-67150503D01*
X78027254Y-67150515D01*
X78027595Y-67150538D01*
X78099954Y-67150538D01*
X78165846Y-67150540D01*
X78165849Y-67150538D01*
X78172728Y-67150539D01*
X78172757Y-67150538D01*
X80191817Y-67150538D01*
X80192932Y-67150464D01*
X80236147Y-67150466D01*
X80465939Y-67115836D01*
X80688003Y-67047345D01*
X80897378Y-66946520D01*
X81089388Y-66815616D01*
X81259742Y-66657555D01*
X81404634Y-66475870D01*
X81420300Y-66448736D01*
X158099500Y-66448736D01*
X158099500Y-68251263D01*
X158135961Y-68551539D01*
X158135963Y-68551555D01*
X158208355Y-68845260D01*
X158208356Y-68845263D01*
X158208357Y-68845266D01*
X158315627Y-69128113D01*
X158431350Y-69348604D01*
X158456210Y-69395971D01*
X158456211Y-69395972D01*
X158628039Y-69644909D01*
X158628044Y-69644915D01*
X158628050Y-69644924D01*
X158828648Y-69871352D01*
X159055076Y-70071950D01*
X159055086Y-70071957D01*
X159055090Y-70071960D01*
X159304027Y-70243788D01*
X159304028Y-70243789D01*
X159304030Y-70243790D01*
X159304033Y-70243792D01*
X159571887Y-70384373D01*
X159854734Y-70491643D01*
X160001591Y-70527840D01*
X160148444Y-70564036D01*
X160148445Y-70564036D01*
X160148449Y-70564037D01*
X160275600Y-70579476D01*
X160448736Y-70600499D01*
X160448743Y-70600499D01*
X160448748Y-70600500D01*
X160560438Y-70600500D01*
X164325500Y-70600500D01*
X164383691Y-70619407D01*
X164419655Y-70668907D01*
X164424500Y-70699500D01*
X164424500Y-70783260D01*
X164425481Y-70789993D01*
X164434427Y-70851395D01*
X164471033Y-70926273D01*
X164485802Y-70956483D01*
X164489421Y-70960102D01*
X164517197Y-71014617D01*
X164507626Y-71075049D01*
X164478206Y-71109758D01*
X164453211Y-71128205D01*
X164453207Y-71128209D01*
X164372654Y-71237352D01*
X164327850Y-71365398D01*
X164325000Y-71395788D01*
X164325000Y-71399999D01*
X164325001Y-71400000D01*
X166474998Y-71400000D01*
X166474999Y-71399999D01*
X166474999Y-71395796D01*
X166472149Y-71365399D01*
X166472149Y-71365397D01*
X166427345Y-71237352D01*
X166346792Y-71128209D01*
X166346790Y-71128207D01*
X166321794Y-71109759D01*
X166286202Y-71059991D01*
X166286660Y-70998807D01*
X166310581Y-70960099D01*
X166314198Y-70956483D01*
X166365573Y-70851393D01*
X166375500Y-70783260D01*
X166375500Y-70416740D01*
X166365573Y-70348607D01*
X166314198Y-70243517D01*
X166240682Y-70170001D01*
X166212907Y-70115487D01*
X166222478Y-70055055D01*
X166240681Y-70029999D01*
X166314198Y-69956483D01*
X166365573Y-69851393D01*
X166375500Y-69783260D01*
X166375500Y-69416740D01*
X166365573Y-69348607D01*
X166314198Y-69243517D01*
X166290182Y-69219501D01*
X166262407Y-69164987D01*
X166271978Y-69104555D01*
X166315243Y-69061290D01*
X166360188Y-69050500D01*
X173148224Y-69050500D01*
X173148228Y-69050500D01*
X173148232Y-69050499D01*
X173148239Y-69050499D01*
X173272837Y-69035369D01*
X173442522Y-69014766D01*
X173730364Y-68943820D01*
X174007555Y-68838695D01*
X174176478Y-68750037D01*
X181024457Y-68750037D01*
X181024457Y-68750038D01*
X181044608Y-69057495D01*
X181104721Y-69359703D01*
X181203764Y-69651471D01*
X181340040Y-69927811D01*
X181340044Y-69927817D01*
X181511214Y-70183991D01*
X181511217Y-70183995D01*
X181511222Y-70184002D01*
X181714380Y-70415658D01*
X181946036Y-70618816D01*
X181946043Y-70618821D01*
X181946046Y-70618823D01*
X182202220Y-70789993D01*
X182202226Y-70789997D01*
X182478566Y-70926273D01*
X182478568Y-70926273D01*
X182478573Y-70926276D01*
X182660576Y-70988057D01*
X182770334Y-71025316D01*
X182770336Y-71025316D01*
X182770341Y-71025318D01*
X183072540Y-71085429D01*
X183380000Y-71105581D01*
X183687460Y-71085429D01*
X183989659Y-71025318D01*
X184281427Y-70926276D01*
X184557772Y-70789998D01*
X184813964Y-70618816D01*
X185045620Y-70415658D01*
X185248778Y-70184002D01*
X185419960Y-69927810D01*
X185556238Y-69651465D01*
X185655280Y-69359697D01*
X185715391Y-69057498D01*
X185735543Y-68750038D01*
X185715391Y-68442578D01*
X185655280Y-68140379D01*
X185653022Y-68133728D01*
X185581182Y-67922095D01*
X185556238Y-67848611D01*
X185523114Y-67781443D01*
X185419960Y-67572267D01*
X185248778Y-67316074D01*
X185045620Y-67084418D01*
X184813964Y-66881260D01*
X184813957Y-66881255D01*
X184813953Y-66881252D01*
X184557779Y-66710082D01*
X184557773Y-66710078D01*
X184281433Y-66573802D01*
X183989665Y-66474759D01*
X183687457Y-66414646D01*
X183380000Y-66394495D01*
X183072542Y-66414646D01*
X182770334Y-66474759D01*
X182478566Y-66573802D01*
X182202229Y-66710077D01*
X181946036Y-66881259D01*
X181946035Y-66881260D01*
X181916753Y-66906941D01*
X181714382Y-67084416D01*
X181714378Y-67084420D01*
X181656414Y-67150515D01*
X181550371Y-67271434D01*
X181511223Y-67316073D01*
X181511221Y-67316074D01*
X181340039Y-67572267D01*
X181203764Y-67848604D01*
X181104721Y-68140372D01*
X181044608Y-68442580D01*
X181024457Y-68750037D01*
X174176478Y-68750037D01*
X174270053Y-68700925D01*
X174514032Y-68532519D01*
X174735932Y-68335932D01*
X174932519Y-68114032D01*
X175100925Y-67870053D01*
X175238695Y-67607555D01*
X175343820Y-67330364D01*
X175414766Y-67042522D01*
X175440883Y-66827434D01*
X175450499Y-66748239D01*
X175450500Y-66748224D01*
X175450500Y-66203539D01*
X175450752Y-66196477D01*
X175454109Y-66149538D01*
X175465767Y-65986536D01*
X175467774Y-65972577D01*
X175511763Y-65770360D01*
X175515737Y-65756827D01*
X175588053Y-65562940D01*
X175593914Y-65550106D01*
X175693089Y-65368481D01*
X175700713Y-65356618D01*
X175824725Y-65190957D01*
X175833963Y-65180295D01*
X175980295Y-65033963D01*
X175990957Y-65024725D01*
X176156618Y-64900713D01*
X176168481Y-64893089D01*
X176350106Y-64793914D01*
X176362940Y-64788053D01*
X176556827Y-64715737D01*
X176570360Y-64711763D01*
X176772577Y-64667774D01*
X176786536Y-64665767D01*
X176972880Y-64652439D01*
X176996478Y-64650752D01*
X177003540Y-64650500D01*
X182148224Y-64650500D01*
X182148228Y-64650500D01*
X182148232Y-64650499D01*
X182148239Y-64650499D01*
X182272837Y-64635369D01*
X182442522Y-64614766D01*
X182730364Y-64543820D01*
X183007555Y-64438695D01*
X183270053Y-64300925D01*
X183514032Y-64132519D01*
X183735932Y-63935932D01*
X183932519Y-63714032D01*
X184100925Y-63470053D01*
X184238695Y-63207555D01*
X184343820Y-62930364D01*
X184414766Y-62642522D01*
X184440883Y-62427434D01*
X184450499Y-62348239D01*
X184450500Y-62348224D01*
X184450500Y-61539897D01*
X184459446Y-61498771D01*
X184485165Y-61442457D01*
X184485165Y-61442455D01*
X184485166Y-61442454D01*
X184505647Y-61300002D01*
X184505647Y-61299997D01*
X184485165Y-61157543D01*
X184477440Y-61140627D01*
X184470465Y-61079840D01*
X184500551Y-61026563D01*
X184556207Y-61001145D01*
X184567493Y-61000500D01*
X186202685Y-61000500D01*
X186633879Y-61000500D01*
X186697750Y-61000500D01*
X186755941Y-61019407D01*
X186791152Y-61067871D01*
X186791416Y-61067779D01*
X186791723Y-61068656D01*
X186791905Y-61068907D01*
X186792254Y-61070175D01*
X186793253Y-61073029D01*
X186827590Y-61144319D01*
X186842692Y-61175675D01*
X186913731Y-61264740D01*
X186913732Y-61264741D01*
X186913731Y-61264741D01*
X186957958Y-61300002D01*
X187002811Y-61335763D01*
X187105463Y-61385179D01*
X187216538Y-61410511D01*
X187273501Y-61410500D01*
X187408108Y-61410500D01*
X187408260Y-61410511D01*
X187415905Y-61410509D01*
X187415907Y-61410510D01*
X187422439Y-61410508D01*
X187422561Y-61410547D01*
X187463501Y-61410539D01*
X187463501Y-61410541D01*
X187520455Y-61410531D01*
X187631502Y-61385165D01*
X187734121Y-61335728D01*
X187823169Y-61264698D01*
X187894182Y-61175635D01*
X187943598Y-61073006D01*
X187943598Y-61073002D01*
X187943601Y-61072998D01*
X187945436Y-61067755D01*
X187947884Y-61068611D01*
X187973923Y-61024979D01*
X188030172Y-61000903D01*
X188039097Y-61000500D01*
X189121727Y-61000500D01*
X189255482Y-60981268D01*
X189362491Y-60965883D01*
X189595882Y-60897353D01*
X189817145Y-60796306D01*
X190021775Y-60664798D01*
X190205607Y-60505507D01*
X190364898Y-60321675D01*
X190496406Y-60117045D01*
X190597453Y-59895782D01*
X190665983Y-59662391D01*
X190681368Y-59555382D01*
X190700600Y-59421627D01*
X190700600Y-58354601D01*
X190700601Y-58354598D01*
X190700600Y-58340764D01*
X190719505Y-58282575D01*
X190769003Y-58246609D01*
X190813872Y-58242797D01*
X190866740Y-58250500D01*
X190866741Y-58250500D01*
X191883257Y-58250500D01*
X191883260Y-58250500D01*
X191951393Y-58240573D01*
X192056483Y-58189198D01*
X192139198Y-58106483D01*
X192190573Y-58001393D01*
X192200500Y-57933260D01*
X192200500Y-57566740D01*
X192190573Y-57498607D01*
X192140351Y-57395877D01*
X192131780Y-57335296D01*
X192160455Y-57281246D01*
X192170510Y-57272737D01*
X192171791Y-57271791D01*
X192171792Y-57271790D01*
X192252345Y-57162647D01*
X192297149Y-57034601D01*
X192299999Y-57004211D01*
X192300000Y-57004210D01*
X192300000Y-57000001D01*
X192299999Y-57000000D01*
X191274000Y-57000000D01*
X191215809Y-56981093D01*
X191179845Y-56931593D01*
X191175000Y-56901000D01*
X191175000Y-56699000D01*
X191193907Y-56640809D01*
X191243407Y-56604845D01*
X191274000Y-56600000D01*
X192299998Y-56600000D01*
X192299999Y-56599999D01*
X192299999Y-56595796D01*
X192297149Y-56565399D01*
X192297149Y-56565397D01*
X192252345Y-56437352D01*
X192171792Y-56328209D01*
X192171789Y-56328206D01*
X192170503Y-56327257D01*
X192169656Y-56326073D01*
X192166545Y-56322962D01*
X192167061Y-56322445D01*
X192134911Y-56277489D01*
X192135369Y-56216305D01*
X192140348Y-56204129D01*
X192190573Y-56101393D01*
X192200500Y-56033260D01*
X192200500Y-55666740D01*
X192190573Y-55598607D01*
X192139198Y-55493517D01*
X192056483Y-55410802D01*
X192049399Y-55407339D01*
X191951395Y-55359427D01*
X191924139Y-55355456D01*
X191883260Y-55349500D01*
X190866740Y-55349500D01*
X190813872Y-55357202D01*
X190753565Y-55346883D01*
X190710840Y-55303085D01*
X190700600Y-55259237D01*
X190700600Y-53649500D01*
X190719507Y-53591309D01*
X190769007Y-53555345D01*
X190799600Y-53550500D01*
X191056024Y-53550500D01*
X191114215Y-53569407D01*
X191150179Y-53618907D01*
X191150179Y-53680093D01*
X191126029Y-53719501D01*
X191075935Y-53769596D01*
X191075933Y-53769598D01*
X191025932Y-53876824D01*
X191025932Y-53876825D01*
X191019500Y-53925685D01*
X191019500Y-54374314D01*
X191025932Y-54423174D01*
X191025932Y-54423175D01*
X191075933Y-54530401D01*
X191075934Y-54530402D01*
X191075935Y-54530404D01*
X191159596Y-54614065D01*
X191159597Y-54614065D01*
X191159598Y-54614066D01*
X191266824Y-54664067D01*
X191266825Y-54664067D01*
X191266827Y-54664068D01*
X191315684Y-54670500D01*
X191315685Y-54670500D01*
X191664314Y-54670500D01*
X191664316Y-54670500D01*
X191713173Y-54664068D01*
X191820404Y-54614065D01*
X191904065Y-54530404D01*
X191910275Y-54517085D01*
X191952003Y-54472337D01*
X192012064Y-54460662D01*
X192067517Y-54486519D01*
X192089724Y-54517084D01*
X192095935Y-54530404D01*
X192179596Y-54614065D01*
X192179597Y-54614065D01*
X192179598Y-54614066D01*
X192286824Y-54664067D01*
X192286825Y-54664067D01*
X192286827Y-54664068D01*
X192335684Y-54670500D01*
X192335685Y-54670500D01*
X192684314Y-54670500D01*
X192684316Y-54670500D01*
X192733173Y-54664068D01*
X192840404Y-54614065D01*
X192924065Y-54530404D01*
X192974068Y-54423173D01*
X192980500Y-54374316D01*
X192980500Y-54216188D01*
X192999407Y-54157997D01*
X193009492Y-54146189D01*
X193057446Y-54098234D01*
X193057455Y-54098228D01*
X193068177Y-54087506D01*
X193075844Y-54079838D01*
X193075868Y-54079825D01*
X193104856Y-54050837D01*
X193104857Y-54050838D01*
X193167448Y-53988247D01*
X193275218Y-53847795D01*
X193363733Y-53694479D01*
X193431479Y-53530920D01*
X193477296Y-53359918D01*
X193497241Y-53208402D01*
X193523580Y-53153179D01*
X193577350Y-53123983D01*
X193602320Y-53123142D01*
X193602350Y-53122635D01*
X193605204Y-53122799D01*
X193750000Y-53122799D01*
X193750000Y-52447801D01*
X193749999Y-52447800D01*
X193749400Y-52447800D01*
X193691209Y-52428893D01*
X193655245Y-52379393D01*
X193650400Y-52348800D01*
X193650400Y-52146800D01*
X193669307Y-52088609D01*
X193718807Y-52052645D01*
X193749400Y-52047800D01*
X193749999Y-52047800D01*
X193750000Y-52047799D01*
X193750000Y-51765118D01*
X193768907Y-51706927D01*
X193818407Y-51670963D01*
X193823332Y-51669504D01*
X193862235Y-51659081D01*
X193993465Y-51583315D01*
X193993465Y-51583314D01*
X193999085Y-51580070D01*
X194000229Y-51582052D01*
X194048385Y-51564988D01*
X194107055Y-51582351D01*
X194144314Y-51630884D01*
X194150000Y-51663953D01*
X194150000Y-53122798D01*
X194150001Y-53122799D01*
X194294790Y-53122799D01*
X194294791Y-53122798D01*
X194319874Y-53119890D01*
X194422477Y-53074586D01*
X194501787Y-52995276D01*
X194519062Y-52956152D01*
X194559862Y-52910556D01*
X194619671Y-52897650D01*
X194664628Y-52913823D01*
X194714642Y-52947241D01*
X194851131Y-53003777D01*
X194869900Y-53007509D01*
X194869900Y-52456865D01*
X194885695Y-52472660D01*
X194954104Y-52512156D01*
X195030404Y-52532600D01*
X195109396Y-52532600D01*
X195185696Y-52512156D01*
X195254105Y-52472660D01*
X195269900Y-52456865D01*
X195269900Y-53007509D01*
X195288668Y-53003777D01*
X195425157Y-52947241D01*
X195547993Y-52865165D01*
X195652465Y-52760693D01*
X195734541Y-52637857D01*
X195791076Y-52501370D01*
X195791078Y-52501364D01*
X195819899Y-52356471D01*
X195819900Y-52356467D01*
X195819900Y-51882601D01*
X195819899Y-51882600D01*
X195369900Y-51882600D01*
X195369900Y-51482600D01*
X195819899Y-51482600D01*
X195819900Y-51482599D01*
X195819900Y-51008732D01*
X195819899Y-51008728D01*
X195791078Y-50863835D01*
X195791076Y-50863829D01*
X195734541Y-50727342D01*
X195652465Y-50604506D01*
X195547993Y-50500034D01*
X195425157Y-50417958D01*
X195288670Y-50361423D01*
X195288664Y-50361421D01*
X195269900Y-50357689D01*
X195269900Y-50908335D01*
X195254105Y-50892540D01*
X195185696Y-50853044D01*
X195109396Y-50832600D01*
X195030404Y-50832600D01*
X194954104Y-50853044D01*
X194885695Y-50892540D01*
X194869900Y-50908335D01*
X194869900Y-50357689D01*
X194851135Y-50361421D01*
X194851129Y-50361423D01*
X194714642Y-50417958D01*
X194591806Y-50500034D01*
X194487334Y-50604506D01*
X194405258Y-50727342D01*
X194348721Y-50863834D01*
X194348325Y-50865141D01*
X194347968Y-50865652D01*
X194346861Y-50868326D01*
X194346274Y-50868082D01*
X194313335Y-50915335D01*
X194255525Y-50935376D01*
X194196976Y-50917610D01*
X194167854Y-50885895D01*
X194100618Y-50769439D01*
X194100616Y-50769437D01*
X194100615Y-50769435D01*
X193993465Y-50662285D01*
X193993462Y-50662283D01*
X193993460Y-50662281D01*
X193862238Y-50586520D01*
X193862240Y-50586520D01*
X193805447Y-50571303D01*
X193715866Y-50547300D01*
X193564334Y-50547300D01*
X193474752Y-50571303D01*
X193417960Y-50586520D01*
X193286739Y-50662281D01*
X193179581Y-50769439D01*
X193103820Y-50900661D01*
X193103819Y-50900664D01*
X193102654Y-50905011D01*
X193069326Y-50956323D01*
X193012203Y-50978246D01*
X192953103Y-50962405D01*
X192937022Y-50949381D01*
X192919440Y-50931798D01*
X192919439Y-50931797D01*
X192919437Y-50931795D01*
X192758193Y-50808062D01*
X192758188Y-50808059D01*
X192758184Y-50808056D01*
X192582181Y-50706434D01*
X192394407Y-50628650D01*
X192394394Y-50628646D01*
X192198084Y-50576038D01*
X192198083Y-50576037D01*
X191996570Y-50549502D01*
X191996574Y-50549502D01*
X191945980Y-50549501D01*
X191945958Y-50549500D01*
X191941083Y-50549500D01*
X191894951Y-50549500D01*
X191894943Y-50549499D01*
X191839437Y-50549498D01*
X191839436Y-50549498D01*
X191831471Y-50549498D01*
X191831447Y-50549500D01*
X189668753Y-50549500D01*
X189668729Y-50549498D01*
X189646281Y-50549498D01*
X189646200Y-50549472D01*
X189503625Y-50549475D01*
X189302113Y-50576011D01*
X189105788Y-50628623D01*
X188918009Y-50706408D01*
X188741992Y-50808039D01*
X188580748Y-50931772D01*
X188563166Y-50949355D01*
X188508649Y-50977132D01*
X188448217Y-50967561D01*
X188404952Y-50924296D01*
X188397535Y-50904973D01*
X188396970Y-50902865D01*
X188396381Y-50900665D01*
X188377710Y-50868326D01*
X188320618Y-50769439D01*
X188320616Y-50769437D01*
X188320615Y-50769435D01*
X188213465Y-50662285D01*
X188213462Y-50662283D01*
X188213460Y-50662281D01*
X188082238Y-50586520D01*
X188082240Y-50586520D01*
X188025447Y-50571303D01*
X187935866Y-50547300D01*
X187784334Y-50547300D01*
X187694752Y-50571303D01*
X187637960Y-50586520D01*
X187506739Y-50662281D01*
X187399583Y-50769437D01*
X187332214Y-50886123D01*
X187286744Y-50927063D01*
X187225894Y-50933458D01*
X187172906Y-50902865D01*
X187153363Y-50868233D01*
X187153139Y-50868326D01*
X187152374Y-50866480D01*
X187151740Y-50865356D01*
X187151278Y-50863834D01*
X187094741Y-50727342D01*
X187012665Y-50604506D01*
X186908193Y-50500034D01*
X186785357Y-50417958D01*
X186648870Y-50361423D01*
X186648864Y-50361421D01*
X186630100Y-50357689D01*
X186630100Y-50908335D01*
X186614305Y-50892540D01*
X186545896Y-50853044D01*
X186469596Y-50832600D01*
X186390604Y-50832600D01*
X186314304Y-50853044D01*
X186245895Y-50892540D01*
X186230100Y-50908335D01*
X186230100Y-50357689D01*
X186211335Y-50361421D01*
X186211329Y-50361423D01*
X186074842Y-50417958D01*
X185952006Y-50500034D01*
X185847534Y-50604506D01*
X185765458Y-50727342D01*
X185708923Y-50863829D01*
X185708921Y-50863835D01*
X185680100Y-51008728D01*
X185680100Y-51482599D01*
X185680101Y-51482600D01*
X186130100Y-51482600D01*
X186130100Y-51882600D01*
X185680101Y-51882600D01*
X185680100Y-51882601D01*
X185680100Y-52356471D01*
X185708921Y-52501364D01*
X185708923Y-52501370D01*
X185765458Y-52637857D01*
X185847534Y-52760693D01*
X185952006Y-52865165D01*
X186075586Y-52947738D01*
X186113466Y-52995788D01*
X186115868Y-53056926D01*
X186081876Y-53107800D01*
X186024472Y-53128978D01*
X186020585Y-53129054D01*
X185014362Y-53129054D01*
X184956171Y-53110147D01*
X184950652Y-53105434D01*
X184837883Y-53022207D01*
X184709703Y-52977355D01*
X184709694Y-52977353D01*
X184679274Y-52974500D01*
X184679266Y-52974500D01*
X183320734Y-52974500D01*
X183320725Y-52974500D01*
X183290305Y-52977353D01*
X183290296Y-52977355D01*
X183162116Y-53022207D01*
X183052855Y-53102845D01*
X183052845Y-53102855D01*
X182972207Y-53212116D01*
X182927355Y-53340296D01*
X182927353Y-53340305D01*
X182924500Y-53370725D01*
X182924500Y-54229274D01*
X182927353Y-54259694D01*
X182927355Y-54259703D01*
X182972207Y-54387883D01*
X183052845Y-54497144D01*
X183052847Y-54497146D01*
X183052850Y-54497150D01*
X183052853Y-54497152D01*
X183052855Y-54497154D01*
X183162116Y-54577792D01*
X183162117Y-54577792D01*
X183162118Y-54577793D01*
X183290301Y-54622646D01*
X183320725Y-54625499D01*
X183320727Y-54625500D01*
X183320734Y-54625500D01*
X184679273Y-54625500D01*
X184679273Y-54625499D01*
X184709699Y-54622646D01*
X184837882Y-54577793D01*
X184947150Y-54497150D01*
X185027793Y-54387882D01*
X185072646Y-54259699D01*
X185075499Y-54229273D01*
X185075500Y-54229273D01*
X185075500Y-54029054D01*
X185094407Y-53970863D01*
X185143907Y-53934899D01*
X185174500Y-53930054D01*
X187220500Y-53930054D01*
X187278691Y-53948961D01*
X187314655Y-53998461D01*
X187319500Y-54029054D01*
X187319500Y-54374314D01*
X187325932Y-54423174D01*
X187325932Y-54423175D01*
X187375933Y-54530401D01*
X187375934Y-54530402D01*
X187375935Y-54530404D01*
X187459596Y-54614065D01*
X187459597Y-54614065D01*
X187459598Y-54614066D01*
X187566824Y-54664067D01*
X187566825Y-54664067D01*
X187566827Y-54664068D01*
X187615684Y-54670500D01*
X187615685Y-54670500D01*
X187964314Y-54670500D01*
X187964316Y-54670500D01*
X188013173Y-54664068D01*
X188120404Y-54614065D01*
X188204065Y-54530404D01*
X188210275Y-54517085D01*
X188252003Y-54472337D01*
X188312064Y-54460662D01*
X188367517Y-54486519D01*
X188389724Y-54517084D01*
X188395935Y-54530404D01*
X188479596Y-54614065D01*
X188479597Y-54614065D01*
X188479598Y-54614066D01*
X188586824Y-54664067D01*
X188586825Y-54664067D01*
X188586827Y-54664068D01*
X188635684Y-54670500D01*
X188635685Y-54670500D01*
X188984314Y-54670500D01*
X188984316Y-54670500D01*
X189033173Y-54664068D01*
X189140404Y-54614065D01*
X189224065Y-54530404D01*
X189274068Y-54423173D01*
X189280500Y-54374316D01*
X189280500Y-54087506D01*
X189283874Y-54061881D01*
X189292671Y-54029054D01*
X189300600Y-53999462D01*
X189300600Y-53122300D01*
X189319507Y-53064109D01*
X189369007Y-53028145D01*
X189399600Y-53023300D01*
X189600600Y-53023300D01*
X189658791Y-53042207D01*
X189694755Y-53091707D01*
X189699600Y-53122300D01*
X189699600Y-55259266D01*
X189680693Y-55317457D01*
X189631193Y-55353421D01*
X189586327Y-55357231D01*
X189533260Y-55349500D01*
X188516740Y-55349500D01*
X188489829Y-55353421D01*
X188448604Y-55359427D01*
X188343518Y-55410801D01*
X188260801Y-55493518D01*
X188209427Y-55598604D01*
X188209427Y-55598607D01*
X188199500Y-55666740D01*
X188199500Y-56033260D01*
X188209427Y-56101393D01*
X188260802Y-56206483D01*
X188260803Y-56206484D01*
X188261065Y-56207019D01*
X188269636Y-56267601D01*
X188240961Y-56321651D01*
X188185993Y-56348524D01*
X188172124Y-56349500D01*
X185174500Y-56349500D01*
X185116309Y-56330593D01*
X185080345Y-56281093D01*
X185075500Y-56250500D01*
X185075500Y-56170727D01*
X185075499Y-56170725D01*
X185072646Y-56140305D01*
X185072646Y-56140301D01*
X185027793Y-56012118D01*
X184947150Y-55902850D01*
X184947146Y-55902847D01*
X184947144Y-55902845D01*
X184837883Y-55822207D01*
X184709703Y-55777355D01*
X184709694Y-55777353D01*
X184679274Y-55774500D01*
X184679266Y-55774500D01*
X183320734Y-55774500D01*
X183320725Y-55774500D01*
X183290305Y-55777353D01*
X183290296Y-55777355D01*
X183162116Y-55822207D01*
X183052855Y-55902845D01*
X183052845Y-55902855D01*
X182972207Y-56012116D01*
X182927355Y-56140296D01*
X182927353Y-56140305D01*
X182924500Y-56170725D01*
X182924500Y-57029274D01*
X182927353Y-57059694D01*
X182927355Y-57059703D01*
X182972207Y-57187883D01*
X183052845Y-57297144D01*
X183052847Y-57297146D01*
X183052850Y-57297150D01*
X183052853Y-57297152D01*
X183052855Y-57297154D01*
X183162116Y-57377792D01*
X183162117Y-57377792D01*
X183162118Y-57377793D01*
X183290301Y-57422646D01*
X183320725Y-57425499D01*
X183320727Y-57425500D01*
X183320734Y-57425500D01*
X183450500Y-57425500D01*
X183508691Y-57444407D01*
X183544655Y-57493907D01*
X183549500Y-57524500D01*
X183549500Y-57760102D01*
X183540553Y-57801229D01*
X183514834Y-57857543D01*
X183494353Y-57999997D01*
X183494353Y-58000002D01*
X183514834Y-58142456D01*
X183560653Y-58242783D01*
X183574623Y-58273373D01*
X183645007Y-58354601D01*
X183668873Y-58382144D01*
X183789942Y-58459950D01*
X183789947Y-58459953D01*
X183896403Y-58491211D01*
X183928035Y-58500499D01*
X183928036Y-58500499D01*
X183928039Y-58500500D01*
X183928041Y-58500500D01*
X184071959Y-58500500D01*
X184071961Y-58500500D01*
X184210053Y-58459953D01*
X184331128Y-58382143D01*
X184425377Y-58273373D01*
X184485165Y-58142457D01*
X184491992Y-58094971D01*
X184505647Y-58000002D01*
X184505647Y-57999997D01*
X184485165Y-57857543D01*
X184459447Y-57801229D01*
X184450500Y-57760102D01*
X184450500Y-57524500D01*
X184469407Y-57466309D01*
X184518907Y-57430345D01*
X184549500Y-57425500D01*
X184679273Y-57425500D01*
X184679273Y-57425499D01*
X184709699Y-57422646D01*
X184837882Y-57377793D01*
X184947150Y-57297150D01*
X184951902Y-57290710D01*
X185001671Y-57255119D01*
X185031557Y-57250500D01*
X188172124Y-57250500D01*
X188230315Y-57269407D01*
X188266279Y-57318907D01*
X188266279Y-57380093D01*
X188261065Y-57392981D01*
X188260803Y-57393515D01*
X188260802Y-57393517D01*
X188246563Y-57422644D01*
X188209427Y-57498605D01*
X188209427Y-57498607D01*
X188199500Y-57566740D01*
X188199500Y-57933260D01*
X188206118Y-57978682D01*
X188209427Y-58001395D01*
X188260801Y-58106481D01*
X188260802Y-58106483D01*
X188343517Y-58189198D01*
X188380658Y-58207355D01*
X188448604Y-58240572D01*
X188448605Y-58240572D01*
X188448607Y-58240573D01*
X188516740Y-58250500D01*
X188516743Y-58250500D01*
X189533259Y-58250500D01*
X189533260Y-58250500D01*
X189586223Y-58242783D01*
X189646532Y-58253102D01*
X189689258Y-58296899D01*
X189699498Y-58340748D01*
X189699498Y-58362669D01*
X189699499Y-58362682D01*
X189699499Y-59295138D01*
X189699022Y-59304842D01*
X189687013Y-59426762D01*
X189683227Y-59445796D01*
X189649083Y-59558354D01*
X189641656Y-59576285D01*
X189586207Y-59680022D01*
X189575425Y-59696158D01*
X189500805Y-59787083D01*
X189487082Y-59800806D01*
X189396158Y-59875425D01*
X189380021Y-59886207D01*
X189276283Y-59941656D01*
X189258353Y-59949083D01*
X189145795Y-59983227D01*
X189126761Y-59987013D01*
X189004831Y-59999023D01*
X188995127Y-59999500D01*
X166448736Y-59999500D01*
X166148460Y-60035961D01*
X166148444Y-60035963D01*
X165854739Y-60108355D01*
X165571887Y-60215627D01*
X165304028Y-60356210D01*
X165304027Y-60356211D01*
X165055090Y-60528039D01*
X165055071Y-60528054D01*
X164828653Y-60728643D01*
X164828643Y-60728653D01*
X164628054Y-60955071D01*
X164628039Y-60955090D01*
X164456211Y-61204027D01*
X164456210Y-61204028D01*
X164315627Y-61471887D01*
X164208355Y-61754739D01*
X164135963Y-62048444D01*
X164135961Y-62048460D01*
X164099500Y-62348736D01*
X164099500Y-62596460D01*
X164099248Y-62603523D01*
X164084742Y-62806337D01*
X164082732Y-62820318D01*
X164040264Y-63015542D01*
X164036284Y-63029095D01*
X163966466Y-63216284D01*
X163960598Y-63229133D01*
X163864854Y-63404474D01*
X163857218Y-63416356D01*
X163737493Y-63576290D01*
X163728243Y-63586966D01*
X163586966Y-63728243D01*
X163576290Y-63737493D01*
X163416356Y-63857218D01*
X163404474Y-63864854D01*
X163229133Y-63960598D01*
X163216284Y-63966466D01*
X163029095Y-64036284D01*
X163015542Y-64040264D01*
X162820318Y-64082732D01*
X162806337Y-64084742D01*
X162603523Y-64099248D01*
X162596460Y-64099500D01*
X160448736Y-64099500D01*
X160148460Y-64135961D01*
X160148444Y-64135963D01*
X159854739Y-64208355D01*
X159571887Y-64315627D01*
X159304028Y-64456210D01*
X159304027Y-64456211D01*
X159055090Y-64628039D01*
X159055071Y-64628054D01*
X158828653Y-64828643D01*
X158828643Y-64828653D01*
X158628054Y-65055071D01*
X158628039Y-65055090D01*
X158456211Y-65304027D01*
X158456210Y-65304028D01*
X158315627Y-65571887D01*
X158208355Y-65854739D01*
X158135963Y-66148444D01*
X158135961Y-66148460D01*
X158099500Y-66448736D01*
X81420300Y-66448736D01*
X81520830Y-66274619D01*
X81605732Y-66058297D01*
X81657443Y-65831737D01*
X81674810Y-65600000D01*
X81657443Y-65368263D01*
X81605732Y-65141703D01*
X81546837Y-64991644D01*
X81520832Y-64925385D01*
X81506591Y-64900720D01*
X81415986Y-64743792D01*
X81404637Y-64724135D01*
X81404634Y-64724130D01*
X81283268Y-64571945D01*
X81259742Y-64542445D01*
X81089388Y-64384384D01*
X80897378Y-64253480D01*
X80688003Y-64152655D01*
X80688001Y-64152654D01*
X80619035Y-64131383D01*
X80465939Y-64084164D01*
X80465933Y-64084163D01*
X80236147Y-64049534D01*
X80119954Y-64049538D01*
X78116117Y-64049538D01*
X78114964Y-64049531D01*
X78001857Y-64048213D01*
X77770812Y-64080359D01*
X77770810Y-64080359D01*
X77547171Y-64146710D01*
X77547166Y-64146712D01*
X77335984Y-64245765D01*
X77335975Y-64245770D01*
X77141986Y-64375304D01*
X77141977Y-64375311D01*
X76969545Y-64532412D01*
X76822560Y-64713536D01*
X76822553Y-64713546D01*
X76704314Y-64914629D01*
X76617488Y-65131138D01*
X76564029Y-65358205D01*
X76545142Y-65590704D01*
X67350500Y-65590704D01*
X67350500Y-63663543D01*
X67350753Y-63656468D01*
X67356091Y-63581964D01*
X67365310Y-63453284D01*
X67367328Y-63439284D01*
X67374915Y-63404474D01*
X67409948Y-63243729D01*
X67413935Y-63230174D01*
X67484006Y-63042669D01*
X67489882Y-63029829D01*
X67585972Y-62854227D01*
X67593618Y-62842357D01*
X67713759Y-62682252D01*
X67723024Y-62671587D01*
X67864758Y-62530251D01*
X67875453Y-62521012D01*
X68035889Y-62401327D01*
X68047801Y-62393703D01*
X68223644Y-62298124D01*
X68236520Y-62292274D01*
X68424211Y-62222733D01*
X68437787Y-62218781D01*
X68633473Y-62176710D01*
X68647459Y-62174735D01*
X68850275Y-62160777D01*
X68857308Y-62160544D01*
X68920109Y-62160722D01*
X68920113Y-62160720D01*
X68924819Y-62160734D01*
X68927890Y-62160538D01*
X159772073Y-62160538D01*
X159772634Y-62160501D01*
X159831080Y-62160502D01*
X160091080Y-62126278D01*
X160344388Y-62058408D01*
X160586671Y-61958056D01*
X160813781Y-61826938D01*
X161000531Y-61683643D01*
X161021832Y-61667299D01*
X161207262Y-61481873D01*
X161207262Y-61481872D01*
X161207270Y-61481865D01*
X161366915Y-61273816D01*
X161498038Y-61046708D01*
X161598395Y-60804427D01*
X161666269Y-60551121D01*
X161700499Y-60291121D01*
X161700499Y-60245586D01*
X161700500Y-60245581D01*
X161700500Y-54663534D01*
X161700751Y-54656484D01*
X161709752Y-54530402D01*
X161715205Y-54454019D01*
X161717204Y-54440089D01*
X161759524Y-54245182D01*
X161763489Y-54231658D01*
X161833061Y-54044757D01*
X161838899Y-54031948D01*
X161934322Y-53856817D01*
X161941930Y-53844953D01*
X162061261Y-53685157D01*
X162070470Y-53674502D01*
X162211296Y-53533276D01*
X162221918Y-53524042D01*
X162381384Y-53404248D01*
X162393221Y-53396611D01*
X162568077Y-53300692D01*
X162580873Y-53294816D01*
X162767578Y-53224712D01*
X162781092Y-53220708D01*
X162975869Y-53177836D01*
X162989813Y-53175795D01*
X163191642Y-53160810D01*
X163198972Y-53160538D01*
X174772073Y-53160538D01*
X174772634Y-53160501D01*
X174831080Y-53160502D01*
X175091080Y-53126278D01*
X175344388Y-53058408D01*
X175586671Y-52958056D01*
X175813781Y-52826938D01*
X175925008Y-52741592D01*
X176021832Y-52667299D01*
X176207262Y-52481873D01*
X176207262Y-52481872D01*
X176207270Y-52481865D01*
X176366915Y-52273816D01*
X176498038Y-52046708D01*
X176598395Y-51804427D01*
X176666269Y-51551121D01*
X176700499Y-51291121D01*
X176700499Y-51245586D01*
X176700500Y-51245581D01*
X176700500Y-46978928D01*
X185680100Y-46978928D01*
X185680100Y-47302799D01*
X185680101Y-47302800D01*
X186130100Y-47302800D01*
X186130100Y-47702800D01*
X185680101Y-47702800D01*
X185680100Y-47702801D01*
X185680100Y-48026671D01*
X185708921Y-48171564D01*
X185708923Y-48171570D01*
X185765458Y-48308057D01*
X185847534Y-48430893D01*
X185952006Y-48535365D01*
X186074842Y-48617441D01*
X186211331Y-48673977D01*
X186230100Y-48677709D01*
X186230100Y-48127065D01*
X186245895Y-48142860D01*
X186314304Y-48182356D01*
X186390604Y-48202800D01*
X186469596Y-48202800D01*
X186545896Y-48182356D01*
X186614305Y-48142860D01*
X186630100Y-48127065D01*
X186630100Y-48677709D01*
X186648868Y-48673977D01*
X186785357Y-48617441D01*
X186908193Y-48535365D01*
X187012665Y-48430893D01*
X187094741Y-48308057D01*
X187151276Y-48171570D01*
X187151278Y-48171564D01*
X187180099Y-48026671D01*
X187180100Y-48026667D01*
X187180100Y-47702801D01*
X187180099Y-47702800D01*
X186730100Y-47702800D01*
X186730100Y-47302800D01*
X187180099Y-47302800D01*
X187180100Y-47302799D01*
X187180100Y-46978932D01*
X187180099Y-46978928D01*
X194319900Y-46978928D01*
X194319900Y-47302799D01*
X194319901Y-47302800D01*
X194769900Y-47302800D01*
X194769900Y-47702800D01*
X194319901Y-47702800D01*
X194319900Y-47702801D01*
X194319900Y-48026671D01*
X194348721Y-48171564D01*
X194348723Y-48171570D01*
X194405258Y-48308057D01*
X194487334Y-48430893D01*
X194591806Y-48535365D01*
X194714642Y-48617441D01*
X194851131Y-48673977D01*
X194869900Y-48677709D01*
X194869900Y-48127065D01*
X194885695Y-48142860D01*
X194954104Y-48182356D01*
X195030404Y-48202800D01*
X195109396Y-48202800D01*
X195185696Y-48182356D01*
X195254105Y-48142860D01*
X195269900Y-48127065D01*
X195269900Y-48677709D01*
X195288668Y-48673977D01*
X195425157Y-48617441D01*
X195547993Y-48535365D01*
X195652465Y-48430893D01*
X195734541Y-48308057D01*
X195791076Y-48171570D01*
X195791078Y-48171564D01*
X195819899Y-48026671D01*
X195819900Y-48026667D01*
X195819900Y-47702801D01*
X195819899Y-47702800D01*
X195369900Y-47702800D01*
X195369900Y-47302800D01*
X195819899Y-47302800D01*
X195819900Y-47302799D01*
X195819900Y-46978932D01*
X195819899Y-46978928D01*
X195791078Y-46834035D01*
X195791076Y-46834029D01*
X195734541Y-46697542D01*
X195652465Y-46574706D01*
X195547993Y-46470234D01*
X195425157Y-46388158D01*
X195288670Y-46331623D01*
X195288664Y-46331621D01*
X195269900Y-46327889D01*
X195269900Y-46878535D01*
X195254105Y-46862740D01*
X195185696Y-46823244D01*
X195109396Y-46802800D01*
X195030404Y-46802800D01*
X194954104Y-46823244D01*
X194885695Y-46862740D01*
X194869900Y-46878535D01*
X194869900Y-46327889D01*
X194851135Y-46331621D01*
X194851129Y-46331623D01*
X194714642Y-46388158D01*
X194591806Y-46470234D01*
X194487334Y-46574706D01*
X194405258Y-46697542D01*
X194348723Y-46834029D01*
X194348721Y-46834035D01*
X194319900Y-46978928D01*
X187180099Y-46978928D01*
X187151278Y-46834035D01*
X187151276Y-46834029D01*
X187094741Y-46697542D01*
X187012665Y-46574706D01*
X186908193Y-46470234D01*
X186785357Y-46388158D01*
X186648870Y-46331623D01*
X186648864Y-46331621D01*
X186630100Y-46327889D01*
X186630100Y-46878535D01*
X186614305Y-46862740D01*
X186545896Y-46823244D01*
X186469596Y-46802800D01*
X186390604Y-46802800D01*
X186314304Y-46823244D01*
X186245895Y-46862740D01*
X186230100Y-46878535D01*
X186230100Y-46327889D01*
X186211335Y-46331621D01*
X186211329Y-46331623D01*
X186074842Y-46388158D01*
X185952006Y-46470234D01*
X185847534Y-46574706D01*
X185765458Y-46697542D01*
X185708923Y-46834029D01*
X185708921Y-46834035D01*
X185680100Y-46978928D01*
X176700500Y-46978928D01*
X176700500Y-46403543D01*
X176700753Y-46396468D01*
X176705399Y-46331621D01*
X176715310Y-46193284D01*
X176717328Y-46179284D01*
X176759948Y-45983729D01*
X176763935Y-45970174D01*
X176834006Y-45782669D01*
X176839882Y-45769829D01*
X176935972Y-45594227D01*
X176943618Y-45582357D01*
X177063759Y-45422252D01*
X177073024Y-45411587D01*
X177214758Y-45270251D01*
X177225453Y-45261012D01*
X177385889Y-45141327D01*
X177397801Y-45133703D01*
X177573644Y-45038124D01*
X177586520Y-45032274D01*
X177774211Y-44962733D01*
X177787787Y-44958781D01*
X177983473Y-44916710D01*
X177997459Y-44914735D01*
X178200275Y-44900777D01*
X178207308Y-44900544D01*
X178270109Y-44900722D01*
X178270113Y-44900720D01*
X178274819Y-44900734D01*
X178277890Y-44900538D01*
X197133981Y-44900538D01*
X197133985Y-44900539D01*
G37*
%TD.AperFunction*%
%TD*%
M02*
