%TF.GenerationSoftware,KiCad,Pcbnew,8.0.2*%
%TF.CreationDate,2024-11-08T17:25:48-08:00*%
%TF.ProjectId,gh80-5000-daughterboard,67683830-2d35-4303-9030-2d6461756768,rev?*%
%TF.SameCoordinates,Original*%
%TF.FileFunction,Soldermask,Top*%
%TF.FilePolarity,Negative*%
%FSLAX46Y46*%
G04 Gerber Fmt 4.6, Leading zero omitted, Abs format (unit mm)*
G04 Created by KiCad (PCBNEW 8.0.2) date 2024-11-08 17:25:48*
%MOMM*%
%LPD*%
G01*
G04 APERTURE LIST*
G04 Aperture macros list*
%AMRoundRect*
0 Rectangle with rounded corners*
0 $1 Rounding radius*
0 $2 $3 $4 $5 $6 $7 $8 $9 X,Y pos of 4 corners*
0 Add a 4 corners polygon primitive as box body*
4,1,4,$2,$3,$4,$5,$6,$7,$8,$9,$2,$3,0*
0 Add four circle primitives for the rounded corners*
1,1,$1+$1,$2,$3*
1,1,$1+$1,$4,$5*
1,1,$1+$1,$6,$7*
1,1,$1+$1,$8,$9*
0 Add four rect primitives between the rounded corners*
20,1,$1+$1,$2,$3,$4,$5,0*
20,1,$1+$1,$4,$5,$6,$7,0*
20,1,$1+$1,$6,$7,$8,$9,0*
20,1,$1+$1,$8,$9,$2,$3,0*%
G04 Aperture macros list end*
%ADD10RoundRect,0.250000X-0.625000X0.375000X-0.625000X-0.375000X0.625000X-0.375000X0.625000X0.375000X0*%
%ADD11RoundRect,0.135000X0.135000X0.185000X-0.135000X0.185000X-0.135000X-0.185000X0.135000X-0.185000X0*%
%ADD12C,0.650000*%
%ADD13RoundRect,0.050800X0.300000X0.575000X-0.300000X0.575000X-0.300000X-0.575000X0.300000X-0.575000X0*%
%ADD14RoundRect,0.050800X0.150000X0.575000X-0.150000X0.575000X-0.150000X-0.575000X0.150000X-0.575000X0*%
%ADD15O,1.001600X2.201600*%
%ADD16O,1.001600X1.901600*%
%ADD17RoundRect,0.150000X-0.625000X0.150000X-0.625000X-0.150000X0.625000X-0.150000X0.625000X0.150000X0*%
%ADD18RoundRect,0.250000X-0.650000X0.350000X-0.650000X-0.350000X0.650000X-0.350000X0.650000X0.350000X0*%
%ADD19RoundRect,0.135000X-0.135000X-0.185000X0.135000X-0.185000X0.135000X0.185000X-0.135000X0.185000X0*%
%ADD20RoundRect,0.150000X0.475000X0.150000X-0.475000X0.150000X-0.475000X-0.150000X0.475000X-0.150000X0*%
G04 APERTURE END LIST*
D10*
%TO.C,F1*%
X184000000Y-53800000D03*
X184000000Y-56600000D03*
%TD*%
D11*
%TO.C,R11*%
X188810000Y-54150000D03*
X187790000Y-54150000D03*
%TD*%
D12*
%TO.C,J3*%
X193640100Y-51122800D03*
X187860100Y-51122800D03*
D13*
X193950000Y-52247800D03*
X193149900Y-52247800D03*
D14*
X192000100Y-52247800D03*
X191000100Y-52247800D03*
X190499900Y-52247800D03*
X189499900Y-52247800D03*
D13*
X188350100Y-52247800D03*
X187550000Y-52247800D03*
X187550000Y-52247800D03*
X188350100Y-52247800D03*
D14*
X189000100Y-52247800D03*
X190000100Y-52247800D03*
X191499900Y-52247800D03*
X192499900Y-52247800D03*
D13*
X193149900Y-52247800D03*
X193950000Y-52247800D03*
D15*
X195069900Y-51682600D03*
D16*
X195069900Y-47502800D03*
D15*
X186430100Y-51682600D03*
D16*
X186430100Y-47502800D03*
%TD*%
D17*
%TO.C,J1*%
X165400000Y-68600000D03*
X165400000Y-69600000D03*
X165400000Y-70600000D03*
X165400000Y-71600000D03*
D18*
X161525000Y-67300000D03*
X161525000Y-72900000D03*
%TD*%
D19*
%TO.C,R13*%
X191490000Y-54150000D03*
X192510000Y-54150000D03*
%TD*%
D20*
%TO.C,U6*%
X191375000Y-57750000D03*
X191375000Y-56800000D03*
X191375000Y-55850000D03*
X189025000Y-55850000D03*
X189025000Y-56800000D03*
X189025000Y-57750000D03*
%TD*%
M02*
