M48
; DRILL file {KiCad 8.0.2} date 2024-11-08T17:25:49-0800
; FORMAT={-:-/ absolute / inch / decimal}
; #@! TF.CreationDate,2024-11-08T17:25:49-08:00
; #@! TF.GenerationSoftware,Kicad,Pcbnew,8.0.2
; #@! TF.FileFunction,Plated,1,2,PTH
FMAT,2
INCH
; #@! TA.AperFunction,Plated,PTH,ViaDrill
T1C0.0118
; #@! TA.AperFunction,Plated,PTH,ComponentDrill
T2C0.0236
%
G90
G05
T1
X6.3583Y-2.6496
X6.3583Y-2.874
X6.5827Y-2.8189
X7.2101Y-2.4156
X7.2124Y-2.3481
X7.2441Y-2.2835
X7.2441Y-2.4134
X7.2762Y-2.3488
X7.2766Y-2.4163
X7.2953Y-2.0354
X7.437Y-2.1654
X7.4488Y-2.3228
X7.5236Y-2.3228
X7.5315Y-2.1654
X7.6791Y-2.0965
T2
G00X7.3398Y-1.8859
M15
G01X7.3398Y-1.8544
M16
G05
G00X7.3398Y-2.0564
M15
G01X7.3398Y-2.0131
M16
G05
G00X7.6799Y-1.8859
M15
G01X7.6799Y-1.8544
M16
G05
G00X7.6799Y-2.0564
M15
G01X7.6799Y-2.0131
M16
G05
M30
