%TF.GenerationSoftware,KiCad,Pcbnew,8.0.2*%
%TF.CreationDate,2024-11-08T17:25:48-08:00*%
%TF.ProjectId,gh80-5000-daughterboard,67683830-2d35-4303-9030-2d6461756768,rev?*%
%TF.SameCoordinates,Original*%
%TF.FileFunction,Legend,Bot*%
%TF.FilePolarity,Positive*%
%FSLAX46Y46*%
G04 Gerber Fmt 4.6, Leading zero omitted, Abs format (unit mm)*
G04 Created by KiCad (PCBNEW 8.0.2) date 2024-11-08 17:25:48*
%MOMM*%
%LPD*%
G01*
G04 APERTURE LIST*
%ADD10C,0.150000*%
%ADD11C,0.200000*%
%ADD12C,0.650000*%
%ADD13O,1.001600X2.201600*%
%ADD14O,1.001600X1.901600*%
G04 APERTURE END LIST*
D10*
X142937030Y-67049342D02*
X142251316Y-67049342D01*
X142594173Y-68249342D02*
X142594173Y-67049342D01*
X141679887Y-67563628D02*
X141794172Y-67506485D01*
X141794172Y-67506485D02*
X141851315Y-67449342D01*
X141851315Y-67449342D02*
X141908458Y-67335057D01*
X141908458Y-67335057D02*
X141908458Y-67277914D01*
X141908458Y-67277914D02*
X141851315Y-67163628D01*
X141851315Y-67163628D02*
X141794172Y-67106485D01*
X141794172Y-67106485D02*
X141679887Y-67049342D01*
X141679887Y-67049342D02*
X141451315Y-67049342D01*
X141451315Y-67049342D02*
X141337030Y-67106485D01*
X141337030Y-67106485D02*
X141279887Y-67163628D01*
X141279887Y-67163628D02*
X141222744Y-67277914D01*
X141222744Y-67277914D02*
X141222744Y-67335057D01*
X141222744Y-67335057D02*
X141279887Y-67449342D01*
X141279887Y-67449342D02*
X141337030Y-67506485D01*
X141337030Y-67506485D02*
X141451315Y-67563628D01*
X141451315Y-67563628D02*
X141679887Y-67563628D01*
X141679887Y-67563628D02*
X141794172Y-67620771D01*
X141794172Y-67620771D02*
X141851315Y-67677914D01*
X141851315Y-67677914D02*
X141908458Y-67792200D01*
X141908458Y-67792200D02*
X141908458Y-68020771D01*
X141908458Y-68020771D02*
X141851315Y-68135057D01*
X141851315Y-68135057D02*
X141794172Y-68192200D01*
X141794172Y-68192200D02*
X141679887Y-68249342D01*
X141679887Y-68249342D02*
X141451315Y-68249342D01*
X141451315Y-68249342D02*
X141337030Y-68192200D01*
X141337030Y-68192200D02*
X141279887Y-68135057D01*
X141279887Y-68135057D02*
X141222744Y-68020771D01*
X141222744Y-68020771D02*
X141222744Y-67792200D01*
X141222744Y-67792200D02*
X141279887Y-67677914D01*
X141279887Y-67677914D02*
X141337030Y-67620771D01*
X141337030Y-67620771D02*
X141451315Y-67563628D01*
X140479887Y-67049342D02*
X140365601Y-67049342D01*
X140365601Y-67049342D02*
X140251315Y-67106485D01*
X140251315Y-67106485D02*
X140194173Y-67163628D01*
X140194173Y-67163628D02*
X140137030Y-67277914D01*
X140137030Y-67277914D02*
X140079887Y-67506485D01*
X140079887Y-67506485D02*
X140079887Y-67792200D01*
X140079887Y-67792200D02*
X140137030Y-68020771D01*
X140137030Y-68020771D02*
X140194173Y-68135057D01*
X140194173Y-68135057D02*
X140251315Y-68192200D01*
X140251315Y-68192200D02*
X140365601Y-68249342D01*
X140365601Y-68249342D02*
X140479887Y-68249342D01*
X140479887Y-68249342D02*
X140594173Y-68192200D01*
X140594173Y-68192200D02*
X140651315Y-68135057D01*
X140651315Y-68135057D02*
X140708458Y-68020771D01*
X140708458Y-68020771D02*
X140765601Y-67792200D01*
X140765601Y-67792200D02*
X140765601Y-67506485D01*
X140765601Y-67506485D02*
X140708458Y-67277914D01*
X140708458Y-67277914D02*
X140651315Y-67163628D01*
X140651315Y-67163628D02*
X140594173Y-67106485D01*
X140594173Y-67106485D02*
X140479887Y-67049342D01*
X139565601Y-67792200D02*
X138651316Y-67792200D01*
X137508459Y-67049342D02*
X138079887Y-67049342D01*
X138079887Y-67049342D02*
X138137030Y-67620771D01*
X138137030Y-67620771D02*
X138079887Y-67563628D01*
X138079887Y-67563628D02*
X137965602Y-67506485D01*
X137965602Y-67506485D02*
X137679887Y-67506485D01*
X137679887Y-67506485D02*
X137565602Y-67563628D01*
X137565602Y-67563628D02*
X137508459Y-67620771D01*
X137508459Y-67620771D02*
X137451316Y-67735057D01*
X137451316Y-67735057D02*
X137451316Y-68020771D01*
X137451316Y-68020771D02*
X137508459Y-68135057D01*
X137508459Y-68135057D02*
X137565602Y-68192200D01*
X137565602Y-68192200D02*
X137679887Y-68249342D01*
X137679887Y-68249342D02*
X137965602Y-68249342D01*
X137965602Y-68249342D02*
X138079887Y-68192200D01*
X138079887Y-68192200D02*
X138137030Y-68135057D01*
X136708459Y-67049342D02*
X136594173Y-67049342D01*
X136594173Y-67049342D02*
X136479887Y-67106485D01*
X136479887Y-67106485D02*
X136422745Y-67163628D01*
X136422745Y-67163628D02*
X136365602Y-67277914D01*
X136365602Y-67277914D02*
X136308459Y-67506485D01*
X136308459Y-67506485D02*
X136308459Y-67792200D01*
X136308459Y-67792200D02*
X136365602Y-68020771D01*
X136365602Y-68020771D02*
X136422745Y-68135057D01*
X136422745Y-68135057D02*
X136479887Y-68192200D01*
X136479887Y-68192200D02*
X136594173Y-68249342D01*
X136594173Y-68249342D02*
X136708459Y-68249342D01*
X136708459Y-68249342D02*
X136822745Y-68192200D01*
X136822745Y-68192200D02*
X136879887Y-68135057D01*
X136879887Y-68135057D02*
X136937030Y-68020771D01*
X136937030Y-68020771D02*
X136994173Y-67792200D01*
X136994173Y-67792200D02*
X136994173Y-67506485D01*
X136994173Y-67506485D02*
X136937030Y-67277914D01*
X136937030Y-67277914D02*
X136879887Y-67163628D01*
X136879887Y-67163628D02*
X136822745Y-67106485D01*
X136822745Y-67106485D02*
X136708459Y-67049342D01*
X135565602Y-67049342D02*
X135451316Y-67049342D01*
X135451316Y-67049342D02*
X135337030Y-67106485D01*
X135337030Y-67106485D02*
X135279888Y-67163628D01*
X135279888Y-67163628D02*
X135222745Y-67277914D01*
X135222745Y-67277914D02*
X135165602Y-67506485D01*
X135165602Y-67506485D02*
X135165602Y-67792200D01*
X135165602Y-67792200D02*
X135222745Y-68020771D01*
X135222745Y-68020771D02*
X135279888Y-68135057D01*
X135279888Y-68135057D02*
X135337030Y-68192200D01*
X135337030Y-68192200D02*
X135451316Y-68249342D01*
X135451316Y-68249342D02*
X135565602Y-68249342D01*
X135565602Y-68249342D02*
X135679888Y-68192200D01*
X135679888Y-68192200D02*
X135737030Y-68135057D01*
X135737030Y-68135057D02*
X135794173Y-68020771D01*
X135794173Y-68020771D02*
X135851316Y-67792200D01*
X135851316Y-67792200D02*
X135851316Y-67506485D01*
X135851316Y-67506485D02*
X135794173Y-67277914D01*
X135794173Y-67277914D02*
X135737030Y-67163628D01*
X135737030Y-67163628D02*
X135679888Y-67106485D01*
X135679888Y-67106485D02*
X135565602Y-67049342D01*
X134422745Y-67049342D02*
X134308459Y-67049342D01*
X134308459Y-67049342D02*
X134194173Y-67106485D01*
X134194173Y-67106485D02*
X134137031Y-67163628D01*
X134137031Y-67163628D02*
X134079888Y-67277914D01*
X134079888Y-67277914D02*
X134022745Y-67506485D01*
X134022745Y-67506485D02*
X134022745Y-67792200D01*
X134022745Y-67792200D02*
X134079888Y-68020771D01*
X134079888Y-68020771D02*
X134137031Y-68135057D01*
X134137031Y-68135057D02*
X134194173Y-68192200D01*
X134194173Y-68192200D02*
X134308459Y-68249342D01*
X134308459Y-68249342D02*
X134422745Y-68249342D01*
X134422745Y-68249342D02*
X134537031Y-68192200D01*
X134537031Y-68192200D02*
X134594173Y-68135057D01*
X134594173Y-68135057D02*
X134651316Y-68020771D01*
X134651316Y-68020771D02*
X134708459Y-67792200D01*
X134708459Y-67792200D02*
X134708459Y-67506485D01*
X134708459Y-67506485D02*
X134651316Y-67277914D01*
X134651316Y-67277914D02*
X134594173Y-67163628D01*
X134594173Y-67163628D02*
X134537031Y-67106485D01*
X134537031Y-67106485D02*
X134422745Y-67049342D01*
X132708459Y-67449342D02*
X132422745Y-68249342D01*
X132422745Y-68249342D02*
X132137030Y-67449342D01*
X131451316Y-67049342D02*
X131337030Y-67049342D01*
X131337030Y-67049342D02*
X131222744Y-67106485D01*
X131222744Y-67106485D02*
X131165602Y-67163628D01*
X131165602Y-67163628D02*
X131108459Y-67277914D01*
X131108459Y-67277914D02*
X131051316Y-67506485D01*
X131051316Y-67506485D02*
X131051316Y-67792200D01*
X131051316Y-67792200D02*
X131108459Y-68020771D01*
X131108459Y-68020771D02*
X131165602Y-68135057D01*
X131165602Y-68135057D02*
X131222744Y-68192200D01*
X131222744Y-68192200D02*
X131337030Y-68249342D01*
X131337030Y-68249342D02*
X131451316Y-68249342D01*
X131451316Y-68249342D02*
X131565602Y-68192200D01*
X131565602Y-68192200D02*
X131622744Y-68135057D01*
X131622744Y-68135057D02*
X131679887Y-68020771D01*
X131679887Y-68020771D02*
X131737030Y-67792200D01*
X131737030Y-67792200D02*
X131737030Y-67506485D01*
X131737030Y-67506485D02*
X131679887Y-67277914D01*
X131679887Y-67277914D02*
X131622744Y-67163628D01*
X131622744Y-67163628D02*
X131565602Y-67106485D01*
X131565602Y-67106485D02*
X131451316Y-67049342D01*
X130537030Y-68135057D02*
X130479887Y-68192200D01*
X130479887Y-68192200D02*
X130537030Y-68249342D01*
X130537030Y-68249342D02*
X130594173Y-68192200D01*
X130594173Y-68192200D02*
X130537030Y-68135057D01*
X130537030Y-68135057D02*
X130537030Y-68249342D01*
X129337030Y-68249342D02*
X130022744Y-68249342D01*
X129679887Y-68249342D02*
X129679887Y-67049342D01*
X129679887Y-67049342D02*
X129794173Y-67220771D01*
X129794173Y-67220771D02*
X129908458Y-67335057D01*
X129908458Y-67335057D02*
X130022744Y-67392200D01*
X127565601Y-68706485D02*
X127622744Y-68649342D01*
X127622744Y-68649342D02*
X127737030Y-68477914D01*
X127737030Y-68477914D02*
X127794173Y-68363628D01*
X127794173Y-68363628D02*
X127851315Y-68192200D01*
X127851315Y-68192200D02*
X127908458Y-67906485D01*
X127908458Y-67906485D02*
X127908458Y-67677914D01*
X127908458Y-67677914D02*
X127851315Y-67392200D01*
X127851315Y-67392200D02*
X127794173Y-67220771D01*
X127794173Y-67220771D02*
X127737030Y-67106485D01*
X127737030Y-67106485D02*
X127622744Y-66935057D01*
X127622744Y-66935057D02*
X127565601Y-66877914D01*
X127108458Y-68249342D02*
X127108458Y-67049342D01*
X127108458Y-67049342D02*
X126822744Y-67049342D01*
X126822744Y-67049342D02*
X126651315Y-67106485D01*
X126651315Y-67106485D02*
X126537030Y-67220771D01*
X126537030Y-67220771D02*
X126479887Y-67335057D01*
X126479887Y-67335057D02*
X126422744Y-67563628D01*
X126422744Y-67563628D02*
X126422744Y-67735057D01*
X126422744Y-67735057D02*
X126479887Y-67963628D01*
X126479887Y-67963628D02*
X126537030Y-68077914D01*
X126537030Y-68077914D02*
X126651315Y-68192200D01*
X126651315Y-68192200D02*
X126822744Y-68249342D01*
X126822744Y-68249342D02*
X127108458Y-68249342D01*
X125394173Y-68249342D02*
X125394173Y-67620771D01*
X125394173Y-67620771D02*
X125451315Y-67506485D01*
X125451315Y-67506485D02*
X125565601Y-67449342D01*
X125565601Y-67449342D02*
X125794173Y-67449342D01*
X125794173Y-67449342D02*
X125908458Y-67506485D01*
X125394173Y-68192200D02*
X125508458Y-68249342D01*
X125508458Y-68249342D02*
X125794173Y-68249342D01*
X125794173Y-68249342D02*
X125908458Y-68192200D01*
X125908458Y-68192200D02*
X125965601Y-68077914D01*
X125965601Y-68077914D02*
X125965601Y-67963628D01*
X125965601Y-67963628D02*
X125908458Y-67849342D01*
X125908458Y-67849342D02*
X125794173Y-67792200D01*
X125794173Y-67792200D02*
X125508458Y-67792200D01*
X125508458Y-67792200D02*
X125394173Y-67735057D01*
X124308459Y-67449342D02*
X124308459Y-68249342D01*
X124822744Y-67449342D02*
X124822744Y-68077914D01*
X124822744Y-68077914D02*
X124765601Y-68192200D01*
X124765601Y-68192200D02*
X124651316Y-68249342D01*
X124651316Y-68249342D02*
X124479887Y-68249342D01*
X124479887Y-68249342D02*
X124365601Y-68192200D01*
X124365601Y-68192200D02*
X124308459Y-68135057D01*
X123222745Y-67449342D02*
X123222745Y-68420771D01*
X123222745Y-68420771D02*
X123279887Y-68535057D01*
X123279887Y-68535057D02*
X123337030Y-68592200D01*
X123337030Y-68592200D02*
X123451316Y-68649342D01*
X123451316Y-68649342D02*
X123622745Y-68649342D01*
X123622745Y-68649342D02*
X123737030Y-68592200D01*
X123222745Y-68192200D02*
X123337030Y-68249342D01*
X123337030Y-68249342D02*
X123565602Y-68249342D01*
X123565602Y-68249342D02*
X123679887Y-68192200D01*
X123679887Y-68192200D02*
X123737030Y-68135057D01*
X123737030Y-68135057D02*
X123794173Y-68020771D01*
X123794173Y-68020771D02*
X123794173Y-67677914D01*
X123794173Y-67677914D02*
X123737030Y-67563628D01*
X123737030Y-67563628D02*
X123679887Y-67506485D01*
X123679887Y-67506485D02*
X123565602Y-67449342D01*
X123565602Y-67449342D02*
X123337030Y-67449342D01*
X123337030Y-67449342D02*
X123222745Y-67506485D01*
X122651316Y-68249342D02*
X122651316Y-67049342D01*
X122137031Y-68249342D02*
X122137031Y-67620771D01*
X122137031Y-67620771D02*
X122194173Y-67506485D01*
X122194173Y-67506485D02*
X122308459Y-67449342D01*
X122308459Y-67449342D02*
X122479888Y-67449342D01*
X122479888Y-67449342D02*
X122594173Y-67506485D01*
X122594173Y-67506485D02*
X122651316Y-67563628D01*
X121737031Y-67449342D02*
X121279888Y-67449342D01*
X121565602Y-67049342D02*
X121565602Y-68077914D01*
X121565602Y-68077914D02*
X121508459Y-68192200D01*
X121508459Y-68192200D02*
X121394174Y-68249342D01*
X121394174Y-68249342D02*
X121279888Y-68249342D01*
X120422745Y-68192200D02*
X120537031Y-68249342D01*
X120537031Y-68249342D02*
X120765603Y-68249342D01*
X120765603Y-68249342D02*
X120879888Y-68192200D01*
X120879888Y-68192200D02*
X120937031Y-68077914D01*
X120937031Y-68077914D02*
X120937031Y-67620771D01*
X120937031Y-67620771D02*
X120879888Y-67506485D01*
X120879888Y-67506485D02*
X120765603Y-67449342D01*
X120765603Y-67449342D02*
X120537031Y-67449342D01*
X120537031Y-67449342D02*
X120422745Y-67506485D01*
X120422745Y-67506485D02*
X120365603Y-67620771D01*
X120365603Y-67620771D02*
X120365603Y-67735057D01*
X120365603Y-67735057D02*
X120937031Y-67849342D01*
X119851317Y-68249342D02*
X119851317Y-67449342D01*
X119851317Y-67677914D02*
X119794174Y-67563628D01*
X119794174Y-67563628D02*
X119737032Y-67506485D01*
X119737032Y-67506485D02*
X119622746Y-67449342D01*
X119622746Y-67449342D02*
X119508460Y-67449342D01*
X119108460Y-68249342D02*
X119108460Y-67049342D01*
X119108460Y-67506485D02*
X118994175Y-67449342D01*
X118994175Y-67449342D02*
X118765603Y-67449342D01*
X118765603Y-67449342D02*
X118651317Y-67506485D01*
X118651317Y-67506485D02*
X118594175Y-67563628D01*
X118594175Y-67563628D02*
X118537032Y-67677914D01*
X118537032Y-67677914D02*
X118537032Y-68020771D01*
X118537032Y-68020771D02*
X118594175Y-68135057D01*
X118594175Y-68135057D02*
X118651317Y-68192200D01*
X118651317Y-68192200D02*
X118765603Y-68249342D01*
X118765603Y-68249342D02*
X118994175Y-68249342D01*
X118994175Y-68249342D02*
X119108460Y-68192200D01*
X117851318Y-68249342D02*
X117965603Y-68192200D01*
X117965603Y-68192200D02*
X118022746Y-68135057D01*
X118022746Y-68135057D02*
X118079889Y-68020771D01*
X118079889Y-68020771D02*
X118079889Y-67677914D01*
X118079889Y-67677914D02*
X118022746Y-67563628D01*
X118022746Y-67563628D02*
X117965603Y-67506485D01*
X117965603Y-67506485D02*
X117851318Y-67449342D01*
X117851318Y-67449342D02*
X117679889Y-67449342D01*
X117679889Y-67449342D02*
X117565603Y-67506485D01*
X117565603Y-67506485D02*
X117508461Y-67563628D01*
X117508461Y-67563628D02*
X117451318Y-67677914D01*
X117451318Y-67677914D02*
X117451318Y-68020771D01*
X117451318Y-68020771D02*
X117508461Y-68135057D01*
X117508461Y-68135057D02*
X117565603Y-68192200D01*
X117565603Y-68192200D02*
X117679889Y-68249342D01*
X117679889Y-68249342D02*
X117851318Y-68249342D01*
X116422747Y-68249342D02*
X116422747Y-67620771D01*
X116422747Y-67620771D02*
X116479889Y-67506485D01*
X116479889Y-67506485D02*
X116594175Y-67449342D01*
X116594175Y-67449342D02*
X116822747Y-67449342D01*
X116822747Y-67449342D02*
X116937032Y-67506485D01*
X116422747Y-68192200D02*
X116537032Y-68249342D01*
X116537032Y-68249342D02*
X116822747Y-68249342D01*
X116822747Y-68249342D02*
X116937032Y-68192200D01*
X116937032Y-68192200D02*
X116994175Y-68077914D01*
X116994175Y-68077914D02*
X116994175Y-67963628D01*
X116994175Y-67963628D02*
X116937032Y-67849342D01*
X116937032Y-67849342D02*
X116822747Y-67792200D01*
X116822747Y-67792200D02*
X116537032Y-67792200D01*
X116537032Y-67792200D02*
X116422747Y-67735057D01*
X115851318Y-68249342D02*
X115851318Y-67449342D01*
X115851318Y-67677914D02*
X115794175Y-67563628D01*
X115794175Y-67563628D02*
X115737033Y-67506485D01*
X115737033Y-67506485D02*
X115622747Y-67449342D01*
X115622747Y-67449342D02*
X115508461Y-67449342D01*
X114594176Y-68249342D02*
X114594176Y-67049342D01*
X114594176Y-68192200D02*
X114708461Y-68249342D01*
X114708461Y-68249342D02*
X114937033Y-68249342D01*
X114937033Y-68249342D02*
X115051318Y-68192200D01*
X115051318Y-68192200D02*
X115108461Y-68135057D01*
X115108461Y-68135057D02*
X115165604Y-68020771D01*
X115165604Y-68020771D02*
X115165604Y-67677914D01*
X115165604Y-67677914D02*
X115108461Y-67563628D01*
X115108461Y-67563628D02*
X115051318Y-67506485D01*
X115051318Y-67506485D02*
X114937033Y-67449342D01*
X114937033Y-67449342D02*
X114708461Y-67449342D01*
X114708461Y-67449342D02*
X114594176Y-67506485D01*
X114137033Y-68706485D02*
X114079890Y-68649342D01*
X114079890Y-68649342D02*
X113965604Y-68477914D01*
X113965604Y-68477914D02*
X113908462Y-68363628D01*
X113908462Y-68363628D02*
X113851319Y-68192200D01*
X113851319Y-68192200D02*
X113794176Y-67906485D01*
X113794176Y-67906485D02*
X113794176Y-67677914D01*
X113794176Y-67677914D02*
X113851319Y-67392200D01*
X113851319Y-67392200D02*
X113908462Y-67220771D01*
X113908462Y-67220771D02*
X113965604Y-67106485D01*
X113965604Y-67106485D02*
X114079890Y-66935057D01*
X114079890Y-66935057D02*
X114137033Y-66877914D01*
X142079887Y-70181275D02*
X142479887Y-69609847D01*
X142765601Y-70181275D02*
X142765601Y-68981275D01*
X142765601Y-68981275D02*
X142308458Y-68981275D01*
X142308458Y-68981275D02*
X142194173Y-69038418D01*
X142194173Y-69038418D02*
X142137030Y-69095561D01*
X142137030Y-69095561D02*
X142079887Y-69209847D01*
X142079887Y-69209847D02*
X142079887Y-69381275D01*
X142079887Y-69381275D02*
X142137030Y-69495561D01*
X142137030Y-69495561D02*
X142194173Y-69552704D01*
X142194173Y-69552704D02*
X142308458Y-69609847D01*
X142308458Y-69609847D02*
X142765601Y-69609847D01*
X141108458Y-70124133D02*
X141222744Y-70181275D01*
X141222744Y-70181275D02*
X141451316Y-70181275D01*
X141451316Y-70181275D02*
X141565601Y-70124133D01*
X141565601Y-70124133D02*
X141622744Y-70009847D01*
X141622744Y-70009847D02*
X141622744Y-69552704D01*
X141622744Y-69552704D02*
X141565601Y-69438418D01*
X141565601Y-69438418D02*
X141451316Y-69381275D01*
X141451316Y-69381275D02*
X141222744Y-69381275D01*
X141222744Y-69381275D02*
X141108458Y-69438418D01*
X141108458Y-69438418D02*
X141051316Y-69552704D01*
X141051316Y-69552704D02*
X141051316Y-69666990D01*
X141051316Y-69666990D02*
X141622744Y-69781275D01*
X140537030Y-69381275D02*
X140537030Y-70581275D01*
X140537030Y-69438418D02*
X140422745Y-69381275D01*
X140422745Y-69381275D02*
X140194173Y-69381275D01*
X140194173Y-69381275D02*
X140079887Y-69438418D01*
X140079887Y-69438418D02*
X140022745Y-69495561D01*
X140022745Y-69495561D02*
X139965602Y-69609847D01*
X139965602Y-69609847D02*
X139965602Y-69952704D01*
X139965602Y-69952704D02*
X140022745Y-70066990D01*
X140022745Y-70066990D02*
X140079887Y-70124133D01*
X140079887Y-70124133D02*
X140194173Y-70181275D01*
X140194173Y-70181275D02*
X140422745Y-70181275D01*
X140422745Y-70181275D02*
X140537030Y-70124133D01*
X139279888Y-70181275D02*
X139394173Y-70124133D01*
X139394173Y-70124133D02*
X139451316Y-70009847D01*
X139451316Y-70009847D02*
X139451316Y-68981275D01*
X138308460Y-70181275D02*
X138308460Y-69552704D01*
X138308460Y-69552704D02*
X138365602Y-69438418D01*
X138365602Y-69438418D02*
X138479888Y-69381275D01*
X138479888Y-69381275D02*
X138708460Y-69381275D01*
X138708460Y-69381275D02*
X138822745Y-69438418D01*
X138308460Y-70124133D02*
X138422745Y-70181275D01*
X138422745Y-70181275D02*
X138708460Y-70181275D01*
X138708460Y-70181275D02*
X138822745Y-70124133D01*
X138822745Y-70124133D02*
X138879888Y-70009847D01*
X138879888Y-70009847D02*
X138879888Y-69895561D01*
X138879888Y-69895561D02*
X138822745Y-69781275D01*
X138822745Y-69781275D02*
X138708460Y-69724133D01*
X138708460Y-69724133D02*
X138422745Y-69724133D01*
X138422745Y-69724133D02*
X138308460Y-69666990D01*
X137222746Y-70124133D02*
X137337031Y-70181275D01*
X137337031Y-70181275D02*
X137565603Y-70181275D01*
X137565603Y-70181275D02*
X137679888Y-70124133D01*
X137679888Y-70124133D02*
X137737031Y-70066990D01*
X137737031Y-70066990D02*
X137794174Y-69952704D01*
X137794174Y-69952704D02*
X137794174Y-69609847D01*
X137794174Y-69609847D02*
X137737031Y-69495561D01*
X137737031Y-69495561D02*
X137679888Y-69438418D01*
X137679888Y-69438418D02*
X137565603Y-69381275D01*
X137565603Y-69381275D02*
X137337031Y-69381275D01*
X137337031Y-69381275D02*
X137222746Y-69438418D01*
X136251317Y-70124133D02*
X136365603Y-70181275D01*
X136365603Y-70181275D02*
X136594175Y-70181275D01*
X136594175Y-70181275D02*
X136708460Y-70124133D01*
X136708460Y-70124133D02*
X136765603Y-70009847D01*
X136765603Y-70009847D02*
X136765603Y-69552704D01*
X136765603Y-69552704D02*
X136708460Y-69438418D01*
X136708460Y-69438418D02*
X136594175Y-69381275D01*
X136594175Y-69381275D02*
X136365603Y-69381275D01*
X136365603Y-69381275D02*
X136251317Y-69438418D01*
X136251317Y-69438418D02*
X136194175Y-69552704D01*
X136194175Y-69552704D02*
X136194175Y-69666990D01*
X136194175Y-69666990D02*
X136765603Y-69781275D01*
X135679889Y-70181275D02*
X135679889Y-69381275D01*
X135679889Y-69495561D02*
X135622746Y-69438418D01*
X135622746Y-69438418D02*
X135508461Y-69381275D01*
X135508461Y-69381275D02*
X135337032Y-69381275D01*
X135337032Y-69381275D02*
X135222746Y-69438418D01*
X135222746Y-69438418D02*
X135165604Y-69552704D01*
X135165604Y-69552704D02*
X135165604Y-70181275D01*
X135165604Y-69552704D02*
X135108461Y-69438418D01*
X135108461Y-69438418D02*
X134994175Y-69381275D01*
X134994175Y-69381275D02*
X134822746Y-69381275D01*
X134822746Y-69381275D02*
X134708461Y-69438418D01*
X134708461Y-69438418D02*
X134651318Y-69552704D01*
X134651318Y-69552704D02*
X134651318Y-70181275D01*
X133622746Y-70124133D02*
X133737032Y-70181275D01*
X133737032Y-70181275D02*
X133965604Y-70181275D01*
X133965604Y-70181275D02*
X134079889Y-70124133D01*
X134079889Y-70124133D02*
X134137032Y-70009847D01*
X134137032Y-70009847D02*
X134137032Y-69552704D01*
X134137032Y-69552704D02*
X134079889Y-69438418D01*
X134079889Y-69438418D02*
X133965604Y-69381275D01*
X133965604Y-69381275D02*
X133737032Y-69381275D01*
X133737032Y-69381275D02*
X133622746Y-69438418D01*
X133622746Y-69438418D02*
X133565604Y-69552704D01*
X133565604Y-69552704D02*
X133565604Y-69666990D01*
X133565604Y-69666990D02*
X134137032Y-69781275D01*
X133051318Y-69381275D02*
X133051318Y-70181275D01*
X133051318Y-69495561D02*
X132994175Y-69438418D01*
X132994175Y-69438418D02*
X132879890Y-69381275D01*
X132879890Y-69381275D02*
X132708461Y-69381275D01*
X132708461Y-69381275D02*
X132594175Y-69438418D01*
X132594175Y-69438418D02*
X132537033Y-69552704D01*
X132537033Y-69552704D02*
X132537033Y-70181275D01*
X132137033Y-69381275D02*
X131679890Y-69381275D01*
X131965604Y-68981275D02*
X131965604Y-70009847D01*
X131965604Y-70009847D02*
X131908461Y-70124133D01*
X131908461Y-70124133D02*
X131794176Y-70181275D01*
X131794176Y-70181275D02*
X131679890Y-70181275D01*
X130365604Y-70181275D02*
X130365604Y-68981275D01*
X130365604Y-68981275D02*
X129908461Y-68981275D01*
X129908461Y-68981275D02*
X129794176Y-69038418D01*
X129794176Y-69038418D02*
X129737033Y-69095561D01*
X129737033Y-69095561D02*
X129679890Y-69209847D01*
X129679890Y-69209847D02*
X129679890Y-69381275D01*
X129679890Y-69381275D02*
X129737033Y-69495561D01*
X129737033Y-69495561D02*
X129794176Y-69552704D01*
X129794176Y-69552704D02*
X129908461Y-69609847D01*
X129908461Y-69609847D02*
X130365604Y-69609847D01*
X128479890Y-70066990D02*
X128537033Y-70124133D01*
X128537033Y-70124133D02*
X128708461Y-70181275D01*
X128708461Y-70181275D02*
X128822747Y-70181275D01*
X128822747Y-70181275D02*
X128994176Y-70124133D01*
X128994176Y-70124133D02*
X129108461Y-70009847D01*
X129108461Y-70009847D02*
X129165604Y-69895561D01*
X129165604Y-69895561D02*
X129222747Y-69666990D01*
X129222747Y-69666990D02*
X129222747Y-69495561D01*
X129222747Y-69495561D02*
X129165604Y-69266990D01*
X129165604Y-69266990D02*
X129108461Y-69152704D01*
X129108461Y-69152704D02*
X128994176Y-69038418D01*
X128994176Y-69038418D02*
X128822747Y-68981275D01*
X128822747Y-68981275D02*
X128708461Y-68981275D01*
X128708461Y-68981275D02*
X128537033Y-69038418D01*
X128537033Y-69038418D02*
X128479890Y-69095561D01*
X127565604Y-69552704D02*
X127394176Y-69609847D01*
X127394176Y-69609847D02*
X127337033Y-69666990D01*
X127337033Y-69666990D02*
X127279890Y-69781275D01*
X127279890Y-69781275D02*
X127279890Y-69952704D01*
X127279890Y-69952704D02*
X127337033Y-70066990D01*
X127337033Y-70066990D02*
X127394176Y-70124133D01*
X127394176Y-70124133D02*
X127508461Y-70181275D01*
X127508461Y-70181275D02*
X127965604Y-70181275D01*
X127965604Y-70181275D02*
X127965604Y-68981275D01*
X127965604Y-68981275D02*
X127565604Y-68981275D01*
X127565604Y-68981275D02*
X127451319Y-69038418D01*
X127451319Y-69038418D02*
X127394176Y-69095561D01*
X127394176Y-69095561D02*
X127337033Y-69209847D01*
X127337033Y-69209847D02*
X127337033Y-69324133D01*
X127337033Y-69324133D02*
X127394176Y-69438418D01*
X127394176Y-69438418D02*
X127451319Y-69495561D01*
X127451319Y-69495561D02*
X127565604Y-69552704D01*
X127565604Y-69552704D02*
X127965604Y-69552704D01*
X126022747Y-69381275D02*
X125565604Y-69381275D01*
X125851318Y-70181275D02*
X125851318Y-69152704D01*
X125851318Y-69152704D02*
X125794175Y-69038418D01*
X125794175Y-69038418D02*
X125679890Y-68981275D01*
X125679890Y-68981275D02*
X125565604Y-68981275D01*
X124994176Y-70181275D02*
X125108461Y-70124133D01*
X125108461Y-70124133D02*
X125165604Y-70066990D01*
X125165604Y-70066990D02*
X125222747Y-69952704D01*
X125222747Y-69952704D02*
X125222747Y-69609847D01*
X125222747Y-69609847D02*
X125165604Y-69495561D01*
X125165604Y-69495561D02*
X125108461Y-69438418D01*
X125108461Y-69438418D02*
X124994176Y-69381275D01*
X124994176Y-69381275D02*
X124822747Y-69381275D01*
X124822747Y-69381275D02*
X124708461Y-69438418D01*
X124708461Y-69438418D02*
X124651319Y-69495561D01*
X124651319Y-69495561D02*
X124594176Y-69609847D01*
X124594176Y-69609847D02*
X124594176Y-69952704D01*
X124594176Y-69952704D02*
X124651319Y-70066990D01*
X124651319Y-70066990D02*
X124708461Y-70124133D01*
X124708461Y-70124133D02*
X124822747Y-70181275D01*
X124822747Y-70181275D02*
X124994176Y-70181275D01*
X124079890Y-70181275D02*
X124079890Y-69381275D01*
X124079890Y-69609847D02*
X124022747Y-69495561D01*
X124022747Y-69495561D02*
X123965605Y-69438418D01*
X123965605Y-69438418D02*
X123851319Y-69381275D01*
X123851319Y-69381275D02*
X123737033Y-69381275D01*
X122594176Y-69381275D02*
X122137033Y-69381275D01*
X122422747Y-68981275D02*
X122422747Y-70009847D01*
X122422747Y-70009847D02*
X122365604Y-70124133D01*
X122365604Y-70124133D02*
X122251319Y-70181275D01*
X122251319Y-70181275D02*
X122137033Y-70181275D01*
X121737033Y-70181275D02*
X121737033Y-68981275D01*
X121222748Y-70181275D02*
X121222748Y-69552704D01*
X121222748Y-69552704D02*
X121279890Y-69438418D01*
X121279890Y-69438418D02*
X121394176Y-69381275D01*
X121394176Y-69381275D02*
X121565605Y-69381275D01*
X121565605Y-69381275D02*
X121679890Y-69438418D01*
X121679890Y-69438418D02*
X121737033Y-69495561D01*
X120194176Y-70124133D02*
X120308462Y-70181275D01*
X120308462Y-70181275D02*
X120537034Y-70181275D01*
X120537034Y-70181275D02*
X120651319Y-70124133D01*
X120651319Y-70124133D02*
X120708462Y-70009847D01*
X120708462Y-70009847D02*
X120708462Y-69552704D01*
X120708462Y-69552704D02*
X120651319Y-69438418D01*
X120651319Y-69438418D02*
X120537034Y-69381275D01*
X120537034Y-69381275D02*
X120308462Y-69381275D01*
X120308462Y-69381275D02*
X120194176Y-69438418D01*
X120194176Y-69438418D02*
X120137034Y-69552704D01*
X120137034Y-69552704D02*
X120137034Y-69666990D01*
X120137034Y-69666990D02*
X120708462Y-69781275D01*
X118022748Y-70066990D02*
X118079891Y-70124133D01*
X118079891Y-70124133D02*
X118251319Y-70181275D01*
X118251319Y-70181275D02*
X118365605Y-70181275D01*
X118365605Y-70181275D02*
X118537034Y-70124133D01*
X118537034Y-70124133D02*
X118651319Y-70009847D01*
X118651319Y-70009847D02*
X118708462Y-69895561D01*
X118708462Y-69895561D02*
X118765605Y-69666990D01*
X118765605Y-69666990D02*
X118765605Y-69495561D01*
X118765605Y-69495561D02*
X118708462Y-69266990D01*
X118708462Y-69266990D02*
X118651319Y-69152704D01*
X118651319Y-69152704D02*
X118537034Y-69038418D01*
X118537034Y-69038418D02*
X118365605Y-68981275D01*
X118365605Y-68981275D02*
X118251319Y-68981275D01*
X118251319Y-68981275D02*
X118079891Y-69038418D01*
X118079891Y-69038418D02*
X118022748Y-69095561D01*
X117508462Y-70181275D02*
X117508462Y-68981275D01*
X116994177Y-70181275D02*
X116994177Y-69552704D01*
X116994177Y-69552704D02*
X117051319Y-69438418D01*
X117051319Y-69438418D02*
X117165605Y-69381275D01*
X117165605Y-69381275D02*
X117337034Y-69381275D01*
X117337034Y-69381275D02*
X117451319Y-69438418D01*
X117451319Y-69438418D02*
X117508462Y-69495561D01*
X115965605Y-70124133D02*
X116079891Y-70181275D01*
X116079891Y-70181275D02*
X116308463Y-70181275D01*
X116308463Y-70181275D02*
X116422748Y-70124133D01*
X116422748Y-70124133D02*
X116479891Y-70009847D01*
X116479891Y-70009847D02*
X116479891Y-69552704D01*
X116479891Y-69552704D02*
X116422748Y-69438418D01*
X116422748Y-69438418D02*
X116308463Y-69381275D01*
X116308463Y-69381275D02*
X116079891Y-69381275D01*
X116079891Y-69381275D02*
X115965605Y-69438418D01*
X115965605Y-69438418D02*
X115908463Y-69552704D01*
X115908463Y-69552704D02*
X115908463Y-69666990D01*
X115908463Y-69666990D02*
X116479891Y-69781275D01*
X115394177Y-70181275D02*
X115394177Y-69381275D01*
X115394177Y-69609847D02*
X115337034Y-69495561D01*
X115337034Y-69495561D02*
X115279892Y-69438418D01*
X115279892Y-69438418D02*
X115165606Y-69381275D01*
X115165606Y-69381275D02*
X115051320Y-69381275D01*
X114651320Y-70181275D02*
X114651320Y-69381275D01*
X114651320Y-69609847D02*
X114594177Y-69495561D01*
X114594177Y-69495561D02*
X114537035Y-69438418D01*
X114537035Y-69438418D02*
X114422749Y-69381275D01*
X114422749Y-69381275D02*
X114308463Y-69381275D01*
X114022749Y-69381275D02*
X113737035Y-70181275D01*
X113451320Y-69381275D02*
X113737035Y-70181275D01*
X113737035Y-70181275D02*
X113851320Y-70466990D01*
X113851320Y-70466990D02*
X113908463Y-70524133D01*
X113908463Y-70524133D02*
X114022749Y-70581275D01*
X111451320Y-69038418D02*
X111565606Y-68981275D01*
X111565606Y-68981275D02*
X111737034Y-68981275D01*
X111737034Y-68981275D02*
X111908463Y-69038418D01*
X111908463Y-69038418D02*
X112022748Y-69152704D01*
X112022748Y-69152704D02*
X112079891Y-69266990D01*
X112079891Y-69266990D02*
X112137034Y-69495561D01*
X112137034Y-69495561D02*
X112137034Y-69666990D01*
X112137034Y-69666990D02*
X112079891Y-69895561D01*
X112079891Y-69895561D02*
X112022748Y-70009847D01*
X112022748Y-70009847D02*
X111908463Y-70124133D01*
X111908463Y-70124133D02*
X111737034Y-70181275D01*
X111737034Y-70181275D02*
X111622748Y-70181275D01*
X111622748Y-70181275D02*
X111451320Y-70124133D01*
X111451320Y-70124133D02*
X111394177Y-70066990D01*
X111394177Y-70066990D02*
X111394177Y-69666990D01*
X111394177Y-69666990D02*
X111622748Y-69666990D01*
X110708463Y-69495561D02*
X110822748Y-69438418D01*
X110822748Y-69438418D02*
X110879891Y-69381275D01*
X110879891Y-69381275D02*
X110937034Y-69266990D01*
X110937034Y-69266990D02*
X110937034Y-69209847D01*
X110937034Y-69209847D02*
X110879891Y-69095561D01*
X110879891Y-69095561D02*
X110822748Y-69038418D01*
X110822748Y-69038418D02*
X110708463Y-68981275D01*
X110708463Y-68981275D02*
X110479891Y-68981275D01*
X110479891Y-68981275D02*
X110365606Y-69038418D01*
X110365606Y-69038418D02*
X110308463Y-69095561D01*
X110308463Y-69095561D02*
X110251320Y-69209847D01*
X110251320Y-69209847D02*
X110251320Y-69266990D01*
X110251320Y-69266990D02*
X110308463Y-69381275D01*
X110308463Y-69381275D02*
X110365606Y-69438418D01*
X110365606Y-69438418D02*
X110479891Y-69495561D01*
X110479891Y-69495561D02*
X110708463Y-69495561D01*
X110708463Y-69495561D02*
X110822748Y-69552704D01*
X110822748Y-69552704D02*
X110879891Y-69609847D01*
X110879891Y-69609847D02*
X110937034Y-69724133D01*
X110937034Y-69724133D02*
X110937034Y-69952704D01*
X110937034Y-69952704D02*
X110879891Y-70066990D01*
X110879891Y-70066990D02*
X110822748Y-70124133D01*
X110822748Y-70124133D02*
X110708463Y-70181275D01*
X110708463Y-70181275D02*
X110479891Y-70181275D01*
X110479891Y-70181275D02*
X110365606Y-70124133D01*
X110365606Y-70124133D02*
X110308463Y-70066990D01*
X110308463Y-70066990D02*
X110251320Y-69952704D01*
X110251320Y-69952704D02*
X110251320Y-69724133D01*
X110251320Y-69724133D02*
X110308463Y-69609847D01*
X110308463Y-69609847D02*
X110365606Y-69552704D01*
X110365606Y-69552704D02*
X110479891Y-69495561D01*
X109508463Y-68981275D02*
X109394177Y-68981275D01*
X109394177Y-68981275D02*
X109279891Y-69038418D01*
X109279891Y-69038418D02*
X109222749Y-69095561D01*
X109222749Y-69095561D02*
X109165606Y-69209847D01*
X109165606Y-69209847D02*
X109108463Y-69438418D01*
X109108463Y-69438418D02*
X109108463Y-69724133D01*
X109108463Y-69724133D02*
X109165606Y-69952704D01*
X109165606Y-69952704D02*
X109222749Y-70066990D01*
X109222749Y-70066990D02*
X109279891Y-70124133D01*
X109279891Y-70124133D02*
X109394177Y-70181275D01*
X109394177Y-70181275D02*
X109508463Y-70181275D01*
X109508463Y-70181275D02*
X109622749Y-70124133D01*
X109622749Y-70124133D02*
X109679891Y-70066990D01*
X109679891Y-70066990D02*
X109737034Y-69952704D01*
X109737034Y-69952704D02*
X109794177Y-69724133D01*
X109794177Y-69724133D02*
X109794177Y-69438418D01*
X109794177Y-69438418D02*
X109737034Y-69209847D01*
X109737034Y-69209847D02*
X109679891Y-69095561D01*
X109679891Y-69095561D02*
X109622749Y-69038418D01*
X109622749Y-69038418D02*
X109508463Y-68981275D01*
X108594177Y-69724133D02*
X107679892Y-69724133D01*
X106537035Y-68981275D02*
X107108463Y-68981275D01*
X107108463Y-68981275D02*
X107165606Y-69552704D01*
X107165606Y-69552704D02*
X107108463Y-69495561D01*
X107108463Y-69495561D02*
X106994178Y-69438418D01*
X106994178Y-69438418D02*
X106708463Y-69438418D01*
X106708463Y-69438418D02*
X106594178Y-69495561D01*
X106594178Y-69495561D02*
X106537035Y-69552704D01*
X106537035Y-69552704D02*
X106479892Y-69666990D01*
X106479892Y-69666990D02*
X106479892Y-69952704D01*
X106479892Y-69952704D02*
X106537035Y-70066990D01*
X106537035Y-70066990D02*
X106594178Y-70124133D01*
X106594178Y-70124133D02*
X106708463Y-70181275D01*
X106708463Y-70181275D02*
X106994178Y-70181275D01*
X106994178Y-70181275D02*
X107108463Y-70124133D01*
X107108463Y-70124133D02*
X107165606Y-70066990D01*
X105737035Y-68981275D02*
X105622749Y-68981275D01*
X105622749Y-68981275D02*
X105508463Y-69038418D01*
X105508463Y-69038418D02*
X105451321Y-69095561D01*
X105451321Y-69095561D02*
X105394178Y-69209847D01*
X105394178Y-69209847D02*
X105337035Y-69438418D01*
X105337035Y-69438418D02*
X105337035Y-69724133D01*
X105337035Y-69724133D02*
X105394178Y-69952704D01*
X105394178Y-69952704D02*
X105451321Y-70066990D01*
X105451321Y-70066990D02*
X105508463Y-70124133D01*
X105508463Y-70124133D02*
X105622749Y-70181275D01*
X105622749Y-70181275D02*
X105737035Y-70181275D01*
X105737035Y-70181275D02*
X105851321Y-70124133D01*
X105851321Y-70124133D02*
X105908463Y-70066990D01*
X105908463Y-70066990D02*
X105965606Y-69952704D01*
X105965606Y-69952704D02*
X106022749Y-69724133D01*
X106022749Y-69724133D02*
X106022749Y-69438418D01*
X106022749Y-69438418D02*
X105965606Y-69209847D01*
X105965606Y-69209847D02*
X105908463Y-69095561D01*
X105908463Y-69095561D02*
X105851321Y-69038418D01*
X105851321Y-69038418D02*
X105737035Y-68981275D01*
X104594178Y-68981275D02*
X104479892Y-68981275D01*
X104479892Y-68981275D02*
X104365606Y-69038418D01*
X104365606Y-69038418D02*
X104308464Y-69095561D01*
X104308464Y-69095561D02*
X104251321Y-69209847D01*
X104251321Y-69209847D02*
X104194178Y-69438418D01*
X104194178Y-69438418D02*
X104194178Y-69724133D01*
X104194178Y-69724133D02*
X104251321Y-69952704D01*
X104251321Y-69952704D02*
X104308464Y-70066990D01*
X104308464Y-70066990D02*
X104365606Y-70124133D01*
X104365606Y-70124133D02*
X104479892Y-70181275D01*
X104479892Y-70181275D02*
X104594178Y-70181275D01*
X104594178Y-70181275D02*
X104708464Y-70124133D01*
X104708464Y-70124133D02*
X104765606Y-70066990D01*
X104765606Y-70066990D02*
X104822749Y-69952704D01*
X104822749Y-69952704D02*
X104879892Y-69724133D01*
X104879892Y-69724133D02*
X104879892Y-69438418D01*
X104879892Y-69438418D02*
X104822749Y-69209847D01*
X104822749Y-69209847D02*
X104765606Y-69095561D01*
X104765606Y-69095561D02*
X104708464Y-69038418D01*
X104708464Y-69038418D02*
X104594178Y-68981275D01*
X103451321Y-68981275D02*
X103337035Y-68981275D01*
X103337035Y-68981275D02*
X103222749Y-69038418D01*
X103222749Y-69038418D02*
X103165607Y-69095561D01*
X103165607Y-69095561D02*
X103108464Y-69209847D01*
X103108464Y-69209847D02*
X103051321Y-69438418D01*
X103051321Y-69438418D02*
X103051321Y-69724133D01*
X103051321Y-69724133D02*
X103108464Y-69952704D01*
X103108464Y-69952704D02*
X103165607Y-70066990D01*
X103165607Y-70066990D02*
X103222749Y-70124133D01*
X103222749Y-70124133D02*
X103337035Y-70181275D01*
X103337035Y-70181275D02*
X103451321Y-70181275D01*
X103451321Y-70181275D02*
X103565607Y-70124133D01*
X103565607Y-70124133D02*
X103622749Y-70066990D01*
X103622749Y-70066990D02*
X103679892Y-69952704D01*
X103679892Y-69952704D02*
X103737035Y-69724133D01*
X103737035Y-69724133D02*
X103737035Y-69438418D01*
X103737035Y-69438418D02*
X103679892Y-69209847D01*
X103679892Y-69209847D02*
X103622749Y-69095561D01*
X103622749Y-69095561D02*
X103565607Y-69038418D01*
X103565607Y-69038418D02*
X103451321Y-68981275D01*
X142251316Y-71313208D02*
X142251316Y-72284637D01*
X142251316Y-72284637D02*
X142308458Y-72398923D01*
X142308458Y-72398923D02*
X142365601Y-72456066D01*
X142365601Y-72456066D02*
X142479887Y-72513208D01*
X142479887Y-72513208D02*
X142651316Y-72513208D01*
X142651316Y-72513208D02*
X142765601Y-72456066D01*
X142251316Y-72056066D02*
X142365601Y-72113208D01*
X142365601Y-72113208D02*
X142594173Y-72113208D01*
X142594173Y-72113208D02*
X142708458Y-72056066D01*
X142708458Y-72056066D02*
X142765601Y-71998923D01*
X142765601Y-71998923D02*
X142822744Y-71884637D01*
X142822744Y-71884637D02*
X142822744Y-71541780D01*
X142822744Y-71541780D02*
X142765601Y-71427494D01*
X142765601Y-71427494D02*
X142708458Y-71370351D01*
X142708458Y-71370351D02*
X142594173Y-71313208D01*
X142594173Y-71313208D02*
X142365601Y-71313208D01*
X142365601Y-71313208D02*
X142251316Y-71370351D01*
X141679887Y-72113208D02*
X141679887Y-71313208D01*
X141679887Y-70913208D02*
X141737030Y-70970351D01*
X141737030Y-70970351D02*
X141679887Y-71027494D01*
X141679887Y-71027494D02*
X141622744Y-70970351D01*
X141622744Y-70970351D02*
X141679887Y-70913208D01*
X141679887Y-70913208D02*
X141679887Y-71027494D01*
X141279887Y-71313208D02*
X140822744Y-71313208D01*
X141108458Y-70913208D02*
X141108458Y-71941780D01*
X141108458Y-71941780D02*
X141051315Y-72056066D01*
X141051315Y-72056066D02*
X140937030Y-72113208D01*
X140937030Y-72113208D02*
X140822744Y-72113208D01*
X140422744Y-72113208D02*
X140422744Y-70913208D01*
X139908459Y-72113208D02*
X139908459Y-71484637D01*
X139908459Y-71484637D02*
X139965601Y-71370351D01*
X139965601Y-71370351D02*
X140079887Y-71313208D01*
X140079887Y-71313208D02*
X140251316Y-71313208D01*
X140251316Y-71313208D02*
X140365601Y-71370351D01*
X140365601Y-71370351D02*
X140422744Y-71427494D01*
X138822745Y-71313208D02*
X138822745Y-72113208D01*
X139337030Y-71313208D02*
X139337030Y-71941780D01*
X139337030Y-71941780D02*
X139279887Y-72056066D01*
X139279887Y-72056066D02*
X139165602Y-72113208D01*
X139165602Y-72113208D02*
X138994173Y-72113208D01*
X138994173Y-72113208D02*
X138879887Y-72056066D01*
X138879887Y-72056066D02*
X138822745Y-71998923D01*
X138251316Y-72113208D02*
X138251316Y-70913208D01*
X138251316Y-71370351D02*
X138137031Y-71313208D01*
X138137031Y-71313208D02*
X137908459Y-71313208D01*
X137908459Y-71313208D02*
X137794173Y-71370351D01*
X137794173Y-71370351D02*
X137737031Y-71427494D01*
X137737031Y-71427494D02*
X137679888Y-71541780D01*
X137679888Y-71541780D02*
X137679888Y-71884637D01*
X137679888Y-71884637D02*
X137737031Y-71998923D01*
X137737031Y-71998923D02*
X137794173Y-72056066D01*
X137794173Y-72056066D02*
X137908459Y-72113208D01*
X137908459Y-72113208D02*
X138137031Y-72113208D01*
X138137031Y-72113208D02*
X138251316Y-72056066D01*
X137165602Y-71998923D02*
X137108459Y-72056066D01*
X137108459Y-72056066D02*
X137165602Y-72113208D01*
X137165602Y-72113208D02*
X137222745Y-72056066D01*
X137222745Y-72056066D02*
X137165602Y-71998923D01*
X137165602Y-71998923D02*
X137165602Y-72113208D01*
X136079888Y-72056066D02*
X136194173Y-72113208D01*
X136194173Y-72113208D02*
X136422745Y-72113208D01*
X136422745Y-72113208D02*
X136537030Y-72056066D01*
X136537030Y-72056066D02*
X136594173Y-71998923D01*
X136594173Y-71998923D02*
X136651316Y-71884637D01*
X136651316Y-71884637D02*
X136651316Y-71541780D01*
X136651316Y-71541780D02*
X136594173Y-71427494D01*
X136594173Y-71427494D02*
X136537030Y-71370351D01*
X136537030Y-71370351D02*
X136422745Y-71313208D01*
X136422745Y-71313208D02*
X136194173Y-71313208D01*
X136194173Y-71313208D02*
X136079888Y-71370351D01*
X135394174Y-72113208D02*
X135508459Y-72056066D01*
X135508459Y-72056066D02*
X135565602Y-71998923D01*
X135565602Y-71998923D02*
X135622745Y-71884637D01*
X135622745Y-71884637D02*
X135622745Y-71541780D01*
X135622745Y-71541780D02*
X135565602Y-71427494D01*
X135565602Y-71427494D02*
X135508459Y-71370351D01*
X135508459Y-71370351D02*
X135394174Y-71313208D01*
X135394174Y-71313208D02*
X135222745Y-71313208D01*
X135222745Y-71313208D02*
X135108459Y-71370351D01*
X135108459Y-71370351D02*
X135051317Y-71427494D01*
X135051317Y-71427494D02*
X134994174Y-71541780D01*
X134994174Y-71541780D02*
X134994174Y-71884637D01*
X134994174Y-71884637D02*
X135051317Y-71998923D01*
X135051317Y-71998923D02*
X135108459Y-72056066D01*
X135108459Y-72056066D02*
X135222745Y-72113208D01*
X135222745Y-72113208D02*
X135394174Y-72113208D01*
X134479888Y-72113208D02*
X134479888Y-71313208D01*
X134479888Y-71427494D02*
X134422745Y-71370351D01*
X134422745Y-71370351D02*
X134308460Y-71313208D01*
X134308460Y-71313208D02*
X134137031Y-71313208D01*
X134137031Y-71313208D02*
X134022745Y-71370351D01*
X134022745Y-71370351D02*
X133965603Y-71484637D01*
X133965603Y-71484637D02*
X133965603Y-72113208D01*
X133965603Y-71484637D02*
X133908460Y-71370351D01*
X133908460Y-71370351D02*
X133794174Y-71313208D01*
X133794174Y-71313208D02*
X133622745Y-71313208D01*
X133622745Y-71313208D02*
X133508460Y-71370351D01*
X133508460Y-71370351D02*
X133451317Y-71484637D01*
X133451317Y-71484637D02*
X133451317Y-72113208D01*
X132022745Y-70856066D02*
X133051317Y-72398923D01*
X131622745Y-71313208D02*
X131622745Y-72113208D01*
X131622745Y-71427494D02*
X131565602Y-71370351D01*
X131565602Y-71370351D02*
X131451317Y-71313208D01*
X131451317Y-71313208D02*
X131279888Y-71313208D01*
X131279888Y-71313208D02*
X131165602Y-71370351D01*
X131165602Y-71370351D02*
X131108460Y-71484637D01*
X131108460Y-71484637D02*
X131108460Y-72113208D01*
X130079888Y-72056066D02*
X130194174Y-72113208D01*
X130194174Y-72113208D02*
X130422746Y-72113208D01*
X130422746Y-72113208D02*
X130537031Y-72056066D01*
X130537031Y-72056066D02*
X130594174Y-71941780D01*
X130594174Y-71941780D02*
X130594174Y-71484637D01*
X130594174Y-71484637D02*
X130537031Y-71370351D01*
X130537031Y-71370351D02*
X130422746Y-71313208D01*
X130422746Y-71313208D02*
X130194174Y-71313208D01*
X130194174Y-71313208D02*
X130079888Y-71370351D01*
X130079888Y-71370351D02*
X130022746Y-71484637D01*
X130022746Y-71484637D02*
X130022746Y-71598923D01*
X130022746Y-71598923D02*
X130594174Y-71713208D01*
X128994175Y-72113208D02*
X128994175Y-71484637D01*
X128994175Y-71484637D02*
X129051317Y-71370351D01*
X129051317Y-71370351D02*
X129165603Y-71313208D01*
X129165603Y-71313208D02*
X129394175Y-71313208D01*
X129394175Y-71313208D02*
X129508460Y-71370351D01*
X128994175Y-72056066D02*
X129108460Y-72113208D01*
X129108460Y-72113208D02*
X129394175Y-72113208D01*
X129394175Y-72113208D02*
X129508460Y-72056066D01*
X129508460Y-72056066D02*
X129565603Y-71941780D01*
X129565603Y-71941780D02*
X129565603Y-71827494D01*
X129565603Y-71827494D02*
X129508460Y-71713208D01*
X129508460Y-71713208D02*
X129394175Y-71656066D01*
X129394175Y-71656066D02*
X129108460Y-71656066D01*
X129108460Y-71656066D02*
X128994175Y-71598923D01*
X128422746Y-72113208D02*
X128422746Y-71313208D01*
X128422746Y-71541780D02*
X128365603Y-71427494D01*
X128365603Y-71427494D02*
X128308461Y-71370351D01*
X128308461Y-71370351D02*
X128194175Y-71313208D01*
X128194175Y-71313208D02*
X128079889Y-71313208D01*
X127222746Y-72056066D02*
X127337032Y-72113208D01*
X127337032Y-72113208D02*
X127565604Y-72113208D01*
X127565604Y-72113208D02*
X127679889Y-72056066D01*
X127679889Y-72056066D02*
X127737032Y-71941780D01*
X127737032Y-71941780D02*
X127737032Y-71484637D01*
X127737032Y-71484637D02*
X127679889Y-71370351D01*
X127679889Y-71370351D02*
X127565604Y-71313208D01*
X127565604Y-71313208D02*
X127337032Y-71313208D01*
X127337032Y-71313208D02*
X127222746Y-71370351D01*
X127222746Y-71370351D02*
X127165604Y-71484637D01*
X127165604Y-71484637D02*
X127165604Y-71598923D01*
X127165604Y-71598923D02*
X127737032Y-71713208D01*
X126708461Y-72056066D02*
X126594175Y-72113208D01*
X126594175Y-72113208D02*
X126365604Y-72113208D01*
X126365604Y-72113208D02*
X126251318Y-72056066D01*
X126251318Y-72056066D02*
X126194175Y-71941780D01*
X126194175Y-71941780D02*
X126194175Y-71884637D01*
X126194175Y-71884637D02*
X126251318Y-71770351D01*
X126251318Y-71770351D02*
X126365604Y-71713208D01*
X126365604Y-71713208D02*
X126537033Y-71713208D01*
X126537033Y-71713208D02*
X126651318Y-71656066D01*
X126651318Y-71656066D02*
X126708461Y-71541780D01*
X126708461Y-71541780D02*
X126708461Y-71484637D01*
X126708461Y-71484637D02*
X126651318Y-71370351D01*
X126651318Y-71370351D02*
X126537033Y-71313208D01*
X126537033Y-71313208D02*
X126365604Y-71313208D01*
X126365604Y-71313208D02*
X126251318Y-71370351D01*
X125851318Y-71313208D02*
X125394175Y-71313208D01*
X125679889Y-70913208D02*
X125679889Y-71941780D01*
X125679889Y-71941780D02*
X125622746Y-72056066D01*
X125622746Y-72056066D02*
X125508461Y-72113208D01*
X125508461Y-72113208D02*
X125394175Y-72113208D01*
X124537032Y-72056066D02*
X124651318Y-72113208D01*
X124651318Y-72113208D02*
X124879890Y-72113208D01*
X124879890Y-72113208D02*
X124994175Y-72056066D01*
X124994175Y-72056066D02*
X125051318Y-71941780D01*
X125051318Y-71941780D02*
X125051318Y-71484637D01*
X125051318Y-71484637D02*
X124994175Y-71370351D01*
X124994175Y-71370351D02*
X124879890Y-71313208D01*
X124879890Y-71313208D02*
X124651318Y-71313208D01*
X124651318Y-71313208D02*
X124537032Y-71370351D01*
X124537032Y-71370351D02*
X124479890Y-71484637D01*
X124479890Y-71484637D02*
X124479890Y-71598923D01*
X124479890Y-71598923D02*
X125051318Y-71713208D01*
X124079890Y-72113208D02*
X123451319Y-71313208D01*
X124079890Y-71313208D02*
X123451319Y-72113208D01*
X122994175Y-72113208D02*
X122994175Y-71313208D01*
X122994175Y-70913208D02*
X123051318Y-70970351D01*
X123051318Y-70970351D02*
X122994175Y-71027494D01*
X122994175Y-71027494D02*
X122937032Y-70970351D01*
X122937032Y-70970351D02*
X122994175Y-70913208D01*
X122994175Y-70913208D02*
X122994175Y-71027494D01*
X122594175Y-71313208D02*
X122137032Y-71313208D01*
X122422746Y-70913208D02*
X122422746Y-71941780D01*
X122422746Y-71941780D02*
X122365603Y-72056066D01*
X122365603Y-72056066D02*
X122251318Y-72113208D01*
X122251318Y-72113208D02*
X122137032Y-72113208D01*
X120879889Y-70856066D02*
X121908461Y-72398923D01*
X120651318Y-71313208D02*
X120194175Y-71313208D01*
X120479889Y-70913208D02*
X120479889Y-71941780D01*
X120479889Y-71941780D02*
X120422746Y-72056066D01*
X120422746Y-72056066D02*
X120308461Y-72113208D01*
X120308461Y-72113208D02*
X120194175Y-72113208D01*
X119622747Y-71427494D02*
X119737032Y-71370351D01*
X119737032Y-71370351D02*
X119794175Y-71313208D01*
X119794175Y-71313208D02*
X119851318Y-71198923D01*
X119851318Y-71198923D02*
X119851318Y-71141780D01*
X119851318Y-71141780D02*
X119794175Y-71027494D01*
X119794175Y-71027494D02*
X119737032Y-70970351D01*
X119737032Y-70970351D02*
X119622747Y-70913208D01*
X119622747Y-70913208D02*
X119394175Y-70913208D01*
X119394175Y-70913208D02*
X119279890Y-70970351D01*
X119279890Y-70970351D02*
X119222747Y-71027494D01*
X119222747Y-71027494D02*
X119165604Y-71141780D01*
X119165604Y-71141780D02*
X119165604Y-71198923D01*
X119165604Y-71198923D02*
X119222747Y-71313208D01*
X119222747Y-71313208D02*
X119279890Y-71370351D01*
X119279890Y-71370351D02*
X119394175Y-71427494D01*
X119394175Y-71427494D02*
X119622747Y-71427494D01*
X119622747Y-71427494D02*
X119737032Y-71484637D01*
X119737032Y-71484637D02*
X119794175Y-71541780D01*
X119794175Y-71541780D02*
X119851318Y-71656066D01*
X119851318Y-71656066D02*
X119851318Y-71884637D01*
X119851318Y-71884637D02*
X119794175Y-71998923D01*
X119794175Y-71998923D02*
X119737032Y-72056066D01*
X119737032Y-72056066D02*
X119622747Y-72113208D01*
X119622747Y-72113208D02*
X119394175Y-72113208D01*
X119394175Y-72113208D02*
X119279890Y-72056066D01*
X119279890Y-72056066D02*
X119222747Y-71998923D01*
X119222747Y-71998923D02*
X119165604Y-71884637D01*
X119165604Y-71884637D02*
X119165604Y-71656066D01*
X119165604Y-71656066D02*
X119222747Y-71541780D01*
X119222747Y-71541780D02*
X119279890Y-71484637D01*
X119279890Y-71484637D02*
X119394175Y-71427494D01*
X118422747Y-70913208D02*
X118308461Y-70913208D01*
X118308461Y-70913208D02*
X118194175Y-70970351D01*
X118194175Y-70970351D02*
X118137033Y-71027494D01*
X118137033Y-71027494D02*
X118079890Y-71141780D01*
X118079890Y-71141780D02*
X118022747Y-71370351D01*
X118022747Y-71370351D02*
X118022747Y-71656066D01*
X118022747Y-71656066D02*
X118079890Y-71884637D01*
X118079890Y-71884637D02*
X118137033Y-71998923D01*
X118137033Y-71998923D02*
X118194175Y-72056066D01*
X118194175Y-72056066D02*
X118308461Y-72113208D01*
X118308461Y-72113208D02*
X118422747Y-72113208D01*
X118422747Y-72113208D02*
X118537033Y-72056066D01*
X118537033Y-72056066D02*
X118594175Y-71998923D01*
X118594175Y-71998923D02*
X118651318Y-71884637D01*
X118651318Y-71884637D02*
X118708461Y-71656066D01*
X118708461Y-71656066D02*
X118708461Y-71370351D01*
X118708461Y-71370351D02*
X118651318Y-71141780D01*
X118651318Y-71141780D02*
X118594175Y-71027494D01*
X118594175Y-71027494D02*
X118537033Y-70970351D01*
X118537033Y-70970351D02*
X118422747Y-70913208D01*
X117508461Y-71656066D02*
X116594176Y-71656066D01*
X115451319Y-70913208D02*
X116022747Y-70913208D01*
X116022747Y-70913208D02*
X116079890Y-71484637D01*
X116079890Y-71484637D02*
X116022747Y-71427494D01*
X116022747Y-71427494D02*
X115908462Y-71370351D01*
X115908462Y-71370351D02*
X115622747Y-71370351D01*
X115622747Y-71370351D02*
X115508462Y-71427494D01*
X115508462Y-71427494D02*
X115451319Y-71484637D01*
X115451319Y-71484637D02*
X115394176Y-71598923D01*
X115394176Y-71598923D02*
X115394176Y-71884637D01*
X115394176Y-71884637D02*
X115451319Y-71998923D01*
X115451319Y-71998923D02*
X115508462Y-72056066D01*
X115508462Y-72056066D02*
X115622747Y-72113208D01*
X115622747Y-72113208D02*
X115908462Y-72113208D01*
X115908462Y-72113208D02*
X116022747Y-72056066D01*
X116022747Y-72056066D02*
X116079890Y-71998923D01*
X114651319Y-70913208D02*
X114537033Y-70913208D01*
X114537033Y-70913208D02*
X114422747Y-70970351D01*
X114422747Y-70970351D02*
X114365605Y-71027494D01*
X114365605Y-71027494D02*
X114308462Y-71141780D01*
X114308462Y-71141780D02*
X114251319Y-71370351D01*
X114251319Y-71370351D02*
X114251319Y-71656066D01*
X114251319Y-71656066D02*
X114308462Y-71884637D01*
X114308462Y-71884637D02*
X114365605Y-71998923D01*
X114365605Y-71998923D02*
X114422747Y-72056066D01*
X114422747Y-72056066D02*
X114537033Y-72113208D01*
X114537033Y-72113208D02*
X114651319Y-72113208D01*
X114651319Y-72113208D02*
X114765605Y-72056066D01*
X114765605Y-72056066D02*
X114822747Y-71998923D01*
X114822747Y-71998923D02*
X114879890Y-71884637D01*
X114879890Y-71884637D02*
X114937033Y-71656066D01*
X114937033Y-71656066D02*
X114937033Y-71370351D01*
X114937033Y-71370351D02*
X114879890Y-71141780D01*
X114879890Y-71141780D02*
X114822747Y-71027494D01*
X114822747Y-71027494D02*
X114765605Y-70970351D01*
X114765605Y-70970351D02*
X114651319Y-70913208D01*
X113508462Y-70913208D02*
X113394176Y-70913208D01*
X113394176Y-70913208D02*
X113279890Y-70970351D01*
X113279890Y-70970351D02*
X113222748Y-71027494D01*
X113222748Y-71027494D02*
X113165605Y-71141780D01*
X113165605Y-71141780D02*
X113108462Y-71370351D01*
X113108462Y-71370351D02*
X113108462Y-71656066D01*
X113108462Y-71656066D02*
X113165605Y-71884637D01*
X113165605Y-71884637D02*
X113222748Y-71998923D01*
X113222748Y-71998923D02*
X113279890Y-72056066D01*
X113279890Y-72056066D02*
X113394176Y-72113208D01*
X113394176Y-72113208D02*
X113508462Y-72113208D01*
X113508462Y-72113208D02*
X113622748Y-72056066D01*
X113622748Y-72056066D02*
X113679890Y-71998923D01*
X113679890Y-71998923D02*
X113737033Y-71884637D01*
X113737033Y-71884637D02*
X113794176Y-71656066D01*
X113794176Y-71656066D02*
X113794176Y-71370351D01*
X113794176Y-71370351D02*
X113737033Y-71141780D01*
X113737033Y-71141780D02*
X113679890Y-71027494D01*
X113679890Y-71027494D02*
X113622748Y-70970351D01*
X113622748Y-70970351D02*
X113508462Y-70913208D01*
X112365605Y-70913208D02*
X112251319Y-70913208D01*
X112251319Y-70913208D02*
X112137033Y-70970351D01*
X112137033Y-70970351D02*
X112079891Y-71027494D01*
X112079891Y-71027494D02*
X112022748Y-71141780D01*
X112022748Y-71141780D02*
X111965605Y-71370351D01*
X111965605Y-71370351D02*
X111965605Y-71656066D01*
X111965605Y-71656066D02*
X112022748Y-71884637D01*
X112022748Y-71884637D02*
X112079891Y-71998923D01*
X112079891Y-71998923D02*
X112137033Y-72056066D01*
X112137033Y-72056066D02*
X112251319Y-72113208D01*
X112251319Y-72113208D02*
X112365605Y-72113208D01*
X112365605Y-72113208D02*
X112479891Y-72056066D01*
X112479891Y-72056066D02*
X112537033Y-71998923D01*
X112537033Y-71998923D02*
X112594176Y-71884637D01*
X112594176Y-71884637D02*
X112651319Y-71656066D01*
X112651319Y-71656066D02*
X112651319Y-71370351D01*
X112651319Y-71370351D02*
X112594176Y-71141780D01*
X112594176Y-71141780D02*
X112537033Y-71027494D01*
X112537033Y-71027494D02*
X112479891Y-70970351D01*
X112479891Y-70970351D02*
X112365605Y-70913208D01*
D11*
X101150000Y-66100000D02*
X144050000Y-66100000D01*
X144050000Y-73200000D01*
X101150000Y-73200000D01*
X101150000Y-66100000D01*
%LPC*%
D12*
%TO.C,J3*%
X193640100Y-51122800D03*
X187860100Y-51122800D03*
D13*
X195069900Y-51682600D03*
D14*
X195069900Y-47502800D03*
D13*
X186430100Y-51682600D03*
D14*
X186430100Y-47502800D03*
%TD*%
%LPD*%
M02*
