%TF.GenerationSoftware,KiCad,Pcbnew,8.0.2*%
%TF.CreationDate,2024-11-08T19:37:49-08:00*%
%TF.ProjectId,gh80-5000-right,67683830-2d35-4303-9030-2d7269676874,rev?*%
%TF.SameCoordinates,Original*%
%TF.FileFunction,Legend,Top*%
%TF.FilePolarity,Positive*%
%FSLAX46Y46*%
G04 Gerber Fmt 4.6, Leading zero omitted, Abs format (unit mm)*
G04 Created by KiCad (PCBNEW 8.0.2) date 2024-11-08 19:37:49*
%MOMM*%
%LPD*%
G01*
G04 APERTURE LIST*
%ADD10C,0.150000*%
%ADD11C,0.125000*%
%ADD12C,0.200000*%
%ADD13C,1.750000*%
%ADD14C,3.987800*%
%ADD15C,2.900000*%
%ADD16C,1.600000*%
%ADD17C,3.048000*%
%ADD18O,1.600000X1.600000*%
%ADD19C,1.200000*%
%ADD20O,2.100000X1.100000*%
%ADD21R,1.800000X1.800000*%
%ADD22C,1.800000*%
%ADD23R,1.700000X1.700000*%
%ADD24O,1.700000X1.700000*%
%ADD25C,1.000000*%
%ADD26O,1.101600X2.301600*%
%ADD27O,1.101600X1.901600*%
G04 APERTURE END LIST*
D10*
X249708207Y-118574580D02*
X249660588Y-118622200D01*
X249660588Y-118622200D02*
X249517731Y-118669819D01*
X249517731Y-118669819D02*
X249422493Y-118669819D01*
X249422493Y-118669819D02*
X249279636Y-118622200D01*
X249279636Y-118622200D02*
X249184398Y-118526961D01*
X249184398Y-118526961D02*
X249136779Y-118431723D01*
X249136779Y-118431723D02*
X249089160Y-118241247D01*
X249089160Y-118241247D02*
X249089160Y-118098390D01*
X249089160Y-118098390D02*
X249136779Y-117907914D01*
X249136779Y-117907914D02*
X249184398Y-117812676D01*
X249184398Y-117812676D02*
X249279636Y-117717438D01*
X249279636Y-117717438D02*
X249422493Y-117669819D01*
X249422493Y-117669819D02*
X249517731Y-117669819D01*
X249517731Y-117669819D02*
X249660588Y-117717438D01*
X249660588Y-117717438D02*
X249708207Y-117765057D01*
X250565350Y-118669819D02*
X250565350Y-118146009D01*
X250565350Y-118146009D02*
X250517731Y-118050771D01*
X250517731Y-118050771D02*
X250422493Y-118003152D01*
X250422493Y-118003152D02*
X250232017Y-118003152D01*
X250232017Y-118003152D02*
X250136779Y-118050771D01*
X250565350Y-118622200D02*
X250470112Y-118669819D01*
X250470112Y-118669819D02*
X250232017Y-118669819D01*
X250232017Y-118669819D02*
X250136779Y-118622200D01*
X250136779Y-118622200D02*
X250089160Y-118526961D01*
X250089160Y-118526961D02*
X250089160Y-118431723D01*
X250089160Y-118431723D02*
X250136779Y-118336485D01*
X250136779Y-118336485D02*
X250232017Y-118288866D01*
X250232017Y-118288866D02*
X250470112Y-118288866D01*
X250470112Y-118288866D02*
X250565350Y-118241247D01*
X251041541Y-118003152D02*
X251041541Y-119003152D01*
X251041541Y-118050771D02*
X251136779Y-118003152D01*
X251136779Y-118003152D02*
X251327255Y-118003152D01*
X251327255Y-118003152D02*
X251422493Y-118050771D01*
X251422493Y-118050771D02*
X251470112Y-118098390D01*
X251470112Y-118098390D02*
X251517731Y-118193628D01*
X251517731Y-118193628D02*
X251517731Y-118479342D01*
X251517731Y-118479342D02*
X251470112Y-118574580D01*
X251470112Y-118574580D02*
X251422493Y-118622200D01*
X251422493Y-118622200D02*
X251327255Y-118669819D01*
X251327255Y-118669819D02*
X251136779Y-118669819D01*
X251136779Y-118669819D02*
X251041541Y-118622200D01*
X251898684Y-118622200D02*
X251993922Y-118669819D01*
X251993922Y-118669819D02*
X252184398Y-118669819D01*
X252184398Y-118669819D02*
X252279636Y-118622200D01*
X252279636Y-118622200D02*
X252327255Y-118526961D01*
X252327255Y-118526961D02*
X252327255Y-118479342D01*
X252327255Y-118479342D02*
X252279636Y-118384104D01*
X252279636Y-118384104D02*
X252184398Y-118336485D01*
X252184398Y-118336485D02*
X252041541Y-118336485D01*
X252041541Y-118336485D02*
X251946303Y-118288866D01*
X251946303Y-118288866D02*
X251898684Y-118193628D01*
X251898684Y-118193628D02*
X251898684Y-118146009D01*
X251898684Y-118146009D02*
X251946303Y-118050771D01*
X251946303Y-118050771D02*
X252041541Y-118003152D01*
X252041541Y-118003152D02*
X252184398Y-118003152D01*
X252184398Y-118003152D02*
X252279636Y-118050771D01*
X119489160Y-124422200D02*
X119632017Y-124469819D01*
X119632017Y-124469819D02*
X119870112Y-124469819D01*
X119870112Y-124469819D02*
X119965350Y-124422200D01*
X119965350Y-124422200D02*
X120012969Y-124374580D01*
X120012969Y-124374580D02*
X120060588Y-124279342D01*
X120060588Y-124279342D02*
X120060588Y-124184104D01*
X120060588Y-124184104D02*
X120012969Y-124088866D01*
X120012969Y-124088866D02*
X119965350Y-124041247D01*
X119965350Y-124041247D02*
X119870112Y-123993628D01*
X119870112Y-123993628D02*
X119679636Y-123946009D01*
X119679636Y-123946009D02*
X119584398Y-123898390D01*
X119584398Y-123898390D02*
X119536779Y-123850771D01*
X119536779Y-123850771D02*
X119489160Y-123755533D01*
X119489160Y-123755533D02*
X119489160Y-123660295D01*
X119489160Y-123660295D02*
X119536779Y-123565057D01*
X119536779Y-123565057D02*
X119584398Y-123517438D01*
X119584398Y-123517438D02*
X119679636Y-123469819D01*
X119679636Y-123469819D02*
X119917731Y-123469819D01*
X119917731Y-123469819D02*
X120060588Y-123517438D01*
X120393922Y-123469819D02*
X120632017Y-124469819D01*
X120632017Y-124469819D02*
X120822493Y-123755533D01*
X120822493Y-123755533D02*
X121012969Y-124469819D01*
X121012969Y-124469819D02*
X121251065Y-123469819D01*
X121632017Y-124469819D02*
X121632017Y-123469819D01*
X121632017Y-123469819D02*
X121870112Y-123469819D01*
X121870112Y-123469819D02*
X122012969Y-123517438D01*
X122012969Y-123517438D02*
X122108207Y-123612676D01*
X122108207Y-123612676D02*
X122155826Y-123707914D01*
X122155826Y-123707914D02*
X122203445Y-123898390D01*
X122203445Y-123898390D02*
X122203445Y-124041247D01*
X122203445Y-124041247D02*
X122155826Y-124231723D01*
X122155826Y-124231723D02*
X122108207Y-124326961D01*
X122108207Y-124326961D02*
X122012969Y-124422200D01*
X122012969Y-124422200D02*
X121870112Y-124469819D01*
X121870112Y-124469819D02*
X121632017Y-124469819D01*
X230336779Y-118669819D02*
X230336779Y-117669819D01*
X230336779Y-117669819D02*
X230908207Y-118669819D01*
X230908207Y-118669819D02*
X230908207Y-117669819D01*
X231812969Y-118003152D02*
X231812969Y-118669819D01*
X231384398Y-118003152D02*
X231384398Y-118526961D01*
X231384398Y-118526961D02*
X231432017Y-118622200D01*
X231432017Y-118622200D02*
X231527255Y-118669819D01*
X231527255Y-118669819D02*
X231670112Y-118669819D01*
X231670112Y-118669819D02*
X231765350Y-118622200D01*
X231765350Y-118622200D02*
X231812969Y-118574580D01*
X232289160Y-118669819D02*
X232289160Y-118003152D01*
X232289160Y-118098390D02*
X232336779Y-118050771D01*
X232336779Y-118050771D02*
X232432017Y-118003152D01*
X232432017Y-118003152D02*
X232574874Y-118003152D01*
X232574874Y-118003152D02*
X232670112Y-118050771D01*
X232670112Y-118050771D02*
X232717731Y-118146009D01*
X232717731Y-118146009D02*
X232717731Y-118669819D01*
X232717731Y-118146009D02*
X232765350Y-118050771D01*
X232765350Y-118050771D02*
X232860588Y-118003152D01*
X232860588Y-118003152D02*
X233003445Y-118003152D01*
X233003445Y-118003152D02*
X233098684Y-118050771D01*
X233098684Y-118050771D02*
X233146303Y-118146009D01*
X233146303Y-118146009D02*
X233146303Y-118669819D01*
X160770112Y-135246009D02*
X160912969Y-135293628D01*
X160912969Y-135293628D02*
X160960588Y-135341247D01*
X160960588Y-135341247D02*
X161008207Y-135436485D01*
X161008207Y-135436485D02*
X161008207Y-135579342D01*
X161008207Y-135579342D02*
X160960588Y-135674580D01*
X160960588Y-135674580D02*
X160912969Y-135722200D01*
X160912969Y-135722200D02*
X160817731Y-135769819D01*
X160817731Y-135769819D02*
X160436779Y-135769819D01*
X160436779Y-135769819D02*
X160436779Y-134769819D01*
X160436779Y-134769819D02*
X160770112Y-134769819D01*
X160770112Y-134769819D02*
X160865350Y-134817438D01*
X160865350Y-134817438D02*
X160912969Y-134865057D01*
X160912969Y-134865057D02*
X160960588Y-134960295D01*
X160960588Y-134960295D02*
X160960588Y-135055533D01*
X160960588Y-135055533D02*
X160912969Y-135150771D01*
X160912969Y-135150771D02*
X160865350Y-135198390D01*
X160865350Y-135198390D02*
X160770112Y-135246009D01*
X160770112Y-135246009D02*
X160436779Y-135246009D01*
X161579636Y-135769819D02*
X161484398Y-135722200D01*
X161484398Y-135722200D02*
X161436779Y-135674580D01*
X161436779Y-135674580D02*
X161389160Y-135579342D01*
X161389160Y-135579342D02*
X161389160Y-135293628D01*
X161389160Y-135293628D02*
X161436779Y-135198390D01*
X161436779Y-135198390D02*
X161484398Y-135150771D01*
X161484398Y-135150771D02*
X161579636Y-135103152D01*
X161579636Y-135103152D02*
X161722493Y-135103152D01*
X161722493Y-135103152D02*
X161817731Y-135150771D01*
X161817731Y-135150771D02*
X161865350Y-135198390D01*
X161865350Y-135198390D02*
X161912969Y-135293628D01*
X161912969Y-135293628D02*
X161912969Y-135579342D01*
X161912969Y-135579342D02*
X161865350Y-135674580D01*
X161865350Y-135674580D02*
X161817731Y-135722200D01*
X161817731Y-135722200D02*
X161722493Y-135769819D01*
X161722493Y-135769819D02*
X161579636Y-135769819D01*
X162484398Y-135769819D02*
X162389160Y-135722200D01*
X162389160Y-135722200D02*
X162341541Y-135674580D01*
X162341541Y-135674580D02*
X162293922Y-135579342D01*
X162293922Y-135579342D02*
X162293922Y-135293628D01*
X162293922Y-135293628D02*
X162341541Y-135198390D01*
X162341541Y-135198390D02*
X162389160Y-135150771D01*
X162389160Y-135150771D02*
X162484398Y-135103152D01*
X162484398Y-135103152D02*
X162627255Y-135103152D01*
X162627255Y-135103152D02*
X162722493Y-135150771D01*
X162722493Y-135150771D02*
X162770112Y-135198390D01*
X162770112Y-135198390D02*
X162817731Y-135293628D01*
X162817731Y-135293628D02*
X162817731Y-135579342D01*
X162817731Y-135579342D02*
X162770112Y-135674580D01*
X162770112Y-135674580D02*
X162722493Y-135722200D01*
X162722493Y-135722200D02*
X162627255Y-135769819D01*
X162627255Y-135769819D02*
X162484398Y-135769819D01*
X163103446Y-135103152D02*
X163484398Y-135103152D01*
X163246303Y-134769819D02*
X163246303Y-135626961D01*
X163246303Y-135626961D02*
X163293922Y-135722200D01*
X163293922Y-135722200D02*
X163389160Y-135769819D01*
X163389160Y-135769819D02*
X163484398Y-135769819D01*
X119008207Y-121869819D02*
X118674874Y-121393628D01*
X118436779Y-121869819D02*
X118436779Y-120869819D01*
X118436779Y-120869819D02*
X118817731Y-120869819D01*
X118817731Y-120869819D02*
X118912969Y-120917438D01*
X118912969Y-120917438D02*
X118960588Y-120965057D01*
X118960588Y-120965057D02*
X119008207Y-121060295D01*
X119008207Y-121060295D02*
X119008207Y-121203152D01*
X119008207Y-121203152D02*
X118960588Y-121298390D01*
X118960588Y-121298390D02*
X118912969Y-121346009D01*
X118912969Y-121346009D02*
X118817731Y-121393628D01*
X118817731Y-121393628D02*
X118436779Y-121393628D01*
X119817731Y-121822200D02*
X119722493Y-121869819D01*
X119722493Y-121869819D02*
X119532017Y-121869819D01*
X119532017Y-121869819D02*
X119436779Y-121822200D01*
X119436779Y-121822200D02*
X119389160Y-121726961D01*
X119389160Y-121726961D02*
X119389160Y-121346009D01*
X119389160Y-121346009D02*
X119436779Y-121250771D01*
X119436779Y-121250771D02*
X119532017Y-121203152D01*
X119532017Y-121203152D02*
X119722493Y-121203152D01*
X119722493Y-121203152D02*
X119817731Y-121250771D01*
X119817731Y-121250771D02*
X119865350Y-121346009D01*
X119865350Y-121346009D02*
X119865350Y-121441247D01*
X119865350Y-121441247D02*
X119389160Y-121536485D01*
X120246303Y-121822200D02*
X120341541Y-121869819D01*
X120341541Y-121869819D02*
X120532017Y-121869819D01*
X120532017Y-121869819D02*
X120627255Y-121822200D01*
X120627255Y-121822200D02*
X120674874Y-121726961D01*
X120674874Y-121726961D02*
X120674874Y-121679342D01*
X120674874Y-121679342D02*
X120627255Y-121584104D01*
X120627255Y-121584104D02*
X120532017Y-121536485D01*
X120532017Y-121536485D02*
X120389160Y-121536485D01*
X120389160Y-121536485D02*
X120293922Y-121488866D01*
X120293922Y-121488866D02*
X120246303Y-121393628D01*
X120246303Y-121393628D02*
X120246303Y-121346009D01*
X120246303Y-121346009D02*
X120293922Y-121250771D01*
X120293922Y-121250771D02*
X120389160Y-121203152D01*
X120389160Y-121203152D02*
X120532017Y-121203152D01*
X120532017Y-121203152D02*
X120627255Y-121250771D01*
X121484398Y-121822200D02*
X121389160Y-121869819D01*
X121389160Y-121869819D02*
X121198684Y-121869819D01*
X121198684Y-121869819D02*
X121103446Y-121822200D01*
X121103446Y-121822200D02*
X121055827Y-121726961D01*
X121055827Y-121726961D02*
X121055827Y-121346009D01*
X121055827Y-121346009D02*
X121103446Y-121250771D01*
X121103446Y-121250771D02*
X121198684Y-121203152D01*
X121198684Y-121203152D02*
X121389160Y-121203152D01*
X121389160Y-121203152D02*
X121484398Y-121250771D01*
X121484398Y-121250771D02*
X121532017Y-121346009D01*
X121532017Y-121346009D02*
X121532017Y-121441247D01*
X121532017Y-121441247D02*
X121055827Y-121536485D01*
X121817732Y-121203152D02*
X122198684Y-121203152D01*
X121960589Y-120869819D02*
X121960589Y-121726961D01*
X121960589Y-121726961D02*
X122008208Y-121822200D01*
X122008208Y-121822200D02*
X122103446Y-121869819D01*
X122103446Y-121869819D02*
X122198684Y-121869819D01*
X120060588Y-118317438D02*
X119965350Y-118269819D01*
X119965350Y-118269819D02*
X119822493Y-118269819D01*
X119822493Y-118269819D02*
X119679636Y-118317438D01*
X119679636Y-118317438D02*
X119584398Y-118412676D01*
X119584398Y-118412676D02*
X119536779Y-118507914D01*
X119536779Y-118507914D02*
X119489160Y-118698390D01*
X119489160Y-118698390D02*
X119489160Y-118841247D01*
X119489160Y-118841247D02*
X119536779Y-119031723D01*
X119536779Y-119031723D02*
X119584398Y-119126961D01*
X119584398Y-119126961D02*
X119679636Y-119222200D01*
X119679636Y-119222200D02*
X119822493Y-119269819D01*
X119822493Y-119269819D02*
X119917731Y-119269819D01*
X119917731Y-119269819D02*
X120060588Y-119222200D01*
X120060588Y-119222200D02*
X120108207Y-119174580D01*
X120108207Y-119174580D02*
X120108207Y-118841247D01*
X120108207Y-118841247D02*
X119917731Y-118841247D01*
X120536779Y-119269819D02*
X120536779Y-118269819D01*
X120536779Y-118269819D02*
X121108207Y-119269819D01*
X121108207Y-119269819D02*
X121108207Y-118269819D01*
X121584398Y-119269819D02*
X121584398Y-118269819D01*
X121584398Y-118269819D02*
X121822493Y-118269819D01*
X121822493Y-118269819D02*
X121965350Y-118317438D01*
X121965350Y-118317438D02*
X122060588Y-118412676D01*
X122060588Y-118412676D02*
X122108207Y-118507914D01*
X122108207Y-118507914D02*
X122155826Y-118698390D01*
X122155826Y-118698390D02*
X122155826Y-118841247D01*
X122155826Y-118841247D02*
X122108207Y-119031723D01*
X122108207Y-119031723D02*
X122060588Y-119126961D01*
X122060588Y-119126961D02*
X121965350Y-119222200D01*
X121965350Y-119222200D02*
X121822493Y-119269819D01*
X121822493Y-119269819D02*
X121584398Y-119269819D01*
X119741541Y-128469819D02*
X120360588Y-128469819D01*
X120360588Y-128469819D02*
X120027255Y-128850771D01*
X120027255Y-128850771D02*
X120170112Y-128850771D01*
X120170112Y-128850771D02*
X120265350Y-128898390D01*
X120265350Y-128898390D02*
X120312969Y-128946009D01*
X120312969Y-128946009D02*
X120360588Y-129041247D01*
X120360588Y-129041247D02*
X120360588Y-129279342D01*
X120360588Y-129279342D02*
X120312969Y-129374580D01*
X120312969Y-129374580D02*
X120265350Y-129422200D01*
X120265350Y-129422200D02*
X120170112Y-129469819D01*
X120170112Y-129469819D02*
X119884398Y-129469819D01*
X119884398Y-129469819D02*
X119789160Y-129422200D01*
X119789160Y-129422200D02*
X119741541Y-129374580D01*
X120646303Y-128469819D02*
X120979636Y-129469819D01*
X120979636Y-129469819D02*
X121312969Y-128469819D01*
X121551065Y-128469819D02*
X122170112Y-128469819D01*
X122170112Y-128469819D02*
X121836779Y-128850771D01*
X121836779Y-128850771D02*
X121979636Y-128850771D01*
X121979636Y-128850771D02*
X122074874Y-128898390D01*
X122074874Y-128898390D02*
X122122493Y-128946009D01*
X122122493Y-128946009D02*
X122170112Y-129041247D01*
X122170112Y-129041247D02*
X122170112Y-129279342D01*
X122170112Y-129279342D02*
X122122493Y-129374580D01*
X122122493Y-129374580D02*
X122074874Y-129422200D01*
X122074874Y-129422200D02*
X121979636Y-129469819D01*
X121979636Y-129469819D02*
X121693922Y-129469819D01*
X121693922Y-129469819D02*
X121598684Y-129422200D01*
X121598684Y-129422200D02*
X121551065Y-129374580D01*
X267789160Y-118622200D02*
X267932017Y-118669819D01*
X267932017Y-118669819D02*
X268170112Y-118669819D01*
X268170112Y-118669819D02*
X268265350Y-118622200D01*
X268265350Y-118622200D02*
X268312969Y-118574580D01*
X268312969Y-118574580D02*
X268360588Y-118479342D01*
X268360588Y-118479342D02*
X268360588Y-118384104D01*
X268360588Y-118384104D02*
X268312969Y-118288866D01*
X268312969Y-118288866D02*
X268265350Y-118241247D01*
X268265350Y-118241247D02*
X268170112Y-118193628D01*
X268170112Y-118193628D02*
X267979636Y-118146009D01*
X267979636Y-118146009D02*
X267884398Y-118098390D01*
X267884398Y-118098390D02*
X267836779Y-118050771D01*
X267836779Y-118050771D02*
X267789160Y-117955533D01*
X267789160Y-117955533D02*
X267789160Y-117860295D01*
X267789160Y-117860295D02*
X267836779Y-117765057D01*
X267836779Y-117765057D02*
X267884398Y-117717438D01*
X267884398Y-117717438D02*
X267979636Y-117669819D01*
X267979636Y-117669819D02*
X268217731Y-117669819D01*
X268217731Y-117669819D02*
X268360588Y-117717438D01*
X269217731Y-118622200D02*
X269122493Y-118669819D01*
X269122493Y-118669819D02*
X268932017Y-118669819D01*
X268932017Y-118669819D02*
X268836779Y-118622200D01*
X268836779Y-118622200D02*
X268789160Y-118574580D01*
X268789160Y-118574580D02*
X268741541Y-118479342D01*
X268741541Y-118479342D02*
X268741541Y-118193628D01*
X268741541Y-118193628D02*
X268789160Y-118098390D01*
X268789160Y-118098390D02*
X268836779Y-118050771D01*
X268836779Y-118050771D02*
X268932017Y-118003152D01*
X268932017Y-118003152D02*
X269122493Y-118003152D01*
X269122493Y-118003152D02*
X269217731Y-118050771D01*
X269646303Y-118669819D02*
X269646303Y-118003152D01*
X269646303Y-118193628D02*
X269693922Y-118098390D01*
X269693922Y-118098390D02*
X269741541Y-118050771D01*
X269741541Y-118050771D02*
X269836779Y-118003152D01*
X269836779Y-118003152D02*
X269932017Y-118003152D01*
X270408208Y-118669819D02*
X270312970Y-118622200D01*
X270312970Y-118622200D02*
X270265351Y-118574580D01*
X270265351Y-118574580D02*
X270217732Y-118479342D01*
X270217732Y-118479342D02*
X270217732Y-118193628D01*
X270217732Y-118193628D02*
X270265351Y-118098390D01*
X270265351Y-118098390D02*
X270312970Y-118050771D01*
X270312970Y-118050771D02*
X270408208Y-118003152D01*
X270408208Y-118003152D02*
X270551065Y-118003152D01*
X270551065Y-118003152D02*
X270646303Y-118050771D01*
X270646303Y-118050771D02*
X270693922Y-118098390D01*
X270693922Y-118098390D02*
X270741541Y-118193628D01*
X270741541Y-118193628D02*
X270741541Y-118479342D01*
X270741541Y-118479342D02*
X270693922Y-118574580D01*
X270693922Y-118574580D02*
X270646303Y-118622200D01*
X270646303Y-118622200D02*
X270551065Y-118669819D01*
X270551065Y-118669819D02*
X270408208Y-118669819D01*
X271312970Y-118669819D02*
X271217732Y-118622200D01*
X271217732Y-118622200D02*
X271170113Y-118526961D01*
X271170113Y-118526961D02*
X271170113Y-117669819D01*
X271836780Y-118669819D02*
X271741542Y-118622200D01*
X271741542Y-118622200D02*
X271693923Y-118526961D01*
X271693923Y-118526961D02*
X271693923Y-117669819D01*
X227636779Y-114288866D02*
X228398684Y-114288866D01*
X228017731Y-114669819D02*
X228017731Y-113907914D01*
X265736779Y-114288866D02*
X266498684Y-114288866D01*
X266117731Y-114669819D02*
X266117731Y-113907914D01*
X119489160Y-126922200D02*
X119632017Y-126969819D01*
X119632017Y-126969819D02*
X119870112Y-126969819D01*
X119870112Y-126969819D02*
X119965350Y-126922200D01*
X119965350Y-126922200D02*
X120012969Y-126874580D01*
X120012969Y-126874580D02*
X120060588Y-126779342D01*
X120060588Y-126779342D02*
X120060588Y-126684104D01*
X120060588Y-126684104D02*
X120012969Y-126588866D01*
X120012969Y-126588866D02*
X119965350Y-126541247D01*
X119965350Y-126541247D02*
X119870112Y-126493628D01*
X119870112Y-126493628D02*
X119679636Y-126446009D01*
X119679636Y-126446009D02*
X119584398Y-126398390D01*
X119584398Y-126398390D02*
X119536779Y-126350771D01*
X119536779Y-126350771D02*
X119489160Y-126255533D01*
X119489160Y-126255533D02*
X119489160Y-126160295D01*
X119489160Y-126160295D02*
X119536779Y-126065057D01*
X119536779Y-126065057D02*
X119584398Y-126017438D01*
X119584398Y-126017438D02*
X119679636Y-125969819D01*
X119679636Y-125969819D02*
X119917731Y-125969819D01*
X119917731Y-125969819D02*
X120060588Y-126017438D01*
X120393922Y-125969819D02*
X120632017Y-126969819D01*
X120632017Y-126969819D02*
X120822493Y-126255533D01*
X120822493Y-126255533D02*
X121012969Y-126969819D01*
X121012969Y-126969819D02*
X121251065Y-125969819D01*
X122203445Y-126874580D02*
X122155826Y-126922200D01*
X122155826Y-126922200D02*
X122012969Y-126969819D01*
X122012969Y-126969819D02*
X121917731Y-126969819D01*
X121917731Y-126969819D02*
X121774874Y-126922200D01*
X121774874Y-126922200D02*
X121679636Y-126826961D01*
X121679636Y-126826961D02*
X121632017Y-126731723D01*
X121632017Y-126731723D02*
X121584398Y-126541247D01*
X121584398Y-126541247D02*
X121584398Y-126398390D01*
X121584398Y-126398390D02*
X121632017Y-126207914D01*
X121632017Y-126207914D02*
X121679636Y-126112676D01*
X121679636Y-126112676D02*
X121774874Y-126017438D01*
X121774874Y-126017438D02*
X121917731Y-125969819D01*
X121917731Y-125969819D02*
X122012969Y-125969819D01*
X122012969Y-125969819D02*
X122155826Y-126017438D01*
X122155826Y-126017438D02*
X122203445Y-126065057D01*
D11*
X204204761Y-81361175D02*
X204776189Y-81361175D01*
X204490475Y-82361175D02*
X204490475Y-81361175D01*
X205680951Y-82361175D02*
X205347618Y-81884984D01*
X205109523Y-82361175D02*
X205109523Y-81361175D01*
X205109523Y-81361175D02*
X205490475Y-81361175D01*
X205490475Y-81361175D02*
X205585713Y-81408794D01*
X205585713Y-81408794D02*
X205633332Y-81456413D01*
X205633332Y-81456413D02*
X205680951Y-81551651D01*
X205680951Y-81551651D02*
X205680951Y-81694508D01*
X205680951Y-81694508D02*
X205633332Y-81789746D01*
X205633332Y-81789746D02*
X205585713Y-81837365D01*
X205585713Y-81837365D02*
X205490475Y-81884984D01*
X205490475Y-81884984D02*
X205109523Y-81884984D01*
X206680951Y-82361175D02*
X206347618Y-81884984D01*
X206109523Y-82361175D02*
X206109523Y-81361175D01*
X206109523Y-81361175D02*
X206490475Y-81361175D01*
X206490475Y-81361175D02*
X206585713Y-81408794D01*
X206585713Y-81408794D02*
X206633332Y-81456413D01*
X206633332Y-81456413D02*
X206680951Y-81551651D01*
X206680951Y-81551651D02*
X206680951Y-81694508D01*
X206680951Y-81694508D02*
X206633332Y-81789746D01*
X206633332Y-81789746D02*
X206585713Y-81837365D01*
X206585713Y-81837365D02*
X206490475Y-81884984D01*
X206490475Y-81884984D02*
X206109523Y-81884984D01*
X207061904Y-82313556D02*
X207204761Y-82361175D01*
X207204761Y-82361175D02*
X207442856Y-82361175D01*
X207442856Y-82361175D02*
X207538094Y-82313556D01*
X207538094Y-82313556D02*
X207585713Y-82265936D01*
X207585713Y-82265936D02*
X207633332Y-82170698D01*
X207633332Y-82170698D02*
X207633332Y-82075460D01*
X207633332Y-82075460D02*
X207585713Y-81980222D01*
X207585713Y-81980222D02*
X207538094Y-81932603D01*
X207538094Y-81932603D02*
X207442856Y-81884984D01*
X207442856Y-81884984D02*
X207252380Y-81837365D01*
X207252380Y-81837365D02*
X207157142Y-81789746D01*
X207157142Y-81789746D02*
X207109523Y-81742127D01*
X207109523Y-81742127D02*
X207061904Y-81646889D01*
X207061904Y-81646889D02*
X207061904Y-81551651D01*
X207061904Y-81551651D02*
X207109523Y-81456413D01*
X207109523Y-81456413D02*
X207157142Y-81408794D01*
X207157142Y-81408794D02*
X207252380Y-81361175D01*
X207252380Y-81361175D02*
X207490475Y-81361175D01*
X207490475Y-81361175D02*
X207633332Y-81408794D01*
X208680952Y-81361175D02*
X209252380Y-81361175D01*
X208966666Y-82361175D02*
X208966666Y-81361175D01*
X209776190Y-81361175D02*
X209966666Y-81361175D01*
X209966666Y-81361175D02*
X210061904Y-81408794D01*
X210061904Y-81408794D02*
X210157142Y-81504032D01*
X210157142Y-81504032D02*
X210204761Y-81694508D01*
X210204761Y-81694508D02*
X210204761Y-82027841D01*
X210204761Y-82027841D02*
X210157142Y-82218317D01*
X210157142Y-82218317D02*
X210061904Y-82313556D01*
X210061904Y-82313556D02*
X209966666Y-82361175D01*
X209966666Y-82361175D02*
X209776190Y-82361175D01*
X209776190Y-82361175D02*
X209680952Y-82313556D01*
X209680952Y-82313556D02*
X209585714Y-82218317D01*
X209585714Y-82218317D02*
X209538095Y-82027841D01*
X209538095Y-82027841D02*
X209538095Y-81694508D01*
X209538095Y-81694508D02*
X209585714Y-81504032D01*
X209585714Y-81504032D02*
X209680952Y-81408794D01*
X209680952Y-81408794D02*
X209776190Y-81361175D01*
X211871428Y-82361175D02*
X211395238Y-82361175D01*
X211395238Y-82361175D02*
X211395238Y-81361175D01*
X212204762Y-81837365D02*
X212538095Y-81837365D01*
X212680952Y-82361175D02*
X212204762Y-82361175D01*
X212204762Y-82361175D02*
X212204762Y-81361175D01*
X212204762Y-81361175D02*
X212680952Y-81361175D01*
X213442857Y-81837365D02*
X213109524Y-81837365D01*
X213109524Y-82361175D02*
X213109524Y-81361175D01*
X213109524Y-81361175D02*
X213585714Y-81361175D01*
X213823810Y-81361175D02*
X214395238Y-81361175D01*
X214109524Y-82361175D02*
X214109524Y-81361175D01*
X202919047Y-83971119D02*
X202919047Y-82971119D01*
X202919047Y-82971119D02*
X203157142Y-82971119D01*
X203157142Y-82971119D02*
X203299999Y-83018738D01*
X203299999Y-83018738D02*
X203395237Y-83113976D01*
X203395237Y-83113976D02*
X203442856Y-83209214D01*
X203442856Y-83209214D02*
X203490475Y-83399690D01*
X203490475Y-83399690D02*
X203490475Y-83542547D01*
X203490475Y-83542547D02*
X203442856Y-83733023D01*
X203442856Y-83733023D02*
X203395237Y-83828261D01*
X203395237Y-83828261D02*
X203299999Y-83923500D01*
X203299999Y-83923500D02*
X203157142Y-83971119D01*
X203157142Y-83971119D02*
X202919047Y-83971119D01*
X204109523Y-82971119D02*
X204299999Y-82971119D01*
X204299999Y-82971119D02*
X204395237Y-83018738D01*
X204395237Y-83018738D02*
X204490475Y-83113976D01*
X204490475Y-83113976D02*
X204538094Y-83304452D01*
X204538094Y-83304452D02*
X204538094Y-83637785D01*
X204538094Y-83637785D02*
X204490475Y-83828261D01*
X204490475Y-83828261D02*
X204395237Y-83923500D01*
X204395237Y-83923500D02*
X204299999Y-83971119D01*
X204299999Y-83971119D02*
X204109523Y-83971119D01*
X204109523Y-83971119D02*
X204014285Y-83923500D01*
X204014285Y-83923500D02*
X203919047Y-83828261D01*
X203919047Y-83828261D02*
X203871428Y-83637785D01*
X203871428Y-83637785D02*
X203871428Y-83304452D01*
X203871428Y-83304452D02*
X203919047Y-83113976D01*
X203919047Y-83113976D02*
X204014285Y-83018738D01*
X204014285Y-83018738D02*
X204109523Y-82971119D01*
X205728571Y-83971119D02*
X205728571Y-82971119D01*
X205728571Y-82971119D02*
X206299999Y-83971119D01*
X206299999Y-83971119D02*
X206299999Y-82971119D01*
X206966666Y-82971119D02*
X207157142Y-82971119D01*
X207157142Y-82971119D02*
X207252380Y-83018738D01*
X207252380Y-83018738D02*
X207347618Y-83113976D01*
X207347618Y-83113976D02*
X207395237Y-83304452D01*
X207395237Y-83304452D02*
X207395237Y-83637785D01*
X207395237Y-83637785D02*
X207347618Y-83828261D01*
X207347618Y-83828261D02*
X207252380Y-83923500D01*
X207252380Y-83923500D02*
X207157142Y-83971119D01*
X207157142Y-83971119D02*
X206966666Y-83971119D01*
X206966666Y-83971119D02*
X206871428Y-83923500D01*
X206871428Y-83923500D02*
X206776190Y-83828261D01*
X206776190Y-83828261D02*
X206728571Y-83637785D01*
X206728571Y-83637785D02*
X206728571Y-83304452D01*
X206728571Y-83304452D02*
X206776190Y-83113976D01*
X206776190Y-83113976D02*
X206871428Y-83018738D01*
X206871428Y-83018738D02*
X206966666Y-82971119D01*
X207680952Y-82971119D02*
X208252380Y-82971119D01*
X207966666Y-83971119D02*
X207966666Y-82971119D01*
X209347619Y-83971119D02*
X209347619Y-82971119D01*
X209347619Y-83447309D02*
X209919047Y-83447309D01*
X209919047Y-83971119D02*
X209919047Y-82971119D01*
X210585714Y-82971119D02*
X210776190Y-82971119D01*
X210776190Y-82971119D02*
X210871428Y-83018738D01*
X210871428Y-83018738D02*
X210966666Y-83113976D01*
X210966666Y-83113976D02*
X211014285Y-83304452D01*
X211014285Y-83304452D02*
X211014285Y-83637785D01*
X211014285Y-83637785D02*
X210966666Y-83828261D01*
X210966666Y-83828261D02*
X210871428Y-83923500D01*
X210871428Y-83923500D02*
X210776190Y-83971119D01*
X210776190Y-83971119D02*
X210585714Y-83971119D01*
X210585714Y-83971119D02*
X210490476Y-83923500D01*
X210490476Y-83923500D02*
X210395238Y-83828261D01*
X210395238Y-83828261D02*
X210347619Y-83637785D01*
X210347619Y-83637785D02*
X210347619Y-83304452D01*
X210347619Y-83304452D02*
X210395238Y-83113976D01*
X210395238Y-83113976D02*
X210490476Y-83018738D01*
X210490476Y-83018738D02*
X210585714Y-82971119D01*
X211300000Y-82971119D02*
X211871428Y-82971119D01*
X211585714Y-83971119D02*
X211585714Y-82971119D01*
X212157143Y-83923500D02*
X212300000Y-83971119D01*
X212300000Y-83971119D02*
X212538095Y-83971119D01*
X212538095Y-83971119D02*
X212633333Y-83923500D01*
X212633333Y-83923500D02*
X212680952Y-83875880D01*
X212680952Y-83875880D02*
X212728571Y-83780642D01*
X212728571Y-83780642D02*
X212728571Y-83685404D01*
X212728571Y-83685404D02*
X212680952Y-83590166D01*
X212680952Y-83590166D02*
X212633333Y-83542547D01*
X212633333Y-83542547D02*
X212538095Y-83494928D01*
X212538095Y-83494928D02*
X212347619Y-83447309D01*
X212347619Y-83447309D02*
X212252381Y-83399690D01*
X212252381Y-83399690D02*
X212204762Y-83352071D01*
X212204762Y-83352071D02*
X212157143Y-83256833D01*
X212157143Y-83256833D02*
X212157143Y-83161595D01*
X212157143Y-83161595D02*
X212204762Y-83066357D01*
X212204762Y-83066357D02*
X212252381Y-83018738D01*
X212252381Y-83018738D02*
X212347619Y-82971119D01*
X212347619Y-82971119D02*
X212585714Y-82971119D01*
X212585714Y-82971119D02*
X212728571Y-83018738D01*
X213061905Y-82971119D02*
X213300000Y-83971119D01*
X213300000Y-83971119D02*
X213490476Y-83256833D01*
X213490476Y-83256833D02*
X213680952Y-83971119D01*
X213680952Y-83971119D02*
X213919048Y-82971119D01*
X214252381Y-83685404D02*
X214728571Y-83685404D01*
X214157143Y-83971119D02*
X214490476Y-82971119D01*
X214490476Y-82971119D02*
X214823809Y-83971119D01*
X215157143Y-83971119D02*
X215157143Y-82971119D01*
X215157143Y-82971119D02*
X215538095Y-82971119D01*
X215538095Y-82971119D02*
X215633333Y-83018738D01*
X215633333Y-83018738D02*
X215680952Y-83066357D01*
X215680952Y-83066357D02*
X215728571Y-83161595D01*
X215728571Y-83161595D02*
X215728571Y-83304452D01*
X215728571Y-83304452D02*
X215680952Y-83399690D01*
X215680952Y-83399690D02*
X215633333Y-83447309D01*
X215633333Y-83447309D02*
X215538095Y-83494928D01*
X215538095Y-83494928D02*
X215157143Y-83494928D01*
D10*
X101222493Y-79969819D02*
X101222493Y-80684104D01*
X101222493Y-80684104D02*
X101174874Y-80826961D01*
X101174874Y-80826961D02*
X101079636Y-80922200D01*
X101079636Y-80922200D02*
X100936779Y-80969819D01*
X100936779Y-80969819D02*
X100841541Y-80969819D01*
X102174874Y-80969819D02*
X101698684Y-80969819D01*
X101698684Y-80969819D02*
X101698684Y-79969819D01*
X103079636Y-80874580D02*
X103032017Y-80922200D01*
X103032017Y-80922200D02*
X102889160Y-80969819D01*
X102889160Y-80969819D02*
X102793922Y-80969819D01*
X102793922Y-80969819D02*
X102651065Y-80922200D01*
X102651065Y-80922200D02*
X102555827Y-80826961D01*
X102555827Y-80826961D02*
X102508208Y-80731723D01*
X102508208Y-80731723D02*
X102460589Y-80541247D01*
X102460589Y-80541247D02*
X102460589Y-80398390D01*
X102460589Y-80398390D02*
X102508208Y-80207914D01*
X102508208Y-80207914D02*
X102555827Y-80112676D01*
X102555827Y-80112676D02*
X102651065Y-80017438D01*
X102651065Y-80017438D02*
X102793922Y-79969819D01*
X102793922Y-79969819D02*
X102889160Y-79969819D01*
X102889160Y-79969819D02*
X103032017Y-80017438D01*
X103032017Y-80017438D02*
X103079636Y-80065057D01*
X103793922Y-79969819D02*
X103793922Y-80684104D01*
X103793922Y-80684104D02*
X103746303Y-80826961D01*
X103746303Y-80826961D02*
X103651065Y-80922200D01*
X103651065Y-80922200D02*
X103508208Y-80969819D01*
X103508208Y-80969819D02*
X103412970Y-80969819D01*
X104746303Y-80969819D02*
X104270113Y-80969819D01*
X104270113Y-80969819D02*
X104270113Y-79969819D01*
X105651065Y-80874580D02*
X105603446Y-80922200D01*
X105603446Y-80922200D02*
X105460589Y-80969819D01*
X105460589Y-80969819D02*
X105365351Y-80969819D01*
X105365351Y-80969819D02*
X105222494Y-80922200D01*
X105222494Y-80922200D02*
X105127256Y-80826961D01*
X105127256Y-80826961D02*
X105079637Y-80731723D01*
X105079637Y-80731723D02*
X105032018Y-80541247D01*
X105032018Y-80541247D02*
X105032018Y-80398390D01*
X105032018Y-80398390D02*
X105079637Y-80207914D01*
X105079637Y-80207914D02*
X105127256Y-80112676D01*
X105127256Y-80112676D02*
X105222494Y-80017438D01*
X105222494Y-80017438D02*
X105365351Y-79969819D01*
X105365351Y-79969819D02*
X105460589Y-79969819D01*
X105460589Y-79969819D02*
X105603446Y-80017438D01*
X105603446Y-80017438D02*
X105651065Y-80065057D01*
X106365351Y-79969819D02*
X106365351Y-80684104D01*
X106365351Y-80684104D02*
X106317732Y-80826961D01*
X106317732Y-80826961D02*
X106222494Y-80922200D01*
X106222494Y-80922200D02*
X106079637Y-80969819D01*
X106079637Y-80969819D02*
X105984399Y-80969819D01*
X107317732Y-80969819D02*
X106841542Y-80969819D01*
X106841542Y-80969819D02*
X106841542Y-79969819D01*
X108222494Y-80874580D02*
X108174875Y-80922200D01*
X108174875Y-80922200D02*
X108032018Y-80969819D01*
X108032018Y-80969819D02*
X107936780Y-80969819D01*
X107936780Y-80969819D02*
X107793923Y-80922200D01*
X107793923Y-80922200D02*
X107698685Y-80826961D01*
X107698685Y-80826961D02*
X107651066Y-80731723D01*
X107651066Y-80731723D02*
X107603447Y-80541247D01*
X107603447Y-80541247D02*
X107603447Y-80398390D01*
X107603447Y-80398390D02*
X107651066Y-80207914D01*
X107651066Y-80207914D02*
X107698685Y-80112676D01*
X107698685Y-80112676D02*
X107793923Y-80017438D01*
X107793923Y-80017438D02*
X107936780Y-79969819D01*
X107936780Y-79969819D02*
X108032018Y-79969819D01*
X108032018Y-79969819D02*
X108174875Y-80017438D01*
X108174875Y-80017438D02*
X108222494Y-80065057D01*
X108936780Y-79969819D02*
X108936780Y-80684104D01*
X108936780Y-80684104D02*
X108889161Y-80826961D01*
X108889161Y-80826961D02*
X108793923Y-80922200D01*
X108793923Y-80922200D02*
X108651066Y-80969819D01*
X108651066Y-80969819D02*
X108555828Y-80969819D01*
X109889161Y-80969819D02*
X109412971Y-80969819D01*
X109412971Y-80969819D02*
X109412971Y-79969819D01*
X110793923Y-80874580D02*
X110746304Y-80922200D01*
X110746304Y-80922200D02*
X110603447Y-80969819D01*
X110603447Y-80969819D02*
X110508209Y-80969819D01*
X110508209Y-80969819D02*
X110365352Y-80922200D01*
X110365352Y-80922200D02*
X110270114Y-80826961D01*
X110270114Y-80826961D02*
X110222495Y-80731723D01*
X110222495Y-80731723D02*
X110174876Y-80541247D01*
X110174876Y-80541247D02*
X110174876Y-80398390D01*
X110174876Y-80398390D02*
X110222495Y-80207914D01*
X110222495Y-80207914D02*
X110270114Y-80112676D01*
X110270114Y-80112676D02*
X110365352Y-80017438D01*
X110365352Y-80017438D02*
X110508209Y-79969819D01*
X110508209Y-79969819D02*
X110603447Y-79969819D01*
X110603447Y-79969819D02*
X110746304Y-80017438D01*
X110746304Y-80017438D02*
X110793923Y-80065057D01*
X246736779Y-114288866D02*
X247498684Y-114288866D01*
X247117731Y-114669819D02*
X247117731Y-113907914D01*
X169562969Y-103349342D02*
X170248684Y-103349342D01*
X169905826Y-104549342D02*
X169905826Y-103349342D01*
X170820112Y-103863628D02*
X170705827Y-103806485D01*
X170705827Y-103806485D02*
X170648684Y-103749342D01*
X170648684Y-103749342D02*
X170591541Y-103635057D01*
X170591541Y-103635057D02*
X170591541Y-103577914D01*
X170591541Y-103577914D02*
X170648684Y-103463628D01*
X170648684Y-103463628D02*
X170705827Y-103406485D01*
X170705827Y-103406485D02*
X170820112Y-103349342D01*
X170820112Y-103349342D02*
X171048684Y-103349342D01*
X171048684Y-103349342D02*
X171162970Y-103406485D01*
X171162970Y-103406485D02*
X171220112Y-103463628D01*
X171220112Y-103463628D02*
X171277255Y-103577914D01*
X171277255Y-103577914D02*
X171277255Y-103635057D01*
X171277255Y-103635057D02*
X171220112Y-103749342D01*
X171220112Y-103749342D02*
X171162970Y-103806485D01*
X171162970Y-103806485D02*
X171048684Y-103863628D01*
X171048684Y-103863628D02*
X170820112Y-103863628D01*
X170820112Y-103863628D02*
X170705827Y-103920771D01*
X170705827Y-103920771D02*
X170648684Y-103977914D01*
X170648684Y-103977914D02*
X170591541Y-104092200D01*
X170591541Y-104092200D02*
X170591541Y-104320771D01*
X170591541Y-104320771D02*
X170648684Y-104435057D01*
X170648684Y-104435057D02*
X170705827Y-104492200D01*
X170705827Y-104492200D02*
X170820112Y-104549342D01*
X170820112Y-104549342D02*
X171048684Y-104549342D01*
X171048684Y-104549342D02*
X171162970Y-104492200D01*
X171162970Y-104492200D02*
X171220112Y-104435057D01*
X171220112Y-104435057D02*
X171277255Y-104320771D01*
X171277255Y-104320771D02*
X171277255Y-104092200D01*
X171277255Y-104092200D02*
X171220112Y-103977914D01*
X171220112Y-103977914D02*
X171162970Y-103920771D01*
X171162970Y-103920771D02*
X171048684Y-103863628D01*
X172020112Y-103349342D02*
X172134398Y-103349342D01*
X172134398Y-103349342D02*
X172248684Y-103406485D01*
X172248684Y-103406485D02*
X172305827Y-103463628D01*
X172305827Y-103463628D02*
X172362969Y-103577914D01*
X172362969Y-103577914D02*
X172420112Y-103806485D01*
X172420112Y-103806485D02*
X172420112Y-104092200D01*
X172420112Y-104092200D02*
X172362969Y-104320771D01*
X172362969Y-104320771D02*
X172305827Y-104435057D01*
X172305827Y-104435057D02*
X172248684Y-104492200D01*
X172248684Y-104492200D02*
X172134398Y-104549342D01*
X172134398Y-104549342D02*
X172020112Y-104549342D01*
X172020112Y-104549342D02*
X171905827Y-104492200D01*
X171905827Y-104492200D02*
X171848684Y-104435057D01*
X171848684Y-104435057D02*
X171791541Y-104320771D01*
X171791541Y-104320771D02*
X171734398Y-104092200D01*
X171734398Y-104092200D02*
X171734398Y-103806485D01*
X171734398Y-103806485D02*
X171791541Y-103577914D01*
X171791541Y-103577914D02*
X171848684Y-103463628D01*
X171848684Y-103463628D02*
X171905827Y-103406485D01*
X171905827Y-103406485D02*
X172020112Y-103349342D01*
X172934398Y-104092200D02*
X173848684Y-104092200D01*
X174991540Y-103349342D02*
X174420112Y-103349342D01*
X174420112Y-103349342D02*
X174362969Y-103920771D01*
X174362969Y-103920771D02*
X174420112Y-103863628D01*
X174420112Y-103863628D02*
X174534398Y-103806485D01*
X174534398Y-103806485D02*
X174820112Y-103806485D01*
X174820112Y-103806485D02*
X174934398Y-103863628D01*
X174934398Y-103863628D02*
X174991540Y-103920771D01*
X174991540Y-103920771D02*
X175048683Y-104035057D01*
X175048683Y-104035057D02*
X175048683Y-104320771D01*
X175048683Y-104320771D02*
X174991540Y-104435057D01*
X174991540Y-104435057D02*
X174934398Y-104492200D01*
X174934398Y-104492200D02*
X174820112Y-104549342D01*
X174820112Y-104549342D02*
X174534398Y-104549342D01*
X174534398Y-104549342D02*
X174420112Y-104492200D01*
X174420112Y-104492200D02*
X174362969Y-104435057D01*
X175791540Y-103349342D02*
X175905826Y-103349342D01*
X175905826Y-103349342D02*
X176020112Y-103406485D01*
X176020112Y-103406485D02*
X176077255Y-103463628D01*
X176077255Y-103463628D02*
X176134397Y-103577914D01*
X176134397Y-103577914D02*
X176191540Y-103806485D01*
X176191540Y-103806485D02*
X176191540Y-104092200D01*
X176191540Y-104092200D02*
X176134397Y-104320771D01*
X176134397Y-104320771D02*
X176077255Y-104435057D01*
X176077255Y-104435057D02*
X176020112Y-104492200D01*
X176020112Y-104492200D02*
X175905826Y-104549342D01*
X175905826Y-104549342D02*
X175791540Y-104549342D01*
X175791540Y-104549342D02*
X175677255Y-104492200D01*
X175677255Y-104492200D02*
X175620112Y-104435057D01*
X175620112Y-104435057D02*
X175562969Y-104320771D01*
X175562969Y-104320771D02*
X175505826Y-104092200D01*
X175505826Y-104092200D02*
X175505826Y-103806485D01*
X175505826Y-103806485D02*
X175562969Y-103577914D01*
X175562969Y-103577914D02*
X175620112Y-103463628D01*
X175620112Y-103463628D02*
X175677255Y-103406485D01*
X175677255Y-103406485D02*
X175791540Y-103349342D01*
X176934397Y-103349342D02*
X177048683Y-103349342D01*
X177048683Y-103349342D02*
X177162969Y-103406485D01*
X177162969Y-103406485D02*
X177220112Y-103463628D01*
X177220112Y-103463628D02*
X177277254Y-103577914D01*
X177277254Y-103577914D02*
X177334397Y-103806485D01*
X177334397Y-103806485D02*
X177334397Y-104092200D01*
X177334397Y-104092200D02*
X177277254Y-104320771D01*
X177277254Y-104320771D02*
X177220112Y-104435057D01*
X177220112Y-104435057D02*
X177162969Y-104492200D01*
X177162969Y-104492200D02*
X177048683Y-104549342D01*
X177048683Y-104549342D02*
X176934397Y-104549342D01*
X176934397Y-104549342D02*
X176820112Y-104492200D01*
X176820112Y-104492200D02*
X176762969Y-104435057D01*
X176762969Y-104435057D02*
X176705826Y-104320771D01*
X176705826Y-104320771D02*
X176648683Y-104092200D01*
X176648683Y-104092200D02*
X176648683Y-103806485D01*
X176648683Y-103806485D02*
X176705826Y-103577914D01*
X176705826Y-103577914D02*
X176762969Y-103463628D01*
X176762969Y-103463628D02*
X176820112Y-103406485D01*
X176820112Y-103406485D02*
X176934397Y-103349342D01*
X178077254Y-103349342D02*
X178191540Y-103349342D01*
X178191540Y-103349342D02*
X178305826Y-103406485D01*
X178305826Y-103406485D02*
X178362969Y-103463628D01*
X178362969Y-103463628D02*
X178420111Y-103577914D01*
X178420111Y-103577914D02*
X178477254Y-103806485D01*
X178477254Y-103806485D02*
X178477254Y-104092200D01*
X178477254Y-104092200D02*
X178420111Y-104320771D01*
X178420111Y-104320771D02*
X178362969Y-104435057D01*
X178362969Y-104435057D02*
X178305826Y-104492200D01*
X178305826Y-104492200D02*
X178191540Y-104549342D01*
X178191540Y-104549342D02*
X178077254Y-104549342D01*
X178077254Y-104549342D02*
X177962969Y-104492200D01*
X177962969Y-104492200D02*
X177905826Y-104435057D01*
X177905826Y-104435057D02*
X177848683Y-104320771D01*
X177848683Y-104320771D02*
X177791540Y-104092200D01*
X177791540Y-104092200D02*
X177791540Y-103806485D01*
X177791540Y-103806485D02*
X177848683Y-103577914D01*
X177848683Y-103577914D02*
X177905826Y-103463628D01*
X177905826Y-103463628D02*
X177962969Y-103406485D01*
X177962969Y-103406485D02*
X178077254Y-103349342D01*
X179791540Y-103749342D02*
X180077254Y-104549342D01*
X180077254Y-104549342D02*
X180362969Y-103749342D01*
X181048683Y-103349342D02*
X181162969Y-103349342D01*
X181162969Y-103349342D02*
X181277255Y-103406485D01*
X181277255Y-103406485D02*
X181334398Y-103463628D01*
X181334398Y-103463628D02*
X181391540Y-103577914D01*
X181391540Y-103577914D02*
X181448683Y-103806485D01*
X181448683Y-103806485D02*
X181448683Y-104092200D01*
X181448683Y-104092200D02*
X181391540Y-104320771D01*
X181391540Y-104320771D02*
X181334398Y-104435057D01*
X181334398Y-104435057D02*
X181277255Y-104492200D01*
X181277255Y-104492200D02*
X181162969Y-104549342D01*
X181162969Y-104549342D02*
X181048683Y-104549342D01*
X181048683Y-104549342D02*
X180934398Y-104492200D01*
X180934398Y-104492200D02*
X180877255Y-104435057D01*
X180877255Y-104435057D02*
X180820112Y-104320771D01*
X180820112Y-104320771D02*
X180762969Y-104092200D01*
X180762969Y-104092200D02*
X180762969Y-103806485D01*
X180762969Y-103806485D02*
X180820112Y-103577914D01*
X180820112Y-103577914D02*
X180877255Y-103463628D01*
X180877255Y-103463628D02*
X180934398Y-103406485D01*
X180934398Y-103406485D02*
X181048683Y-103349342D01*
X181962969Y-104435057D02*
X182020112Y-104492200D01*
X182020112Y-104492200D02*
X181962969Y-104549342D01*
X181962969Y-104549342D02*
X181905826Y-104492200D01*
X181905826Y-104492200D02*
X181962969Y-104435057D01*
X181962969Y-104435057D02*
X181962969Y-104549342D01*
X183162969Y-104549342D02*
X182477255Y-104549342D01*
X182820112Y-104549342D02*
X182820112Y-103349342D01*
X182820112Y-103349342D02*
X182705826Y-103520771D01*
X182705826Y-103520771D02*
X182591541Y-103635057D01*
X182591541Y-103635057D02*
X182477255Y-103692200D01*
X184934398Y-105006485D02*
X184877255Y-104949342D01*
X184877255Y-104949342D02*
X184762969Y-104777914D01*
X184762969Y-104777914D02*
X184705827Y-104663628D01*
X184705827Y-104663628D02*
X184648684Y-104492200D01*
X184648684Y-104492200D02*
X184591541Y-104206485D01*
X184591541Y-104206485D02*
X184591541Y-103977914D01*
X184591541Y-103977914D02*
X184648684Y-103692200D01*
X184648684Y-103692200D02*
X184705827Y-103520771D01*
X184705827Y-103520771D02*
X184762969Y-103406485D01*
X184762969Y-103406485D02*
X184877255Y-103235057D01*
X184877255Y-103235057D02*
X184934398Y-103177914D01*
X186077255Y-104549342D02*
X185677255Y-103977914D01*
X185391541Y-104549342D02*
X185391541Y-103349342D01*
X185391541Y-103349342D02*
X185848684Y-103349342D01*
X185848684Y-103349342D02*
X185962969Y-103406485D01*
X185962969Y-103406485D02*
X186020112Y-103463628D01*
X186020112Y-103463628D02*
X186077255Y-103577914D01*
X186077255Y-103577914D02*
X186077255Y-103749342D01*
X186077255Y-103749342D02*
X186020112Y-103863628D01*
X186020112Y-103863628D02*
X185962969Y-103920771D01*
X185962969Y-103920771D02*
X185848684Y-103977914D01*
X185848684Y-103977914D02*
X185391541Y-103977914D01*
X186591541Y-104549342D02*
X186591541Y-103749342D01*
X186591541Y-103349342D02*
X186534398Y-103406485D01*
X186534398Y-103406485D02*
X186591541Y-103463628D01*
X186591541Y-103463628D02*
X186648684Y-103406485D01*
X186648684Y-103406485D02*
X186591541Y-103349342D01*
X186591541Y-103349342D02*
X186591541Y-103463628D01*
X187677256Y-103749342D02*
X187677256Y-104720771D01*
X187677256Y-104720771D02*
X187620113Y-104835057D01*
X187620113Y-104835057D02*
X187562970Y-104892200D01*
X187562970Y-104892200D02*
X187448684Y-104949342D01*
X187448684Y-104949342D02*
X187277256Y-104949342D01*
X187277256Y-104949342D02*
X187162970Y-104892200D01*
X187677256Y-104492200D02*
X187562970Y-104549342D01*
X187562970Y-104549342D02*
X187334398Y-104549342D01*
X187334398Y-104549342D02*
X187220113Y-104492200D01*
X187220113Y-104492200D02*
X187162970Y-104435057D01*
X187162970Y-104435057D02*
X187105827Y-104320771D01*
X187105827Y-104320771D02*
X187105827Y-103977914D01*
X187105827Y-103977914D02*
X187162970Y-103863628D01*
X187162970Y-103863628D02*
X187220113Y-103806485D01*
X187220113Y-103806485D02*
X187334398Y-103749342D01*
X187334398Y-103749342D02*
X187562970Y-103749342D01*
X187562970Y-103749342D02*
X187677256Y-103806485D01*
X188248684Y-104549342D02*
X188248684Y-103349342D01*
X188762970Y-104549342D02*
X188762970Y-103920771D01*
X188762970Y-103920771D02*
X188705827Y-103806485D01*
X188705827Y-103806485D02*
X188591541Y-103749342D01*
X188591541Y-103749342D02*
X188420112Y-103749342D01*
X188420112Y-103749342D02*
X188305827Y-103806485D01*
X188305827Y-103806485D02*
X188248684Y-103863628D01*
X189162969Y-103749342D02*
X189620112Y-103749342D01*
X189334398Y-103349342D02*
X189334398Y-104377914D01*
X189334398Y-104377914D02*
X189391541Y-104492200D01*
X189391541Y-104492200D02*
X189505826Y-104549342D01*
X189505826Y-104549342D02*
X189620112Y-104549342D01*
X189905826Y-105006485D02*
X189962969Y-104949342D01*
X189962969Y-104949342D02*
X190077255Y-104777914D01*
X190077255Y-104777914D02*
X190134398Y-104663628D01*
X190134398Y-104663628D02*
X190191540Y-104492200D01*
X190191540Y-104492200D02*
X190248683Y-104206485D01*
X190248683Y-104206485D02*
X190248683Y-103977914D01*
X190248683Y-103977914D02*
X190191540Y-103692200D01*
X190191540Y-103692200D02*
X190134398Y-103520771D01*
X190134398Y-103520771D02*
X190077255Y-103406485D01*
X190077255Y-103406485D02*
X189962969Y-103235057D01*
X189962969Y-103235057D02*
X189905826Y-103177914D01*
X170420112Y-106481275D02*
X170020112Y-105909847D01*
X169734398Y-106481275D02*
X169734398Y-105281275D01*
X169734398Y-105281275D02*
X170191541Y-105281275D01*
X170191541Y-105281275D02*
X170305826Y-105338418D01*
X170305826Y-105338418D02*
X170362969Y-105395561D01*
X170362969Y-105395561D02*
X170420112Y-105509847D01*
X170420112Y-105509847D02*
X170420112Y-105681275D01*
X170420112Y-105681275D02*
X170362969Y-105795561D01*
X170362969Y-105795561D02*
X170305826Y-105852704D01*
X170305826Y-105852704D02*
X170191541Y-105909847D01*
X170191541Y-105909847D02*
X169734398Y-105909847D01*
X171391541Y-106424133D02*
X171277255Y-106481275D01*
X171277255Y-106481275D02*
X171048684Y-106481275D01*
X171048684Y-106481275D02*
X170934398Y-106424133D01*
X170934398Y-106424133D02*
X170877255Y-106309847D01*
X170877255Y-106309847D02*
X170877255Y-105852704D01*
X170877255Y-105852704D02*
X170934398Y-105738418D01*
X170934398Y-105738418D02*
X171048684Y-105681275D01*
X171048684Y-105681275D02*
X171277255Y-105681275D01*
X171277255Y-105681275D02*
X171391541Y-105738418D01*
X171391541Y-105738418D02*
X171448684Y-105852704D01*
X171448684Y-105852704D02*
X171448684Y-105966990D01*
X171448684Y-105966990D02*
X170877255Y-106081275D01*
X171962969Y-105681275D02*
X171962969Y-106881275D01*
X171962969Y-105738418D02*
X172077255Y-105681275D01*
X172077255Y-105681275D02*
X172305826Y-105681275D01*
X172305826Y-105681275D02*
X172420112Y-105738418D01*
X172420112Y-105738418D02*
X172477255Y-105795561D01*
X172477255Y-105795561D02*
X172534397Y-105909847D01*
X172534397Y-105909847D02*
X172534397Y-106252704D01*
X172534397Y-106252704D02*
X172477255Y-106366990D01*
X172477255Y-106366990D02*
X172420112Y-106424133D01*
X172420112Y-106424133D02*
X172305826Y-106481275D01*
X172305826Y-106481275D02*
X172077255Y-106481275D01*
X172077255Y-106481275D02*
X171962969Y-106424133D01*
X173220111Y-106481275D02*
X173105826Y-106424133D01*
X173105826Y-106424133D02*
X173048683Y-106309847D01*
X173048683Y-106309847D02*
X173048683Y-105281275D01*
X174191540Y-106481275D02*
X174191540Y-105852704D01*
X174191540Y-105852704D02*
X174134397Y-105738418D01*
X174134397Y-105738418D02*
X174020111Y-105681275D01*
X174020111Y-105681275D02*
X173791540Y-105681275D01*
X173791540Y-105681275D02*
X173677254Y-105738418D01*
X174191540Y-106424133D02*
X174077254Y-106481275D01*
X174077254Y-106481275D02*
X173791540Y-106481275D01*
X173791540Y-106481275D02*
X173677254Y-106424133D01*
X173677254Y-106424133D02*
X173620111Y-106309847D01*
X173620111Y-106309847D02*
X173620111Y-106195561D01*
X173620111Y-106195561D02*
X173677254Y-106081275D01*
X173677254Y-106081275D02*
X173791540Y-106024133D01*
X173791540Y-106024133D02*
X174077254Y-106024133D01*
X174077254Y-106024133D02*
X174191540Y-105966990D01*
X175277254Y-106424133D02*
X175162968Y-106481275D01*
X175162968Y-106481275D02*
X174934396Y-106481275D01*
X174934396Y-106481275D02*
X174820111Y-106424133D01*
X174820111Y-106424133D02*
X174762968Y-106366990D01*
X174762968Y-106366990D02*
X174705825Y-106252704D01*
X174705825Y-106252704D02*
X174705825Y-105909847D01*
X174705825Y-105909847D02*
X174762968Y-105795561D01*
X174762968Y-105795561D02*
X174820111Y-105738418D01*
X174820111Y-105738418D02*
X174934396Y-105681275D01*
X174934396Y-105681275D02*
X175162968Y-105681275D01*
X175162968Y-105681275D02*
X175277254Y-105738418D01*
X176248682Y-106424133D02*
X176134396Y-106481275D01*
X176134396Y-106481275D02*
X175905825Y-106481275D01*
X175905825Y-106481275D02*
X175791539Y-106424133D01*
X175791539Y-106424133D02*
X175734396Y-106309847D01*
X175734396Y-106309847D02*
X175734396Y-105852704D01*
X175734396Y-105852704D02*
X175791539Y-105738418D01*
X175791539Y-105738418D02*
X175905825Y-105681275D01*
X175905825Y-105681275D02*
X176134396Y-105681275D01*
X176134396Y-105681275D02*
X176248682Y-105738418D01*
X176248682Y-105738418D02*
X176305825Y-105852704D01*
X176305825Y-105852704D02*
X176305825Y-105966990D01*
X176305825Y-105966990D02*
X175734396Y-106081275D01*
X176820110Y-106481275D02*
X176820110Y-105681275D01*
X176820110Y-105795561D02*
X176877253Y-105738418D01*
X176877253Y-105738418D02*
X176991538Y-105681275D01*
X176991538Y-105681275D02*
X177162967Y-105681275D01*
X177162967Y-105681275D02*
X177277253Y-105738418D01*
X177277253Y-105738418D02*
X177334396Y-105852704D01*
X177334396Y-105852704D02*
X177334396Y-106481275D01*
X177334396Y-105852704D02*
X177391538Y-105738418D01*
X177391538Y-105738418D02*
X177505824Y-105681275D01*
X177505824Y-105681275D02*
X177677253Y-105681275D01*
X177677253Y-105681275D02*
X177791538Y-105738418D01*
X177791538Y-105738418D02*
X177848681Y-105852704D01*
X177848681Y-105852704D02*
X177848681Y-106481275D01*
X178877253Y-106424133D02*
X178762967Y-106481275D01*
X178762967Y-106481275D02*
X178534396Y-106481275D01*
X178534396Y-106481275D02*
X178420110Y-106424133D01*
X178420110Y-106424133D02*
X178362967Y-106309847D01*
X178362967Y-106309847D02*
X178362967Y-105852704D01*
X178362967Y-105852704D02*
X178420110Y-105738418D01*
X178420110Y-105738418D02*
X178534396Y-105681275D01*
X178534396Y-105681275D02*
X178762967Y-105681275D01*
X178762967Y-105681275D02*
X178877253Y-105738418D01*
X178877253Y-105738418D02*
X178934396Y-105852704D01*
X178934396Y-105852704D02*
X178934396Y-105966990D01*
X178934396Y-105966990D02*
X178362967Y-106081275D01*
X179448681Y-105681275D02*
X179448681Y-106481275D01*
X179448681Y-105795561D02*
X179505824Y-105738418D01*
X179505824Y-105738418D02*
X179620109Y-105681275D01*
X179620109Y-105681275D02*
X179791538Y-105681275D01*
X179791538Y-105681275D02*
X179905824Y-105738418D01*
X179905824Y-105738418D02*
X179962967Y-105852704D01*
X179962967Y-105852704D02*
X179962967Y-106481275D01*
X180362966Y-105681275D02*
X180820109Y-105681275D01*
X180534395Y-105281275D02*
X180534395Y-106309847D01*
X180534395Y-106309847D02*
X180591538Y-106424133D01*
X180591538Y-106424133D02*
X180705823Y-106481275D01*
X180705823Y-106481275D02*
X180820109Y-106481275D01*
X182134395Y-106481275D02*
X182134395Y-105281275D01*
X182134395Y-105281275D02*
X182591538Y-105281275D01*
X182591538Y-105281275D02*
X182705823Y-105338418D01*
X182705823Y-105338418D02*
X182762966Y-105395561D01*
X182762966Y-105395561D02*
X182820109Y-105509847D01*
X182820109Y-105509847D02*
X182820109Y-105681275D01*
X182820109Y-105681275D02*
X182762966Y-105795561D01*
X182762966Y-105795561D02*
X182705823Y-105852704D01*
X182705823Y-105852704D02*
X182591538Y-105909847D01*
X182591538Y-105909847D02*
X182134395Y-105909847D01*
X184020109Y-106366990D02*
X183962966Y-106424133D01*
X183962966Y-106424133D02*
X183791538Y-106481275D01*
X183791538Y-106481275D02*
X183677252Y-106481275D01*
X183677252Y-106481275D02*
X183505823Y-106424133D01*
X183505823Y-106424133D02*
X183391538Y-106309847D01*
X183391538Y-106309847D02*
X183334395Y-106195561D01*
X183334395Y-106195561D02*
X183277252Y-105966990D01*
X183277252Y-105966990D02*
X183277252Y-105795561D01*
X183277252Y-105795561D02*
X183334395Y-105566990D01*
X183334395Y-105566990D02*
X183391538Y-105452704D01*
X183391538Y-105452704D02*
X183505823Y-105338418D01*
X183505823Y-105338418D02*
X183677252Y-105281275D01*
X183677252Y-105281275D02*
X183791538Y-105281275D01*
X183791538Y-105281275D02*
X183962966Y-105338418D01*
X183962966Y-105338418D02*
X184020109Y-105395561D01*
X184934395Y-105852704D02*
X185105823Y-105909847D01*
X185105823Y-105909847D02*
X185162966Y-105966990D01*
X185162966Y-105966990D02*
X185220109Y-106081275D01*
X185220109Y-106081275D02*
X185220109Y-106252704D01*
X185220109Y-106252704D02*
X185162966Y-106366990D01*
X185162966Y-106366990D02*
X185105823Y-106424133D01*
X185105823Y-106424133D02*
X184991538Y-106481275D01*
X184991538Y-106481275D02*
X184534395Y-106481275D01*
X184534395Y-106481275D02*
X184534395Y-105281275D01*
X184534395Y-105281275D02*
X184934395Y-105281275D01*
X184934395Y-105281275D02*
X185048681Y-105338418D01*
X185048681Y-105338418D02*
X185105823Y-105395561D01*
X185105823Y-105395561D02*
X185162966Y-105509847D01*
X185162966Y-105509847D02*
X185162966Y-105624133D01*
X185162966Y-105624133D02*
X185105823Y-105738418D01*
X185105823Y-105738418D02*
X185048681Y-105795561D01*
X185048681Y-105795561D02*
X184934395Y-105852704D01*
X184934395Y-105852704D02*
X184534395Y-105852704D01*
X186477252Y-105681275D02*
X186934395Y-105681275D01*
X186648681Y-106481275D02*
X186648681Y-105452704D01*
X186648681Y-105452704D02*
X186705824Y-105338418D01*
X186705824Y-105338418D02*
X186820109Y-105281275D01*
X186820109Y-105281275D02*
X186934395Y-105281275D01*
X187505823Y-106481275D02*
X187391538Y-106424133D01*
X187391538Y-106424133D02*
X187334395Y-106366990D01*
X187334395Y-106366990D02*
X187277252Y-106252704D01*
X187277252Y-106252704D02*
X187277252Y-105909847D01*
X187277252Y-105909847D02*
X187334395Y-105795561D01*
X187334395Y-105795561D02*
X187391538Y-105738418D01*
X187391538Y-105738418D02*
X187505823Y-105681275D01*
X187505823Y-105681275D02*
X187677252Y-105681275D01*
X187677252Y-105681275D02*
X187791538Y-105738418D01*
X187791538Y-105738418D02*
X187848681Y-105795561D01*
X187848681Y-105795561D02*
X187905823Y-105909847D01*
X187905823Y-105909847D02*
X187905823Y-106252704D01*
X187905823Y-106252704D02*
X187848681Y-106366990D01*
X187848681Y-106366990D02*
X187791538Y-106424133D01*
X187791538Y-106424133D02*
X187677252Y-106481275D01*
X187677252Y-106481275D02*
X187505823Y-106481275D01*
X188420109Y-106481275D02*
X188420109Y-105681275D01*
X188420109Y-105909847D02*
X188477252Y-105795561D01*
X188477252Y-105795561D02*
X188534395Y-105738418D01*
X188534395Y-105738418D02*
X188648680Y-105681275D01*
X188648680Y-105681275D02*
X188762966Y-105681275D01*
X189905823Y-105681275D02*
X190362966Y-105681275D01*
X190077252Y-105281275D02*
X190077252Y-106309847D01*
X190077252Y-106309847D02*
X190134395Y-106424133D01*
X190134395Y-106424133D02*
X190248680Y-106481275D01*
X190248680Y-106481275D02*
X190362966Y-106481275D01*
X190762966Y-106481275D02*
X190762966Y-105281275D01*
X191277252Y-106481275D02*
X191277252Y-105852704D01*
X191277252Y-105852704D02*
X191220109Y-105738418D01*
X191220109Y-105738418D02*
X191105823Y-105681275D01*
X191105823Y-105681275D02*
X190934394Y-105681275D01*
X190934394Y-105681275D02*
X190820109Y-105738418D01*
X190820109Y-105738418D02*
X190762966Y-105795561D01*
X192305823Y-106424133D02*
X192191537Y-106481275D01*
X192191537Y-106481275D02*
X191962966Y-106481275D01*
X191962966Y-106481275D02*
X191848680Y-106424133D01*
X191848680Y-106424133D02*
X191791537Y-106309847D01*
X191791537Y-106309847D02*
X191791537Y-105852704D01*
X191791537Y-105852704D02*
X191848680Y-105738418D01*
X191848680Y-105738418D02*
X191962966Y-105681275D01*
X191962966Y-105681275D02*
X192191537Y-105681275D01*
X192191537Y-105681275D02*
X192305823Y-105738418D01*
X192305823Y-105738418D02*
X192362966Y-105852704D01*
X192362966Y-105852704D02*
X192362966Y-105966990D01*
X192362966Y-105966990D02*
X191791537Y-106081275D01*
X194477251Y-106366990D02*
X194420108Y-106424133D01*
X194420108Y-106424133D02*
X194248680Y-106481275D01*
X194248680Y-106481275D02*
X194134394Y-106481275D01*
X194134394Y-106481275D02*
X193962965Y-106424133D01*
X193962965Y-106424133D02*
X193848680Y-106309847D01*
X193848680Y-106309847D02*
X193791537Y-106195561D01*
X193791537Y-106195561D02*
X193734394Y-105966990D01*
X193734394Y-105966990D02*
X193734394Y-105795561D01*
X193734394Y-105795561D02*
X193791537Y-105566990D01*
X193791537Y-105566990D02*
X193848680Y-105452704D01*
X193848680Y-105452704D02*
X193962965Y-105338418D01*
X193962965Y-105338418D02*
X194134394Y-105281275D01*
X194134394Y-105281275D02*
X194248680Y-105281275D01*
X194248680Y-105281275D02*
X194420108Y-105338418D01*
X194420108Y-105338418D02*
X194477251Y-105395561D01*
X194991537Y-106481275D02*
X194991537Y-105281275D01*
X195505823Y-106481275D02*
X195505823Y-105852704D01*
X195505823Y-105852704D02*
X195448680Y-105738418D01*
X195448680Y-105738418D02*
X195334394Y-105681275D01*
X195334394Y-105681275D02*
X195162965Y-105681275D01*
X195162965Y-105681275D02*
X195048680Y-105738418D01*
X195048680Y-105738418D02*
X194991537Y-105795561D01*
X196534394Y-106424133D02*
X196420108Y-106481275D01*
X196420108Y-106481275D02*
X196191537Y-106481275D01*
X196191537Y-106481275D02*
X196077251Y-106424133D01*
X196077251Y-106424133D02*
X196020108Y-106309847D01*
X196020108Y-106309847D02*
X196020108Y-105852704D01*
X196020108Y-105852704D02*
X196077251Y-105738418D01*
X196077251Y-105738418D02*
X196191537Y-105681275D01*
X196191537Y-105681275D02*
X196420108Y-105681275D01*
X196420108Y-105681275D02*
X196534394Y-105738418D01*
X196534394Y-105738418D02*
X196591537Y-105852704D01*
X196591537Y-105852704D02*
X196591537Y-105966990D01*
X196591537Y-105966990D02*
X196020108Y-106081275D01*
X197105822Y-106481275D02*
X197105822Y-105681275D01*
X197105822Y-105909847D02*
X197162965Y-105795561D01*
X197162965Y-105795561D02*
X197220108Y-105738418D01*
X197220108Y-105738418D02*
X197334393Y-105681275D01*
X197334393Y-105681275D02*
X197448679Y-105681275D01*
X197848679Y-106481275D02*
X197848679Y-105681275D01*
X197848679Y-105909847D02*
X197905822Y-105795561D01*
X197905822Y-105795561D02*
X197962965Y-105738418D01*
X197962965Y-105738418D02*
X198077250Y-105681275D01*
X198077250Y-105681275D02*
X198191536Y-105681275D01*
X198477250Y-105681275D02*
X198762964Y-106481275D01*
X199048679Y-105681275D02*
X198762964Y-106481275D01*
X198762964Y-106481275D02*
X198648679Y-106766990D01*
X198648679Y-106766990D02*
X198591536Y-106824133D01*
X198591536Y-106824133D02*
X198477250Y-106881275D01*
X201048679Y-105338418D02*
X200934394Y-105281275D01*
X200934394Y-105281275D02*
X200762965Y-105281275D01*
X200762965Y-105281275D02*
X200591536Y-105338418D01*
X200591536Y-105338418D02*
X200477251Y-105452704D01*
X200477251Y-105452704D02*
X200420108Y-105566990D01*
X200420108Y-105566990D02*
X200362965Y-105795561D01*
X200362965Y-105795561D02*
X200362965Y-105966990D01*
X200362965Y-105966990D02*
X200420108Y-106195561D01*
X200420108Y-106195561D02*
X200477251Y-106309847D01*
X200477251Y-106309847D02*
X200591536Y-106424133D01*
X200591536Y-106424133D02*
X200762965Y-106481275D01*
X200762965Y-106481275D02*
X200877251Y-106481275D01*
X200877251Y-106481275D02*
X201048679Y-106424133D01*
X201048679Y-106424133D02*
X201105822Y-106366990D01*
X201105822Y-106366990D02*
X201105822Y-105966990D01*
X201105822Y-105966990D02*
X200877251Y-105966990D01*
X201791536Y-105795561D02*
X201677251Y-105738418D01*
X201677251Y-105738418D02*
X201620108Y-105681275D01*
X201620108Y-105681275D02*
X201562965Y-105566990D01*
X201562965Y-105566990D02*
X201562965Y-105509847D01*
X201562965Y-105509847D02*
X201620108Y-105395561D01*
X201620108Y-105395561D02*
X201677251Y-105338418D01*
X201677251Y-105338418D02*
X201791536Y-105281275D01*
X201791536Y-105281275D02*
X202020108Y-105281275D01*
X202020108Y-105281275D02*
X202134394Y-105338418D01*
X202134394Y-105338418D02*
X202191536Y-105395561D01*
X202191536Y-105395561D02*
X202248679Y-105509847D01*
X202248679Y-105509847D02*
X202248679Y-105566990D01*
X202248679Y-105566990D02*
X202191536Y-105681275D01*
X202191536Y-105681275D02*
X202134394Y-105738418D01*
X202134394Y-105738418D02*
X202020108Y-105795561D01*
X202020108Y-105795561D02*
X201791536Y-105795561D01*
X201791536Y-105795561D02*
X201677251Y-105852704D01*
X201677251Y-105852704D02*
X201620108Y-105909847D01*
X201620108Y-105909847D02*
X201562965Y-106024133D01*
X201562965Y-106024133D02*
X201562965Y-106252704D01*
X201562965Y-106252704D02*
X201620108Y-106366990D01*
X201620108Y-106366990D02*
X201677251Y-106424133D01*
X201677251Y-106424133D02*
X201791536Y-106481275D01*
X201791536Y-106481275D02*
X202020108Y-106481275D01*
X202020108Y-106481275D02*
X202134394Y-106424133D01*
X202134394Y-106424133D02*
X202191536Y-106366990D01*
X202191536Y-106366990D02*
X202248679Y-106252704D01*
X202248679Y-106252704D02*
X202248679Y-106024133D01*
X202248679Y-106024133D02*
X202191536Y-105909847D01*
X202191536Y-105909847D02*
X202134394Y-105852704D01*
X202134394Y-105852704D02*
X202020108Y-105795561D01*
X202991536Y-105281275D02*
X203105822Y-105281275D01*
X203105822Y-105281275D02*
X203220108Y-105338418D01*
X203220108Y-105338418D02*
X203277251Y-105395561D01*
X203277251Y-105395561D02*
X203334393Y-105509847D01*
X203334393Y-105509847D02*
X203391536Y-105738418D01*
X203391536Y-105738418D02*
X203391536Y-106024133D01*
X203391536Y-106024133D02*
X203334393Y-106252704D01*
X203334393Y-106252704D02*
X203277251Y-106366990D01*
X203277251Y-106366990D02*
X203220108Y-106424133D01*
X203220108Y-106424133D02*
X203105822Y-106481275D01*
X203105822Y-106481275D02*
X202991536Y-106481275D01*
X202991536Y-106481275D02*
X202877251Y-106424133D01*
X202877251Y-106424133D02*
X202820108Y-106366990D01*
X202820108Y-106366990D02*
X202762965Y-106252704D01*
X202762965Y-106252704D02*
X202705822Y-106024133D01*
X202705822Y-106024133D02*
X202705822Y-105738418D01*
X202705822Y-105738418D02*
X202762965Y-105509847D01*
X202762965Y-105509847D02*
X202820108Y-105395561D01*
X202820108Y-105395561D02*
X202877251Y-105338418D01*
X202877251Y-105338418D02*
X202991536Y-105281275D01*
X203905822Y-106024133D02*
X204820108Y-106024133D01*
X205962964Y-105281275D02*
X205391536Y-105281275D01*
X205391536Y-105281275D02*
X205334393Y-105852704D01*
X205334393Y-105852704D02*
X205391536Y-105795561D01*
X205391536Y-105795561D02*
X205505822Y-105738418D01*
X205505822Y-105738418D02*
X205791536Y-105738418D01*
X205791536Y-105738418D02*
X205905822Y-105795561D01*
X205905822Y-105795561D02*
X205962964Y-105852704D01*
X205962964Y-105852704D02*
X206020107Y-105966990D01*
X206020107Y-105966990D02*
X206020107Y-106252704D01*
X206020107Y-106252704D02*
X205962964Y-106366990D01*
X205962964Y-106366990D02*
X205905822Y-106424133D01*
X205905822Y-106424133D02*
X205791536Y-106481275D01*
X205791536Y-106481275D02*
X205505822Y-106481275D01*
X205505822Y-106481275D02*
X205391536Y-106424133D01*
X205391536Y-106424133D02*
X205334393Y-106366990D01*
X206762964Y-105281275D02*
X206877250Y-105281275D01*
X206877250Y-105281275D02*
X206991536Y-105338418D01*
X206991536Y-105338418D02*
X207048679Y-105395561D01*
X207048679Y-105395561D02*
X207105821Y-105509847D01*
X207105821Y-105509847D02*
X207162964Y-105738418D01*
X207162964Y-105738418D02*
X207162964Y-106024133D01*
X207162964Y-106024133D02*
X207105821Y-106252704D01*
X207105821Y-106252704D02*
X207048679Y-106366990D01*
X207048679Y-106366990D02*
X206991536Y-106424133D01*
X206991536Y-106424133D02*
X206877250Y-106481275D01*
X206877250Y-106481275D02*
X206762964Y-106481275D01*
X206762964Y-106481275D02*
X206648679Y-106424133D01*
X206648679Y-106424133D02*
X206591536Y-106366990D01*
X206591536Y-106366990D02*
X206534393Y-106252704D01*
X206534393Y-106252704D02*
X206477250Y-106024133D01*
X206477250Y-106024133D02*
X206477250Y-105738418D01*
X206477250Y-105738418D02*
X206534393Y-105509847D01*
X206534393Y-105509847D02*
X206591536Y-105395561D01*
X206591536Y-105395561D02*
X206648679Y-105338418D01*
X206648679Y-105338418D02*
X206762964Y-105281275D01*
X207905821Y-105281275D02*
X208020107Y-105281275D01*
X208020107Y-105281275D02*
X208134393Y-105338418D01*
X208134393Y-105338418D02*
X208191536Y-105395561D01*
X208191536Y-105395561D02*
X208248678Y-105509847D01*
X208248678Y-105509847D02*
X208305821Y-105738418D01*
X208305821Y-105738418D02*
X208305821Y-106024133D01*
X208305821Y-106024133D02*
X208248678Y-106252704D01*
X208248678Y-106252704D02*
X208191536Y-106366990D01*
X208191536Y-106366990D02*
X208134393Y-106424133D01*
X208134393Y-106424133D02*
X208020107Y-106481275D01*
X208020107Y-106481275D02*
X207905821Y-106481275D01*
X207905821Y-106481275D02*
X207791536Y-106424133D01*
X207791536Y-106424133D02*
X207734393Y-106366990D01*
X207734393Y-106366990D02*
X207677250Y-106252704D01*
X207677250Y-106252704D02*
X207620107Y-106024133D01*
X207620107Y-106024133D02*
X207620107Y-105738418D01*
X207620107Y-105738418D02*
X207677250Y-105509847D01*
X207677250Y-105509847D02*
X207734393Y-105395561D01*
X207734393Y-105395561D02*
X207791536Y-105338418D01*
X207791536Y-105338418D02*
X207905821Y-105281275D01*
X209048678Y-105281275D02*
X209162964Y-105281275D01*
X209162964Y-105281275D02*
X209277250Y-105338418D01*
X209277250Y-105338418D02*
X209334393Y-105395561D01*
X209334393Y-105395561D02*
X209391535Y-105509847D01*
X209391535Y-105509847D02*
X209448678Y-105738418D01*
X209448678Y-105738418D02*
X209448678Y-106024133D01*
X209448678Y-106024133D02*
X209391535Y-106252704D01*
X209391535Y-106252704D02*
X209334393Y-106366990D01*
X209334393Y-106366990D02*
X209277250Y-106424133D01*
X209277250Y-106424133D02*
X209162964Y-106481275D01*
X209162964Y-106481275D02*
X209048678Y-106481275D01*
X209048678Y-106481275D02*
X208934393Y-106424133D01*
X208934393Y-106424133D02*
X208877250Y-106366990D01*
X208877250Y-106366990D02*
X208820107Y-106252704D01*
X208820107Y-106252704D02*
X208762964Y-106024133D01*
X208762964Y-106024133D02*
X208762964Y-105738418D01*
X208762964Y-105738418D02*
X208820107Y-105509847D01*
X208820107Y-105509847D02*
X208877250Y-105395561D01*
X208877250Y-105395561D02*
X208934393Y-105338418D01*
X208934393Y-105338418D02*
X209048678Y-105281275D01*
X170248684Y-107613208D02*
X170248684Y-108584637D01*
X170248684Y-108584637D02*
X170191541Y-108698923D01*
X170191541Y-108698923D02*
X170134398Y-108756066D01*
X170134398Y-108756066D02*
X170020112Y-108813208D01*
X170020112Y-108813208D02*
X169848684Y-108813208D01*
X169848684Y-108813208D02*
X169734398Y-108756066D01*
X170248684Y-108356066D02*
X170134398Y-108413208D01*
X170134398Y-108413208D02*
X169905826Y-108413208D01*
X169905826Y-108413208D02*
X169791541Y-108356066D01*
X169791541Y-108356066D02*
X169734398Y-108298923D01*
X169734398Y-108298923D02*
X169677255Y-108184637D01*
X169677255Y-108184637D02*
X169677255Y-107841780D01*
X169677255Y-107841780D02*
X169734398Y-107727494D01*
X169734398Y-107727494D02*
X169791541Y-107670351D01*
X169791541Y-107670351D02*
X169905826Y-107613208D01*
X169905826Y-107613208D02*
X170134398Y-107613208D01*
X170134398Y-107613208D02*
X170248684Y-107670351D01*
X170820112Y-108413208D02*
X170820112Y-107613208D01*
X170820112Y-107213208D02*
X170762969Y-107270351D01*
X170762969Y-107270351D02*
X170820112Y-107327494D01*
X170820112Y-107327494D02*
X170877255Y-107270351D01*
X170877255Y-107270351D02*
X170820112Y-107213208D01*
X170820112Y-107213208D02*
X170820112Y-107327494D01*
X171220112Y-107613208D02*
X171677255Y-107613208D01*
X171391541Y-107213208D02*
X171391541Y-108241780D01*
X171391541Y-108241780D02*
X171448684Y-108356066D01*
X171448684Y-108356066D02*
X171562969Y-108413208D01*
X171562969Y-108413208D02*
X171677255Y-108413208D01*
X172077255Y-108413208D02*
X172077255Y-107213208D01*
X172591541Y-108413208D02*
X172591541Y-107784637D01*
X172591541Y-107784637D02*
X172534398Y-107670351D01*
X172534398Y-107670351D02*
X172420112Y-107613208D01*
X172420112Y-107613208D02*
X172248683Y-107613208D01*
X172248683Y-107613208D02*
X172134398Y-107670351D01*
X172134398Y-107670351D02*
X172077255Y-107727494D01*
X173677255Y-107613208D02*
X173677255Y-108413208D01*
X173162969Y-107613208D02*
X173162969Y-108241780D01*
X173162969Y-108241780D02*
X173220112Y-108356066D01*
X173220112Y-108356066D02*
X173334397Y-108413208D01*
X173334397Y-108413208D02*
X173505826Y-108413208D01*
X173505826Y-108413208D02*
X173620112Y-108356066D01*
X173620112Y-108356066D02*
X173677255Y-108298923D01*
X174248683Y-108413208D02*
X174248683Y-107213208D01*
X174248683Y-107670351D02*
X174362969Y-107613208D01*
X174362969Y-107613208D02*
X174591540Y-107613208D01*
X174591540Y-107613208D02*
X174705826Y-107670351D01*
X174705826Y-107670351D02*
X174762969Y-107727494D01*
X174762969Y-107727494D02*
X174820111Y-107841780D01*
X174820111Y-107841780D02*
X174820111Y-108184637D01*
X174820111Y-108184637D02*
X174762969Y-108298923D01*
X174762969Y-108298923D02*
X174705826Y-108356066D01*
X174705826Y-108356066D02*
X174591540Y-108413208D01*
X174591540Y-108413208D02*
X174362969Y-108413208D01*
X174362969Y-108413208D02*
X174248683Y-108356066D01*
X175334397Y-108298923D02*
X175391540Y-108356066D01*
X175391540Y-108356066D02*
X175334397Y-108413208D01*
X175334397Y-108413208D02*
X175277254Y-108356066D01*
X175277254Y-108356066D02*
X175334397Y-108298923D01*
X175334397Y-108298923D02*
X175334397Y-108413208D01*
X176420112Y-108356066D02*
X176305826Y-108413208D01*
X176305826Y-108413208D02*
X176077254Y-108413208D01*
X176077254Y-108413208D02*
X175962969Y-108356066D01*
X175962969Y-108356066D02*
X175905826Y-108298923D01*
X175905826Y-108298923D02*
X175848683Y-108184637D01*
X175848683Y-108184637D02*
X175848683Y-107841780D01*
X175848683Y-107841780D02*
X175905826Y-107727494D01*
X175905826Y-107727494D02*
X175962969Y-107670351D01*
X175962969Y-107670351D02*
X176077254Y-107613208D01*
X176077254Y-107613208D02*
X176305826Y-107613208D01*
X176305826Y-107613208D02*
X176420112Y-107670351D01*
X177105825Y-108413208D02*
X176991540Y-108356066D01*
X176991540Y-108356066D02*
X176934397Y-108298923D01*
X176934397Y-108298923D02*
X176877254Y-108184637D01*
X176877254Y-108184637D02*
X176877254Y-107841780D01*
X176877254Y-107841780D02*
X176934397Y-107727494D01*
X176934397Y-107727494D02*
X176991540Y-107670351D01*
X176991540Y-107670351D02*
X177105825Y-107613208D01*
X177105825Y-107613208D02*
X177277254Y-107613208D01*
X177277254Y-107613208D02*
X177391540Y-107670351D01*
X177391540Y-107670351D02*
X177448683Y-107727494D01*
X177448683Y-107727494D02*
X177505825Y-107841780D01*
X177505825Y-107841780D02*
X177505825Y-108184637D01*
X177505825Y-108184637D02*
X177448683Y-108298923D01*
X177448683Y-108298923D02*
X177391540Y-108356066D01*
X177391540Y-108356066D02*
X177277254Y-108413208D01*
X177277254Y-108413208D02*
X177105825Y-108413208D01*
X178020111Y-108413208D02*
X178020111Y-107613208D01*
X178020111Y-107727494D02*
X178077254Y-107670351D01*
X178077254Y-107670351D02*
X178191539Y-107613208D01*
X178191539Y-107613208D02*
X178362968Y-107613208D01*
X178362968Y-107613208D02*
X178477254Y-107670351D01*
X178477254Y-107670351D02*
X178534397Y-107784637D01*
X178534397Y-107784637D02*
X178534397Y-108413208D01*
X178534397Y-107784637D02*
X178591539Y-107670351D01*
X178591539Y-107670351D02*
X178705825Y-107613208D01*
X178705825Y-107613208D02*
X178877254Y-107613208D01*
X178877254Y-107613208D02*
X178991539Y-107670351D01*
X178991539Y-107670351D02*
X179048682Y-107784637D01*
X179048682Y-107784637D02*
X179048682Y-108413208D01*
X180477254Y-107156066D02*
X179448682Y-108698923D01*
X180877254Y-107613208D02*
X180877254Y-108413208D01*
X180877254Y-107727494D02*
X180934397Y-107670351D01*
X180934397Y-107670351D02*
X181048682Y-107613208D01*
X181048682Y-107613208D02*
X181220111Y-107613208D01*
X181220111Y-107613208D02*
X181334397Y-107670351D01*
X181334397Y-107670351D02*
X181391540Y-107784637D01*
X181391540Y-107784637D02*
X181391540Y-108413208D01*
X182420111Y-108356066D02*
X182305825Y-108413208D01*
X182305825Y-108413208D02*
X182077254Y-108413208D01*
X182077254Y-108413208D02*
X181962968Y-108356066D01*
X181962968Y-108356066D02*
X181905825Y-108241780D01*
X181905825Y-108241780D02*
X181905825Y-107784637D01*
X181905825Y-107784637D02*
X181962968Y-107670351D01*
X181962968Y-107670351D02*
X182077254Y-107613208D01*
X182077254Y-107613208D02*
X182305825Y-107613208D01*
X182305825Y-107613208D02*
X182420111Y-107670351D01*
X182420111Y-107670351D02*
X182477254Y-107784637D01*
X182477254Y-107784637D02*
X182477254Y-107898923D01*
X182477254Y-107898923D02*
X181905825Y-108013208D01*
X183505825Y-108413208D02*
X183505825Y-107784637D01*
X183505825Y-107784637D02*
X183448682Y-107670351D01*
X183448682Y-107670351D02*
X183334396Y-107613208D01*
X183334396Y-107613208D02*
X183105825Y-107613208D01*
X183105825Y-107613208D02*
X182991539Y-107670351D01*
X183505825Y-108356066D02*
X183391539Y-108413208D01*
X183391539Y-108413208D02*
X183105825Y-108413208D01*
X183105825Y-108413208D02*
X182991539Y-108356066D01*
X182991539Y-108356066D02*
X182934396Y-108241780D01*
X182934396Y-108241780D02*
X182934396Y-108127494D01*
X182934396Y-108127494D02*
X182991539Y-108013208D01*
X182991539Y-108013208D02*
X183105825Y-107956066D01*
X183105825Y-107956066D02*
X183391539Y-107956066D01*
X183391539Y-107956066D02*
X183505825Y-107898923D01*
X184077253Y-108413208D02*
X184077253Y-107613208D01*
X184077253Y-107841780D02*
X184134396Y-107727494D01*
X184134396Y-107727494D02*
X184191539Y-107670351D01*
X184191539Y-107670351D02*
X184305824Y-107613208D01*
X184305824Y-107613208D02*
X184420110Y-107613208D01*
X185277253Y-108356066D02*
X185162967Y-108413208D01*
X185162967Y-108413208D02*
X184934396Y-108413208D01*
X184934396Y-108413208D02*
X184820110Y-108356066D01*
X184820110Y-108356066D02*
X184762967Y-108241780D01*
X184762967Y-108241780D02*
X184762967Y-107784637D01*
X184762967Y-107784637D02*
X184820110Y-107670351D01*
X184820110Y-107670351D02*
X184934396Y-107613208D01*
X184934396Y-107613208D02*
X185162967Y-107613208D01*
X185162967Y-107613208D02*
X185277253Y-107670351D01*
X185277253Y-107670351D02*
X185334396Y-107784637D01*
X185334396Y-107784637D02*
X185334396Y-107898923D01*
X185334396Y-107898923D02*
X184762967Y-108013208D01*
X185791538Y-108356066D02*
X185905824Y-108413208D01*
X185905824Y-108413208D02*
X186134395Y-108413208D01*
X186134395Y-108413208D02*
X186248681Y-108356066D01*
X186248681Y-108356066D02*
X186305824Y-108241780D01*
X186305824Y-108241780D02*
X186305824Y-108184637D01*
X186305824Y-108184637D02*
X186248681Y-108070351D01*
X186248681Y-108070351D02*
X186134395Y-108013208D01*
X186134395Y-108013208D02*
X185962967Y-108013208D01*
X185962967Y-108013208D02*
X185848681Y-107956066D01*
X185848681Y-107956066D02*
X185791538Y-107841780D01*
X185791538Y-107841780D02*
X185791538Y-107784637D01*
X185791538Y-107784637D02*
X185848681Y-107670351D01*
X185848681Y-107670351D02*
X185962967Y-107613208D01*
X185962967Y-107613208D02*
X186134395Y-107613208D01*
X186134395Y-107613208D02*
X186248681Y-107670351D01*
X186648681Y-107613208D02*
X187105824Y-107613208D01*
X186820110Y-107213208D02*
X186820110Y-108241780D01*
X186820110Y-108241780D02*
X186877253Y-108356066D01*
X186877253Y-108356066D02*
X186991538Y-108413208D01*
X186991538Y-108413208D02*
X187105824Y-108413208D01*
X187962967Y-108356066D02*
X187848681Y-108413208D01*
X187848681Y-108413208D02*
X187620110Y-108413208D01*
X187620110Y-108413208D02*
X187505824Y-108356066D01*
X187505824Y-108356066D02*
X187448681Y-108241780D01*
X187448681Y-108241780D02*
X187448681Y-107784637D01*
X187448681Y-107784637D02*
X187505824Y-107670351D01*
X187505824Y-107670351D02*
X187620110Y-107613208D01*
X187620110Y-107613208D02*
X187848681Y-107613208D01*
X187848681Y-107613208D02*
X187962967Y-107670351D01*
X187962967Y-107670351D02*
X188020110Y-107784637D01*
X188020110Y-107784637D02*
X188020110Y-107898923D01*
X188020110Y-107898923D02*
X187448681Y-108013208D01*
X188420109Y-108413208D02*
X189048681Y-107613208D01*
X188420109Y-107613208D02*
X189048681Y-108413208D01*
X189505824Y-108413208D02*
X189505824Y-107613208D01*
X189505824Y-107213208D02*
X189448681Y-107270351D01*
X189448681Y-107270351D02*
X189505824Y-107327494D01*
X189505824Y-107327494D02*
X189562967Y-107270351D01*
X189562967Y-107270351D02*
X189505824Y-107213208D01*
X189505824Y-107213208D02*
X189505824Y-107327494D01*
X189905824Y-107613208D02*
X190362967Y-107613208D01*
X190077253Y-107213208D02*
X190077253Y-108241780D01*
X190077253Y-108241780D02*
X190134396Y-108356066D01*
X190134396Y-108356066D02*
X190248681Y-108413208D01*
X190248681Y-108413208D02*
X190362967Y-108413208D01*
X191620110Y-107156066D02*
X190591538Y-108698923D01*
X191848681Y-107613208D02*
X192305824Y-107613208D01*
X192020110Y-107213208D02*
X192020110Y-108241780D01*
X192020110Y-108241780D02*
X192077253Y-108356066D01*
X192077253Y-108356066D02*
X192191538Y-108413208D01*
X192191538Y-108413208D02*
X192305824Y-108413208D01*
X192877252Y-107727494D02*
X192762967Y-107670351D01*
X192762967Y-107670351D02*
X192705824Y-107613208D01*
X192705824Y-107613208D02*
X192648681Y-107498923D01*
X192648681Y-107498923D02*
X192648681Y-107441780D01*
X192648681Y-107441780D02*
X192705824Y-107327494D01*
X192705824Y-107327494D02*
X192762967Y-107270351D01*
X192762967Y-107270351D02*
X192877252Y-107213208D01*
X192877252Y-107213208D02*
X193105824Y-107213208D01*
X193105824Y-107213208D02*
X193220110Y-107270351D01*
X193220110Y-107270351D02*
X193277252Y-107327494D01*
X193277252Y-107327494D02*
X193334395Y-107441780D01*
X193334395Y-107441780D02*
X193334395Y-107498923D01*
X193334395Y-107498923D02*
X193277252Y-107613208D01*
X193277252Y-107613208D02*
X193220110Y-107670351D01*
X193220110Y-107670351D02*
X193105824Y-107727494D01*
X193105824Y-107727494D02*
X192877252Y-107727494D01*
X192877252Y-107727494D02*
X192762967Y-107784637D01*
X192762967Y-107784637D02*
X192705824Y-107841780D01*
X192705824Y-107841780D02*
X192648681Y-107956066D01*
X192648681Y-107956066D02*
X192648681Y-108184637D01*
X192648681Y-108184637D02*
X192705824Y-108298923D01*
X192705824Y-108298923D02*
X192762967Y-108356066D01*
X192762967Y-108356066D02*
X192877252Y-108413208D01*
X192877252Y-108413208D02*
X193105824Y-108413208D01*
X193105824Y-108413208D02*
X193220110Y-108356066D01*
X193220110Y-108356066D02*
X193277252Y-108298923D01*
X193277252Y-108298923D02*
X193334395Y-108184637D01*
X193334395Y-108184637D02*
X193334395Y-107956066D01*
X193334395Y-107956066D02*
X193277252Y-107841780D01*
X193277252Y-107841780D02*
X193220110Y-107784637D01*
X193220110Y-107784637D02*
X193105824Y-107727494D01*
X194077252Y-107213208D02*
X194191538Y-107213208D01*
X194191538Y-107213208D02*
X194305824Y-107270351D01*
X194305824Y-107270351D02*
X194362967Y-107327494D01*
X194362967Y-107327494D02*
X194420109Y-107441780D01*
X194420109Y-107441780D02*
X194477252Y-107670351D01*
X194477252Y-107670351D02*
X194477252Y-107956066D01*
X194477252Y-107956066D02*
X194420109Y-108184637D01*
X194420109Y-108184637D02*
X194362967Y-108298923D01*
X194362967Y-108298923D02*
X194305824Y-108356066D01*
X194305824Y-108356066D02*
X194191538Y-108413208D01*
X194191538Y-108413208D02*
X194077252Y-108413208D01*
X194077252Y-108413208D02*
X193962967Y-108356066D01*
X193962967Y-108356066D02*
X193905824Y-108298923D01*
X193905824Y-108298923D02*
X193848681Y-108184637D01*
X193848681Y-108184637D02*
X193791538Y-107956066D01*
X193791538Y-107956066D02*
X193791538Y-107670351D01*
X193791538Y-107670351D02*
X193848681Y-107441780D01*
X193848681Y-107441780D02*
X193905824Y-107327494D01*
X193905824Y-107327494D02*
X193962967Y-107270351D01*
X193962967Y-107270351D02*
X194077252Y-107213208D01*
X194991538Y-107956066D02*
X195905824Y-107956066D01*
X197048680Y-107213208D02*
X196477252Y-107213208D01*
X196477252Y-107213208D02*
X196420109Y-107784637D01*
X196420109Y-107784637D02*
X196477252Y-107727494D01*
X196477252Y-107727494D02*
X196591538Y-107670351D01*
X196591538Y-107670351D02*
X196877252Y-107670351D01*
X196877252Y-107670351D02*
X196991538Y-107727494D01*
X196991538Y-107727494D02*
X197048680Y-107784637D01*
X197048680Y-107784637D02*
X197105823Y-107898923D01*
X197105823Y-107898923D02*
X197105823Y-108184637D01*
X197105823Y-108184637D02*
X197048680Y-108298923D01*
X197048680Y-108298923D02*
X196991538Y-108356066D01*
X196991538Y-108356066D02*
X196877252Y-108413208D01*
X196877252Y-108413208D02*
X196591538Y-108413208D01*
X196591538Y-108413208D02*
X196477252Y-108356066D01*
X196477252Y-108356066D02*
X196420109Y-108298923D01*
X197848680Y-107213208D02*
X197962966Y-107213208D01*
X197962966Y-107213208D02*
X198077252Y-107270351D01*
X198077252Y-107270351D02*
X198134395Y-107327494D01*
X198134395Y-107327494D02*
X198191537Y-107441780D01*
X198191537Y-107441780D02*
X198248680Y-107670351D01*
X198248680Y-107670351D02*
X198248680Y-107956066D01*
X198248680Y-107956066D02*
X198191537Y-108184637D01*
X198191537Y-108184637D02*
X198134395Y-108298923D01*
X198134395Y-108298923D02*
X198077252Y-108356066D01*
X198077252Y-108356066D02*
X197962966Y-108413208D01*
X197962966Y-108413208D02*
X197848680Y-108413208D01*
X197848680Y-108413208D02*
X197734395Y-108356066D01*
X197734395Y-108356066D02*
X197677252Y-108298923D01*
X197677252Y-108298923D02*
X197620109Y-108184637D01*
X197620109Y-108184637D02*
X197562966Y-107956066D01*
X197562966Y-107956066D02*
X197562966Y-107670351D01*
X197562966Y-107670351D02*
X197620109Y-107441780D01*
X197620109Y-107441780D02*
X197677252Y-107327494D01*
X197677252Y-107327494D02*
X197734395Y-107270351D01*
X197734395Y-107270351D02*
X197848680Y-107213208D01*
X198991537Y-107213208D02*
X199105823Y-107213208D01*
X199105823Y-107213208D02*
X199220109Y-107270351D01*
X199220109Y-107270351D02*
X199277252Y-107327494D01*
X199277252Y-107327494D02*
X199334394Y-107441780D01*
X199334394Y-107441780D02*
X199391537Y-107670351D01*
X199391537Y-107670351D02*
X199391537Y-107956066D01*
X199391537Y-107956066D02*
X199334394Y-108184637D01*
X199334394Y-108184637D02*
X199277252Y-108298923D01*
X199277252Y-108298923D02*
X199220109Y-108356066D01*
X199220109Y-108356066D02*
X199105823Y-108413208D01*
X199105823Y-108413208D02*
X198991537Y-108413208D01*
X198991537Y-108413208D02*
X198877252Y-108356066D01*
X198877252Y-108356066D02*
X198820109Y-108298923D01*
X198820109Y-108298923D02*
X198762966Y-108184637D01*
X198762966Y-108184637D02*
X198705823Y-107956066D01*
X198705823Y-107956066D02*
X198705823Y-107670351D01*
X198705823Y-107670351D02*
X198762966Y-107441780D01*
X198762966Y-107441780D02*
X198820109Y-107327494D01*
X198820109Y-107327494D02*
X198877252Y-107270351D01*
X198877252Y-107270351D02*
X198991537Y-107213208D01*
X200134394Y-107213208D02*
X200248680Y-107213208D01*
X200248680Y-107213208D02*
X200362966Y-107270351D01*
X200362966Y-107270351D02*
X200420109Y-107327494D01*
X200420109Y-107327494D02*
X200477251Y-107441780D01*
X200477251Y-107441780D02*
X200534394Y-107670351D01*
X200534394Y-107670351D02*
X200534394Y-107956066D01*
X200534394Y-107956066D02*
X200477251Y-108184637D01*
X200477251Y-108184637D02*
X200420109Y-108298923D01*
X200420109Y-108298923D02*
X200362966Y-108356066D01*
X200362966Y-108356066D02*
X200248680Y-108413208D01*
X200248680Y-108413208D02*
X200134394Y-108413208D01*
X200134394Y-108413208D02*
X200020109Y-108356066D01*
X200020109Y-108356066D02*
X199962966Y-108298923D01*
X199962966Y-108298923D02*
X199905823Y-108184637D01*
X199905823Y-108184637D02*
X199848680Y-107956066D01*
X199848680Y-107956066D02*
X199848680Y-107670351D01*
X199848680Y-107670351D02*
X199905823Y-107441780D01*
X199905823Y-107441780D02*
X199962966Y-107327494D01*
X199962966Y-107327494D02*
X200020109Y-107270351D01*
X200020109Y-107270351D02*
X200134394Y-107213208D01*
D12*
X168450000Y-102400000D02*
X211350000Y-102400000D01*
X211350000Y-109500000D01*
X168450000Y-109500000D01*
X168450000Y-102400000D01*
%LPC*%
D13*
%TO.C,MX24*%
X166370000Y-133350000D03*
D14*
X171450000Y-133350000D03*
D13*
X176530000Y-133350000D03*
%TD*%
%TO.C,MX35*%
X194945000Y-152400000D03*
D14*
X200025000Y-152400000D03*
D13*
X205105000Y-152400000D03*
%TD*%
%TO.C,MX22*%
X161607500Y-209550000D03*
D14*
X166687500Y-209550000D03*
D13*
X171767500Y-209550000D03*
%TD*%
D14*
%TO.C,S3*%
X207168750Y-141605000D03*
X230981250Y-141605000D03*
%TD*%
D13*
%TO.C,MX25*%
X156845000Y-152400000D03*
D14*
X161925000Y-152400000D03*
D13*
X167005000Y-152400000D03*
%TD*%
%TO.C,MX23*%
X175895000Y-95250000D03*
D14*
X180975000Y-95250000D03*
D13*
X186055000Y-95250000D03*
%TD*%
%TO.C,MX55*%
X271145000Y-209550000D03*
D14*
X276225000Y-209550000D03*
D13*
X281305000Y-209550000D03*
%TD*%
%TO.C,MX16*%
X133032500Y-190500000D03*
D14*
X138112500Y-190500000D03*
D13*
X143192500Y-190500000D03*
%TD*%
%TO.C,MX51*%
X271145000Y-95250000D03*
D14*
X276225000Y-95250000D03*
D13*
X281305000Y-95250000D03*
%TD*%
%TO.C,MX37*%
X233045000Y-95250000D03*
D14*
X238125000Y-95250000D03*
D13*
X243205000Y-95250000D03*
%TD*%
D14*
%TO.C,S2*%
X217963750Y-150018750D03*
X217963750Y-173831250D03*
%TD*%
D13*
%TO.C,MX45*%
X252095000Y-95250000D03*
D14*
X257175000Y-95250000D03*
D13*
X262255000Y-95250000D03*
%TD*%
%TO.C,MX1*%
X95250000Y-90170000D03*
D14*
X95250000Y-95250000D03*
D13*
X95250000Y-100330000D03*
%TD*%
%TO.C,MX28*%
X194945000Y-95250000D03*
D14*
X200025000Y-95250000D03*
D13*
X205105000Y-95250000D03*
%TD*%
%TO.C,MX26*%
X161607500Y-171450000D03*
D14*
X166687500Y-171450000D03*
D13*
X171767500Y-171450000D03*
%TD*%
%TO.C,MX34*%
X204470000Y-133350000D03*
D14*
X209550000Y-133350000D03*
D13*
X214630000Y-133350000D03*
%TD*%
%TO.C,MX3*%
X85725000Y-147320000D03*
D14*
X85725000Y-152400000D03*
D13*
X85725000Y-157480000D03*
%TD*%
%TO.C,MX8*%
X109220000Y-133350000D03*
D14*
X114300000Y-133350000D03*
D13*
X119380000Y-133350000D03*
%TD*%
%TO.C,MX2*%
X95250000Y-128270000D03*
D14*
X95250000Y-133350000D03*
D13*
X95250000Y-138430000D03*
%TD*%
%TO.C,MX18*%
X147320000Y-133350000D03*
D14*
X152400000Y-133350000D03*
D13*
X157480000Y-133350000D03*
%TD*%
%TO.C,MX6*%
X113337500Y-210350000D03*
D14*
X118417500Y-210350000D03*
D13*
X123497500Y-210350000D03*
%TD*%
%TO.C,MX44*%
X223520000Y-133350000D03*
D14*
X228600000Y-133350000D03*
D13*
X233680000Y-133350000D03*
%TD*%
%TO.C,MX39*%
X218757500Y-152400000D03*
D14*
X223837500Y-152400000D03*
D13*
X228917500Y-152400000D03*
%TD*%
D15*
%TO.C,S5*%
X90067500Y-213850000D03*
D16*
X97667500Y-208275000D03*
X97667500Y-219425000D03*
D15*
X105267500Y-213850000D03*
X131567500Y-213850000D03*
D16*
X139167500Y-208275000D03*
X139167500Y-219425000D03*
D15*
X146767500Y-213850000D03*
%TD*%
D13*
%TO.C,MX33*%
X199707500Y-209550000D03*
D14*
X204787500Y-209550000D03*
D13*
X209867500Y-209550000D03*
%TD*%
%TO.C,MX21*%
X152082500Y-190500000D03*
D14*
X157162500Y-190500000D03*
D13*
X162242500Y-190500000D03*
%TD*%
%TO.C,MX7*%
X109220000Y-95250000D03*
D14*
X114300000Y-95250000D03*
D13*
X119380000Y-95250000D03*
%TD*%
%TO.C,MX40*%
X211613750Y-171450000D03*
D14*
X216693750Y-171450000D03*
D13*
X221773750Y-171450000D03*
%TD*%
D17*
%TO.C,S4*%
X139167500Y-219435000D03*
D14*
X139167500Y-204195000D03*
D17*
X97667500Y-219435000D03*
D14*
X97667500Y-204195000D03*
%TD*%
D13*
%TO.C,MX13*%
X128270000Y-133350000D03*
D14*
X133350000Y-133350000D03*
D13*
X138430000Y-133350000D03*
%TD*%
%TO.C,MX47*%
X252095000Y-152400000D03*
D14*
X257175000Y-152400000D03*
D13*
X262255000Y-152400000D03*
%TD*%
%TO.C,MX38*%
X213995000Y-133350000D03*
D14*
X219075000Y-133350000D03*
D13*
X224155000Y-133350000D03*
%TD*%
%TO.C,MX29*%
X185420000Y-133350000D03*
D14*
X190500000Y-133350000D03*
D13*
X195580000Y-133350000D03*
%TD*%
%TO.C,MX50*%
X252095000Y-209550000D03*
D14*
X257175000Y-209550000D03*
D13*
X262255000Y-209550000D03*
%TD*%
%TO.C,MX32*%
X197326250Y-190500000D03*
D14*
X202406250Y-190500000D03*
D13*
X207486250Y-190500000D03*
%TD*%
%TO.C,MX17*%
X156845000Y-95250000D03*
D14*
X161925000Y-95250000D03*
D13*
X167005000Y-95250000D03*
%TD*%
D14*
%TO.C,S1*%
X228600000Y-163195000D03*
X204787500Y-163195000D03*
%TD*%
D13*
%TO.C,MX30*%
X175895000Y-152400000D03*
D14*
X180975000Y-152400000D03*
D13*
X186055000Y-152400000D03*
%TD*%
%TO.C,MX27*%
X171132500Y-190500000D03*
D14*
X176212500Y-190500000D03*
D13*
X181292500Y-190500000D03*
%TD*%
%TO.C,MX49*%
X252095000Y-190500000D03*
D14*
X257175000Y-190500000D03*
D13*
X262255000Y-190500000D03*
%TD*%
%TO.C,MX12*%
X137795000Y-95250000D03*
D14*
X142875000Y-95250000D03*
D13*
X147955000Y-95250000D03*
%TD*%
%TO.C,MX48*%
X252095000Y-171450000D03*
D14*
X257175000Y-171450000D03*
D13*
X262255000Y-171450000D03*
%TD*%
%TO.C,MX43*%
X221138750Y-171450000D03*
D14*
X226218750Y-171450000D03*
D13*
X231298750Y-171450000D03*
%TD*%
%TO.C,MX31*%
X180657500Y-171450000D03*
D14*
X185737500Y-171450000D03*
D13*
X190817500Y-171450000D03*
%TD*%
%TO.C,MX42*%
X221138750Y-161925000D03*
D14*
X226218750Y-161925000D03*
D13*
X231298750Y-161925000D03*
%TD*%
%TO.C,MX15*%
X123507500Y-171450000D03*
D14*
X128587500Y-171450000D03*
D13*
X133667500Y-171450000D03*
%TD*%
%TO.C,MX41*%
X233045000Y-209550000D03*
D14*
X238125000Y-209550000D03*
D13*
X243205000Y-209550000D03*
%TD*%
%TO.C,MX36*%
X199707500Y-171450000D03*
D14*
X204787500Y-171450000D03*
D13*
X209867500Y-171450000D03*
%TD*%
%TO.C,MX54*%
X271145000Y-171450000D03*
D14*
X276225000Y-171450000D03*
D13*
X281305000Y-171450000D03*
%TD*%
%TO.C,MX46*%
X252095000Y-133350000D03*
D14*
X257175000Y-133350000D03*
D13*
X262255000Y-133350000D03*
%TD*%
%TO.C,MX20*%
X142557500Y-171450000D03*
D14*
X147637500Y-171450000D03*
D13*
X152717500Y-171450000D03*
%TD*%
%TO.C,MX19*%
X137795000Y-152400000D03*
D14*
X142875000Y-152400000D03*
D13*
X147955000Y-152400000D03*
%TD*%
%TO.C,MX10*%
X104457500Y-171450000D03*
D14*
X109537500Y-171450000D03*
D13*
X114617500Y-171450000D03*
%TD*%
%TO.C,MX14*%
X118745000Y-152400000D03*
D14*
X123825000Y-152400000D03*
D13*
X128905000Y-152400000D03*
%TD*%
%TO.C,MX11*%
X113982500Y-190500000D03*
D14*
X119062500Y-190500000D03*
D13*
X124142500Y-190500000D03*
%TD*%
%TO.C,MX53*%
X271145000Y-152400000D03*
D14*
X276225000Y-152400000D03*
D13*
X281305000Y-152400000D03*
%TD*%
%TO.C,MX4*%
X90487500Y-166370000D03*
D14*
X90487500Y-171450000D03*
D13*
X90487500Y-176530000D03*
%TD*%
%TO.C,MX5*%
X100012500Y-185420000D03*
D14*
X100012500Y-190500000D03*
D13*
X100012500Y-195580000D03*
%TD*%
%TO.C,MX52*%
X271145000Y-133350000D03*
D14*
X276225000Y-133350000D03*
D13*
X281305000Y-133350000D03*
%TD*%
%TO.C,MX9*%
X99695000Y-152400000D03*
D14*
X104775000Y-152400000D03*
D13*
X109855000Y-152400000D03*
%TD*%
D16*
%TO.C,R13*%
X260826250Y-109000000D03*
D18*
X270986250Y-109000000D03*
%TD*%
D19*
%TO.C,J2*%
X204524600Y-77380000D03*
X211524500Y-77380000D03*
D20*
X209124500Y-79780000D03*
X206124500Y-79780000D03*
X214124500Y-74980000D03*
X213124500Y-79780000D03*
%TD*%
D21*
%TO.C,LED1*%
X233050000Y-114300000D03*
D22*
X230510000Y-114300000D03*
%TD*%
D23*
%TO.C,J1*%
X123800000Y-118820000D03*
D24*
X123800000Y-121360000D03*
X123800000Y-123900000D03*
X123800000Y-126440000D03*
X123800000Y-128980000D03*
%TD*%
D25*
%TO.C,TP1*%
X266300000Y-87200000D03*
%TD*%
%TO.C,J5*%
X248850000Y-65859500D03*
X257150000Y-65859500D03*
D26*
X247450000Y-62759600D03*
D27*
X247450000Y-66659600D03*
D26*
X258550000Y-62759600D03*
D27*
X258550000Y-66659600D03*
%TD*%
D23*
%TO.C,BOOT1*%
X161925000Y-129987500D03*
D24*
X161925000Y-132527500D03*
%TD*%
D16*
%TO.C,R11*%
X241952500Y-109000000D03*
D18*
X252112500Y-109000000D03*
%TD*%
D16*
%TO.C,R9*%
X222920000Y-109000000D03*
D18*
X233080000Y-109000000D03*
%TD*%
D21*
%TO.C,LED3*%
X271150000Y-114300000D03*
D22*
X268610000Y-114300000D03*
%TD*%
D25*
%TO.C,TP2*%
X264100000Y-87200000D03*
%TD*%
D21*
%TO.C,LED2*%
X252100000Y-114300000D03*
D22*
X249560000Y-114300000D03*
%TD*%
%LPD*%
M02*
