M48
; DRILL file {KiCad 8.0.2} date 2024-11-08T19:37:49-0800
; FORMAT={-:-/ absolute / inch / decimal}
; #@! TF.CreationDate,2024-11-08T19:37:49-08:00
; #@! TF.GenerationSoftware,Kicad,Pcbnew,8.0.2
; #@! TF.FileFunction,NonPlated,1,2,NPTH
FMAT,2
INCH
; #@! TA.AperFunction,NonPlated,NPTH,ComponentDrill
T1C0.0394
; #@! TA.AperFunction,NonPlated,NPTH,ComponentDrill
T2C0.0472
; #@! TA.AperFunction,NonPlated,NPTH,ComponentDrill
T3C0.0630
; #@! TA.AperFunction,NonPlated,NPTH,ComponentDrill
T4C0.0689
; #@! TA.AperFunction,NonPlated,NPTH,ComponentDrill
T5C0.1142
; #@! TA.AperFunction,NonPlated,NPTH,ComponentDrill
T6C0.1200
; #@! TA.AperFunction,NonPlated,NPTH,ComponentDrill
T7C0.1570
%
G90
G05
T1
X9.7972Y-2.5929
X10.124Y-2.5929
T2
X8.0521Y-3.0465
X8.3277Y-3.0465
T3
X3.8452Y-8.1998
X3.8452Y-8.6388
X5.479Y-8.1998
X5.479Y-8.6388
T4
X3.375Y-5.8
X3.375Y-6.2
X3.5625Y-6.55
X3.5625Y-6.95
X3.75Y-3.55
X3.75Y-3.95
X3.75Y-5.05
X3.75Y-5.45
X3.925Y-6.0
X3.9375Y-7.3
X3.9375Y-7.7
X4.1125Y-6.75
X4.3Y-3.75
X4.3Y-5.25
X4.325Y-6.0
X4.4621Y-8.2815
X4.4875Y-7.5
X4.5125Y-6.75
X4.675Y-6.0
X4.7Y-3.75
X4.7Y-5.25
X4.8621Y-8.2815
X4.8625Y-6.75
X4.8875Y-7.5
X5.05Y-5.25
X5.075Y-6.0
X5.2375Y-7.5
X5.2625Y-6.75
X5.425Y-3.75
X5.425Y-6.0
X5.45Y-5.25
X5.6125Y-6.75
X5.6375Y-7.5
X5.8Y-5.25
X5.825Y-3.75
X5.825Y-6.0
X5.9875Y-7.5
X6.0125Y-6.75
X6.175Y-3.75
X6.175Y-6.0
X6.2Y-5.25
X6.3625Y-6.75
X6.3625Y-8.25
X6.3875Y-7.5
X6.55Y-5.25
X6.575Y-3.75
X6.575Y-6.0
X6.7375Y-7.5
X6.7625Y-6.75
X6.7625Y-8.25
X6.925Y-3.75
X6.925Y-6.0
X6.95Y-5.25
X7.1125Y-6.75
X7.1375Y-7.5
X7.3Y-5.25
X7.325Y-3.75
X7.325Y-6.0
X7.5125Y-6.75
X7.675Y-3.75
X7.675Y-6.0
X7.7Y-5.25
X7.7687Y-7.5
X7.8625Y-6.75
X7.8625Y-8.25
X8.05Y-5.25
X8.075Y-3.75
X8.075Y-6.0
X8.1687Y-7.5
X8.2625Y-6.75
X8.2625Y-8.25
X8.3312Y-6.75
X8.425Y-5.25
X8.45Y-5.25
X8.6125Y-6.0
X8.7062Y-6.375
X8.7062Y-6.75
X8.7312Y-6.75
X8.8Y-5.25
X8.825Y-5.25
X9.0125Y-6.0
X9.1062Y-6.375
X9.1062Y-6.75
X9.175Y-3.75
X9.175Y-8.25
X9.2Y-5.25
X9.575Y-3.75
X9.575Y-8.25
X9.925Y-3.75
X9.925Y-5.25
X9.925Y-6.0
X9.925Y-6.75
X9.925Y-7.5
X9.925Y-8.25
X10.325Y-3.75
X10.325Y-5.25
X10.325Y-6.0
X10.325Y-6.75
X10.325Y-7.5
X10.325Y-8.25
X10.675Y-3.75
X10.675Y-5.25
X10.675Y-6.0
X10.675Y-6.75
X10.675Y-8.25
X11.075Y-3.75
X11.075Y-5.25
X11.075Y-6.0
X11.075Y-6.75
X11.075Y-8.25
T5
X3.546Y-8.4193
X4.1444Y-8.4193
X5.1798Y-8.4193
X5.7782Y-8.4193
T6
X3.8452Y-8.6392
X5.479Y-8.6392
T7
X3.375Y-6.0
X3.5625Y-6.75
X3.75Y-3.75
X3.75Y-5.25
X3.8452Y-8.0392
X3.9375Y-7.5
X4.125Y-6.0
X4.3125Y-6.75
X4.5Y-3.75
X4.5Y-5.25
X4.6621Y-8.2815
X4.6875Y-7.5
X4.875Y-6.0
X5.0625Y-6.75
X5.25Y-5.25
X5.4375Y-7.5
X5.479Y-8.0392
X5.625Y-3.75
X5.625Y-6.0
X5.8125Y-6.75
X6.0Y-5.25
X6.1875Y-7.5
X6.375Y-3.75
X6.375Y-6.0
X6.5625Y-6.75
X6.5625Y-8.25
X6.75Y-5.25
X6.9375Y-7.5
X7.125Y-3.75
X7.125Y-6.0
X7.3125Y-6.75
X7.5Y-5.25
X7.875Y-3.75
X7.875Y-6.0
X7.9688Y-7.5
X8.0625Y-6.425
X8.0625Y-6.75
X8.0625Y-8.25
X8.1562Y-5.575
X8.25Y-5.25
X8.5312Y-6.75
X8.5812Y-5.9062
X8.5812Y-6.8438
X8.625Y-5.25
X8.8125Y-6.0
X8.9062Y-6.375
X8.9062Y-6.75
X9.0Y-5.25
X9.0Y-6.425
X9.0938Y-5.575
X9.375Y-3.75
X9.375Y-8.25
X10.125Y-3.75
X10.125Y-5.25
X10.125Y-6.0
X10.125Y-6.75
X10.125Y-7.5
X10.125Y-8.25
X10.875Y-3.75
X10.875Y-5.25
X10.875Y-6.0
X10.875Y-6.75
X10.875Y-8.25
M30
