%TF.GenerationSoftware,KiCad,Pcbnew,8.0.2*%
%TF.CreationDate,2024-11-08T19:37:49-08:00*%
%TF.ProjectId,gh80-5000-right,67683830-2d35-4303-9030-2d7269676874,rev?*%
%TF.SameCoordinates,Original*%
%TF.FileFunction,Profile,NP*%
%FSLAX46Y46*%
G04 Gerber Fmt 4.6, Leading zero omitted, Abs format (unit mm)*
G04 Created by KiCad (PCBNEW 8.0.2) date 2024-11-08 19:37:49*
%MOMM*%
%LPD*%
G01*
G04 APERTURE LIST*
%TA.AperFunction,Profile*%
%ADD10C,0.200000*%
%TD*%
G04 APERTURE END LIST*
D10*
X135650000Y-81580000D02*
X135650000Y-79822764D01*
X87512500Y-204420009D02*
X87512500Y-217190000D01*
X92612500Y-202170009D02*
G75*
G02*
X91612512Y-203170000I-1000000J9D01*
G01*
X87750000Y-89190009D02*
X87750000Y-144800009D01*
X241300000Y-77580009D02*
G75*
G02*
X240300012Y-78580000I-1000000J9D01*
G01*
X214775012Y-73580000D02*
G75*
G02*
X216024979Y-74837254I-12J-1250000D01*
G01*
X248500000Y-66060000D02*
X257500000Y-66060000D01*
X84237512Y-178500000D02*
X91612512Y-178500000D01*
X134400012Y-78580000D02*
G75*
G02*
X135649979Y-79822764I-12J-1250000D01*
G01*
X280025012Y-116940018D02*
X280025012Y-116940000D01*
X87512500Y-204420009D02*
G75*
G02*
X88762512Y-203170000I1250000J9D01*
G01*
X101050012Y-105340000D02*
X105450012Y-105340000D01*
X79475012Y-159240000D02*
G75*
G02*
X78225000Y-157990000I-12J1250000D01*
G01*
X280025012Y-116940000D02*
X281075012Y-116940000D01*
X287400012Y-221790000D02*
X89912500Y-221790000D01*
X87750000Y-144800009D02*
G75*
G02*
X86750012Y-145800000I-1000000J9D01*
G01*
X202025000Y-74830009D02*
X202025000Y-81580009D01*
X246300000Y-60880009D02*
X246300000Y-63880009D01*
X247300012Y-59880000D02*
X248500000Y-59880000D01*
X259700000Y-60886333D02*
X259700000Y-77580000D01*
X97650012Y-87940000D02*
X89000012Y-87940000D01*
X81987512Y-159240000D02*
G75*
G02*
X82987479Y-160246489I-12J-1000000D01*
G01*
X257500000Y-59880000D02*
X258700012Y-59880000D01*
X113775012Y-116940018D02*
X113775012Y-116940000D01*
X113775012Y-122090000D02*
G75*
G02*
X113775012Y-116940000I-12J2575000D01*
G01*
X106450000Y-118340009D02*
G75*
G02*
X105450012Y-119340000I-1000000J9D01*
G01*
X79475012Y-159240000D02*
X81987512Y-159240000D01*
X260700012Y-78580000D02*
G75*
G02*
X259700000Y-77580000I-12J1000000D01*
G01*
X86750012Y-145800000D02*
X79475012Y-145800000D01*
X257500000Y-66060000D02*
X257500000Y-59880000D01*
X202025000Y-74830009D02*
G75*
G02*
X203275012Y-73580000I1250000J9D01*
G01*
X101050012Y-119340000D02*
G75*
G02*
X100050000Y-118340000I-12J1000000D01*
G01*
X84237512Y-178500000D02*
G75*
G02*
X82987500Y-177250000I-12J1250000D01*
G01*
X246300000Y-60880009D02*
G75*
G02*
X247300012Y-59880000I1000000J9D01*
G01*
X87512500Y-217190000D02*
X89912500Y-221790000D01*
X100050000Y-106340009D02*
G75*
G02*
X101050012Y-105340000I1000000J9D01*
G01*
X134400012Y-78580000D02*
X99900012Y-78580000D01*
X98650000Y-86940009D02*
G75*
G02*
X97650012Y-87940000I-1000000J9D01*
G01*
X100050000Y-118340000D02*
X100050000Y-106340009D01*
X106450000Y-106346489D02*
X106450000Y-118340009D01*
X201025012Y-82580000D02*
X136650012Y-82580000D01*
X248500000Y-59880000D02*
X248500000Y-66060000D01*
X105450012Y-105340000D02*
G75*
G02*
X106449979Y-106346489I-12J-1000000D01*
G01*
X216025000Y-74837254D02*
X216025000Y-77580000D01*
X206050000Y-119515000D02*
G75*
G02*
X200900000Y-119515000I-2575000J0D01*
G01*
X200900000Y-119515000D02*
G75*
G02*
X206050000Y-119515000I2575000J0D01*
G01*
X288650000Y-79837254D02*
X288650000Y-220540009D01*
X258700012Y-59880000D02*
G75*
G02*
X259699980Y-60886333I-12J-1000000D01*
G01*
X82987500Y-160246489D02*
X82987500Y-177250000D01*
X113775012Y-116940000D02*
X114825012Y-116940000D01*
X92612500Y-179506489D02*
X92612500Y-202170009D01*
X287400012Y-78580000D02*
X260700012Y-78580000D01*
X105450012Y-119340000D02*
X101050012Y-119340000D01*
X246300000Y-63880009D02*
G75*
G02*
X245300012Y-64880000I-1000000J9D01*
G01*
X91612512Y-203170000D02*
X88762512Y-203170000D01*
X98650000Y-79830009D02*
G75*
G02*
X99900012Y-78580000I1250000J9D01*
G01*
X281075012Y-116940000D02*
G75*
G02*
X281065656Y-122089983I-12J-2575000D01*
G01*
X203275012Y-73580000D02*
X214775012Y-73580000D01*
X114825012Y-116940000D02*
G75*
G02*
X114815656Y-122089983I-12J-2575000D01*
G01*
X78225000Y-147050009D02*
G75*
G02*
X79475012Y-145800000I1250000J9D01*
G01*
X288650000Y-220540009D02*
G75*
G02*
X287400012Y-221790000I-1250000J9D01*
G01*
X240300012Y-78580000D02*
X217025012Y-78580000D01*
X217025012Y-78580000D02*
G75*
G02*
X216025000Y-77580000I-12J1000000D01*
G01*
X280025012Y-122090000D02*
G75*
G02*
X280025012Y-116940000I-12J2575000D01*
G01*
X136650012Y-82580000D02*
G75*
G02*
X135650000Y-81580000I-12J1000000D01*
G01*
X87750000Y-89190009D02*
G75*
G02*
X89000012Y-87940000I1250000J9D01*
G01*
X91612512Y-178500000D02*
G75*
G02*
X92612479Y-179506489I-12J-1000000D01*
G01*
X241300000Y-66130009D02*
X241300000Y-77580009D01*
X78225000Y-147050009D02*
X78225000Y-157990000D01*
X114815656Y-122090000D02*
X113775012Y-122090000D01*
X245300012Y-64880000D02*
X242550012Y-64880000D01*
X98650000Y-79830009D02*
X98650000Y-86940009D01*
X241300000Y-66130009D02*
G75*
G02*
X242550012Y-64880000I1250000J9D01*
G01*
X281065656Y-122090000D02*
X280025012Y-122090000D01*
X287400012Y-78580000D02*
G75*
G02*
X288649979Y-79837254I-12J-1250000D01*
G01*
X202025000Y-81580009D02*
G75*
G02*
X201025012Y-82580000I-1000000J9D01*
G01*
M02*
