%TF.GenerationSoftware,KiCad,Pcbnew,8.0.2*%
%TF.CreationDate,2024-11-08T19:37:49-08:00*%
%TF.ProjectId,gh80-5000-right,67683830-2d35-4303-9030-2d7269676874,rev?*%
%TF.SameCoordinates,Original*%
%TF.FileFunction,Other,Comment*%
%FSLAX46Y46*%
G04 Gerber Fmt 4.6, Leading zero omitted, Abs format (unit mm)*
G04 Created by KiCad (PCBNEW 8.0.2) date 2024-11-08 19:37:49*
%MOMM*%
%LPD*%
G01*
G04 APERTURE LIST*
%ADD10C,0.150000*%
G04 APERTURE END LIST*
D10*
X216289285Y-141932819D02*
X216289285Y-140932819D01*
X216289285Y-140932819D02*
X216622618Y-141647104D01*
X216622618Y-141647104D02*
X216955951Y-140932819D01*
X216955951Y-140932819D02*
X216955951Y-141932819D01*
X217336904Y-140932819D02*
X218003570Y-141932819D01*
X218003570Y-140932819D02*
X217336904Y-141932819D01*
X218146428Y-142028057D02*
X218908332Y-142028057D01*
X219098809Y-141885200D02*
X219194047Y-141932819D01*
X219194047Y-141932819D02*
X219384523Y-141932819D01*
X219384523Y-141932819D02*
X219479761Y-141885200D01*
X219479761Y-141885200D02*
X219527380Y-141789961D01*
X219527380Y-141789961D02*
X219527380Y-141742342D01*
X219527380Y-141742342D02*
X219479761Y-141647104D01*
X219479761Y-141647104D02*
X219384523Y-141599485D01*
X219384523Y-141599485D02*
X219241666Y-141599485D01*
X219241666Y-141599485D02*
X219146428Y-141551866D01*
X219146428Y-141551866D02*
X219098809Y-141456628D01*
X219098809Y-141456628D02*
X219098809Y-141409009D01*
X219098809Y-141409009D02*
X219146428Y-141313771D01*
X219146428Y-141313771D02*
X219241666Y-141266152D01*
X219241666Y-141266152D02*
X219384523Y-141266152D01*
X219384523Y-141266152D02*
X219479761Y-141313771D01*
X219813095Y-141266152D02*
X220194047Y-141266152D01*
X219955952Y-140932819D02*
X219955952Y-141789961D01*
X219955952Y-141789961D02*
X220003571Y-141885200D01*
X220003571Y-141885200D02*
X220098809Y-141932819D01*
X220098809Y-141932819D02*
X220194047Y-141932819D01*
X220955952Y-141932819D02*
X220955952Y-141409009D01*
X220955952Y-141409009D02*
X220908333Y-141313771D01*
X220908333Y-141313771D02*
X220813095Y-141266152D01*
X220813095Y-141266152D02*
X220622619Y-141266152D01*
X220622619Y-141266152D02*
X220527381Y-141313771D01*
X220955952Y-141885200D02*
X220860714Y-141932819D01*
X220860714Y-141932819D02*
X220622619Y-141932819D01*
X220622619Y-141932819D02*
X220527381Y-141885200D01*
X220527381Y-141885200D02*
X220479762Y-141789961D01*
X220479762Y-141789961D02*
X220479762Y-141694723D01*
X220479762Y-141694723D02*
X220527381Y-141599485D01*
X220527381Y-141599485D02*
X220622619Y-141551866D01*
X220622619Y-141551866D02*
X220860714Y-141551866D01*
X220860714Y-141551866D02*
X220955952Y-141504247D01*
X221432143Y-141932819D02*
X221432143Y-140932819D01*
X221432143Y-141313771D02*
X221527381Y-141266152D01*
X221527381Y-141266152D02*
X221717857Y-141266152D01*
X221717857Y-141266152D02*
X221813095Y-141313771D01*
X221813095Y-141313771D02*
X221860714Y-141361390D01*
X221860714Y-141361390D02*
X221908333Y-141456628D01*
X221908333Y-141456628D02*
X221908333Y-141742342D01*
X221908333Y-141742342D02*
X221860714Y-141837580D01*
X221860714Y-141837580D02*
X221813095Y-141885200D01*
X221813095Y-141885200D02*
X221717857Y-141932819D01*
X221717857Y-141932819D02*
X221527381Y-141932819D01*
X221527381Y-141932819D02*
X221432143Y-141885200D01*
X218545569Y-164710714D02*
X217545569Y-164710714D01*
X217545569Y-164710714D02*
X218259854Y-164377381D01*
X218259854Y-164377381D02*
X217545569Y-164044048D01*
X217545569Y-164044048D02*
X218545569Y-164044048D01*
X217545569Y-163663095D02*
X218545569Y-162996429D01*
X217545569Y-162996429D02*
X218545569Y-163663095D01*
X218640807Y-162853572D02*
X218640807Y-162091667D01*
X218497950Y-161901190D02*
X218545569Y-161805952D01*
X218545569Y-161805952D02*
X218545569Y-161615476D01*
X218545569Y-161615476D02*
X218497950Y-161520238D01*
X218497950Y-161520238D02*
X218402711Y-161472619D01*
X218402711Y-161472619D02*
X218355092Y-161472619D01*
X218355092Y-161472619D02*
X218259854Y-161520238D01*
X218259854Y-161520238D02*
X218212235Y-161615476D01*
X218212235Y-161615476D02*
X218212235Y-161758333D01*
X218212235Y-161758333D02*
X218164616Y-161853571D01*
X218164616Y-161853571D02*
X218069378Y-161901190D01*
X218069378Y-161901190D02*
X218021759Y-161901190D01*
X218021759Y-161901190D02*
X217926521Y-161853571D01*
X217926521Y-161853571D02*
X217878902Y-161758333D01*
X217878902Y-161758333D02*
X217878902Y-161615476D01*
X217878902Y-161615476D02*
X217926521Y-161520238D01*
X217878902Y-161186904D02*
X217878902Y-160805952D01*
X217545569Y-161044047D02*
X218402711Y-161044047D01*
X218402711Y-161044047D02*
X218497950Y-160996428D01*
X218497950Y-160996428D02*
X218545569Y-160901190D01*
X218545569Y-160901190D02*
X218545569Y-160805952D01*
X218545569Y-160044047D02*
X218021759Y-160044047D01*
X218021759Y-160044047D02*
X217926521Y-160091666D01*
X217926521Y-160091666D02*
X217878902Y-160186904D01*
X217878902Y-160186904D02*
X217878902Y-160377380D01*
X217878902Y-160377380D02*
X217926521Y-160472618D01*
X218497950Y-160044047D02*
X218545569Y-160139285D01*
X218545569Y-160139285D02*
X218545569Y-160377380D01*
X218545569Y-160377380D02*
X218497950Y-160472618D01*
X218497950Y-160472618D02*
X218402711Y-160520237D01*
X218402711Y-160520237D02*
X218307473Y-160520237D01*
X218307473Y-160520237D02*
X218212235Y-160472618D01*
X218212235Y-160472618D02*
X218164616Y-160377380D01*
X218164616Y-160377380D02*
X218164616Y-160139285D01*
X218164616Y-160139285D02*
X218116997Y-160044047D01*
X218545569Y-159567856D02*
X217545569Y-159567856D01*
X217926521Y-159567856D02*
X217878902Y-159472618D01*
X217878902Y-159472618D02*
X217878902Y-159282142D01*
X217878902Y-159282142D02*
X217926521Y-159186904D01*
X217926521Y-159186904D02*
X217974140Y-159139285D01*
X217974140Y-159139285D02*
X218069378Y-159091666D01*
X218069378Y-159091666D02*
X218355092Y-159091666D01*
X218355092Y-159091666D02*
X218450330Y-159139285D01*
X218450330Y-159139285D02*
X218497950Y-159186904D01*
X218497950Y-159186904D02*
X218545569Y-159282142D01*
X218545569Y-159282142D02*
X218545569Y-159472618D01*
X218545569Y-159472618D02*
X218497950Y-159567856D01*
X115631785Y-202676819D02*
X115631785Y-201676819D01*
X115631785Y-201676819D02*
X115965118Y-202391104D01*
X115965118Y-202391104D02*
X116298451Y-201676819D01*
X116298451Y-201676819D02*
X116298451Y-202676819D01*
X116679404Y-201676819D02*
X117346070Y-202676819D01*
X117346070Y-201676819D02*
X116679404Y-202676819D01*
X117488928Y-202772057D02*
X118250832Y-202772057D01*
X118441309Y-202629200D02*
X118536547Y-202676819D01*
X118536547Y-202676819D02*
X118727023Y-202676819D01*
X118727023Y-202676819D02*
X118822261Y-202629200D01*
X118822261Y-202629200D02*
X118869880Y-202533961D01*
X118869880Y-202533961D02*
X118869880Y-202486342D01*
X118869880Y-202486342D02*
X118822261Y-202391104D01*
X118822261Y-202391104D02*
X118727023Y-202343485D01*
X118727023Y-202343485D02*
X118584166Y-202343485D01*
X118584166Y-202343485D02*
X118488928Y-202295866D01*
X118488928Y-202295866D02*
X118441309Y-202200628D01*
X118441309Y-202200628D02*
X118441309Y-202153009D01*
X118441309Y-202153009D02*
X118488928Y-202057771D01*
X118488928Y-202057771D02*
X118584166Y-202010152D01*
X118584166Y-202010152D02*
X118727023Y-202010152D01*
X118727023Y-202010152D02*
X118822261Y-202057771D01*
X119155595Y-202010152D02*
X119536547Y-202010152D01*
X119298452Y-201676819D02*
X119298452Y-202533961D01*
X119298452Y-202533961D02*
X119346071Y-202629200D01*
X119346071Y-202629200D02*
X119441309Y-202676819D01*
X119441309Y-202676819D02*
X119536547Y-202676819D01*
X120298452Y-202676819D02*
X120298452Y-202153009D01*
X120298452Y-202153009D02*
X120250833Y-202057771D01*
X120250833Y-202057771D02*
X120155595Y-202010152D01*
X120155595Y-202010152D02*
X119965119Y-202010152D01*
X119965119Y-202010152D02*
X119869881Y-202057771D01*
X120298452Y-202629200D02*
X120203214Y-202676819D01*
X120203214Y-202676819D02*
X119965119Y-202676819D01*
X119965119Y-202676819D02*
X119869881Y-202629200D01*
X119869881Y-202629200D02*
X119822262Y-202533961D01*
X119822262Y-202533961D02*
X119822262Y-202438723D01*
X119822262Y-202438723D02*
X119869881Y-202343485D01*
X119869881Y-202343485D02*
X119965119Y-202295866D01*
X119965119Y-202295866D02*
X120203214Y-202295866D01*
X120203214Y-202295866D02*
X120298452Y-202248247D01*
X120774643Y-202676819D02*
X120774643Y-201676819D01*
X120774643Y-202057771D02*
X120869881Y-202010152D01*
X120869881Y-202010152D02*
X121060357Y-202010152D01*
X121060357Y-202010152D02*
X121155595Y-202057771D01*
X121155595Y-202057771D02*
X121203214Y-202105390D01*
X121203214Y-202105390D02*
X121250833Y-202200628D01*
X121250833Y-202200628D02*
X121250833Y-202486342D01*
X121250833Y-202486342D02*
X121203214Y-202581580D01*
X121203214Y-202581580D02*
X121155595Y-202629200D01*
X121155595Y-202629200D02*
X121060357Y-202676819D01*
X121060357Y-202676819D02*
X120869881Y-202676819D01*
X120869881Y-202676819D02*
X120774643Y-202629200D01*
X213908035Y-163776819D02*
X213908035Y-162776819D01*
X213908035Y-162776819D02*
X214241368Y-163491104D01*
X214241368Y-163491104D02*
X214574701Y-162776819D01*
X214574701Y-162776819D02*
X214574701Y-163776819D01*
X214955654Y-162776819D02*
X215622320Y-163776819D01*
X215622320Y-162776819D02*
X214955654Y-163776819D01*
X215765178Y-163872057D02*
X216527082Y-163872057D01*
X216717559Y-163729200D02*
X216812797Y-163776819D01*
X216812797Y-163776819D02*
X217003273Y-163776819D01*
X217003273Y-163776819D02*
X217098511Y-163729200D01*
X217098511Y-163729200D02*
X217146130Y-163633961D01*
X217146130Y-163633961D02*
X217146130Y-163586342D01*
X217146130Y-163586342D02*
X217098511Y-163491104D01*
X217098511Y-163491104D02*
X217003273Y-163443485D01*
X217003273Y-163443485D02*
X216860416Y-163443485D01*
X216860416Y-163443485D02*
X216765178Y-163395866D01*
X216765178Y-163395866D02*
X216717559Y-163300628D01*
X216717559Y-163300628D02*
X216717559Y-163253009D01*
X216717559Y-163253009D02*
X216765178Y-163157771D01*
X216765178Y-163157771D02*
X216860416Y-163110152D01*
X216860416Y-163110152D02*
X217003273Y-163110152D01*
X217003273Y-163110152D02*
X217098511Y-163157771D01*
X217431845Y-163110152D02*
X217812797Y-163110152D01*
X217574702Y-162776819D02*
X217574702Y-163633961D01*
X217574702Y-163633961D02*
X217622321Y-163729200D01*
X217622321Y-163729200D02*
X217717559Y-163776819D01*
X217717559Y-163776819D02*
X217812797Y-163776819D01*
X218574702Y-163776819D02*
X218574702Y-163253009D01*
X218574702Y-163253009D02*
X218527083Y-163157771D01*
X218527083Y-163157771D02*
X218431845Y-163110152D01*
X218431845Y-163110152D02*
X218241369Y-163110152D01*
X218241369Y-163110152D02*
X218146131Y-163157771D01*
X218574702Y-163729200D02*
X218479464Y-163776819D01*
X218479464Y-163776819D02*
X218241369Y-163776819D01*
X218241369Y-163776819D02*
X218146131Y-163729200D01*
X218146131Y-163729200D02*
X218098512Y-163633961D01*
X218098512Y-163633961D02*
X218098512Y-163538723D01*
X218098512Y-163538723D02*
X218146131Y-163443485D01*
X218146131Y-163443485D02*
X218241369Y-163395866D01*
X218241369Y-163395866D02*
X218479464Y-163395866D01*
X218479464Y-163395866D02*
X218574702Y-163348247D01*
X219050893Y-163776819D02*
X219050893Y-162776819D01*
X219050893Y-163157771D02*
X219146131Y-163110152D01*
X219146131Y-163110152D02*
X219336607Y-163110152D01*
X219336607Y-163110152D02*
X219431845Y-163157771D01*
X219431845Y-163157771D02*
X219479464Y-163205390D01*
X219479464Y-163205390D02*
X219527083Y-163300628D01*
X219527083Y-163300628D02*
X219527083Y-163586342D01*
X219527083Y-163586342D02*
X219479464Y-163681580D01*
X219479464Y-163681580D02*
X219431845Y-163729200D01*
X219431845Y-163729200D02*
X219336607Y-163776819D01*
X219336607Y-163776819D02*
X219146131Y-163776819D01*
X219146131Y-163776819D02*
X219050893Y-163729200D01*
M02*
