%TF.GenerationSoftware,KiCad,Pcbnew,8.0.2*%
%TF.CreationDate,2024-11-08T19:37:49-08:00*%
%TF.ProjectId,gh80-5000-right,67683830-2d35-4303-9030-2d7269676874,rev?*%
%TF.SameCoordinates,Original*%
%TF.FileFunction,Paste,Bot*%
%TF.FilePolarity,Positive*%
%FSLAX46Y46*%
G04 Gerber Fmt 4.6, Leading zero omitted, Abs format (unit mm)*
G04 Created by KiCad (PCBNEW 8.0.2) date 2024-11-08 19:37:49*
%MOMM*%
%LPD*%
G01*
G04 APERTURE LIST*
G04 Aperture macros list*
%AMRoundRect*
0 Rectangle with rounded corners*
0 $1 Rounding radius*
0 $2 $3 $4 $5 $6 $7 $8 $9 X,Y pos of 4 corners*
0 Add a 4 corners polygon primitive as box body*
4,1,4,$2,$3,$4,$5,$6,$7,$8,$9,$2,$3,0*
0 Add four circle primitives for the rounded corners*
1,1,$1+$1,$2,$3*
1,1,$1+$1,$4,$5*
1,1,$1+$1,$6,$7*
1,1,$1+$1,$8,$9*
0 Add four rect primitives between the rounded corners*
20,1,$1+$1,$2,$3,$4,$5,0*
20,1,$1+$1,$4,$5,$6,$7,0*
20,1,$1+$1,$6,$7,$8,$9,0*
20,1,$1+$1,$8,$9,$2,$3,0*%
%AMRotRect*
0 Rectangle, with rotation*
0 The origin of the aperture is its center*
0 $1 length*
0 $2 width*
0 $3 Rotation angle, in degrees counterclockwise*
0 Add horizontal line*
21,1,$1,$2,0,0,$3*%
G04 Aperture macros list end*
%ADD10RoundRect,0.225000X0.375000X-0.225000X0.375000X0.225000X-0.375000X0.225000X-0.375000X-0.225000X0*%
%ADD11RoundRect,0.140000X0.219203X0.021213X0.021213X0.219203X-0.219203X-0.021213X-0.021213X-0.219203X0*%
%ADD12RoundRect,0.135000X-0.185000X0.135000X-0.185000X-0.135000X0.185000X-0.135000X0.185000X0.135000X0*%
%ADD13RoundRect,0.150000X0.625000X-0.150000X0.625000X0.150000X-0.625000X0.150000X-0.625000X-0.150000X0*%
%ADD14RoundRect,0.250000X0.650000X-0.350000X0.650000X0.350000X-0.650000X0.350000X-0.650000X-0.350000X0*%
%ADD15RoundRect,0.250000X-0.625000X0.375000X-0.625000X-0.375000X0.625000X-0.375000X0.625000X0.375000X0*%
%ADD16RotRect,1.400000X1.200000X45.000000*%
%ADD17RoundRect,0.140000X0.170000X-0.140000X0.170000X0.140000X-0.170000X0.140000X-0.170000X-0.140000X0*%
%ADD18RoundRect,0.140000X-0.021213X0.219203X-0.219203X0.021213X0.021213X-0.219203X0.219203X-0.021213X0*%
%ADD19RoundRect,0.135000X0.185000X-0.135000X0.185000X0.135000X-0.185000X0.135000X-0.185000X-0.135000X0*%
%ADD20RoundRect,0.237500X0.250000X0.237500X-0.250000X0.237500X-0.250000X-0.237500X0.250000X-0.237500X0*%
%ADD21RoundRect,0.150000X-0.150000X-0.625000X0.150000X-0.625000X0.150000X0.625000X-0.150000X0.625000X0*%
%ADD22RoundRect,0.250000X-0.350000X-0.650000X0.350000X-0.650000X0.350000X0.650000X-0.350000X0.650000X0*%
%ADD23RoundRect,0.218750X-0.256250X0.218750X-0.256250X-0.218750X0.256250X-0.218750X0.256250X0.218750X0*%
%ADD24RoundRect,0.140000X-0.140000X-0.170000X0.140000X-0.170000X0.140000X0.170000X-0.140000X0.170000X0*%
%ADD25RoundRect,0.135000X-0.135000X-0.185000X0.135000X-0.185000X0.135000X0.185000X-0.135000X0.185000X0*%
%ADD26RoundRect,0.249999X0.395001X0.395001X-0.395001X0.395001X-0.395001X-0.395001X0.395001X-0.395001X0*%
%ADD27RoundRect,0.050000X0.387500X0.050000X-0.387500X0.050000X-0.387500X-0.050000X0.387500X-0.050000X0*%
%ADD28RoundRect,0.050000X0.050000X0.387500X-0.050000X0.387500X-0.050000X-0.387500X0.050000X-0.387500X0*%
%ADD29RoundRect,0.150000X0.475000X0.150000X-0.475000X0.150000X-0.475000X-0.150000X0.475000X-0.150000X0*%
%ADD30RoundRect,0.140000X0.140000X0.170000X-0.140000X0.170000X-0.140000X-0.170000X0.140000X-0.170000X0*%
%ADD31RoundRect,0.135000X0.135000X0.185000X-0.135000X0.185000X-0.135000X-0.185000X0.135000X-0.185000X0*%
%ADD32RoundRect,0.135000X0.035355X-0.226274X0.226274X-0.035355X-0.035355X0.226274X-0.226274X0.035355X0*%
%ADD33RoundRect,0.225000X-0.375000X0.225000X-0.375000X-0.225000X0.375000X-0.225000X0.375000X0.225000X0*%
%ADD34RoundRect,0.140000X0.021213X-0.219203X0.219203X-0.021213X-0.021213X0.219203X-0.219203X0.021213X0*%
%ADD35RoundRect,0.140000X-0.170000X0.140000X-0.170000X-0.140000X0.170000X-0.140000X0.170000X0.140000X0*%
%ADD36RoundRect,0.225000X0.225000X0.375000X-0.225000X0.375000X-0.225000X-0.375000X0.225000X-0.375000X0*%
%ADD37RotRect,1.400000X1.200000X225.000000*%
%ADD38RoundRect,0.250000X0.275000X-0.275000X0.275000X0.275000X-0.275000X0.275000X-0.275000X-0.275000X0*%
%ADD39RoundRect,0.062500X0.062500X-0.375000X0.062500X0.375000X-0.062500X0.375000X-0.062500X-0.375000X0*%
%ADD40RoundRect,0.062500X0.375000X-0.062500X0.375000X0.062500X-0.375000X0.062500X-0.375000X-0.062500X0*%
%ADD41RoundRect,0.150000X-0.650000X-0.150000X0.650000X-0.150000X0.650000X0.150000X-0.650000X0.150000X0*%
%ADD42RoundRect,0.225000X-0.250000X0.225000X-0.250000X-0.225000X0.250000X-0.225000X0.250000X0.225000X0*%
%ADD43RoundRect,0.150000X0.512500X0.150000X-0.512500X0.150000X-0.512500X-0.150000X0.512500X-0.150000X0*%
%ADD44RoundRect,0.250000X-0.400000X-0.625000X0.400000X-0.625000X0.400000X0.625000X-0.400000X0.625000X0*%
%ADD45RoundRect,0.135000X0.226274X0.035355X0.035355X0.226274X-0.226274X-0.035355X-0.035355X-0.226274X0*%
%ADD46RoundRect,0.172500X0.172500X-0.262500X0.172500X0.262500X-0.172500X0.262500X-0.172500X-0.262500X0*%
%ADD47RoundRect,0.093750X0.106250X-0.093750X0.106250X0.093750X-0.106250X0.093750X-0.106250X-0.093750X0*%
%ADD48RoundRect,0.218750X0.256250X-0.218750X0.256250X0.218750X-0.256250X0.218750X-0.256250X-0.218750X0*%
%ADD49RoundRect,0.200000X-0.275000X0.200000X-0.275000X-0.200000X0.275000X-0.200000X0.275000X0.200000X0*%
G04 APERTURE END LIST*
D10*
%TO.C,D48*%
X279400000Y-97693750D03*
X279400000Y-94393750D03*
%TD*%
D11*
%TO.C,C15*%
X133176911Y-124039411D03*
X132498089Y-123360589D03*
%TD*%
D10*
%TO.C,D28*%
X203200000Y-97693750D03*
X203200000Y-94393750D03*
%TD*%
D12*
%TO.C,R24*%
X249900000Y-69970000D03*
X249900000Y-70990000D03*
%TD*%
%TO.C,R16*%
X255100000Y-78290000D03*
X255100000Y-79310000D03*
%TD*%
D13*
%TO.C,J4*%
X229600000Y-88500000D03*
X229600000Y-87500000D03*
X229600000Y-86500000D03*
X229600000Y-85500000D03*
D14*
X225725000Y-89800000D03*
X225725000Y-84200000D03*
%TD*%
D10*
%TO.C,D46*%
X260350000Y-192943750D03*
X260350000Y-189643750D03*
%TD*%
%TO.C,D5*%
X102393750Y-196912500D03*
X102393750Y-193612500D03*
%TD*%
%TO.C,D32*%
X205581250Y-192943750D03*
X205581250Y-189643750D03*
%TD*%
D15*
%TO.C,F1*%
X246900000Y-69580000D03*
X246900000Y-72380000D03*
%TD*%
D10*
%TO.C,D47*%
X260350000Y-211993750D03*
X260350000Y-208693750D03*
%TD*%
%TO.C,D37*%
X241300000Y-97693750D03*
X241300000Y-94393750D03*
%TD*%
D12*
%TO.C,R25*%
X256500000Y-85390000D03*
X256500000Y-86410000D03*
%TD*%
D16*
%TO.C,Y1*%
X133458642Y-122076777D03*
X135014277Y-120521142D03*
X136216358Y-121723223D03*
X134660723Y-123278858D03*
%TD*%
D17*
%TO.C,C5*%
X130300000Y-107180000D03*
X130300000Y-106220000D03*
%TD*%
D18*
%TO.C,C3*%
X129539411Y-120960589D03*
X128860589Y-121639411D03*
%TD*%
D10*
%TO.C,D10*%
X112712500Y-173893750D03*
X112712500Y-170593750D03*
%TD*%
D12*
%TO.C,R27*%
X253000000Y-88190000D03*
X253000000Y-89210000D03*
%TD*%
D17*
%TO.C,C19*%
X254000000Y-79280000D03*
X254000000Y-78320000D03*
%TD*%
D19*
%TO.C,R4*%
X161925000Y-127010000D03*
X161925000Y-125990000D03*
%TD*%
D20*
%TO.C,R8*%
X127412500Y-115600000D03*
X125587500Y-115600000D03*
%TD*%
D10*
%TO.C,D23*%
X184150000Y-97693750D03*
X184150000Y-94393750D03*
%TD*%
%TO.C,D33*%
X207962500Y-211993750D03*
X207962500Y-208693750D03*
%TD*%
%TO.C,D26*%
X169862500Y-173893750D03*
X169862500Y-170593750D03*
%TD*%
%TO.C,D36*%
X207962500Y-173893750D03*
X207962500Y-170593750D03*
%TD*%
D18*
%TO.C,C10*%
X130976911Y-121060589D03*
X130298089Y-121739411D03*
%TD*%
D21*
%TO.C,J3*%
X150900000Y-92100000D03*
X151900000Y-92100000D03*
X152900000Y-92100000D03*
X153900000Y-92100000D03*
D22*
X149600000Y-88225000D03*
X155200000Y-88225000D03*
%TD*%
D10*
%TO.C,D40*%
X229393750Y-173893750D03*
X229393750Y-170593750D03*
%TD*%
%TO.C,D1*%
X97631250Y-101662500D03*
X97631250Y-98362500D03*
%TD*%
D23*
%TO.C,D54*%
X263400000Y-80912500D03*
X263400000Y-82487500D03*
%TD*%
D10*
%TO.C,D17*%
X165100000Y-97693750D03*
X165100000Y-94393750D03*
%TD*%
%TO.C,D3*%
X88106250Y-158812500D03*
X88106250Y-155512500D03*
%TD*%
D24*
%TO.C,C16*%
X140670000Y-110190000D03*
X141630000Y-110190000D03*
%TD*%
%TO.C,C6*%
X123920000Y-93300000D03*
X124880000Y-93300000D03*
%TD*%
D10*
%TO.C,D35*%
X203200000Y-154843750D03*
X203200000Y-151543750D03*
%TD*%
%TO.C,D16*%
X141287500Y-192943750D03*
X141287500Y-189643750D03*
%TD*%
D12*
%TO.C,R26*%
X254100000Y-88190000D03*
X254100000Y-89210000D03*
%TD*%
D25*
%TO.C,R22*%
X264390000Y-83800000D03*
X265410000Y-83800000D03*
%TD*%
D26*
%TO.C,U1*%
X134400000Y-113800000D03*
X134400000Y-112200000D03*
X132800000Y-113800000D03*
X132800000Y-112200000D03*
D27*
X137037500Y-110400000D03*
X137037500Y-110800000D03*
X137037500Y-111200000D03*
X137037500Y-111600000D03*
X137037500Y-112000000D03*
X137037500Y-112400000D03*
X137037500Y-112800000D03*
X137037500Y-113200000D03*
X137037500Y-113600000D03*
X137037500Y-114000000D03*
X137037500Y-114400000D03*
X137037500Y-114800000D03*
X137037500Y-115200000D03*
X137037500Y-115600000D03*
D28*
X136200000Y-116437500D03*
X135800000Y-116437500D03*
X135400000Y-116437500D03*
X135000000Y-116437500D03*
X134600000Y-116437500D03*
X134200000Y-116437500D03*
X133800000Y-116437500D03*
X133400000Y-116437500D03*
X133000000Y-116437500D03*
X132600000Y-116437500D03*
X132200000Y-116437500D03*
X131800000Y-116437500D03*
X131400000Y-116437500D03*
X131000000Y-116437500D03*
D27*
X130162500Y-115600000D03*
X130162500Y-115200000D03*
X130162500Y-114800000D03*
X130162500Y-114400000D03*
X130162500Y-114000000D03*
X130162500Y-113600000D03*
X130162500Y-113200000D03*
X130162500Y-112800000D03*
X130162500Y-112400000D03*
X130162500Y-112000000D03*
X130162500Y-111600000D03*
X130162500Y-111200000D03*
X130162500Y-110800000D03*
X130162500Y-110400000D03*
D28*
X131000000Y-109562500D03*
X131400000Y-109562500D03*
X131800000Y-109562500D03*
X132200000Y-109562500D03*
X132600000Y-109562500D03*
X133000000Y-109562500D03*
X133400000Y-109562500D03*
X133800000Y-109562500D03*
X134200000Y-109562500D03*
X134600000Y-109562500D03*
X135000000Y-109562500D03*
X135400000Y-109562500D03*
X135800000Y-109562500D03*
X136200000Y-109562500D03*
%TD*%
D12*
%TO.C,R1*%
X126500000Y-127590000D03*
X126500000Y-128610000D03*
%TD*%
D10*
%TO.C,D14*%
X127000000Y-154843750D03*
X127000000Y-151543750D03*
%TD*%
%TO.C,D8*%
X117475000Y-135793750D03*
X117475000Y-132493750D03*
%TD*%
D29*
%TO.C,U5*%
X254675000Y-71330000D03*
X254675000Y-72280000D03*
X254675000Y-73230000D03*
X252325000Y-73230000D03*
X252325000Y-72280000D03*
X252325000Y-71330000D03*
%TD*%
D10*
%TO.C,D19*%
X146050000Y-154843750D03*
X146050000Y-151543750D03*
%TD*%
%TO.C,D52*%
X279400000Y-211993750D03*
X279400000Y-208693750D03*
%TD*%
%TO.C,D50*%
X279400000Y-154843750D03*
X279400000Y-151543750D03*
%TD*%
D30*
%TO.C,C9*%
X128630000Y-110180000D03*
X127670000Y-110180000D03*
%TD*%
D25*
%TO.C,R6*%
X147190000Y-108600000D03*
X148210000Y-108600000D03*
%TD*%
D31*
%TO.C,R20*%
X269220000Y-82400000D03*
X268200000Y-82400000D03*
%TD*%
D10*
%TO.C,D31*%
X188912500Y-173893750D03*
X188912500Y-170593750D03*
%TD*%
%TO.C,D22*%
X169862500Y-211993750D03*
X169862500Y-208693750D03*
%TD*%
D32*
%TO.C,R7*%
X132876876Y-120660624D03*
X133598124Y-119939376D03*
%TD*%
D10*
%TO.C,D13*%
X136525000Y-135793750D03*
X136525000Y-132493750D03*
%TD*%
%TO.C,D51*%
X279400000Y-173893750D03*
X279400000Y-170593750D03*
%TD*%
%TO.C,D2*%
X97631250Y-139762500D03*
X97631250Y-136462500D03*
%TD*%
%TO.C,D18*%
X155575000Y-135793750D03*
X155575000Y-132493750D03*
%TD*%
D33*
%TO.C,D39*%
X232568750Y-154718750D03*
X232568750Y-158018750D03*
%TD*%
D34*
%TO.C,C14*%
X135960589Y-123939411D03*
X136639411Y-123260589D03*
%TD*%
D35*
%TO.C,C22*%
X252900000Y-80320000D03*
X252900000Y-81280000D03*
%TD*%
D36*
%TO.C,D4*%
X99250000Y-177000000D03*
X95950000Y-177000000D03*
%TD*%
D37*
%TO.C,Y2*%
X248278858Y-87923223D03*
X246723223Y-89478858D03*
X245521142Y-88276777D03*
X247076777Y-86721142D03*
%TD*%
D38*
%TO.C,U4*%
X247812500Y-81400000D03*
X249112500Y-81400000D03*
X247812500Y-80100000D03*
X249112500Y-80100000D03*
D39*
X249712500Y-82687500D03*
X249212500Y-82687500D03*
X248712500Y-82687500D03*
X248212500Y-82687500D03*
X247712500Y-82687500D03*
X247212500Y-82687500D03*
D40*
X246525000Y-82000000D03*
X246525000Y-81500000D03*
X246525000Y-81000000D03*
X246525000Y-80500000D03*
X246525000Y-80000000D03*
X246525000Y-79500000D03*
D39*
X247212500Y-78812500D03*
X247712500Y-78812500D03*
X248212500Y-78812500D03*
X248712500Y-78812500D03*
X249212500Y-78812500D03*
X249712500Y-78812500D03*
D40*
X250400000Y-79500000D03*
X250400000Y-80000000D03*
X250400000Y-80500000D03*
X250400000Y-81000000D03*
X250400000Y-81500000D03*
X250400000Y-82000000D03*
%TD*%
D41*
%TO.C,U2*%
X146200000Y-107005000D03*
X146200000Y-105735000D03*
X146200000Y-104465000D03*
X146200000Y-103195000D03*
X153400000Y-103195000D03*
X153400000Y-104465000D03*
X153400000Y-105735000D03*
X153400000Y-107005000D03*
%TD*%
D42*
%TO.C,C4*%
X124800000Y-98225000D03*
X124800000Y-99775000D03*
%TD*%
D43*
%TO.C,U3*%
X126137500Y-94750000D03*
X126137500Y-96650000D03*
X123862500Y-95700000D03*
%TD*%
D10*
%TO.C,D15*%
X131762500Y-173893750D03*
X131762500Y-170593750D03*
%TD*%
D17*
%TO.C,C12*%
X133400000Y-106950000D03*
X133400000Y-105990000D03*
%TD*%
%TO.C,C21*%
X252900000Y-79280000D03*
X252900000Y-78320000D03*
%TD*%
D10*
%TO.C,D25*%
X165100000Y-154843750D03*
X165100000Y-151543750D03*
%TD*%
%TO.C,D45*%
X260350000Y-173893750D03*
X260350000Y-170593750D03*
%TD*%
%TO.C,D38*%
X236537500Y-135793750D03*
X236537500Y-132493750D03*
%TD*%
D17*
%TO.C,C2*%
X134550000Y-105900000D03*
X134550000Y-104940000D03*
%TD*%
D44*
%TO.C,R12*%
X245482500Y-109000000D03*
X248582500Y-109000000D03*
%TD*%
D10*
%TO.C,D27*%
X179387500Y-192943750D03*
X179387500Y-189643750D03*
%TD*%
%TO.C,D42*%
X260350000Y-97693750D03*
X260350000Y-94393750D03*
%TD*%
%TO.C,D24*%
X174625000Y-135793750D03*
X174625000Y-132493750D03*
%TD*%
%TO.C,D41*%
X241300000Y-211993750D03*
X241300000Y-208693750D03*
%TD*%
%TO.C,D20*%
X150812500Y-173893750D03*
X150812500Y-170593750D03*
%TD*%
%TO.C,D11*%
X122237500Y-192943750D03*
X122237500Y-189643750D03*
%TD*%
D12*
%TO.C,R2*%
X132900000Y-103290000D03*
X132900000Y-104310000D03*
%TD*%
D44*
%TO.C,R14*%
X264356250Y-109000000D03*
X267456250Y-109000000D03*
%TD*%
D10*
%TO.C,D7*%
X117475000Y-97693750D03*
X117475000Y-94393750D03*
%TD*%
D11*
%TO.C,C17*%
X245339411Y-90439411D03*
X244660589Y-89760589D03*
%TD*%
D23*
%TO.C,D56*%
X265110000Y-80912500D03*
X265110000Y-82487500D03*
%TD*%
D45*
%TO.C,R21*%
X249260624Y-86660624D03*
X248539376Y-85939376D03*
%TD*%
D17*
%TO.C,C1*%
X131400000Y-107180000D03*
X131400000Y-106220000D03*
%TD*%
D10*
%TO.C,D34*%
X201612500Y-135793750D03*
X201612500Y-132493750D03*
%TD*%
D24*
%TO.C,C13*%
X140220000Y-114210000D03*
X141180000Y-114210000D03*
%TD*%
%TO.C,C8*%
X153420000Y-108600000D03*
X154380000Y-108600000D03*
%TD*%
D46*
%TO.C,U6*%
X254150000Y-86287500D03*
X254950000Y-86287500D03*
D47*
X255200000Y-87175000D03*
X254550000Y-87175000D03*
X253900000Y-87175000D03*
X253900000Y-85400000D03*
X254550000Y-85400000D03*
X255200000Y-85400000D03*
%TD*%
D48*
%TO.C,D55*%
X266810000Y-82487500D03*
X266810000Y-80912500D03*
%TD*%
D34*
%TO.C,C18*%
X248360589Y-89939411D03*
X249039411Y-89260589D03*
%TD*%
D10*
%TO.C,D29*%
X193675000Y-135793750D03*
X193675000Y-132493750D03*
%TD*%
%TO.C,D44*%
X260350000Y-154843750D03*
X260350000Y-151543750D03*
%TD*%
%TO.C,D9*%
X107950000Y-154843750D03*
X107950000Y-151543750D03*
%TD*%
D25*
%TO.C,R5*%
X149290000Y-108600000D03*
X150310000Y-108600000D03*
%TD*%
D24*
%TO.C,C23*%
X254520000Y-84400000D03*
X255480000Y-84400000D03*
%TD*%
D35*
%TO.C,C20*%
X254000000Y-80320000D03*
X254000000Y-81280000D03*
%TD*%
D10*
%TO.C,D6*%
X124300000Y-208250000D03*
X124300000Y-204950000D03*
%TD*%
D30*
%TO.C,C7*%
X127380000Y-114210000D03*
X126420000Y-114210000D03*
%TD*%
D10*
%TO.C,D12*%
X146050000Y-97693750D03*
X146050000Y-94393750D03*
%TD*%
%TO.C,D43*%
X260350000Y-135793750D03*
X260350000Y-132493750D03*
%TD*%
D25*
%TO.C,R15*%
X257590000Y-85400000D03*
X258610000Y-85400000D03*
%TD*%
D49*
%TO.C,R18*%
X245900000Y-75375000D03*
X245900000Y-77025000D03*
%TD*%
D10*
%TO.C,D49*%
X279400000Y-135793750D03*
X279400000Y-132493750D03*
%TD*%
D19*
%TO.C,R19*%
X262000000Y-82810000D03*
X262000000Y-81790000D03*
%TD*%
D10*
%TO.C,D30*%
X184150000Y-154843750D03*
X184150000Y-151543750D03*
%TD*%
D19*
%TO.C,R3*%
X131800000Y-104310000D03*
X131800000Y-103290000D03*
%TD*%
D35*
%TO.C,C11*%
X126300000Y-98020000D03*
X126300000Y-98980000D03*
%TD*%
D10*
%TO.C,D21*%
X160337500Y-192943750D03*
X160337500Y-189643750D03*
%TD*%
D25*
%TO.C,R23*%
X256490000Y-69780000D03*
X257510000Y-69780000D03*
%TD*%
D44*
%TO.C,R10*%
X226450000Y-109000000D03*
X229550000Y-109000000D03*
%TD*%
D12*
%TO.C,R17*%
X255100000Y-80290000D03*
X255100000Y-81310000D03*
%TD*%
M02*
