M48
; DRILL file {KiCad 8.0.2} date 2024-11-08T19:37:49-0800
; FORMAT={-:-/ absolute / inch / decimal}
; #@! TF.CreationDate,2024-11-08T19:37:49-08:00
; #@! TF.GenerationSoftware,Kicad,Pcbnew,8.0.2
; #@! TF.FileFunction,Plated,1,2,PTH
FMAT,2
INCH
; #@! TA.AperFunction,Plated,PTH,ComponentDrill
T1C0.0079
; #@! TA.AperFunction,Plated,PTH,ViaDrill
T2C0.0118
; #@! TA.AperFunction,Plated,PTH,ComponentDrill
T3C0.0197
; #@! TA.AperFunction,Plated,PTH,ComponentDrill
T4C0.0236
; #@! TA.AperFunction,Plated,PTH,ComponentDrill
T5C0.0315
; #@! TA.AperFunction,Plated,PTH,ComponentDrill
T6C0.0354
; #@! TA.AperFunction,Plated,PTH,ComponentDrill
T7C0.0394
; #@! TA.AperFunction,Plated,PTH,ComponentDrill
T8C0.0600
; #@! TA.AperFunction,Plated,PTH,ComponentDrill
T9C0.1200
%
G90
G05
T1
X10.0Y-3.3971
X10.0433Y-3.3971
T2
X3.811Y-6.252
X3.8386Y-4.4173
X3.8898Y-6.252
X3.9134Y-6.1575
X4.6969Y-3.8465
X4.8622Y-3.8858
X4.9409Y-4.498
X4.9486Y-3.673
X4.9567Y-3.9291
X5.0157Y-5.0236
X5.0197Y-3.7323
X5.0236Y-3.8071
X5.0276Y-4.3031
X5.063Y-4.752
X5.1024Y-3.6457
X5.1024Y-4.8189
X5.1181Y-3.3449
X5.1299Y-4.1457
X5.1744Y-3.814
X5.1745Y-3.8787
X5.1947Y-4.6829
X5.2197Y-4.3661
X5.2205Y-4.4075
X5.2205Y-4.4488
X5.2205Y-4.4902
X5.2362Y-4.5315
X5.247Y-3.8783
X5.2471Y-3.8135
X5.252Y-4.1465
X5.2598Y-4.4075
X5.2598Y-4.4488
X5.2598Y-4.4902
X5.2953Y-4.7028
X5.2972Y-4.1957
X5.2972Y-4.4075
X5.2972Y-4.4488
X5.2972Y-4.4902
X5.315Y-3.3449
X5.3228Y-3.6457
X5.3268Y-4.8937
X5.3445Y-4.6792
X5.4673Y-4.2412
X5.4676Y-4.1059
X5.4724Y-3.8465
X5.5Y-4.6457
X5.5118Y-3.3449
X5.5323Y-4.1056
X5.5323Y-4.2409
X5.5827Y-4.2598
X5.5906Y-4.4961
X5.6102Y-4.3366
X5.6312Y-4.622
X5.7067Y-4.063
X5.7087Y-3.3449
X5.7559Y-4.2815
X5.7559Y-4.5795
X5.811Y-3.8465
X5.8898Y-3.4724
X5.9016Y-3.811
X5.9016Y-3.8819
X5.9055Y-3.3449
X5.9724Y-3.7402
X5.9724Y-3.811
X5.9961Y-3.8898
X6.0551Y-3.8071
X6.0591Y-3.685
X6.1024Y-3.3449
X6.1102Y-3.4724
X6.1181Y-4.2756
X6.2133Y-4.3294
X6.2165Y-3.8465
X6.2835Y-4.2154
X6.2861Y-4.3292
X6.2992Y-3.3449
X6.2992Y-3.4193
X6.3583Y-4.1811
X6.3583Y-4.248
X6.4065Y-3.8854
X6.4331Y-4.1811
X6.4331Y-4.2154
X6.4331Y-4.248
X6.4961Y-3.3449
X6.4961Y-3.4193
X6.6929Y-3.3449
X6.6929Y-3.4193
X6.8898Y-3.3449
X6.8898Y-3.4193
X7.0Y-4.5598
X7.0866Y-3.3449
X7.0866Y-3.4193
X7.2835Y-3.3449
X7.2835Y-3.4193
X7.4803Y-3.3449
X7.4803Y-3.4193
X7.6772Y-3.3449
X7.6772Y-3.4193
X7.75Y-4.5441
X7.8457Y-3.4193
X7.8467Y-3.4938
X7.874Y-3.3449
X7.878Y-3.4409
X7.878Y-3.4724
X7.8812Y-4.5276
X7.9091Y-3.4932
X7.9094Y-3.4193
X8.0804Y-3.4193
X8.0868Y-3.3449
X8.0873Y-3.2773
X8.1102Y-4.2154
X8.1431Y-3.4193
X8.1435Y-3.2767
X8.1448Y-3.3449
X8.1772Y-3.189
X8.2035Y-3.3449
X8.2043Y-3.4193
X8.2053Y-3.2767
X8.2619Y-3.4193
X8.2619Y-3.2767
X8.2622Y-3.3449
X8.2795Y-3.189
X8.3578Y-3.3449
X8.3581Y-3.4193
X8.3584Y-3.277
X8.4227Y-3.2771
X8.4229Y-3.3449
X8.4233Y-3.4193
X8.4291Y-3.0079
X8.5827Y-3.3449
X8.7126Y-3.3307
X8.7638Y-3.2126
X8.8858Y-3.315
X8.8858Y-3.5354
X8.9213Y-3.1969
X9.0394Y-3.3307
X9.1181Y-3.1969
X9.1181Y-3.2913
X9.1575Y-3.4449
X9.248Y-4.8071
X9.315Y-3.1969
X9.315Y-3.2913
X9.5118Y-3.1969
X9.5118Y-3.2913
X9.5827Y-3.3898
X9.6063Y-3.5
X9.6301Y-3.2727
X9.6345Y-3.1803
X9.6614Y-3.2047
X9.6614Y-3.252
X9.685Y-3.5866
X9.7241Y-3.0588
X9.7244Y-2.9685
X9.7441Y-3.5551
X9.7559Y-3.1535
X9.7559Y-3.2008
X9.7559Y-3.3543
X9.7874Y-2.6811
X9.8071Y-3.1535
X9.8071Y-3.2008
X9.8155Y-3.0537
X9.8204Y-2.9204
X9.8228Y-3.0
X9.8543Y-2.7197
X9.8583Y-2.8457
X9.878Y-2.7945
X9.8954Y-2.9209
X9.9134Y-3.0906
X9.9134Y-3.126
X9.9202Y-3.1743
X9.937Y-3.3976
X9.9449Y-2.7315
X9.9606Y-3.3622
X9.9606Y-3.4331
X9.9882Y-3.3228
X10.0Y-2.7315
X10.0Y-3.2323
X10.0Y-4.7913
X10.0197Y-2.9244
X10.0551Y-2.7236
X10.0787Y-2.8457
X10.0827Y-3.122
X10.0945Y-3.3228
X10.0984Y-3.4331
X10.1181Y-3.0787
X10.1181Y-3.1693
X10.1339Y-2.6811
X10.2165Y-3.3622
X10.6421Y-3.2441
X10.75Y-4.7677
T3
X10.3976Y-3.4331
X10.4843Y-3.4331
T5
X8.7764Y-4.2913
X9.1764Y-4.2913
X9.5257Y-4.2913
X9.9257Y-4.2913
X10.2687Y-4.2913
X10.6687Y-4.2913
T6
X9.0752Y-4.5
X9.1752Y-4.5
X9.8252Y-4.5
X9.9252Y-4.5
X10.5752Y-4.5
X10.6752Y-4.5
T7
X4.874Y-4.678
X4.874Y-4.778
X4.874Y-4.878
X4.874Y-4.978
X4.874Y-5.078
X6.375Y-5.1176
X6.375Y-5.2176
T8
X3.475Y-5.85
X3.575Y-6.1
X3.6625Y-6.6
X3.7625Y-6.85
X3.85Y-3.6
X3.85Y-5.1
X3.95Y-3.85
X3.95Y-5.35
X3.975Y-5.9
X4.0375Y-7.35
X4.1375Y-7.6
X4.1625Y-6.65
X4.225Y-5.8
X4.35Y-3.65
X4.35Y-5.15
X4.4125Y-6.55
X4.5121Y-8.1815
X4.5375Y-7.4
X4.6Y-3.55
X4.6Y-5.05
X4.725Y-5.9
X4.7621Y-8.0815
X4.7875Y-7.3
X4.9125Y-6.65
X4.975Y-5.8
X5.1Y-5.15
X5.1625Y-6.55
X5.2875Y-7.4
X5.35Y-5.05
X5.475Y-3.65
X5.475Y-5.9
X5.5375Y-7.3
X5.6625Y-6.65
X5.725Y-3.55
X5.725Y-5.8
X5.85Y-5.15
X5.9125Y-6.55
X6.0375Y-7.4
X6.1Y-5.05
X6.225Y-3.65
X6.225Y-5.9
X6.2875Y-7.3
X6.4125Y-6.65
X6.4125Y-8.15
X6.475Y-3.55
X6.475Y-5.8
X6.6Y-5.15
X6.6625Y-6.55
X6.6625Y-8.05
X6.7875Y-7.4
X6.85Y-5.05
X6.975Y-3.65
X6.975Y-5.9
X7.0375Y-7.3
X7.1625Y-6.65
X7.225Y-3.55
X7.225Y-5.8
X7.35Y-5.15
X7.4125Y-6.55
X7.6Y-5.05
X7.725Y-3.65
X7.725Y-5.9
X7.8187Y-7.4
X7.9125Y-6.65
X7.9125Y-8.15
X7.975Y-3.55
X7.975Y-5.8
X8.0687Y-7.3
X8.1Y-5.15
X8.1625Y-6.55
X8.1625Y-8.05
X8.35Y-5.05
X8.3812Y-6.65
X8.475Y-5.15
X8.6312Y-6.55
X8.6625Y-5.9
X8.725Y-5.05
X8.7562Y-6.275
X8.7562Y-6.65
X8.85Y-5.15
X8.9125Y-5.8
X9.0062Y-6.175
X9.0062Y-6.55
X9.1Y-5.05
X9.225Y-3.65
X9.225Y-8.15
X9.475Y-3.55
X9.475Y-8.05
X9.975Y-3.65
X9.975Y-5.15
X9.975Y-5.9
X9.975Y-6.65
X9.975Y-7.4
X9.975Y-8.15
X10.225Y-3.55
X10.225Y-5.05
X10.225Y-5.8
X10.225Y-6.55
X10.225Y-7.3
X10.225Y-8.05
X10.725Y-3.65
X10.725Y-5.15
X10.725Y-5.9
X10.725Y-6.65
X10.725Y-8.15
X10.975Y-3.55
X10.975Y-5.05
X10.975Y-5.8
X10.975Y-6.55
X10.975Y-8.05
T9
X8.0625Y-7.025
X8.1562Y-4.975
X9.0Y-7.025
X9.0938Y-4.975
X9.1813Y-5.9062
X9.1813Y-6.8438
T3
G00X8.1348Y-3.1409
M15
G01X8.0955Y-3.1409
M16
G05
G00X8.2529Y-3.1409
M15
G01X8.2136Y-3.1409
M16
G05
G00X8.4104Y-3.1409
M15
G01X8.371Y-3.1409
M16
G05
G00X8.4498Y-2.952
M15
G01X8.4104Y-2.952
M16
G05
T4
G00X9.7421Y-2.4472
M15
G01X9.7421Y-2.4945
M16
G05
G00X9.7421Y-2.6086
M15
G01X9.7421Y-2.6401
M16
G05
G00X10.1791Y-2.4472
M15
G01X10.1791Y-2.4945
M16
G05
G00X10.1791Y-2.6086
M15
G01X10.1791Y-2.6401
M16
G05
M30
