%TF.GenerationSoftware,KiCad,Pcbnew,8.0.2*%
%TF.CreationDate,2024-11-08T17:23:40-08:00*%
%TF.ProjectId,gh80-5700,67683830-2d35-4373-9030-2e6b69636164,rev?*%
%TF.SameCoordinates,Original*%
%TF.FileFunction,Soldermask,Top*%
%TF.FilePolarity,Negative*%
%FSLAX46Y46*%
G04 Gerber Fmt 4.6, Leading zero omitted, Abs format (unit mm)*
G04 Created by KiCad (PCBNEW 8.0.2) date 2024-11-08 17:23:40*
%MOMM*%
%LPD*%
G01*
G04 APERTURE LIST*
G04 Aperture macros list*
%AMRoundRect*
0 Rectangle with rounded corners*
0 $1 Rounding radius*
0 $2 $3 $4 $5 $6 $7 $8 $9 X,Y pos of 4 corners*
0 Add a 4 corners polygon primitive as box body*
4,1,4,$2,$3,$4,$5,$6,$7,$8,$9,$2,$3,0*
0 Add four circle primitives for the rounded corners*
1,1,$1+$1,$2,$3*
1,1,$1+$1,$4,$5*
1,1,$1+$1,$6,$7*
1,1,$1+$1,$8,$9*
0 Add four rect primitives between the rounded corners*
20,1,$1+$1,$2,$3,$4,$5,0*
20,1,$1+$1,$4,$5,$6,$7,0*
20,1,$1+$1,$6,$7,$8,$9,0*
20,1,$1+$1,$8,$9,$2,$3,0*%
G04 Aperture macros list end*
%ADD10C,1.750000*%
%ADD11C,3.987800*%
%ADD12R,1.700000X1.700000*%
%ADD13O,1.700000X1.700000*%
%ADD14RoundRect,0.285750X0.666750X0.666750X-0.666750X0.666750X-0.666750X-0.666750X0.666750X-0.666750X0*%
%ADD15C,1.905000*%
%ADD16C,1.600000*%
%ADD17O,1.600000X1.600000*%
%ADD18C,4.000000*%
%ADD19C,0.650000*%
%ADD20O,1.600000X1.000000*%
%ADD21O,2.100000X1.000000*%
G04 APERTURE END LIST*
D10*
%TO.C,MX4*%
X54451250Y-116681250D03*
D11*
X59531250Y-116681250D03*
D10*
X64611250Y-116681250D03*
%TD*%
%TO.C,MX10*%
X73501250Y-116681250D03*
D11*
X78581250Y-116681250D03*
D10*
X83661250Y-116681250D03*
%TD*%
%TO.C,MX9*%
X73501250Y-97631250D03*
D11*
X78581250Y-97631250D03*
D10*
X83661250Y-97631250D03*
%TD*%
%TO.C,MX3*%
X54451250Y-97631250D03*
D11*
X59531250Y-97631250D03*
D10*
X64611250Y-97631250D03*
%TD*%
%TO.C,MX8*%
X73501250Y-78581250D03*
D11*
X78581250Y-78581250D03*
D10*
X83661250Y-78581250D03*
%TD*%
%TO.C,MX23*%
X111601250Y-88106250D03*
D11*
X116681250Y-88106250D03*
D10*
X121761250Y-88106250D03*
%TD*%
%TO.C,MX1*%
X54451250Y-59531250D03*
D11*
X59531250Y-59531250D03*
D10*
X64611250Y-59531250D03*
%TD*%
%TO.C,MX20*%
X111601250Y-97631250D03*
D11*
X116681250Y-97631250D03*
D10*
X121761250Y-97631250D03*
%TD*%
%TO.C,MX24*%
X111601250Y-126206250D03*
D11*
X116681250Y-126206250D03*
D10*
X121761250Y-126206250D03*
%TD*%
%TO.C,MX18*%
X111601250Y-59531250D03*
D11*
X116681250Y-59531250D03*
D10*
X121761250Y-59531250D03*
%TD*%
%TO.C,MX11*%
X73501250Y-135731250D03*
D11*
X78581250Y-135731250D03*
D10*
X83661250Y-135731250D03*
%TD*%
%TO.C,MX12*%
X92551250Y-59531250D03*
D11*
X97631250Y-59531250D03*
D10*
X102711250Y-59531250D03*
%TD*%
%TO.C,MX21*%
X111601250Y-116681250D03*
D11*
X116681250Y-116681250D03*
D10*
X121761250Y-116681250D03*
%TD*%
%TO.C,MX14*%
X92551250Y-97631250D03*
D11*
X97631250Y-97631250D03*
D10*
X102711250Y-97631250D03*
%TD*%
%TO.C,MX16*%
X92551250Y-135731250D03*
D11*
X97631250Y-135731250D03*
D10*
X102711250Y-135731250D03*
%TD*%
%TO.C,MX17*%
X102076250Y-135731250D03*
D11*
X107156250Y-135731250D03*
D10*
X112236250Y-135731250D03*
%TD*%
%TO.C,MX5*%
X54451250Y-135731250D03*
D11*
X59531250Y-135731250D03*
D10*
X64611250Y-135731250D03*
%TD*%
%TO.C,MX2*%
X54451250Y-78581250D03*
D11*
X59531250Y-78581250D03*
D10*
X64611250Y-78581250D03*
%TD*%
%TO.C,MX15*%
X92551250Y-116681250D03*
D11*
X97631250Y-116681250D03*
D10*
X102711250Y-116681250D03*
%TD*%
%TO.C,MX22*%
X111601250Y-135731250D03*
D11*
X116681250Y-135731250D03*
D10*
X121761250Y-135731250D03*
%TD*%
%TO.C,MX13*%
X92551250Y-78581250D03*
D11*
X97631250Y-78581250D03*
D10*
X102711250Y-78581250D03*
%TD*%
%TO.C,MX6*%
X63976250Y-135731250D03*
D11*
X69056250Y-135731250D03*
D10*
X74136250Y-135731250D03*
%TD*%
%TO.C,MX19*%
X111601250Y-78581250D03*
D11*
X116681250Y-78581250D03*
D10*
X121761250Y-78581250D03*
%TD*%
%TO.C,MX7*%
X73501250Y-59531250D03*
D11*
X78581250Y-59531250D03*
D10*
X83661250Y-59531250D03*
%TD*%
D12*
%TO.C,BOOT1*%
X88106250Y-57562500D03*
D13*
X88106250Y-60102500D03*
%TD*%
D14*
%TO.C,D3*%
X96361250Y-64611750D03*
D15*
X98901250Y-64611750D03*
%TD*%
D16*
%TO.C,R6*%
X69056250Y-54000000D03*
D17*
X69056250Y-64160000D03*
%TD*%
D12*
%TO.C,J2*%
X71120000Y-43400000D03*
D13*
X73660000Y-43400000D03*
X76200000Y-43400000D03*
X78740000Y-43400000D03*
X81280000Y-43400000D03*
%TD*%
D14*
%TO.C,D2*%
X77311250Y-64611750D03*
D15*
X79851250Y-64611750D03*
%TD*%
D11*
%TO.C,S2*%
X119062500Y-143986250D03*
D18*
X119062500Y-128746250D03*
D11*
X95250000Y-143986250D03*
D18*
X95250000Y-128746250D03*
%TD*%
D16*
%TO.C,R10*%
X107156250Y-54000000D03*
D17*
X107156250Y-64160000D03*
%TD*%
D11*
%TO.C,S4*%
X108426250Y-100012500D03*
D18*
X123666250Y-100012500D03*
D11*
X108426250Y-76200000D03*
D18*
X123666250Y-76200000D03*
%TD*%
D16*
%TO.C,R4*%
X69056250Y-83661250D03*
D17*
X69056250Y-73501250D03*
%TD*%
D16*
%TO.C,R8*%
X88106250Y-83661250D03*
D17*
X88106250Y-73501250D03*
%TD*%
D11*
%TO.C,S3*%
X108426250Y-138112500D03*
D18*
X123666250Y-138112500D03*
D11*
X108426250Y-114300000D03*
D18*
X123666250Y-114300000D03*
%TD*%
D14*
%TO.C,D1*%
X58261250Y-64611750D03*
D15*
X60801250Y-64611750D03*
%TD*%
D14*
%TO.C,D4*%
X115411250Y-64611750D03*
D15*
X117951250Y-64611750D03*
%TD*%
D11*
%TO.C,S1*%
X80962500Y-143986250D03*
D18*
X80962500Y-128746250D03*
D11*
X57150000Y-143986250D03*
D18*
X57150000Y-128746250D03*
%TD*%
D19*
%TO.C,J1*%
X109590000Y-27421200D03*
X109590000Y-21641200D03*
D20*
X105940000Y-28851200D03*
D21*
X110120000Y-28851200D03*
D20*
X105940000Y-20211200D03*
D21*
X110120000Y-20211200D03*
%TD*%
M02*
