M48
; DRILL file {KiCad 8.0.2} date 2024-11-08T17:23:41-0800
; FORMAT={-:-/ absolute / inch / decimal}
; #@! TF.CreationDate,2024-11-08T17:23:41-08:00
; #@! TF.GenerationSoftware,Kicad,Pcbnew,8.0.2
; #@! TF.FileFunction,Plated,1,2,PTH
FMAT,2
INCH
; #@! TA.AperFunction,Plated,PTH,ViaDrill
T1C0.0118
; #@! TA.AperFunction,Plated,PTH,ViaDrill
T2C0.0157
; #@! TA.AperFunction,Plated,PTH,ComponentDrill
T3C0.0236
; #@! TA.AperFunction,Plated,PTH,ComponentDrill
T4C0.0315
; #@! TA.AperFunction,Plated,PTH,ComponentDrill
T5C0.0394
; #@! TA.AperFunction,Plated,PTH,ComponentDrill
T6C0.0409
; #@! TA.AperFunction,Plated,PTH,ComponentDrill
T7C0.0600
; #@! TA.AperFunction,Plated,PTH,ComponentDrill
T8C0.1200
%
G90
G05
T1
X2.7185Y-2.4124
X2.7185Y-3.1624
X2.7992Y-1.6535
X2.8661Y-1.4764
X2.9488Y-1.5177
X2.9685Y-2.6614
X2.9685Y-2.7165
X3.0472Y-1.7677
X3.0512Y-1.5177
X3.1535Y-1.5177
X3.4685Y-3.1624
X3.502Y-2.06
X3.6906Y-1.7244
X3.7205Y-2.6614
X3.7205Y-2.7165
X3.8248Y-1.5197
X3.8268Y-1.626
X3.9079Y-1.7165
X3.9341Y-1.6073
X4.0Y-1.7323
X4.0157Y-1.4803
X4.0906Y-1.9291
X4.0945Y-1.6614
X4.1398Y-1.6437
X4.1398Y-1.6831
X4.1398Y-1.7224
X4.1476Y-1.428
X4.1791Y-1.6437
X4.1791Y-1.6831
X4.1791Y-1.7224
X4.2185Y-1.6437
X4.2185Y-1.6831
X4.2185Y-1.7224
X4.2185Y-2.4124
X4.2205Y-1.2835
X4.2598Y-1.6315
X4.2913Y-1.4213
X4.315Y-1.874
X4.3189Y-1.9134
X4.4134Y-1.7126
X4.4685Y-2.6614
X4.4685Y-2.7165
X4.4803Y-1.6772
X4.4843Y-1.0472
X4.5236Y-1.3268
X4.5276Y-2.0591
X4.5422Y-1.8437
X4.5827Y-0.8898
X4.6024Y-1.7008
X4.6181Y-1.3996
X4.6201Y-1.5787
X4.6378Y-3.2047
X4.6378Y-4.7047
X4.6417Y-1.1161
X4.6654Y-0.935
X4.6665Y-1.8434
X4.7165Y-1.6339
X4.7323Y-1.187
X4.7441Y-1.4291
X4.7441Y-1.5472
X4.768Y-1.8251
X4.7736Y-1.5787
X4.9602Y-1.2913
T2
X4.4882Y-0.937
T4
X2.7188Y-2.126
X2.7188Y-2.526
X2.7188Y-2.8937
X2.7188Y-3.2937
X3.4688Y-2.8937
X3.4688Y-3.2937
X4.2188Y-2.126
X4.2188Y-2.526
T5
X2.8Y-1.7087
X2.9Y-1.7087
X3.0Y-1.7087
X3.1Y-1.7087
X3.2Y-1.7087
X3.4688Y-2.2662
X3.4688Y-2.3662
T6
X2.2937Y-2.5438
X2.3937Y-2.5438
X3.0437Y-2.5438
X3.1437Y-2.5438
X3.7937Y-2.5438
X3.8937Y-2.5438
X4.5438Y-2.5438
X4.6437Y-2.5438
T7
X2.1938Y-2.2437
X2.1938Y-2.9937
X2.1938Y-3.7437
X2.1938Y-4.4937
X2.1938Y-5.2437
X2.4438Y-2.1437
X2.4438Y-2.8937
X2.4438Y-3.6437
X2.4438Y-4.3937
X2.4438Y-5.1437
X2.5688Y-5.2437
X2.8188Y-5.1437
X2.9438Y-2.2437
X2.9438Y-2.9937
X2.9438Y-3.7437
X2.9438Y-4.4937
X2.9438Y-5.2437
X3.1938Y-2.1437
X3.1938Y-2.8937
X3.1938Y-3.6437
X3.1938Y-4.3937
X3.1938Y-5.1437
X3.6938Y-2.2437
X3.6938Y-2.9937
X3.6938Y-3.7437
X3.6938Y-4.4937
X3.6938Y-5.2437
X3.9438Y-2.1437
X3.9438Y-2.8937
X3.9438Y-3.6437
X3.9438Y-4.3937
X3.9438Y-5.1437
X4.0687Y-5.2437
X4.3187Y-5.1437
X4.4437Y-2.2437
X4.4437Y-2.9937
X4.4437Y-3.3687
X4.4437Y-3.7437
X4.4437Y-4.4937
X4.4437Y-4.8687
X4.4437Y-5.2437
X4.6937Y-2.1437
X4.6937Y-2.8937
X4.6937Y-3.2687
X4.6937Y-3.6437
X4.6937Y-4.3937
X4.6937Y-4.7687
X4.6937Y-5.1437
T8
X2.25Y-5.0687
X3.1875Y-5.0687
X3.75Y-5.0687
X4.6875Y-5.0687
X4.8687Y-3.0
X4.8687Y-3.9375
X4.8687Y-4.5
X4.8687Y-5.4375
T3
G00X4.1591Y-0.7957
M15
G01X4.1827Y-0.7957
M16
G05
G00X4.1591Y-1.1359
M15
G01X4.1827Y-1.1359
M16
G05
G00X4.3138Y-0.7957
M15
G01X4.3571Y-0.7957
M16
G05
G00X4.3138Y-1.1359
M15
G01X4.3571Y-1.1359
M16
G05
M30
