M48
; DRILL file {KiCad 8.0.2} date 2024-11-08T17:23:41-0800
; FORMAT={-:-/ absolute / inch / decimal}
; #@! TF.CreationDate,2024-11-08T17:23:41-08:00
; #@! TF.GenerationSoftware,Kicad,Pcbnew,8.0.2
; #@! TF.FileFunction,NonPlated,1,2,NPTH
FMAT,2
INCH
; #@! TA.AperFunction,NonPlated,NPTH,ComponentDrill
T1C0.0256
; #@! TA.AperFunction,NonPlated,NPTH,ComponentDrill
T2C0.0689
; #@! TA.AperFunction,NonPlated,NPTH,ComponentDrill
T3C0.1570
%
G90
G05
T1
X4.3146Y-0.852
X4.3146Y-1.0796
T2
X2.1437Y-2.3438
X2.1437Y-3.0938
X2.1437Y-3.8438
X2.1437Y-4.5938
X2.1437Y-5.3438
X2.5187Y-5.3438
X2.5437Y-2.3438
X2.5437Y-3.0938
X2.5437Y-3.8438
X2.5437Y-4.5938
X2.5437Y-5.3438
X2.8937Y-2.3438
X2.8937Y-3.0938
X2.8937Y-3.8438
X2.8937Y-4.5938
X2.8937Y-5.3438
X2.9187Y-5.3438
X3.2937Y-2.3438
X3.2937Y-3.0938
X3.2937Y-3.8438
X3.2937Y-4.5938
X3.2937Y-5.3438
X3.6437Y-2.3438
X3.6437Y-3.0938
X3.6437Y-3.8438
X3.6437Y-4.5938
X3.6437Y-5.3438
X4.0187Y-5.3438
X4.0438Y-2.3438
X4.0438Y-3.0938
X4.0438Y-3.8438
X4.0438Y-4.5938
X4.0438Y-5.3438
X4.3937Y-2.3438
X4.3937Y-3.0938
X4.3937Y-3.4688
X4.3937Y-3.8438
X4.3937Y-4.5938
X4.3937Y-4.9688
X4.3937Y-5.3438
X4.4188Y-5.3438
X4.7938Y-2.3438
X4.7938Y-3.0938
X4.7938Y-3.4688
X4.7938Y-3.8438
X4.7938Y-4.5938
X4.7938Y-4.9688
X4.7938Y-5.3438
T3
X2.25Y-5.6688
X2.3438Y-2.3438
X2.3438Y-3.0938
X2.3438Y-3.8438
X2.3438Y-4.5938
X2.3438Y-5.3438
X2.7188Y-5.3438
X3.0938Y-2.3438
X3.0938Y-3.0938
X3.0938Y-3.8438
X3.0938Y-4.5938
X3.0938Y-5.3438
X3.1875Y-5.6688
X3.75Y-5.6688
X3.8438Y-2.3438
X3.8438Y-3.0938
X3.8438Y-3.8438
X3.8438Y-4.5938
X3.8438Y-5.3438
X4.2188Y-5.3438
X4.2687Y-3.0
X4.2687Y-3.9375
X4.2687Y-4.5
X4.2687Y-5.4375
X4.5938Y-2.3438
X4.5938Y-3.0938
X4.5938Y-3.4688
X4.5938Y-3.8438
X4.5938Y-4.5938
X4.5938Y-4.9688
X4.5938Y-5.3438
X4.6875Y-5.6688
M30
