%TF.GenerationSoftware,KiCad,Pcbnew,8.0.2*%
%TF.CreationDate,2025-04-27T21:29:10-07:00*%
%TF.ProjectId,t80-5700,7438302d-3537-4303-902e-6b696361645f,rev?*%
%TF.SameCoordinates,Original*%
%TF.FileFunction,Legend,Top*%
%TF.FilePolarity,Positive*%
%FSLAX46Y46*%
G04 Gerber Fmt 4.6, Leading zero omitted, Abs format (unit mm)*
G04 Created by KiCad (PCBNEW 8.0.2) date 2025-04-27 21:29:10*
%MOMM*%
%LPD*%
G01*
G04 APERTURE LIST*
G04 Aperture macros list*
%AMRoundRect*
0 Rectangle with rounded corners*
0 $1 Rounding radius*
0 $2 $3 $4 $5 $6 $7 $8 $9 X,Y pos of 4 corners*
0 Add a 4 corners polygon primitive as box body*
4,1,4,$2,$3,$4,$5,$6,$7,$8,$9,$2,$3,0*
0 Add four circle primitives for the rounded corners*
1,1,$1+$1,$2,$3*
1,1,$1+$1,$4,$5*
1,1,$1+$1,$6,$7*
1,1,$1+$1,$8,$9*
0 Add four rect primitives between the rounded corners*
20,1,$1+$1,$2,$3,$4,$5,0*
20,1,$1+$1,$4,$5,$6,$7,0*
20,1,$1+$1,$6,$7,$8,$9,0*
20,1,$1+$1,$8,$9,$2,$3,0*%
G04 Aperture macros list end*
%ADD10C,0.150000*%
%ADD11C,0.100000*%
%ADD12C,0.200000*%
%ADD13C,1.750000*%
%ADD14C,3.987800*%
%ADD15R,1.700000X1.700000*%
%ADD16O,1.700000X1.700000*%
%ADD17RoundRect,0.285750X0.666750X0.666750X-0.666750X0.666750X-0.666750X-0.666750X0.666750X-0.666750X0*%
%ADD18C,1.905000*%
%ADD19C,1.600000*%
%ADD20O,1.600000X1.600000*%
%ADD21C,4.000000*%
%ADD22C,0.650000*%
%ADD23O,1.600000X1.000000*%
%ADD24O,2.100000X1.000000*%
G04 APERTURE END LIST*
D10*
X79122200Y-41510839D02*
X79169819Y-41367982D01*
X79169819Y-41367982D02*
X79169819Y-41129887D01*
X79169819Y-41129887D02*
X79122200Y-41034649D01*
X79122200Y-41034649D02*
X79074580Y-40987030D01*
X79074580Y-40987030D02*
X78979342Y-40939411D01*
X78979342Y-40939411D02*
X78884104Y-40939411D01*
X78884104Y-40939411D02*
X78788866Y-40987030D01*
X78788866Y-40987030D02*
X78741247Y-41034649D01*
X78741247Y-41034649D02*
X78693628Y-41129887D01*
X78693628Y-41129887D02*
X78646009Y-41320363D01*
X78646009Y-41320363D02*
X78598390Y-41415601D01*
X78598390Y-41415601D02*
X78550771Y-41463220D01*
X78550771Y-41463220D02*
X78455533Y-41510839D01*
X78455533Y-41510839D02*
X78360295Y-41510839D01*
X78360295Y-41510839D02*
X78265057Y-41463220D01*
X78265057Y-41463220D02*
X78217438Y-41415601D01*
X78217438Y-41415601D02*
X78169819Y-41320363D01*
X78169819Y-41320363D02*
X78169819Y-41082268D01*
X78169819Y-41082268D02*
X78217438Y-40939411D01*
X78169819Y-40606077D02*
X79169819Y-40367982D01*
X79169819Y-40367982D02*
X78455533Y-40177506D01*
X78455533Y-40177506D02*
X79169819Y-39987030D01*
X79169819Y-39987030D02*
X78169819Y-39748935D01*
X79074580Y-38796554D02*
X79122200Y-38844173D01*
X79122200Y-38844173D02*
X79169819Y-38987030D01*
X79169819Y-38987030D02*
X79169819Y-39082268D01*
X79169819Y-39082268D02*
X79122200Y-39225125D01*
X79122200Y-39225125D02*
X79026961Y-39320363D01*
X79026961Y-39320363D02*
X78931723Y-39367982D01*
X78931723Y-39367982D02*
X78741247Y-39415601D01*
X78741247Y-39415601D02*
X78598390Y-39415601D01*
X78598390Y-39415601D02*
X78407914Y-39367982D01*
X78407914Y-39367982D02*
X78312676Y-39320363D01*
X78312676Y-39320363D02*
X78217438Y-39225125D01*
X78217438Y-39225125D02*
X78169819Y-39082268D01*
X78169819Y-39082268D02*
X78169819Y-38987030D01*
X78169819Y-38987030D02*
X78217438Y-38844173D01*
X78217438Y-38844173D02*
X78265057Y-38796554D01*
X58236779Y-67269819D02*
X58236779Y-66269819D01*
X58236779Y-66269819D02*
X58808207Y-67269819D01*
X58808207Y-67269819D02*
X58808207Y-66269819D01*
X59712969Y-66603152D02*
X59712969Y-67269819D01*
X59284398Y-66603152D02*
X59284398Y-67126961D01*
X59284398Y-67126961D02*
X59332017Y-67222200D01*
X59332017Y-67222200D02*
X59427255Y-67269819D01*
X59427255Y-67269819D02*
X59570112Y-67269819D01*
X59570112Y-67269819D02*
X59665350Y-67222200D01*
X59665350Y-67222200D02*
X59712969Y-67174580D01*
X60189160Y-67269819D02*
X60189160Y-66603152D01*
X60189160Y-66698390D02*
X60236779Y-66650771D01*
X60236779Y-66650771D02*
X60332017Y-66603152D01*
X60332017Y-66603152D02*
X60474874Y-66603152D01*
X60474874Y-66603152D02*
X60570112Y-66650771D01*
X60570112Y-66650771D02*
X60617731Y-66746009D01*
X60617731Y-66746009D02*
X60617731Y-67269819D01*
X60617731Y-66746009D02*
X60665350Y-66650771D01*
X60665350Y-66650771D02*
X60760588Y-66603152D01*
X60760588Y-66603152D02*
X60903445Y-66603152D01*
X60903445Y-66603152D02*
X60998684Y-66650771D01*
X60998684Y-66650771D02*
X61046303Y-66746009D01*
X61046303Y-66746009D02*
X61046303Y-67269819D01*
X114819048Y-67269819D02*
X114819048Y-66269819D01*
X114819048Y-66269819D02*
X115152381Y-66984104D01*
X115152381Y-66984104D02*
X115485714Y-66269819D01*
X115485714Y-66269819D02*
X115485714Y-67269819D01*
X115961905Y-67269819D02*
X115961905Y-66603152D01*
X115961905Y-66269819D02*
X115914286Y-66317438D01*
X115914286Y-66317438D02*
X115961905Y-66365057D01*
X115961905Y-66365057D02*
X116009524Y-66317438D01*
X116009524Y-66317438D02*
X115961905Y-66269819D01*
X115961905Y-66269819D02*
X115961905Y-66365057D01*
X116438095Y-66603152D02*
X116438095Y-67269819D01*
X116438095Y-66698390D02*
X116485714Y-66650771D01*
X116485714Y-66650771D02*
X116580952Y-66603152D01*
X116580952Y-66603152D02*
X116723809Y-66603152D01*
X116723809Y-66603152D02*
X116819047Y-66650771D01*
X116819047Y-66650771D02*
X116866666Y-66746009D01*
X116866666Y-66746009D02*
X116866666Y-67269819D01*
X117771428Y-66603152D02*
X117771428Y-67269819D01*
X117342857Y-66603152D02*
X117342857Y-67126961D01*
X117342857Y-67126961D02*
X117390476Y-67222200D01*
X117390476Y-67222200D02*
X117485714Y-67269819D01*
X117485714Y-67269819D02*
X117628571Y-67269819D01*
X117628571Y-67269819D02*
X117723809Y-67222200D01*
X117723809Y-67222200D02*
X117771428Y-67174580D01*
X118200000Y-67222200D02*
X118295238Y-67269819D01*
X118295238Y-67269819D02*
X118485714Y-67269819D01*
X118485714Y-67269819D02*
X118580952Y-67222200D01*
X118580952Y-67222200D02*
X118628571Y-67126961D01*
X118628571Y-67126961D02*
X118628571Y-67079342D01*
X118628571Y-67079342D02*
X118580952Y-66984104D01*
X118580952Y-66984104D02*
X118485714Y-66936485D01*
X118485714Y-66936485D02*
X118342857Y-66936485D01*
X118342857Y-66936485D02*
X118247619Y-66888866D01*
X118247619Y-66888866D02*
X118200000Y-66793628D01*
X118200000Y-66793628D02*
X118200000Y-66746009D01*
X118200000Y-66746009D02*
X118247619Y-66650771D01*
X118247619Y-66650771D02*
X118342857Y-66603152D01*
X118342857Y-66603152D02*
X118485714Y-66603152D01*
X118485714Y-66603152D02*
X118580952Y-66650771D01*
X97366667Y-66269819D02*
X98033333Y-67269819D01*
X98033333Y-66269819D02*
X97366667Y-67269819D01*
X86970112Y-62646009D02*
X87112969Y-62693628D01*
X87112969Y-62693628D02*
X87160588Y-62741247D01*
X87160588Y-62741247D02*
X87208207Y-62836485D01*
X87208207Y-62836485D02*
X87208207Y-62979342D01*
X87208207Y-62979342D02*
X87160588Y-63074580D01*
X87160588Y-63074580D02*
X87112969Y-63122200D01*
X87112969Y-63122200D02*
X87017731Y-63169819D01*
X87017731Y-63169819D02*
X86636779Y-63169819D01*
X86636779Y-63169819D02*
X86636779Y-62169819D01*
X86636779Y-62169819D02*
X86970112Y-62169819D01*
X86970112Y-62169819D02*
X87065350Y-62217438D01*
X87065350Y-62217438D02*
X87112969Y-62265057D01*
X87112969Y-62265057D02*
X87160588Y-62360295D01*
X87160588Y-62360295D02*
X87160588Y-62455533D01*
X87160588Y-62455533D02*
X87112969Y-62550771D01*
X87112969Y-62550771D02*
X87065350Y-62598390D01*
X87065350Y-62598390D02*
X86970112Y-62646009D01*
X86970112Y-62646009D02*
X86636779Y-62646009D01*
X87779636Y-63169819D02*
X87684398Y-63122200D01*
X87684398Y-63122200D02*
X87636779Y-63074580D01*
X87636779Y-63074580D02*
X87589160Y-62979342D01*
X87589160Y-62979342D02*
X87589160Y-62693628D01*
X87589160Y-62693628D02*
X87636779Y-62598390D01*
X87636779Y-62598390D02*
X87684398Y-62550771D01*
X87684398Y-62550771D02*
X87779636Y-62503152D01*
X87779636Y-62503152D02*
X87922493Y-62503152D01*
X87922493Y-62503152D02*
X88017731Y-62550771D01*
X88017731Y-62550771D02*
X88065350Y-62598390D01*
X88065350Y-62598390D02*
X88112969Y-62693628D01*
X88112969Y-62693628D02*
X88112969Y-62979342D01*
X88112969Y-62979342D02*
X88065350Y-63074580D01*
X88065350Y-63074580D02*
X88017731Y-63122200D01*
X88017731Y-63122200D02*
X87922493Y-63169819D01*
X87922493Y-63169819D02*
X87779636Y-63169819D01*
X88684398Y-63169819D02*
X88589160Y-63122200D01*
X88589160Y-63122200D02*
X88541541Y-63074580D01*
X88541541Y-63074580D02*
X88493922Y-62979342D01*
X88493922Y-62979342D02*
X88493922Y-62693628D01*
X88493922Y-62693628D02*
X88541541Y-62598390D01*
X88541541Y-62598390D02*
X88589160Y-62550771D01*
X88589160Y-62550771D02*
X88684398Y-62503152D01*
X88684398Y-62503152D02*
X88827255Y-62503152D01*
X88827255Y-62503152D02*
X88922493Y-62550771D01*
X88922493Y-62550771D02*
X88970112Y-62598390D01*
X88970112Y-62598390D02*
X89017731Y-62693628D01*
X89017731Y-62693628D02*
X89017731Y-62979342D01*
X89017731Y-62979342D02*
X88970112Y-63074580D01*
X88970112Y-63074580D02*
X88922493Y-63122200D01*
X88922493Y-63122200D02*
X88827255Y-63169819D01*
X88827255Y-63169819D02*
X88684398Y-63169819D01*
X89303446Y-62503152D02*
X89684398Y-62503152D01*
X89446303Y-62169819D02*
X89446303Y-63026961D01*
X89446303Y-63026961D02*
X89493922Y-63122200D01*
X89493922Y-63122200D02*
X89589160Y-63169819D01*
X89589160Y-63169819D02*
X89684398Y-63169819D01*
X80669819Y-41258458D02*
X80669819Y-40639411D01*
X80669819Y-40639411D02*
X81050771Y-40972744D01*
X81050771Y-40972744D02*
X81050771Y-40829887D01*
X81050771Y-40829887D02*
X81098390Y-40734649D01*
X81098390Y-40734649D02*
X81146009Y-40687030D01*
X81146009Y-40687030D02*
X81241247Y-40639411D01*
X81241247Y-40639411D02*
X81479342Y-40639411D01*
X81479342Y-40639411D02*
X81574580Y-40687030D01*
X81574580Y-40687030D02*
X81622200Y-40734649D01*
X81622200Y-40734649D02*
X81669819Y-40829887D01*
X81669819Y-40829887D02*
X81669819Y-41115601D01*
X81669819Y-41115601D02*
X81622200Y-41210839D01*
X81622200Y-41210839D02*
X81574580Y-41258458D01*
X80669819Y-40353696D02*
X81669819Y-40020363D01*
X81669819Y-40020363D02*
X80669819Y-39687030D01*
X80669819Y-39448934D02*
X80669819Y-38829887D01*
X80669819Y-38829887D02*
X81050771Y-39163220D01*
X81050771Y-39163220D02*
X81050771Y-39020363D01*
X81050771Y-39020363D02*
X81098390Y-38925125D01*
X81098390Y-38925125D02*
X81146009Y-38877506D01*
X81146009Y-38877506D02*
X81241247Y-38829887D01*
X81241247Y-38829887D02*
X81479342Y-38829887D01*
X81479342Y-38829887D02*
X81574580Y-38877506D01*
X81574580Y-38877506D02*
X81622200Y-38925125D01*
X81622200Y-38925125D02*
X81669819Y-39020363D01*
X81669819Y-39020363D02*
X81669819Y-39306077D01*
X81669819Y-39306077D02*
X81622200Y-39401315D01*
X81622200Y-39401315D02*
X81574580Y-39448934D01*
X70517438Y-40939411D02*
X70469819Y-41034649D01*
X70469819Y-41034649D02*
X70469819Y-41177506D01*
X70469819Y-41177506D02*
X70517438Y-41320363D01*
X70517438Y-41320363D02*
X70612676Y-41415601D01*
X70612676Y-41415601D02*
X70707914Y-41463220D01*
X70707914Y-41463220D02*
X70898390Y-41510839D01*
X70898390Y-41510839D02*
X71041247Y-41510839D01*
X71041247Y-41510839D02*
X71231723Y-41463220D01*
X71231723Y-41463220D02*
X71326961Y-41415601D01*
X71326961Y-41415601D02*
X71422200Y-41320363D01*
X71422200Y-41320363D02*
X71469819Y-41177506D01*
X71469819Y-41177506D02*
X71469819Y-41082268D01*
X71469819Y-41082268D02*
X71422200Y-40939411D01*
X71422200Y-40939411D02*
X71374580Y-40891792D01*
X71374580Y-40891792D02*
X71041247Y-40891792D01*
X71041247Y-40891792D02*
X71041247Y-41082268D01*
X71469819Y-40463220D02*
X70469819Y-40463220D01*
X70469819Y-40463220D02*
X71469819Y-39891792D01*
X71469819Y-39891792D02*
X70469819Y-39891792D01*
X71469819Y-39415601D02*
X70469819Y-39415601D01*
X70469819Y-39415601D02*
X70469819Y-39177506D01*
X70469819Y-39177506D02*
X70517438Y-39034649D01*
X70517438Y-39034649D02*
X70612676Y-38939411D01*
X70612676Y-38939411D02*
X70707914Y-38891792D01*
X70707914Y-38891792D02*
X70898390Y-38844173D01*
X70898390Y-38844173D02*
X71041247Y-38844173D01*
X71041247Y-38844173D02*
X71231723Y-38891792D01*
X71231723Y-38891792D02*
X71326961Y-38939411D01*
X71326961Y-38939411D02*
X71422200Y-39034649D01*
X71422200Y-39034649D02*
X71469819Y-39177506D01*
X71469819Y-39177506D02*
X71469819Y-39415601D01*
X78980953Y-66888866D02*
X78219048Y-66888866D01*
X78600000Y-67126961D02*
X78647619Y-67174580D01*
X78647619Y-67174580D02*
X78600000Y-67222200D01*
X78600000Y-67222200D02*
X78552381Y-67174580D01*
X78552381Y-67174580D02*
X78600000Y-67126961D01*
X78600000Y-67126961D02*
X78600000Y-67222200D01*
X78600000Y-66555533D02*
X78647619Y-66603152D01*
X78647619Y-66603152D02*
X78600000Y-66650771D01*
X78600000Y-66650771D02*
X78552381Y-66603152D01*
X78552381Y-66603152D02*
X78600000Y-66555533D01*
X78600000Y-66555533D02*
X78600000Y-66650771D01*
D11*
X107724883Y-27864583D02*
X108224883Y-27864583D01*
X108224883Y-27864583D02*
X108324883Y-27897916D01*
X108324883Y-27897916D02*
X108391550Y-27964583D01*
X108391550Y-27964583D02*
X108424883Y-28064583D01*
X108424883Y-28064583D02*
X108424883Y-28131250D01*
X108424883Y-27197917D02*
X108424883Y-27531250D01*
X108424883Y-27531250D02*
X107724883Y-27531250D01*
X108358216Y-26564583D02*
X108391550Y-26597916D01*
X108391550Y-26597916D02*
X108424883Y-26697916D01*
X108424883Y-26697916D02*
X108424883Y-26764583D01*
X108424883Y-26764583D02*
X108391550Y-26864583D01*
X108391550Y-26864583D02*
X108324883Y-26931250D01*
X108324883Y-26931250D02*
X108258216Y-26964583D01*
X108258216Y-26964583D02*
X108124883Y-26997916D01*
X108124883Y-26997916D02*
X108024883Y-26997916D01*
X108024883Y-26997916D02*
X107891550Y-26964583D01*
X107891550Y-26964583D02*
X107824883Y-26931250D01*
X107824883Y-26931250D02*
X107758216Y-26864583D01*
X107758216Y-26864583D02*
X107724883Y-26764583D01*
X107724883Y-26764583D02*
X107724883Y-26697916D01*
X107724883Y-26697916D02*
X107758216Y-26597916D01*
X107758216Y-26597916D02*
X107791550Y-26564583D01*
X107724883Y-26064583D02*
X108224883Y-26064583D01*
X108224883Y-26064583D02*
X108324883Y-26097916D01*
X108324883Y-26097916D02*
X108391550Y-26164583D01*
X108391550Y-26164583D02*
X108424883Y-26264583D01*
X108424883Y-26264583D02*
X108424883Y-26331250D01*
X108424883Y-25397917D02*
X108424883Y-25731250D01*
X108424883Y-25731250D02*
X107724883Y-25731250D01*
X108358216Y-24764583D02*
X108391550Y-24797916D01*
X108391550Y-24797916D02*
X108424883Y-24897916D01*
X108424883Y-24897916D02*
X108424883Y-24964583D01*
X108424883Y-24964583D02*
X108391550Y-25064583D01*
X108391550Y-25064583D02*
X108324883Y-25131250D01*
X108324883Y-25131250D02*
X108258216Y-25164583D01*
X108258216Y-25164583D02*
X108124883Y-25197916D01*
X108124883Y-25197916D02*
X108024883Y-25197916D01*
X108024883Y-25197916D02*
X107891550Y-25164583D01*
X107891550Y-25164583D02*
X107824883Y-25131250D01*
X107824883Y-25131250D02*
X107758216Y-25064583D01*
X107758216Y-25064583D02*
X107724883Y-24964583D01*
X107724883Y-24964583D02*
X107724883Y-24897916D01*
X107724883Y-24897916D02*
X107758216Y-24797916D01*
X107758216Y-24797916D02*
X107791550Y-24764583D01*
X107724883Y-24264583D02*
X108224883Y-24264583D01*
X108224883Y-24264583D02*
X108324883Y-24297916D01*
X108324883Y-24297916D02*
X108391550Y-24364583D01*
X108391550Y-24364583D02*
X108424883Y-24464583D01*
X108424883Y-24464583D02*
X108424883Y-24531250D01*
X108424883Y-23597917D02*
X108424883Y-23931250D01*
X108424883Y-23931250D02*
X107724883Y-23931250D01*
X108358216Y-22964583D02*
X108391550Y-22997916D01*
X108391550Y-22997916D02*
X108424883Y-23097916D01*
X108424883Y-23097916D02*
X108424883Y-23164583D01*
X108424883Y-23164583D02*
X108391550Y-23264583D01*
X108391550Y-23264583D02*
X108324883Y-23331250D01*
X108324883Y-23331250D02*
X108258216Y-23364583D01*
X108258216Y-23364583D02*
X108124883Y-23397916D01*
X108124883Y-23397916D02*
X108024883Y-23397916D01*
X108024883Y-23397916D02*
X107891550Y-23364583D01*
X107891550Y-23364583D02*
X107824883Y-23331250D01*
X107824883Y-23331250D02*
X107758216Y-23264583D01*
X107758216Y-23264583D02*
X107724883Y-23164583D01*
X107724883Y-23164583D02*
X107724883Y-23097916D01*
X107724883Y-23097916D02*
X107758216Y-22997916D01*
X107758216Y-22997916D02*
X107791550Y-22964583D01*
X107724883Y-22464583D02*
X108224883Y-22464583D01*
X108224883Y-22464583D02*
X108324883Y-22497916D01*
X108324883Y-22497916D02*
X108391550Y-22564583D01*
X108391550Y-22564583D02*
X108424883Y-22664583D01*
X108424883Y-22664583D02*
X108424883Y-22731250D01*
X108424883Y-21797917D02*
X108424883Y-22131250D01*
X108424883Y-22131250D02*
X107724883Y-22131250D01*
X108358216Y-21164583D02*
X108391550Y-21197916D01*
X108391550Y-21197916D02*
X108424883Y-21297916D01*
X108424883Y-21297916D02*
X108424883Y-21364583D01*
X108424883Y-21364583D02*
X108391550Y-21464583D01*
X108391550Y-21464583D02*
X108324883Y-21531250D01*
X108324883Y-21531250D02*
X108258216Y-21564583D01*
X108258216Y-21564583D02*
X108124883Y-21597916D01*
X108124883Y-21597916D02*
X108024883Y-21597916D01*
X108024883Y-21597916D02*
X107891550Y-21564583D01*
X107891550Y-21564583D02*
X107824883Y-21531250D01*
X107824883Y-21531250D02*
X107758216Y-21464583D01*
X107758216Y-21464583D02*
X107724883Y-21364583D01*
X107724883Y-21364583D02*
X107724883Y-21297916D01*
X107724883Y-21297916D02*
X107758216Y-21197916D01*
X107758216Y-21197916D02*
X107791550Y-21164583D01*
D10*
X74069819Y-40991792D02*
X73593628Y-41325125D01*
X74069819Y-41563220D02*
X73069819Y-41563220D01*
X73069819Y-41563220D02*
X73069819Y-41182268D01*
X73069819Y-41182268D02*
X73117438Y-41087030D01*
X73117438Y-41087030D02*
X73165057Y-41039411D01*
X73165057Y-41039411D02*
X73260295Y-40991792D01*
X73260295Y-40991792D02*
X73403152Y-40991792D01*
X73403152Y-40991792D02*
X73498390Y-41039411D01*
X73498390Y-41039411D02*
X73546009Y-41087030D01*
X73546009Y-41087030D02*
X73593628Y-41182268D01*
X73593628Y-41182268D02*
X73593628Y-41563220D01*
X74022200Y-40182268D02*
X74069819Y-40277506D01*
X74069819Y-40277506D02*
X74069819Y-40467982D01*
X74069819Y-40467982D02*
X74022200Y-40563220D01*
X74022200Y-40563220D02*
X73926961Y-40610839D01*
X73926961Y-40610839D02*
X73546009Y-40610839D01*
X73546009Y-40610839D02*
X73450771Y-40563220D01*
X73450771Y-40563220D02*
X73403152Y-40467982D01*
X73403152Y-40467982D02*
X73403152Y-40277506D01*
X73403152Y-40277506D02*
X73450771Y-40182268D01*
X73450771Y-40182268D02*
X73546009Y-40134649D01*
X73546009Y-40134649D02*
X73641247Y-40134649D01*
X73641247Y-40134649D02*
X73736485Y-40610839D01*
X74022200Y-39753696D02*
X74069819Y-39658458D01*
X74069819Y-39658458D02*
X74069819Y-39467982D01*
X74069819Y-39467982D02*
X74022200Y-39372744D01*
X74022200Y-39372744D02*
X73926961Y-39325125D01*
X73926961Y-39325125D02*
X73879342Y-39325125D01*
X73879342Y-39325125D02*
X73784104Y-39372744D01*
X73784104Y-39372744D02*
X73736485Y-39467982D01*
X73736485Y-39467982D02*
X73736485Y-39610839D01*
X73736485Y-39610839D02*
X73688866Y-39706077D01*
X73688866Y-39706077D02*
X73593628Y-39753696D01*
X73593628Y-39753696D02*
X73546009Y-39753696D01*
X73546009Y-39753696D02*
X73450771Y-39706077D01*
X73450771Y-39706077D02*
X73403152Y-39610839D01*
X73403152Y-39610839D02*
X73403152Y-39467982D01*
X73403152Y-39467982D02*
X73450771Y-39372744D01*
X74022200Y-38515601D02*
X74069819Y-38610839D01*
X74069819Y-38610839D02*
X74069819Y-38801315D01*
X74069819Y-38801315D02*
X74022200Y-38896553D01*
X74022200Y-38896553D02*
X73926961Y-38944172D01*
X73926961Y-38944172D02*
X73546009Y-38944172D01*
X73546009Y-38944172D02*
X73450771Y-38896553D01*
X73450771Y-38896553D02*
X73403152Y-38801315D01*
X73403152Y-38801315D02*
X73403152Y-38610839D01*
X73403152Y-38610839D02*
X73450771Y-38515601D01*
X73450771Y-38515601D02*
X73546009Y-38467982D01*
X73546009Y-38467982D02*
X73641247Y-38467982D01*
X73641247Y-38467982D02*
X73736485Y-38944172D01*
X73403152Y-38182267D02*
X73403152Y-37801315D01*
X73069819Y-38039410D02*
X73926961Y-38039410D01*
X73926961Y-38039410D02*
X74022200Y-37991791D01*
X74022200Y-37991791D02*
X74069819Y-37896553D01*
X74069819Y-37896553D02*
X74069819Y-37801315D01*
X76622200Y-41510839D02*
X76669819Y-41367982D01*
X76669819Y-41367982D02*
X76669819Y-41129887D01*
X76669819Y-41129887D02*
X76622200Y-41034649D01*
X76622200Y-41034649D02*
X76574580Y-40987030D01*
X76574580Y-40987030D02*
X76479342Y-40939411D01*
X76479342Y-40939411D02*
X76384104Y-40939411D01*
X76384104Y-40939411D02*
X76288866Y-40987030D01*
X76288866Y-40987030D02*
X76241247Y-41034649D01*
X76241247Y-41034649D02*
X76193628Y-41129887D01*
X76193628Y-41129887D02*
X76146009Y-41320363D01*
X76146009Y-41320363D02*
X76098390Y-41415601D01*
X76098390Y-41415601D02*
X76050771Y-41463220D01*
X76050771Y-41463220D02*
X75955533Y-41510839D01*
X75955533Y-41510839D02*
X75860295Y-41510839D01*
X75860295Y-41510839D02*
X75765057Y-41463220D01*
X75765057Y-41463220D02*
X75717438Y-41415601D01*
X75717438Y-41415601D02*
X75669819Y-41320363D01*
X75669819Y-41320363D02*
X75669819Y-41082268D01*
X75669819Y-41082268D02*
X75717438Y-40939411D01*
X75669819Y-40606077D02*
X76669819Y-40367982D01*
X76669819Y-40367982D02*
X75955533Y-40177506D01*
X75955533Y-40177506D02*
X76669819Y-39987030D01*
X76669819Y-39987030D02*
X75669819Y-39748935D01*
X76669819Y-39367982D02*
X75669819Y-39367982D01*
X75669819Y-39367982D02*
X75669819Y-39129887D01*
X75669819Y-39129887D02*
X75717438Y-38987030D01*
X75717438Y-38987030D02*
X75812676Y-38891792D01*
X75812676Y-38891792D02*
X75907914Y-38844173D01*
X75907914Y-38844173D02*
X76098390Y-38796554D01*
X76098390Y-38796554D02*
X76241247Y-38796554D01*
X76241247Y-38796554D02*
X76431723Y-38844173D01*
X76431723Y-38844173D02*
X76526961Y-38891792D01*
X76526961Y-38891792D02*
X76622200Y-38987030D01*
X76622200Y-38987030D02*
X76669819Y-39129887D01*
X76669819Y-39129887D02*
X76669819Y-39367982D01*
X49943922Y-42289819D02*
X50515350Y-42289819D01*
X50229636Y-43289819D02*
X50229636Y-42289819D01*
X50991541Y-42718390D02*
X50896303Y-42670771D01*
X50896303Y-42670771D02*
X50848684Y-42623152D01*
X50848684Y-42623152D02*
X50801065Y-42527914D01*
X50801065Y-42527914D02*
X50801065Y-42480295D01*
X50801065Y-42480295D02*
X50848684Y-42385057D01*
X50848684Y-42385057D02*
X50896303Y-42337438D01*
X50896303Y-42337438D02*
X50991541Y-42289819D01*
X50991541Y-42289819D02*
X51182017Y-42289819D01*
X51182017Y-42289819D02*
X51277255Y-42337438D01*
X51277255Y-42337438D02*
X51324874Y-42385057D01*
X51324874Y-42385057D02*
X51372493Y-42480295D01*
X51372493Y-42480295D02*
X51372493Y-42527914D01*
X51372493Y-42527914D02*
X51324874Y-42623152D01*
X51324874Y-42623152D02*
X51277255Y-42670771D01*
X51277255Y-42670771D02*
X51182017Y-42718390D01*
X51182017Y-42718390D02*
X50991541Y-42718390D01*
X50991541Y-42718390D02*
X50896303Y-42766009D01*
X50896303Y-42766009D02*
X50848684Y-42813628D01*
X50848684Y-42813628D02*
X50801065Y-42908866D01*
X50801065Y-42908866D02*
X50801065Y-43099342D01*
X50801065Y-43099342D02*
X50848684Y-43194580D01*
X50848684Y-43194580D02*
X50896303Y-43242200D01*
X50896303Y-43242200D02*
X50991541Y-43289819D01*
X50991541Y-43289819D02*
X51182017Y-43289819D01*
X51182017Y-43289819D02*
X51277255Y-43242200D01*
X51277255Y-43242200D02*
X51324874Y-43194580D01*
X51324874Y-43194580D02*
X51372493Y-43099342D01*
X51372493Y-43099342D02*
X51372493Y-42908866D01*
X51372493Y-42908866D02*
X51324874Y-42813628D01*
X51324874Y-42813628D02*
X51277255Y-42766009D01*
X51277255Y-42766009D02*
X51182017Y-42718390D01*
X51991541Y-42289819D02*
X52086779Y-42289819D01*
X52086779Y-42289819D02*
X52182017Y-42337438D01*
X52182017Y-42337438D02*
X52229636Y-42385057D01*
X52229636Y-42385057D02*
X52277255Y-42480295D01*
X52277255Y-42480295D02*
X52324874Y-42670771D01*
X52324874Y-42670771D02*
X52324874Y-42908866D01*
X52324874Y-42908866D02*
X52277255Y-43099342D01*
X52277255Y-43099342D02*
X52229636Y-43194580D01*
X52229636Y-43194580D02*
X52182017Y-43242200D01*
X52182017Y-43242200D02*
X52086779Y-43289819D01*
X52086779Y-43289819D02*
X51991541Y-43289819D01*
X51991541Y-43289819D02*
X51896303Y-43242200D01*
X51896303Y-43242200D02*
X51848684Y-43194580D01*
X51848684Y-43194580D02*
X51801065Y-43099342D01*
X51801065Y-43099342D02*
X51753446Y-42908866D01*
X51753446Y-42908866D02*
X51753446Y-42670771D01*
X51753446Y-42670771D02*
X51801065Y-42480295D01*
X51801065Y-42480295D02*
X51848684Y-42385057D01*
X51848684Y-42385057D02*
X51896303Y-42337438D01*
X51896303Y-42337438D02*
X51991541Y-42289819D01*
X52753446Y-42908866D02*
X53515351Y-42908866D01*
X54467731Y-42289819D02*
X53991541Y-42289819D01*
X53991541Y-42289819D02*
X53943922Y-42766009D01*
X53943922Y-42766009D02*
X53991541Y-42718390D01*
X53991541Y-42718390D02*
X54086779Y-42670771D01*
X54086779Y-42670771D02*
X54324874Y-42670771D01*
X54324874Y-42670771D02*
X54420112Y-42718390D01*
X54420112Y-42718390D02*
X54467731Y-42766009D01*
X54467731Y-42766009D02*
X54515350Y-42861247D01*
X54515350Y-42861247D02*
X54515350Y-43099342D01*
X54515350Y-43099342D02*
X54467731Y-43194580D01*
X54467731Y-43194580D02*
X54420112Y-43242200D01*
X54420112Y-43242200D02*
X54324874Y-43289819D01*
X54324874Y-43289819D02*
X54086779Y-43289819D01*
X54086779Y-43289819D02*
X53991541Y-43242200D01*
X53991541Y-43242200D02*
X53943922Y-43194580D01*
X54848684Y-42289819D02*
X55515350Y-42289819D01*
X55515350Y-42289819D02*
X55086779Y-43289819D01*
X56086779Y-42289819D02*
X56182017Y-42289819D01*
X56182017Y-42289819D02*
X56277255Y-42337438D01*
X56277255Y-42337438D02*
X56324874Y-42385057D01*
X56324874Y-42385057D02*
X56372493Y-42480295D01*
X56372493Y-42480295D02*
X56420112Y-42670771D01*
X56420112Y-42670771D02*
X56420112Y-42908866D01*
X56420112Y-42908866D02*
X56372493Y-43099342D01*
X56372493Y-43099342D02*
X56324874Y-43194580D01*
X56324874Y-43194580D02*
X56277255Y-43242200D01*
X56277255Y-43242200D02*
X56182017Y-43289819D01*
X56182017Y-43289819D02*
X56086779Y-43289819D01*
X56086779Y-43289819D02*
X55991541Y-43242200D01*
X55991541Y-43242200D02*
X55943922Y-43194580D01*
X55943922Y-43194580D02*
X55896303Y-43099342D01*
X55896303Y-43099342D02*
X55848684Y-42908866D01*
X55848684Y-42908866D02*
X55848684Y-42670771D01*
X55848684Y-42670771D02*
X55896303Y-42480295D01*
X55896303Y-42480295D02*
X55943922Y-42385057D01*
X55943922Y-42385057D02*
X55991541Y-42337438D01*
X55991541Y-42337438D02*
X56086779Y-42289819D01*
X57039160Y-42289819D02*
X57134398Y-42289819D01*
X57134398Y-42289819D02*
X57229636Y-42337438D01*
X57229636Y-42337438D02*
X57277255Y-42385057D01*
X57277255Y-42385057D02*
X57324874Y-42480295D01*
X57324874Y-42480295D02*
X57372493Y-42670771D01*
X57372493Y-42670771D02*
X57372493Y-42908866D01*
X57372493Y-42908866D02*
X57324874Y-43099342D01*
X57324874Y-43099342D02*
X57277255Y-43194580D01*
X57277255Y-43194580D02*
X57229636Y-43242200D01*
X57229636Y-43242200D02*
X57134398Y-43289819D01*
X57134398Y-43289819D02*
X57039160Y-43289819D01*
X57039160Y-43289819D02*
X56943922Y-43242200D01*
X56943922Y-43242200D02*
X56896303Y-43194580D01*
X56896303Y-43194580D02*
X56848684Y-43099342D01*
X56848684Y-43099342D02*
X56801065Y-42908866D01*
X56801065Y-42908866D02*
X56801065Y-42670771D01*
X56801065Y-42670771D02*
X56848684Y-42480295D01*
X56848684Y-42480295D02*
X56896303Y-42385057D01*
X56896303Y-42385057D02*
X56943922Y-42337438D01*
X56943922Y-42337438D02*
X57039160Y-42289819D01*
X58467732Y-42623152D02*
X58705827Y-43289819D01*
X58705827Y-43289819D02*
X58943922Y-42623152D01*
X59515351Y-42289819D02*
X59610589Y-42289819D01*
X59610589Y-42289819D02*
X59705827Y-42337438D01*
X59705827Y-42337438D02*
X59753446Y-42385057D01*
X59753446Y-42385057D02*
X59801065Y-42480295D01*
X59801065Y-42480295D02*
X59848684Y-42670771D01*
X59848684Y-42670771D02*
X59848684Y-42908866D01*
X59848684Y-42908866D02*
X59801065Y-43099342D01*
X59801065Y-43099342D02*
X59753446Y-43194580D01*
X59753446Y-43194580D02*
X59705827Y-43242200D01*
X59705827Y-43242200D02*
X59610589Y-43289819D01*
X59610589Y-43289819D02*
X59515351Y-43289819D01*
X59515351Y-43289819D02*
X59420113Y-43242200D01*
X59420113Y-43242200D02*
X59372494Y-43194580D01*
X59372494Y-43194580D02*
X59324875Y-43099342D01*
X59324875Y-43099342D02*
X59277256Y-42908866D01*
X59277256Y-42908866D02*
X59277256Y-42670771D01*
X59277256Y-42670771D02*
X59324875Y-42480295D01*
X59324875Y-42480295D02*
X59372494Y-42385057D01*
X59372494Y-42385057D02*
X59420113Y-42337438D01*
X59420113Y-42337438D02*
X59515351Y-42289819D01*
X60277256Y-43194580D02*
X60324875Y-43242200D01*
X60324875Y-43242200D02*
X60277256Y-43289819D01*
X60277256Y-43289819D02*
X60229637Y-43242200D01*
X60229637Y-43242200D02*
X60277256Y-43194580D01*
X60277256Y-43194580D02*
X60277256Y-43289819D01*
X61277255Y-43289819D02*
X60705827Y-43289819D01*
X60991541Y-43289819D02*
X60991541Y-42289819D01*
X60991541Y-42289819D02*
X60896303Y-42432676D01*
X60896303Y-42432676D02*
X60801065Y-42527914D01*
X60801065Y-42527914D02*
X60705827Y-42575533D01*
X50658207Y-44899763D02*
X50324874Y-44423572D01*
X50086779Y-44899763D02*
X50086779Y-43899763D01*
X50086779Y-43899763D02*
X50467731Y-43899763D01*
X50467731Y-43899763D02*
X50562969Y-43947382D01*
X50562969Y-43947382D02*
X50610588Y-43995001D01*
X50610588Y-43995001D02*
X50658207Y-44090239D01*
X50658207Y-44090239D02*
X50658207Y-44233096D01*
X50658207Y-44233096D02*
X50610588Y-44328334D01*
X50610588Y-44328334D02*
X50562969Y-44375953D01*
X50562969Y-44375953D02*
X50467731Y-44423572D01*
X50467731Y-44423572D02*
X50086779Y-44423572D01*
X51467731Y-44852144D02*
X51372493Y-44899763D01*
X51372493Y-44899763D02*
X51182017Y-44899763D01*
X51182017Y-44899763D02*
X51086779Y-44852144D01*
X51086779Y-44852144D02*
X51039160Y-44756905D01*
X51039160Y-44756905D02*
X51039160Y-44375953D01*
X51039160Y-44375953D02*
X51086779Y-44280715D01*
X51086779Y-44280715D02*
X51182017Y-44233096D01*
X51182017Y-44233096D02*
X51372493Y-44233096D01*
X51372493Y-44233096D02*
X51467731Y-44280715D01*
X51467731Y-44280715D02*
X51515350Y-44375953D01*
X51515350Y-44375953D02*
X51515350Y-44471191D01*
X51515350Y-44471191D02*
X51039160Y-44566429D01*
X51943922Y-44233096D02*
X51943922Y-45233096D01*
X51943922Y-44280715D02*
X52039160Y-44233096D01*
X52039160Y-44233096D02*
X52229636Y-44233096D01*
X52229636Y-44233096D02*
X52324874Y-44280715D01*
X52324874Y-44280715D02*
X52372493Y-44328334D01*
X52372493Y-44328334D02*
X52420112Y-44423572D01*
X52420112Y-44423572D02*
X52420112Y-44709286D01*
X52420112Y-44709286D02*
X52372493Y-44804524D01*
X52372493Y-44804524D02*
X52324874Y-44852144D01*
X52324874Y-44852144D02*
X52229636Y-44899763D01*
X52229636Y-44899763D02*
X52039160Y-44899763D01*
X52039160Y-44899763D02*
X51943922Y-44852144D01*
X52991541Y-44899763D02*
X52896303Y-44852144D01*
X52896303Y-44852144D02*
X52848684Y-44756905D01*
X52848684Y-44756905D02*
X52848684Y-43899763D01*
X53801065Y-44899763D02*
X53801065Y-44375953D01*
X53801065Y-44375953D02*
X53753446Y-44280715D01*
X53753446Y-44280715D02*
X53658208Y-44233096D01*
X53658208Y-44233096D02*
X53467732Y-44233096D01*
X53467732Y-44233096D02*
X53372494Y-44280715D01*
X53801065Y-44852144D02*
X53705827Y-44899763D01*
X53705827Y-44899763D02*
X53467732Y-44899763D01*
X53467732Y-44899763D02*
X53372494Y-44852144D01*
X53372494Y-44852144D02*
X53324875Y-44756905D01*
X53324875Y-44756905D02*
X53324875Y-44661667D01*
X53324875Y-44661667D02*
X53372494Y-44566429D01*
X53372494Y-44566429D02*
X53467732Y-44518810D01*
X53467732Y-44518810D02*
X53705827Y-44518810D01*
X53705827Y-44518810D02*
X53801065Y-44471191D01*
X54705827Y-44852144D02*
X54610589Y-44899763D01*
X54610589Y-44899763D02*
X54420113Y-44899763D01*
X54420113Y-44899763D02*
X54324875Y-44852144D01*
X54324875Y-44852144D02*
X54277256Y-44804524D01*
X54277256Y-44804524D02*
X54229637Y-44709286D01*
X54229637Y-44709286D02*
X54229637Y-44423572D01*
X54229637Y-44423572D02*
X54277256Y-44328334D01*
X54277256Y-44328334D02*
X54324875Y-44280715D01*
X54324875Y-44280715D02*
X54420113Y-44233096D01*
X54420113Y-44233096D02*
X54610589Y-44233096D01*
X54610589Y-44233096D02*
X54705827Y-44280715D01*
X55515351Y-44852144D02*
X55420113Y-44899763D01*
X55420113Y-44899763D02*
X55229637Y-44899763D01*
X55229637Y-44899763D02*
X55134399Y-44852144D01*
X55134399Y-44852144D02*
X55086780Y-44756905D01*
X55086780Y-44756905D02*
X55086780Y-44375953D01*
X55086780Y-44375953D02*
X55134399Y-44280715D01*
X55134399Y-44280715D02*
X55229637Y-44233096D01*
X55229637Y-44233096D02*
X55420113Y-44233096D01*
X55420113Y-44233096D02*
X55515351Y-44280715D01*
X55515351Y-44280715D02*
X55562970Y-44375953D01*
X55562970Y-44375953D02*
X55562970Y-44471191D01*
X55562970Y-44471191D02*
X55086780Y-44566429D01*
X55991542Y-44899763D02*
X55991542Y-44233096D01*
X55991542Y-44328334D02*
X56039161Y-44280715D01*
X56039161Y-44280715D02*
X56134399Y-44233096D01*
X56134399Y-44233096D02*
X56277256Y-44233096D01*
X56277256Y-44233096D02*
X56372494Y-44280715D01*
X56372494Y-44280715D02*
X56420113Y-44375953D01*
X56420113Y-44375953D02*
X56420113Y-44899763D01*
X56420113Y-44375953D02*
X56467732Y-44280715D01*
X56467732Y-44280715D02*
X56562970Y-44233096D01*
X56562970Y-44233096D02*
X56705827Y-44233096D01*
X56705827Y-44233096D02*
X56801066Y-44280715D01*
X56801066Y-44280715D02*
X56848685Y-44375953D01*
X56848685Y-44375953D02*
X56848685Y-44899763D01*
X57705827Y-44852144D02*
X57610589Y-44899763D01*
X57610589Y-44899763D02*
X57420113Y-44899763D01*
X57420113Y-44899763D02*
X57324875Y-44852144D01*
X57324875Y-44852144D02*
X57277256Y-44756905D01*
X57277256Y-44756905D02*
X57277256Y-44375953D01*
X57277256Y-44375953D02*
X57324875Y-44280715D01*
X57324875Y-44280715D02*
X57420113Y-44233096D01*
X57420113Y-44233096D02*
X57610589Y-44233096D01*
X57610589Y-44233096D02*
X57705827Y-44280715D01*
X57705827Y-44280715D02*
X57753446Y-44375953D01*
X57753446Y-44375953D02*
X57753446Y-44471191D01*
X57753446Y-44471191D02*
X57277256Y-44566429D01*
X58182018Y-44233096D02*
X58182018Y-44899763D01*
X58182018Y-44328334D02*
X58229637Y-44280715D01*
X58229637Y-44280715D02*
X58324875Y-44233096D01*
X58324875Y-44233096D02*
X58467732Y-44233096D01*
X58467732Y-44233096D02*
X58562970Y-44280715D01*
X58562970Y-44280715D02*
X58610589Y-44375953D01*
X58610589Y-44375953D02*
X58610589Y-44899763D01*
X58943923Y-44233096D02*
X59324875Y-44233096D01*
X59086780Y-43899763D02*
X59086780Y-44756905D01*
X59086780Y-44756905D02*
X59134399Y-44852144D01*
X59134399Y-44852144D02*
X59229637Y-44899763D01*
X59229637Y-44899763D02*
X59324875Y-44899763D01*
X60420114Y-44899763D02*
X60420114Y-43899763D01*
X60420114Y-43899763D02*
X60801066Y-43899763D01*
X60801066Y-43899763D02*
X60896304Y-43947382D01*
X60896304Y-43947382D02*
X60943923Y-43995001D01*
X60943923Y-43995001D02*
X60991542Y-44090239D01*
X60991542Y-44090239D02*
X60991542Y-44233096D01*
X60991542Y-44233096D02*
X60943923Y-44328334D01*
X60943923Y-44328334D02*
X60896304Y-44375953D01*
X60896304Y-44375953D02*
X60801066Y-44423572D01*
X60801066Y-44423572D02*
X60420114Y-44423572D01*
X61991542Y-44804524D02*
X61943923Y-44852144D01*
X61943923Y-44852144D02*
X61801066Y-44899763D01*
X61801066Y-44899763D02*
X61705828Y-44899763D01*
X61705828Y-44899763D02*
X61562971Y-44852144D01*
X61562971Y-44852144D02*
X61467733Y-44756905D01*
X61467733Y-44756905D02*
X61420114Y-44661667D01*
X61420114Y-44661667D02*
X61372495Y-44471191D01*
X61372495Y-44471191D02*
X61372495Y-44328334D01*
X61372495Y-44328334D02*
X61420114Y-44137858D01*
X61420114Y-44137858D02*
X61467733Y-44042620D01*
X61467733Y-44042620D02*
X61562971Y-43947382D01*
X61562971Y-43947382D02*
X61705828Y-43899763D01*
X61705828Y-43899763D02*
X61801066Y-43899763D01*
X61801066Y-43899763D02*
X61943923Y-43947382D01*
X61943923Y-43947382D02*
X61991542Y-43995001D01*
X62753447Y-44375953D02*
X62896304Y-44423572D01*
X62896304Y-44423572D02*
X62943923Y-44471191D01*
X62943923Y-44471191D02*
X62991542Y-44566429D01*
X62991542Y-44566429D02*
X62991542Y-44709286D01*
X62991542Y-44709286D02*
X62943923Y-44804524D01*
X62943923Y-44804524D02*
X62896304Y-44852144D01*
X62896304Y-44852144D02*
X62801066Y-44899763D01*
X62801066Y-44899763D02*
X62420114Y-44899763D01*
X62420114Y-44899763D02*
X62420114Y-43899763D01*
X62420114Y-43899763D02*
X62753447Y-43899763D01*
X62753447Y-43899763D02*
X62848685Y-43947382D01*
X62848685Y-43947382D02*
X62896304Y-43995001D01*
X62896304Y-43995001D02*
X62943923Y-44090239D01*
X62943923Y-44090239D02*
X62943923Y-44185477D01*
X62943923Y-44185477D02*
X62896304Y-44280715D01*
X62896304Y-44280715D02*
X62848685Y-44328334D01*
X62848685Y-44328334D02*
X62753447Y-44375953D01*
X62753447Y-44375953D02*
X62420114Y-44375953D01*
X64039162Y-44233096D02*
X64420114Y-44233096D01*
X64182019Y-44899763D02*
X64182019Y-44042620D01*
X64182019Y-44042620D02*
X64229638Y-43947382D01*
X64229638Y-43947382D02*
X64324876Y-43899763D01*
X64324876Y-43899763D02*
X64420114Y-43899763D01*
X64896305Y-44899763D02*
X64801067Y-44852144D01*
X64801067Y-44852144D02*
X64753448Y-44804524D01*
X64753448Y-44804524D02*
X64705829Y-44709286D01*
X64705829Y-44709286D02*
X64705829Y-44423572D01*
X64705829Y-44423572D02*
X64753448Y-44328334D01*
X64753448Y-44328334D02*
X64801067Y-44280715D01*
X64801067Y-44280715D02*
X64896305Y-44233096D01*
X64896305Y-44233096D02*
X65039162Y-44233096D01*
X65039162Y-44233096D02*
X65134400Y-44280715D01*
X65134400Y-44280715D02*
X65182019Y-44328334D01*
X65182019Y-44328334D02*
X65229638Y-44423572D01*
X65229638Y-44423572D02*
X65229638Y-44709286D01*
X65229638Y-44709286D02*
X65182019Y-44804524D01*
X65182019Y-44804524D02*
X65134400Y-44852144D01*
X65134400Y-44852144D02*
X65039162Y-44899763D01*
X65039162Y-44899763D02*
X64896305Y-44899763D01*
X65658210Y-44899763D02*
X65658210Y-44233096D01*
X65658210Y-44423572D02*
X65705829Y-44328334D01*
X65705829Y-44328334D02*
X65753448Y-44280715D01*
X65753448Y-44280715D02*
X65848686Y-44233096D01*
X65848686Y-44233096D02*
X65943924Y-44233096D01*
X49943922Y-45843040D02*
X50324874Y-45843040D01*
X50086779Y-45509707D02*
X50086779Y-46366849D01*
X50086779Y-46366849D02*
X50134398Y-46462088D01*
X50134398Y-46462088D02*
X50229636Y-46509707D01*
X50229636Y-46509707D02*
X50324874Y-46509707D01*
X50658208Y-46509707D02*
X50658208Y-45509707D01*
X51086779Y-46509707D02*
X51086779Y-45985897D01*
X51086779Y-45985897D02*
X51039160Y-45890659D01*
X51039160Y-45890659D02*
X50943922Y-45843040D01*
X50943922Y-45843040D02*
X50801065Y-45843040D01*
X50801065Y-45843040D02*
X50705827Y-45890659D01*
X50705827Y-45890659D02*
X50658208Y-45938278D01*
X51943922Y-46462088D02*
X51848684Y-46509707D01*
X51848684Y-46509707D02*
X51658208Y-46509707D01*
X51658208Y-46509707D02*
X51562970Y-46462088D01*
X51562970Y-46462088D02*
X51515351Y-46366849D01*
X51515351Y-46366849D02*
X51515351Y-45985897D01*
X51515351Y-45985897D02*
X51562970Y-45890659D01*
X51562970Y-45890659D02*
X51658208Y-45843040D01*
X51658208Y-45843040D02*
X51848684Y-45843040D01*
X51848684Y-45843040D02*
X51943922Y-45890659D01*
X51943922Y-45890659D02*
X51991541Y-45985897D01*
X51991541Y-45985897D02*
X51991541Y-46081135D01*
X51991541Y-46081135D02*
X51515351Y-46176373D01*
X53753446Y-46414468D02*
X53705827Y-46462088D01*
X53705827Y-46462088D02*
X53562970Y-46509707D01*
X53562970Y-46509707D02*
X53467732Y-46509707D01*
X53467732Y-46509707D02*
X53324875Y-46462088D01*
X53324875Y-46462088D02*
X53229637Y-46366849D01*
X53229637Y-46366849D02*
X53182018Y-46271611D01*
X53182018Y-46271611D02*
X53134399Y-46081135D01*
X53134399Y-46081135D02*
X53134399Y-45938278D01*
X53134399Y-45938278D02*
X53182018Y-45747802D01*
X53182018Y-45747802D02*
X53229637Y-45652564D01*
X53229637Y-45652564D02*
X53324875Y-45557326D01*
X53324875Y-45557326D02*
X53467732Y-45509707D01*
X53467732Y-45509707D02*
X53562970Y-45509707D01*
X53562970Y-45509707D02*
X53705827Y-45557326D01*
X53705827Y-45557326D02*
X53753446Y-45604945D01*
X54182018Y-46509707D02*
X54182018Y-45509707D01*
X54610589Y-46509707D02*
X54610589Y-45985897D01*
X54610589Y-45985897D02*
X54562970Y-45890659D01*
X54562970Y-45890659D02*
X54467732Y-45843040D01*
X54467732Y-45843040D02*
X54324875Y-45843040D01*
X54324875Y-45843040D02*
X54229637Y-45890659D01*
X54229637Y-45890659D02*
X54182018Y-45938278D01*
X55467732Y-46462088D02*
X55372494Y-46509707D01*
X55372494Y-46509707D02*
X55182018Y-46509707D01*
X55182018Y-46509707D02*
X55086780Y-46462088D01*
X55086780Y-46462088D02*
X55039161Y-46366849D01*
X55039161Y-46366849D02*
X55039161Y-45985897D01*
X55039161Y-45985897D02*
X55086780Y-45890659D01*
X55086780Y-45890659D02*
X55182018Y-45843040D01*
X55182018Y-45843040D02*
X55372494Y-45843040D01*
X55372494Y-45843040D02*
X55467732Y-45890659D01*
X55467732Y-45890659D02*
X55515351Y-45985897D01*
X55515351Y-45985897D02*
X55515351Y-46081135D01*
X55515351Y-46081135D02*
X55039161Y-46176373D01*
X55943923Y-46509707D02*
X55943923Y-45843040D01*
X55943923Y-46033516D02*
X55991542Y-45938278D01*
X55991542Y-45938278D02*
X56039161Y-45890659D01*
X56039161Y-45890659D02*
X56134399Y-45843040D01*
X56134399Y-45843040D02*
X56229637Y-45843040D01*
X56562971Y-46509707D02*
X56562971Y-45843040D01*
X56562971Y-46033516D02*
X56610590Y-45938278D01*
X56610590Y-45938278D02*
X56658209Y-45890659D01*
X56658209Y-45890659D02*
X56753447Y-45843040D01*
X56753447Y-45843040D02*
X56848685Y-45843040D01*
X57086781Y-45843040D02*
X57324876Y-46509707D01*
X57562971Y-45843040D02*
X57324876Y-46509707D01*
X57324876Y-46509707D02*
X57229638Y-46747802D01*
X57229638Y-46747802D02*
X57182019Y-46795421D01*
X57182019Y-46795421D02*
X57086781Y-46843040D01*
X59229638Y-45557326D02*
X59134400Y-45509707D01*
X59134400Y-45509707D02*
X58991543Y-45509707D01*
X58991543Y-45509707D02*
X58848686Y-45557326D01*
X58848686Y-45557326D02*
X58753448Y-45652564D01*
X58753448Y-45652564D02*
X58705829Y-45747802D01*
X58705829Y-45747802D02*
X58658210Y-45938278D01*
X58658210Y-45938278D02*
X58658210Y-46081135D01*
X58658210Y-46081135D02*
X58705829Y-46271611D01*
X58705829Y-46271611D02*
X58753448Y-46366849D01*
X58753448Y-46366849D02*
X58848686Y-46462088D01*
X58848686Y-46462088D02*
X58991543Y-46509707D01*
X58991543Y-46509707D02*
X59086781Y-46509707D01*
X59086781Y-46509707D02*
X59229638Y-46462088D01*
X59229638Y-46462088D02*
X59277257Y-46414468D01*
X59277257Y-46414468D02*
X59277257Y-46081135D01*
X59277257Y-46081135D02*
X59086781Y-46081135D01*
X59848686Y-45938278D02*
X59753448Y-45890659D01*
X59753448Y-45890659D02*
X59705829Y-45843040D01*
X59705829Y-45843040D02*
X59658210Y-45747802D01*
X59658210Y-45747802D02*
X59658210Y-45700183D01*
X59658210Y-45700183D02*
X59705829Y-45604945D01*
X59705829Y-45604945D02*
X59753448Y-45557326D01*
X59753448Y-45557326D02*
X59848686Y-45509707D01*
X59848686Y-45509707D02*
X60039162Y-45509707D01*
X60039162Y-45509707D02*
X60134400Y-45557326D01*
X60134400Y-45557326D02*
X60182019Y-45604945D01*
X60182019Y-45604945D02*
X60229638Y-45700183D01*
X60229638Y-45700183D02*
X60229638Y-45747802D01*
X60229638Y-45747802D02*
X60182019Y-45843040D01*
X60182019Y-45843040D02*
X60134400Y-45890659D01*
X60134400Y-45890659D02*
X60039162Y-45938278D01*
X60039162Y-45938278D02*
X59848686Y-45938278D01*
X59848686Y-45938278D02*
X59753448Y-45985897D01*
X59753448Y-45985897D02*
X59705829Y-46033516D01*
X59705829Y-46033516D02*
X59658210Y-46128754D01*
X59658210Y-46128754D02*
X59658210Y-46319230D01*
X59658210Y-46319230D02*
X59705829Y-46414468D01*
X59705829Y-46414468D02*
X59753448Y-46462088D01*
X59753448Y-46462088D02*
X59848686Y-46509707D01*
X59848686Y-46509707D02*
X60039162Y-46509707D01*
X60039162Y-46509707D02*
X60134400Y-46462088D01*
X60134400Y-46462088D02*
X60182019Y-46414468D01*
X60182019Y-46414468D02*
X60229638Y-46319230D01*
X60229638Y-46319230D02*
X60229638Y-46128754D01*
X60229638Y-46128754D02*
X60182019Y-46033516D01*
X60182019Y-46033516D02*
X60134400Y-45985897D01*
X60134400Y-45985897D02*
X60039162Y-45938278D01*
X60848686Y-45509707D02*
X60943924Y-45509707D01*
X60943924Y-45509707D02*
X61039162Y-45557326D01*
X61039162Y-45557326D02*
X61086781Y-45604945D01*
X61086781Y-45604945D02*
X61134400Y-45700183D01*
X61134400Y-45700183D02*
X61182019Y-45890659D01*
X61182019Y-45890659D02*
X61182019Y-46128754D01*
X61182019Y-46128754D02*
X61134400Y-46319230D01*
X61134400Y-46319230D02*
X61086781Y-46414468D01*
X61086781Y-46414468D02*
X61039162Y-46462088D01*
X61039162Y-46462088D02*
X60943924Y-46509707D01*
X60943924Y-46509707D02*
X60848686Y-46509707D01*
X60848686Y-46509707D02*
X60753448Y-46462088D01*
X60753448Y-46462088D02*
X60705829Y-46414468D01*
X60705829Y-46414468D02*
X60658210Y-46319230D01*
X60658210Y-46319230D02*
X60610591Y-46128754D01*
X60610591Y-46128754D02*
X60610591Y-45890659D01*
X60610591Y-45890659D02*
X60658210Y-45700183D01*
X60658210Y-45700183D02*
X60705829Y-45604945D01*
X60705829Y-45604945D02*
X60753448Y-45557326D01*
X60753448Y-45557326D02*
X60848686Y-45509707D01*
X61610591Y-46128754D02*
X62372496Y-46128754D01*
X63324876Y-45509707D02*
X62848686Y-45509707D01*
X62848686Y-45509707D02*
X62801067Y-45985897D01*
X62801067Y-45985897D02*
X62848686Y-45938278D01*
X62848686Y-45938278D02*
X62943924Y-45890659D01*
X62943924Y-45890659D02*
X63182019Y-45890659D01*
X63182019Y-45890659D02*
X63277257Y-45938278D01*
X63277257Y-45938278D02*
X63324876Y-45985897D01*
X63324876Y-45985897D02*
X63372495Y-46081135D01*
X63372495Y-46081135D02*
X63372495Y-46319230D01*
X63372495Y-46319230D02*
X63324876Y-46414468D01*
X63324876Y-46414468D02*
X63277257Y-46462088D01*
X63277257Y-46462088D02*
X63182019Y-46509707D01*
X63182019Y-46509707D02*
X62943924Y-46509707D01*
X62943924Y-46509707D02*
X62848686Y-46462088D01*
X62848686Y-46462088D02*
X62801067Y-46414468D01*
X63705829Y-45509707D02*
X64372495Y-45509707D01*
X64372495Y-45509707D02*
X63943924Y-46509707D01*
X64943924Y-45509707D02*
X65039162Y-45509707D01*
X65039162Y-45509707D02*
X65134400Y-45557326D01*
X65134400Y-45557326D02*
X65182019Y-45604945D01*
X65182019Y-45604945D02*
X65229638Y-45700183D01*
X65229638Y-45700183D02*
X65277257Y-45890659D01*
X65277257Y-45890659D02*
X65277257Y-46128754D01*
X65277257Y-46128754D02*
X65229638Y-46319230D01*
X65229638Y-46319230D02*
X65182019Y-46414468D01*
X65182019Y-46414468D02*
X65134400Y-46462088D01*
X65134400Y-46462088D02*
X65039162Y-46509707D01*
X65039162Y-46509707D02*
X64943924Y-46509707D01*
X64943924Y-46509707D02*
X64848686Y-46462088D01*
X64848686Y-46462088D02*
X64801067Y-46414468D01*
X64801067Y-46414468D02*
X64753448Y-46319230D01*
X64753448Y-46319230D02*
X64705829Y-46128754D01*
X64705829Y-46128754D02*
X64705829Y-45890659D01*
X64705829Y-45890659D02*
X64753448Y-45700183D01*
X64753448Y-45700183D02*
X64801067Y-45604945D01*
X64801067Y-45604945D02*
X64848686Y-45557326D01*
X64848686Y-45557326D02*
X64943924Y-45509707D01*
X65896305Y-45509707D02*
X65991543Y-45509707D01*
X65991543Y-45509707D02*
X66086781Y-45557326D01*
X66086781Y-45557326D02*
X66134400Y-45604945D01*
X66134400Y-45604945D02*
X66182019Y-45700183D01*
X66182019Y-45700183D02*
X66229638Y-45890659D01*
X66229638Y-45890659D02*
X66229638Y-46128754D01*
X66229638Y-46128754D02*
X66182019Y-46319230D01*
X66182019Y-46319230D02*
X66134400Y-46414468D01*
X66134400Y-46414468D02*
X66086781Y-46462088D01*
X66086781Y-46462088D02*
X65991543Y-46509707D01*
X65991543Y-46509707D02*
X65896305Y-46509707D01*
X65896305Y-46509707D02*
X65801067Y-46462088D01*
X65801067Y-46462088D02*
X65753448Y-46414468D01*
X65753448Y-46414468D02*
X65705829Y-46319230D01*
X65705829Y-46319230D02*
X65658210Y-46128754D01*
X65658210Y-46128754D02*
X65658210Y-45890659D01*
X65658210Y-45890659D02*
X65705829Y-45700183D01*
X65705829Y-45700183D02*
X65753448Y-45604945D01*
X65753448Y-45604945D02*
X65801067Y-45557326D01*
X65801067Y-45557326D02*
X65896305Y-45509707D01*
D12*
X49000000Y-41500000D02*
X67600000Y-41500000D01*
X67600000Y-47400000D01*
X49000000Y-47400000D01*
X49000000Y-41500000D01*
D10*
X50465350Y-49123152D02*
X50465350Y-49932676D01*
X50465350Y-49932676D02*
X50417731Y-50027914D01*
X50417731Y-50027914D02*
X50370112Y-50075533D01*
X50370112Y-50075533D02*
X50274874Y-50123152D01*
X50274874Y-50123152D02*
X50132017Y-50123152D01*
X50132017Y-50123152D02*
X50036779Y-50075533D01*
X50465350Y-49742200D02*
X50370112Y-49789819D01*
X50370112Y-49789819D02*
X50179636Y-49789819D01*
X50179636Y-49789819D02*
X50084398Y-49742200D01*
X50084398Y-49742200D02*
X50036779Y-49694580D01*
X50036779Y-49694580D02*
X49989160Y-49599342D01*
X49989160Y-49599342D02*
X49989160Y-49313628D01*
X49989160Y-49313628D02*
X50036779Y-49218390D01*
X50036779Y-49218390D02*
X50084398Y-49170771D01*
X50084398Y-49170771D02*
X50179636Y-49123152D01*
X50179636Y-49123152D02*
X50370112Y-49123152D01*
X50370112Y-49123152D02*
X50465350Y-49170771D01*
X50941541Y-49789819D02*
X50941541Y-49123152D01*
X50941541Y-48789819D02*
X50893922Y-48837438D01*
X50893922Y-48837438D02*
X50941541Y-48885057D01*
X50941541Y-48885057D02*
X50989160Y-48837438D01*
X50989160Y-48837438D02*
X50941541Y-48789819D01*
X50941541Y-48789819D02*
X50941541Y-48885057D01*
X51274874Y-49123152D02*
X51655826Y-49123152D01*
X51417731Y-48789819D02*
X51417731Y-49646961D01*
X51417731Y-49646961D02*
X51465350Y-49742200D01*
X51465350Y-49742200D02*
X51560588Y-49789819D01*
X51560588Y-49789819D02*
X51655826Y-49789819D01*
X51989160Y-49789819D02*
X51989160Y-48789819D01*
X52417731Y-49789819D02*
X52417731Y-49266009D01*
X52417731Y-49266009D02*
X52370112Y-49170771D01*
X52370112Y-49170771D02*
X52274874Y-49123152D01*
X52274874Y-49123152D02*
X52132017Y-49123152D01*
X52132017Y-49123152D02*
X52036779Y-49170771D01*
X52036779Y-49170771D02*
X51989160Y-49218390D01*
X53322493Y-49123152D02*
X53322493Y-49789819D01*
X52893922Y-49123152D02*
X52893922Y-49646961D01*
X52893922Y-49646961D02*
X52941541Y-49742200D01*
X52941541Y-49742200D02*
X53036779Y-49789819D01*
X53036779Y-49789819D02*
X53179636Y-49789819D01*
X53179636Y-49789819D02*
X53274874Y-49742200D01*
X53274874Y-49742200D02*
X53322493Y-49694580D01*
X53798684Y-49789819D02*
X53798684Y-48789819D01*
X53798684Y-49170771D02*
X53893922Y-49123152D01*
X53893922Y-49123152D02*
X54084398Y-49123152D01*
X54084398Y-49123152D02*
X54179636Y-49170771D01*
X54179636Y-49170771D02*
X54227255Y-49218390D01*
X54227255Y-49218390D02*
X54274874Y-49313628D01*
X54274874Y-49313628D02*
X54274874Y-49599342D01*
X54274874Y-49599342D02*
X54227255Y-49694580D01*
X54227255Y-49694580D02*
X54179636Y-49742200D01*
X54179636Y-49742200D02*
X54084398Y-49789819D01*
X54084398Y-49789819D02*
X53893922Y-49789819D01*
X53893922Y-49789819D02*
X53798684Y-49742200D01*
X54703446Y-49694580D02*
X54751065Y-49742200D01*
X54751065Y-49742200D02*
X54703446Y-49789819D01*
X54703446Y-49789819D02*
X54655827Y-49742200D01*
X54655827Y-49742200D02*
X54703446Y-49694580D01*
X54703446Y-49694580D02*
X54703446Y-49789819D01*
X55608207Y-49742200D02*
X55512969Y-49789819D01*
X55512969Y-49789819D02*
X55322493Y-49789819D01*
X55322493Y-49789819D02*
X55227255Y-49742200D01*
X55227255Y-49742200D02*
X55179636Y-49694580D01*
X55179636Y-49694580D02*
X55132017Y-49599342D01*
X55132017Y-49599342D02*
X55132017Y-49313628D01*
X55132017Y-49313628D02*
X55179636Y-49218390D01*
X55179636Y-49218390D02*
X55227255Y-49170771D01*
X55227255Y-49170771D02*
X55322493Y-49123152D01*
X55322493Y-49123152D02*
X55512969Y-49123152D01*
X55512969Y-49123152D02*
X55608207Y-49170771D01*
X56179636Y-49789819D02*
X56084398Y-49742200D01*
X56084398Y-49742200D02*
X56036779Y-49694580D01*
X56036779Y-49694580D02*
X55989160Y-49599342D01*
X55989160Y-49599342D02*
X55989160Y-49313628D01*
X55989160Y-49313628D02*
X56036779Y-49218390D01*
X56036779Y-49218390D02*
X56084398Y-49170771D01*
X56084398Y-49170771D02*
X56179636Y-49123152D01*
X56179636Y-49123152D02*
X56322493Y-49123152D01*
X56322493Y-49123152D02*
X56417731Y-49170771D01*
X56417731Y-49170771D02*
X56465350Y-49218390D01*
X56465350Y-49218390D02*
X56512969Y-49313628D01*
X56512969Y-49313628D02*
X56512969Y-49599342D01*
X56512969Y-49599342D02*
X56465350Y-49694580D01*
X56465350Y-49694580D02*
X56417731Y-49742200D01*
X56417731Y-49742200D02*
X56322493Y-49789819D01*
X56322493Y-49789819D02*
X56179636Y-49789819D01*
X56941541Y-49789819D02*
X56941541Y-49123152D01*
X56941541Y-49218390D02*
X56989160Y-49170771D01*
X56989160Y-49170771D02*
X57084398Y-49123152D01*
X57084398Y-49123152D02*
X57227255Y-49123152D01*
X57227255Y-49123152D02*
X57322493Y-49170771D01*
X57322493Y-49170771D02*
X57370112Y-49266009D01*
X57370112Y-49266009D02*
X57370112Y-49789819D01*
X57370112Y-49266009D02*
X57417731Y-49170771D01*
X57417731Y-49170771D02*
X57512969Y-49123152D01*
X57512969Y-49123152D02*
X57655826Y-49123152D01*
X57655826Y-49123152D02*
X57751065Y-49170771D01*
X57751065Y-49170771D02*
X57798684Y-49266009D01*
X57798684Y-49266009D02*
X57798684Y-49789819D01*
X58989159Y-48742200D02*
X58132017Y-50027914D01*
X59322493Y-49123152D02*
X59322493Y-49789819D01*
X59322493Y-49218390D02*
X59370112Y-49170771D01*
X59370112Y-49170771D02*
X59465350Y-49123152D01*
X59465350Y-49123152D02*
X59608207Y-49123152D01*
X59608207Y-49123152D02*
X59703445Y-49170771D01*
X59703445Y-49170771D02*
X59751064Y-49266009D01*
X59751064Y-49266009D02*
X59751064Y-49789819D01*
X60608207Y-49742200D02*
X60512969Y-49789819D01*
X60512969Y-49789819D02*
X60322493Y-49789819D01*
X60322493Y-49789819D02*
X60227255Y-49742200D01*
X60227255Y-49742200D02*
X60179636Y-49646961D01*
X60179636Y-49646961D02*
X60179636Y-49266009D01*
X60179636Y-49266009D02*
X60227255Y-49170771D01*
X60227255Y-49170771D02*
X60322493Y-49123152D01*
X60322493Y-49123152D02*
X60512969Y-49123152D01*
X60512969Y-49123152D02*
X60608207Y-49170771D01*
X60608207Y-49170771D02*
X60655826Y-49266009D01*
X60655826Y-49266009D02*
X60655826Y-49361247D01*
X60655826Y-49361247D02*
X60179636Y-49456485D01*
X61512969Y-49789819D02*
X61512969Y-49266009D01*
X61512969Y-49266009D02*
X61465350Y-49170771D01*
X61465350Y-49170771D02*
X61370112Y-49123152D01*
X61370112Y-49123152D02*
X61179636Y-49123152D01*
X61179636Y-49123152D02*
X61084398Y-49170771D01*
X61512969Y-49742200D02*
X61417731Y-49789819D01*
X61417731Y-49789819D02*
X61179636Y-49789819D01*
X61179636Y-49789819D02*
X61084398Y-49742200D01*
X61084398Y-49742200D02*
X61036779Y-49646961D01*
X61036779Y-49646961D02*
X61036779Y-49551723D01*
X61036779Y-49551723D02*
X61084398Y-49456485D01*
X61084398Y-49456485D02*
X61179636Y-49408866D01*
X61179636Y-49408866D02*
X61417731Y-49408866D01*
X61417731Y-49408866D02*
X61512969Y-49361247D01*
X61989160Y-49789819D02*
X61989160Y-49123152D01*
X61989160Y-49313628D02*
X62036779Y-49218390D01*
X62036779Y-49218390D02*
X62084398Y-49170771D01*
X62084398Y-49170771D02*
X62179636Y-49123152D01*
X62179636Y-49123152D02*
X62274874Y-49123152D01*
X62989160Y-49742200D02*
X62893922Y-49789819D01*
X62893922Y-49789819D02*
X62703446Y-49789819D01*
X62703446Y-49789819D02*
X62608208Y-49742200D01*
X62608208Y-49742200D02*
X62560589Y-49646961D01*
X62560589Y-49646961D02*
X62560589Y-49266009D01*
X62560589Y-49266009D02*
X62608208Y-49170771D01*
X62608208Y-49170771D02*
X62703446Y-49123152D01*
X62703446Y-49123152D02*
X62893922Y-49123152D01*
X62893922Y-49123152D02*
X62989160Y-49170771D01*
X62989160Y-49170771D02*
X63036779Y-49266009D01*
X63036779Y-49266009D02*
X63036779Y-49361247D01*
X63036779Y-49361247D02*
X62560589Y-49456485D01*
X63417732Y-49742200D02*
X63512970Y-49789819D01*
X63512970Y-49789819D02*
X63703446Y-49789819D01*
X63703446Y-49789819D02*
X63798684Y-49742200D01*
X63798684Y-49742200D02*
X63846303Y-49646961D01*
X63846303Y-49646961D02*
X63846303Y-49599342D01*
X63846303Y-49599342D02*
X63798684Y-49504104D01*
X63798684Y-49504104D02*
X63703446Y-49456485D01*
X63703446Y-49456485D02*
X63560589Y-49456485D01*
X63560589Y-49456485D02*
X63465351Y-49408866D01*
X63465351Y-49408866D02*
X63417732Y-49313628D01*
X63417732Y-49313628D02*
X63417732Y-49266009D01*
X63417732Y-49266009D02*
X63465351Y-49170771D01*
X63465351Y-49170771D02*
X63560589Y-49123152D01*
X63560589Y-49123152D02*
X63703446Y-49123152D01*
X63703446Y-49123152D02*
X63798684Y-49170771D01*
X64132018Y-49123152D02*
X64512970Y-49123152D01*
X64274875Y-48789819D02*
X64274875Y-49646961D01*
X64274875Y-49646961D02*
X64322494Y-49742200D01*
X64322494Y-49742200D02*
X64417732Y-49789819D01*
X64417732Y-49789819D02*
X64512970Y-49789819D01*
X65227256Y-49742200D02*
X65132018Y-49789819D01*
X65132018Y-49789819D02*
X64941542Y-49789819D01*
X64941542Y-49789819D02*
X64846304Y-49742200D01*
X64846304Y-49742200D02*
X64798685Y-49646961D01*
X64798685Y-49646961D02*
X64798685Y-49266009D01*
X64798685Y-49266009D02*
X64846304Y-49170771D01*
X64846304Y-49170771D02*
X64941542Y-49123152D01*
X64941542Y-49123152D02*
X65132018Y-49123152D01*
X65132018Y-49123152D02*
X65227256Y-49170771D01*
X65227256Y-49170771D02*
X65274875Y-49266009D01*
X65274875Y-49266009D02*
X65274875Y-49361247D01*
X65274875Y-49361247D02*
X64798685Y-49456485D01*
X65608209Y-49789819D02*
X66132018Y-49123152D01*
X65608209Y-49123152D02*
X66132018Y-49789819D01*
X66512971Y-49789819D02*
X66512971Y-49123152D01*
X66512971Y-48789819D02*
X66465352Y-48837438D01*
X66465352Y-48837438D02*
X66512971Y-48885057D01*
X66512971Y-48885057D02*
X66560590Y-48837438D01*
X66560590Y-48837438D02*
X66512971Y-48789819D01*
X66512971Y-48789819D02*
X66512971Y-48885057D01*
X66846304Y-49123152D02*
X67227256Y-49123152D01*
X66989161Y-48789819D02*
X66989161Y-49646961D01*
X66989161Y-49646961D02*
X67036780Y-49742200D01*
X67036780Y-49742200D02*
X67132018Y-49789819D01*
X67132018Y-49789819D02*
X67227256Y-49789819D01*
X68274875Y-48742200D02*
X67417733Y-50027914D01*
X68465352Y-49123152D02*
X68846304Y-49123152D01*
X68608209Y-48789819D02*
X68608209Y-49646961D01*
X68608209Y-49646961D02*
X68655828Y-49742200D01*
X68655828Y-49742200D02*
X68751066Y-49789819D01*
X68751066Y-49789819D02*
X68846304Y-49789819D01*
X69322495Y-49218390D02*
X69227257Y-49170771D01*
X69227257Y-49170771D02*
X69179638Y-49123152D01*
X69179638Y-49123152D02*
X69132019Y-49027914D01*
X69132019Y-49027914D02*
X69132019Y-48980295D01*
X69132019Y-48980295D02*
X69179638Y-48885057D01*
X69179638Y-48885057D02*
X69227257Y-48837438D01*
X69227257Y-48837438D02*
X69322495Y-48789819D01*
X69322495Y-48789819D02*
X69512971Y-48789819D01*
X69512971Y-48789819D02*
X69608209Y-48837438D01*
X69608209Y-48837438D02*
X69655828Y-48885057D01*
X69655828Y-48885057D02*
X69703447Y-48980295D01*
X69703447Y-48980295D02*
X69703447Y-49027914D01*
X69703447Y-49027914D02*
X69655828Y-49123152D01*
X69655828Y-49123152D02*
X69608209Y-49170771D01*
X69608209Y-49170771D02*
X69512971Y-49218390D01*
X69512971Y-49218390D02*
X69322495Y-49218390D01*
X69322495Y-49218390D02*
X69227257Y-49266009D01*
X69227257Y-49266009D02*
X69179638Y-49313628D01*
X69179638Y-49313628D02*
X69132019Y-49408866D01*
X69132019Y-49408866D02*
X69132019Y-49599342D01*
X69132019Y-49599342D02*
X69179638Y-49694580D01*
X69179638Y-49694580D02*
X69227257Y-49742200D01*
X69227257Y-49742200D02*
X69322495Y-49789819D01*
X69322495Y-49789819D02*
X69512971Y-49789819D01*
X69512971Y-49789819D02*
X69608209Y-49742200D01*
X69608209Y-49742200D02*
X69655828Y-49694580D01*
X69655828Y-49694580D02*
X69703447Y-49599342D01*
X69703447Y-49599342D02*
X69703447Y-49408866D01*
X69703447Y-49408866D02*
X69655828Y-49313628D01*
X69655828Y-49313628D02*
X69608209Y-49266009D01*
X69608209Y-49266009D02*
X69512971Y-49218390D01*
X70322495Y-48789819D02*
X70417733Y-48789819D01*
X70417733Y-48789819D02*
X70512971Y-48837438D01*
X70512971Y-48837438D02*
X70560590Y-48885057D01*
X70560590Y-48885057D02*
X70608209Y-48980295D01*
X70608209Y-48980295D02*
X70655828Y-49170771D01*
X70655828Y-49170771D02*
X70655828Y-49408866D01*
X70655828Y-49408866D02*
X70608209Y-49599342D01*
X70608209Y-49599342D02*
X70560590Y-49694580D01*
X70560590Y-49694580D02*
X70512971Y-49742200D01*
X70512971Y-49742200D02*
X70417733Y-49789819D01*
X70417733Y-49789819D02*
X70322495Y-49789819D01*
X70322495Y-49789819D02*
X70227257Y-49742200D01*
X70227257Y-49742200D02*
X70179638Y-49694580D01*
X70179638Y-49694580D02*
X70132019Y-49599342D01*
X70132019Y-49599342D02*
X70084400Y-49408866D01*
X70084400Y-49408866D02*
X70084400Y-49170771D01*
X70084400Y-49170771D02*
X70132019Y-48980295D01*
X70132019Y-48980295D02*
X70179638Y-48885057D01*
X70179638Y-48885057D02*
X70227257Y-48837438D01*
X70227257Y-48837438D02*
X70322495Y-48789819D01*
X71084400Y-49408866D02*
X71846305Y-49408866D01*
X72798685Y-48789819D02*
X72322495Y-48789819D01*
X72322495Y-48789819D02*
X72274876Y-49266009D01*
X72274876Y-49266009D02*
X72322495Y-49218390D01*
X72322495Y-49218390D02*
X72417733Y-49170771D01*
X72417733Y-49170771D02*
X72655828Y-49170771D01*
X72655828Y-49170771D02*
X72751066Y-49218390D01*
X72751066Y-49218390D02*
X72798685Y-49266009D01*
X72798685Y-49266009D02*
X72846304Y-49361247D01*
X72846304Y-49361247D02*
X72846304Y-49599342D01*
X72846304Y-49599342D02*
X72798685Y-49694580D01*
X72798685Y-49694580D02*
X72751066Y-49742200D01*
X72751066Y-49742200D02*
X72655828Y-49789819D01*
X72655828Y-49789819D02*
X72417733Y-49789819D01*
X72417733Y-49789819D02*
X72322495Y-49742200D01*
X72322495Y-49742200D02*
X72274876Y-49694580D01*
X73465352Y-48789819D02*
X73560590Y-48789819D01*
X73560590Y-48789819D02*
X73655828Y-48837438D01*
X73655828Y-48837438D02*
X73703447Y-48885057D01*
X73703447Y-48885057D02*
X73751066Y-48980295D01*
X73751066Y-48980295D02*
X73798685Y-49170771D01*
X73798685Y-49170771D02*
X73798685Y-49408866D01*
X73798685Y-49408866D02*
X73751066Y-49599342D01*
X73751066Y-49599342D02*
X73703447Y-49694580D01*
X73703447Y-49694580D02*
X73655828Y-49742200D01*
X73655828Y-49742200D02*
X73560590Y-49789819D01*
X73560590Y-49789819D02*
X73465352Y-49789819D01*
X73465352Y-49789819D02*
X73370114Y-49742200D01*
X73370114Y-49742200D02*
X73322495Y-49694580D01*
X73322495Y-49694580D02*
X73274876Y-49599342D01*
X73274876Y-49599342D02*
X73227257Y-49408866D01*
X73227257Y-49408866D02*
X73227257Y-49170771D01*
X73227257Y-49170771D02*
X73274876Y-48980295D01*
X73274876Y-48980295D02*
X73322495Y-48885057D01*
X73322495Y-48885057D02*
X73370114Y-48837438D01*
X73370114Y-48837438D02*
X73465352Y-48789819D01*
X74417733Y-48789819D02*
X74512971Y-48789819D01*
X74512971Y-48789819D02*
X74608209Y-48837438D01*
X74608209Y-48837438D02*
X74655828Y-48885057D01*
X74655828Y-48885057D02*
X74703447Y-48980295D01*
X74703447Y-48980295D02*
X74751066Y-49170771D01*
X74751066Y-49170771D02*
X74751066Y-49408866D01*
X74751066Y-49408866D02*
X74703447Y-49599342D01*
X74703447Y-49599342D02*
X74655828Y-49694580D01*
X74655828Y-49694580D02*
X74608209Y-49742200D01*
X74608209Y-49742200D02*
X74512971Y-49789819D01*
X74512971Y-49789819D02*
X74417733Y-49789819D01*
X74417733Y-49789819D02*
X74322495Y-49742200D01*
X74322495Y-49742200D02*
X74274876Y-49694580D01*
X74274876Y-49694580D02*
X74227257Y-49599342D01*
X74227257Y-49599342D02*
X74179638Y-49408866D01*
X74179638Y-49408866D02*
X74179638Y-49170771D01*
X74179638Y-49170771D02*
X74227257Y-48980295D01*
X74227257Y-48980295D02*
X74274876Y-48885057D01*
X74274876Y-48885057D02*
X74322495Y-48837438D01*
X74322495Y-48837438D02*
X74417733Y-48789819D01*
X75370114Y-48789819D02*
X75465352Y-48789819D01*
X75465352Y-48789819D02*
X75560590Y-48837438D01*
X75560590Y-48837438D02*
X75608209Y-48885057D01*
X75608209Y-48885057D02*
X75655828Y-48980295D01*
X75655828Y-48980295D02*
X75703447Y-49170771D01*
X75703447Y-49170771D02*
X75703447Y-49408866D01*
X75703447Y-49408866D02*
X75655828Y-49599342D01*
X75655828Y-49599342D02*
X75608209Y-49694580D01*
X75608209Y-49694580D02*
X75560590Y-49742200D01*
X75560590Y-49742200D02*
X75465352Y-49789819D01*
X75465352Y-49789819D02*
X75370114Y-49789819D01*
X75370114Y-49789819D02*
X75274876Y-49742200D01*
X75274876Y-49742200D02*
X75227257Y-49694580D01*
X75227257Y-49694580D02*
X75179638Y-49599342D01*
X75179638Y-49599342D02*
X75132019Y-49408866D01*
X75132019Y-49408866D02*
X75132019Y-49170771D01*
X75132019Y-49170771D02*
X75179638Y-48980295D01*
X75179638Y-48980295D02*
X75227257Y-48885057D01*
X75227257Y-48885057D02*
X75274876Y-48837438D01*
X75274876Y-48837438D02*
X75370114Y-48789819D01*
D12*
X48950000Y-48000000D02*
X76450000Y-48000000D01*
X76450000Y-50900000D01*
X48950000Y-50900000D01*
X48950000Y-48000000D01*
D10*
X99282201Y-62885616D02*
X98520297Y-62885616D01*
X98901249Y-63266569D02*
X98901249Y-62504664D01*
X96742201Y-62885616D02*
X95980297Y-62885616D01*
X77692201Y-62885616D02*
X76930297Y-62885616D01*
X80232201Y-62885616D02*
X79470297Y-62885616D01*
X79851249Y-63266569D02*
X79851249Y-62504664D01*
X111257142Y-26504819D02*
X110923809Y-26028628D01*
X110685714Y-26504819D02*
X110685714Y-25504819D01*
X110685714Y-25504819D02*
X111066666Y-25504819D01*
X111066666Y-25504819D02*
X111161904Y-25552438D01*
X111161904Y-25552438D02*
X111209523Y-25600057D01*
X111209523Y-25600057D02*
X111257142Y-25695295D01*
X111257142Y-25695295D02*
X111257142Y-25838152D01*
X111257142Y-25838152D02*
X111209523Y-25933390D01*
X111209523Y-25933390D02*
X111161904Y-25981009D01*
X111161904Y-25981009D02*
X111066666Y-26028628D01*
X111066666Y-26028628D02*
X110685714Y-26028628D01*
X112209523Y-26504819D02*
X111638095Y-26504819D01*
X111923809Y-26504819D02*
X111923809Y-25504819D01*
X111923809Y-25504819D02*
X111828571Y-25647676D01*
X111828571Y-25647676D02*
X111733333Y-25742914D01*
X111733333Y-25742914D02*
X111638095Y-25790533D01*
X113066666Y-25504819D02*
X112876190Y-25504819D01*
X112876190Y-25504819D02*
X112780952Y-25552438D01*
X112780952Y-25552438D02*
X112733333Y-25600057D01*
X112733333Y-25600057D02*
X112638095Y-25742914D01*
X112638095Y-25742914D02*
X112590476Y-25933390D01*
X112590476Y-25933390D02*
X112590476Y-26314342D01*
X112590476Y-26314342D02*
X112638095Y-26409580D01*
X112638095Y-26409580D02*
X112685714Y-26457200D01*
X112685714Y-26457200D02*
X112780952Y-26504819D01*
X112780952Y-26504819D02*
X112971428Y-26504819D01*
X112971428Y-26504819D02*
X113066666Y-26457200D01*
X113066666Y-26457200D02*
X113114285Y-26409580D01*
X113114285Y-26409580D02*
X113161904Y-26314342D01*
X113161904Y-26314342D02*
X113161904Y-26076247D01*
X113161904Y-26076247D02*
X113114285Y-25981009D01*
X113114285Y-25981009D02*
X113066666Y-25933390D01*
X113066666Y-25933390D02*
X112971428Y-25885771D01*
X112971428Y-25885771D02*
X112780952Y-25885771D01*
X112780952Y-25885771D02*
X112685714Y-25933390D01*
X112685714Y-25933390D02*
X112638095Y-25981009D01*
X112638095Y-25981009D02*
X112590476Y-26076247D01*
X58642201Y-62885616D02*
X57880297Y-62885616D01*
X61182201Y-62885616D02*
X60420297Y-62885616D01*
X60801249Y-63266569D02*
X60801249Y-62504664D01*
X115792201Y-62885616D02*
X115030297Y-62885616D01*
X118332201Y-62885616D02*
X117570297Y-62885616D01*
X117951249Y-63266569D02*
X117951249Y-62504664D01*
%LPC*%
D13*
%TO.C,MX4*%
X54451250Y-116681250D03*
D14*
X59531250Y-116681250D03*
D13*
X64611250Y-116681250D03*
%TD*%
%TO.C,MX10*%
X73501250Y-116681250D03*
D14*
X78581250Y-116681250D03*
D13*
X83661250Y-116681250D03*
%TD*%
%TO.C,MX9*%
X73501250Y-97631250D03*
D14*
X78581250Y-97631250D03*
D13*
X83661250Y-97631250D03*
%TD*%
%TO.C,MX3*%
X54451250Y-97631250D03*
D14*
X59531250Y-97631250D03*
D13*
X64611250Y-97631250D03*
%TD*%
%TO.C,MX8*%
X73501250Y-78581250D03*
D14*
X78581250Y-78581250D03*
D13*
X83661250Y-78581250D03*
%TD*%
%TO.C,MX23*%
X111601250Y-88106250D03*
D14*
X116681250Y-88106250D03*
D13*
X121761250Y-88106250D03*
%TD*%
%TO.C,MX1*%
X54451250Y-59531250D03*
D14*
X59531250Y-59531250D03*
D13*
X64611250Y-59531250D03*
%TD*%
%TO.C,MX20*%
X111601250Y-97631250D03*
D14*
X116681250Y-97631250D03*
D13*
X121761250Y-97631250D03*
%TD*%
%TO.C,MX24*%
X111601250Y-126206250D03*
D14*
X116681250Y-126206250D03*
D13*
X121761250Y-126206250D03*
%TD*%
%TO.C,MX18*%
X111601250Y-59531250D03*
D14*
X116681250Y-59531250D03*
D13*
X121761250Y-59531250D03*
%TD*%
%TO.C,MX11*%
X73501250Y-135731250D03*
D14*
X78581250Y-135731250D03*
D13*
X83661250Y-135731250D03*
%TD*%
%TO.C,MX12*%
X92551250Y-59531250D03*
D14*
X97631250Y-59531250D03*
D13*
X102711250Y-59531250D03*
%TD*%
%TO.C,MX21*%
X111601250Y-116681250D03*
D14*
X116681250Y-116681250D03*
D13*
X121761250Y-116681250D03*
%TD*%
%TO.C,MX14*%
X92551250Y-97631250D03*
D14*
X97631250Y-97631250D03*
D13*
X102711250Y-97631250D03*
%TD*%
%TO.C,MX16*%
X92551250Y-135731250D03*
D14*
X97631250Y-135731250D03*
D13*
X102711250Y-135731250D03*
%TD*%
%TO.C,MX17*%
X102076250Y-135731250D03*
D14*
X107156250Y-135731250D03*
D13*
X112236250Y-135731250D03*
%TD*%
%TO.C,MX5*%
X54451250Y-135731250D03*
D14*
X59531250Y-135731250D03*
D13*
X64611250Y-135731250D03*
%TD*%
%TO.C,MX2*%
X54451250Y-78581250D03*
D14*
X59531250Y-78581250D03*
D13*
X64611250Y-78581250D03*
%TD*%
%TO.C,MX15*%
X92551250Y-116681250D03*
D14*
X97631250Y-116681250D03*
D13*
X102711250Y-116681250D03*
%TD*%
%TO.C,MX22*%
X111601250Y-135731250D03*
D14*
X116681250Y-135731250D03*
D13*
X121761250Y-135731250D03*
%TD*%
%TO.C,MX13*%
X92551250Y-78581250D03*
D14*
X97631250Y-78581250D03*
D13*
X102711250Y-78581250D03*
%TD*%
%TO.C,MX6*%
X63976250Y-135731250D03*
D14*
X69056250Y-135731250D03*
D13*
X74136250Y-135731250D03*
%TD*%
%TO.C,MX19*%
X111601250Y-78581250D03*
D14*
X116681250Y-78581250D03*
D13*
X121761250Y-78581250D03*
%TD*%
%TO.C,MX7*%
X73501250Y-59531250D03*
D14*
X78581250Y-59531250D03*
D13*
X83661250Y-59531250D03*
%TD*%
D15*
%TO.C,BOOT1*%
X88106250Y-57562500D03*
D16*
X88106250Y-60102500D03*
%TD*%
D17*
%TO.C,D3*%
X96361250Y-64611750D03*
D18*
X98901250Y-64611750D03*
%TD*%
D19*
%TO.C,R6*%
X69056250Y-54000000D03*
D20*
X69056250Y-64160000D03*
%TD*%
D15*
%TO.C,J2*%
X71120000Y-43400000D03*
D16*
X73660000Y-43400000D03*
X76200000Y-43400000D03*
X78740000Y-43400000D03*
X81280000Y-43400000D03*
%TD*%
D17*
%TO.C,D2*%
X77311250Y-64611750D03*
D18*
X79851250Y-64611750D03*
%TD*%
D14*
%TO.C,S2*%
X119062500Y-143986250D03*
D21*
X119062500Y-128746250D03*
D14*
X95250000Y-143986250D03*
D21*
X95250000Y-128746250D03*
%TD*%
D19*
%TO.C,R10*%
X107156250Y-54000000D03*
D20*
X107156250Y-64160000D03*
%TD*%
D14*
%TO.C,S4*%
X108426250Y-100012500D03*
D21*
X123666250Y-100012500D03*
D14*
X108426250Y-76200000D03*
D21*
X123666250Y-76200000D03*
%TD*%
D19*
%TO.C,R4*%
X69056250Y-83661250D03*
D20*
X69056250Y-73501250D03*
%TD*%
D19*
%TO.C,R8*%
X88106250Y-83661250D03*
D20*
X88106250Y-73501250D03*
%TD*%
D14*
%TO.C,S3*%
X108426250Y-138112500D03*
D21*
X123666250Y-138112500D03*
D14*
X108426250Y-114300000D03*
D21*
X123666250Y-114300000D03*
%TD*%
D17*
%TO.C,D1*%
X58261250Y-64611750D03*
D18*
X60801250Y-64611750D03*
%TD*%
D17*
%TO.C,D4*%
X115411250Y-64611750D03*
D18*
X117951250Y-64611750D03*
%TD*%
D14*
%TO.C,S1*%
X80962500Y-143986250D03*
D21*
X80962500Y-128746250D03*
D14*
X57150000Y-143986250D03*
D21*
X57150000Y-128746250D03*
%TD*%
D22*
%TO.C,J1*%
X109590000Y-27421200D03*
X109590000Y-21641200D03*
D23*
X105940000Y-28851200D03*
D24*
X110120000Y-28851200D03*
D23*
X105940000Y-20211200D03*
D24*
X110120000Y-20211200D03*
%TD*%
%LPD*%
M02*
