%TF.GenerationSoftware,KiCad,Pcbnew,8.0.2*%
%TF.CreationDate,2024-11-08T17:23:41-08:00*%
%TF.ProjectId,gh80-5700,67683830-2d35-4373-9030-2e6b69636164,rev?*%
%TF.SameCoordinates,Original*%
%TF.FileFunction,Other,Comment*%
%FSLAX46Y46*%
G04 Gerber Fmt 4.6, Leading zero omitted, Abs format (unit mm)*
G04 Created by KiCad (PCBNEW 8.0.2) date 2024-11-08 17:23:41*
%MOMM*%
%LPD*%
G01*
G04 APERTURE LIST*
%ADD10C,0.150000*%
%ADD11C,0.120000*%
G04 APERTURE END LIST*
D10*
X92774106Y-58768950D02*
X92869344Y-58816569D01*
X92869344Y-58816569D02*
X93059820Y-58816569D01*
X93059820Y-58816569D02*
X93155058Y-58768950D01*
X93155058Y-58768950D02*
X93202677Y-58673711D01*
X93202677Y-58673711D02*
X93202677Y-58626092D01*
X93202677Y-58626092D02*
X93155058Y-58530854D01*
X93155058Y-58530854D02*
X93059820Y-58483235D01*
X93059820Y-58483235D02*
X92916963Y-58483235D01*
X92916963Y-58483235D02*
X92821725Y-58435616D01*
X92821725Y-58435616D02*
X92774106Y-58340378D01*
X92774106Y-58340378D02*
X92774106Y-58292759D01*
X92774106Y-58292759D02*
X92821725Y-58197521D01*
X92821725Y-58197521D02*
X92916963Y-58149902D01*
X92916963Y-58149902D02*
X93059820Y-58149902D01*
X93059820Y-58149902D02*
X93155058Y-58197521D01*
X93536011Y-58149902D02*
X93726487Y-58816569D01*
X93726487Y-58816569D02*
X93916963Y-58340378D01*
X93916963Y-58340378D02*
X94107439Y-58816569D01*
X94107439Y-58816569D02*
X94297915Y-58149902D01*
X94678868Y-58816569D02*
X94678868Y-58149902D01*
X94678868Y-57816569D02*
X94631249Y-57864188D01*
X94631249Y-57864188D02*
X94678868Y-57911807D01*
X94678868Y-57911807D02*
X94726487Y-57864188D01*
X94726487Y-57864188D02*
X94678868Y-57816569D01*
X94678868Y-57816569D02*
X94678868Y-57911807D01*
X95012201Y-58149902D02*
X95393153Y-58149902D01*
X95155058Y-57816569D02*
X95155058Y-58673711D01*
X95155058Y-58673711D02*
X95202677Y-58768950D01*
X95202677Y-58768950D02*
X95297915Y-58816569D01*
X95297915Y-58816569D02*
X95393153Y-58816569D01*
X96155058Y-58768950D02*
X96059820Y-58816569D01*
X96059820Y-58816569D02*
X95869344Y-58816569D01*
X95869344Y-58816569D02*
X95774106Y-58768950D01*
X95774106Y-58768950D02*
X95726487Y-58721330D01*
X95726487Y-58721330D02*
X95678868Y-58626092D01*
X95678868Y-58626092D02*
X95678868Y-58340378D01*
X95678868Y-58340378D02*
X95726487Y-58245140D01*
X95726487Y-58245140D02*
X95774106Y-58197521D01*
X95774106Y-58197521D02*
X95869344Y-58149902D01*
X95869344Y-58149902D02*
X96059820Y-58149902D01*
X96059820Y-58149902D02*
X96155058Y-58197521D01*
X96583630Y-58816569D02*
X96583630Y-57816569D01*
X97012201Y-58816569D02*
X97012201Y-58292759D01*
X97012201Y-58292759D02*
X96964582Y-58197521D01*
X96964582Y-58197521D02*
X96869344Y-58149902D01*
X96869344Y-58149902D02*
X96726487Y-58149902D01*
X96726487Y-58149902D02*
X96631249Y-58197521D01*
X96631249Y-58197521D02*
X96583630Y-58245140D01*
X98678868Y-58768950D02*
X98583630Y-58816569D01*
X98583630Y-58816569D02*
X98393154Y-58816569D01*
X98393154Y-58816569D02*
X98297916Y-58768950D01*
X98297916Y-58768950D02*
X98250297Y-58721330D01*
X98250297Y-58721330D02*
X98202678Y-58626092D01*
X98202678Y-58626092D02*
X98202678Y-58340378D01*
X98202678Y-58340378D02*
X98250297Y-58245140D01*
X98250297Y-58245140D02*
X98297916Y-58197521D01*
X98297916Y-58197521D02*
X98393154Y-58149902D01*
X98393154Y-58149902D02*
X98583630Y-58149902D01*
X98583630Y-58149902D02*
X98678868Y-58197521D01*
X99488392Y-58768950D02*
X99393154Y-58816569D01*
X99393154Y-58816569D02*
X99202678Y-58816569D01*
X99202678Y-58816569D02*
X99107440Y-58768950D01*
X99107440Y-58768950D02*
X99059821Y-58673711D01*
X99059821Y-58673711D02*
X99059821Y-58292759D01*
X99059821Y-58292759D02*
X99107440Y-58197521D01*
X99107440Y-58197521D02*
X99202678Y-58149902D01*
X99202678Y-58149902D02*
X99393154Y-58149902D01*
X99393154Y-58149902D02*
X99488392Y-58197521D01*
X99488392Y-58197521D02*
X99536011Y-58292759D01*
X99536011Y-58292759D02*
X99536011Y-58387997D01*
X99536011Y-58387997D02*
X99059821Y-58483235D01*
X99964583Y-58149902D02*
X99964583Y-58816569D01*
X99964583Y-58245140D02*
X100012202Y-58197521D01*
X100012202Y-58197521D02*
X100107440Y-58149902D01*
X100107440Y-58149902D02*
X100250297Y-58149902D01*
X100250297Y-58149902D02*
X100345535Y-58197521D01*
X100345535Y-58197521D02*
X100393154Y-58292759D01*
X100393154Y-58292759D02*
X100393154Y-58816569D01*
X100726488Y-58149902D02*
X101107440Y-58149902D01*
X100869345Y-57816569D02*
X100869345Y-58673711D01*
X100869345Y-58673711D02*
X100916964Y-58768950D01*
X100916964Y-58768950D02*
X101012202Y-58816569D01*
X101012202Y-58816569D02*
X101107440Y-58816569D01*
X101821726Y-58768950D02*
X101726488Y-58816569D01*
X101726488Y-58816569D02*
X101536012Y-58816569D01*
X101536012Y-58816569D02*
X101440774Y-58768950D01*
X101440774Y-58768950D02*
X101393155Y-58673711D01*
X101393155Y-58673711D02*
X101393155Y-58292759D01*
X101393155Y-58292759D02*
X101440774Y-58197521D01*
X101440774Y-58197521D02*
X101536012Y-58149902D01*
X101536012Y-58149902D02*
X101726488Y-58149902D01*
X101726488Y-58149902D02*
X101821726Y-58197521D01*
X101821726Y-58197521D02*
X101869345Y-58292759D01*
X101869345Y-58292759D02*
X101869345Y-58387997D01*
X101869345Y-58387997D02*
X101393155Y-58483235D01*
X102297917Y-58816569D02*
X102297917Y-58149902D01*
X102297917Y-58340378D02*
X102345536Y-58245140D01*
X102345536Y-58245140D02*
X102393155Y-58197521D01*
X102393155Y-58197521D02*
X102488393Y-58149902D01*
X102488393Y-58149902D02*
X102583631Y-58149902D01*
X73724106Y-58768950D02*
X73819344Y-58816569D01*
X73819344Y-58816569D02*
X74009820Y-58816569D01*
X74009820Y-58816569D02*
X74105058Y-58768950D01*
X74105058Y-58768950D02*
X74152677Y-58673711D01*
X74152677Y-58673711D02*
X74152677Y-58626092D01*
X74152677Y-58626092D02*
X74105058Y-58530854D01*
X74105058Y-58530854D02*
X74009820Y-58483235D01*
X74009820Y-58483235D02*
X73866963Y-58483235D01*
X73866963Y-58483235D02*
X73771725Y-58435616D01*
X73771725Y-58435616D02*
X73724106Y-58340378D01*
X73724106Y-58340378D02*
X73724106Y-58292759D01*
X73724106Y-58292759D02*
X73771725Y-58197521D01*
X73771725Y-58197521D02*
X73866963Y-58149902D01*
X73866963Y-58149902D02*
X74009820Y-58149902D01*
X74009820Y-58149902D02*
X74105058Y-58197521D01*
X74486011Y-58149902D02*
X74676487Y-58816569D01*
X74676487Y-58816569D02*
X74866963Y-58340378D01*
X74866963Y-58340378D02*
X75057439Y-58816569D01*
X75057439Y-58816569D02*
X75247915Y-58149902D01*
X75628868Y-58816569D02*
X75628868Y-58149902D01*
X75628868Y-57816569D02*
X75581249Y-57864188D01*
X75581249Y-57864188D02*
X75628868Y-57911807D01*
X75628868Y-57911807D02*
X75676487Y-57864188D01*
X75676487Y-57864188D02*
X75628868Y-57816569D01*
X75628868Y-57816569D02*
X75628868Y-57911807D01*
X75962201Y-58149902D02*
X76343153Y-58149902D01*
X76105058Y-57816569D02*
X76105058Y-58673711D01*
X76105058Y-58673711D02*
X76152677Y-58768950D01*
X76152677Y-58768950D02*
X76247915Y-58816569D01*
X76247915Y-58816569D02*
X76343153Y-58816569D01*
X77105058Y-58768950D02*
X77009820Y-58816569D01*
X77009820Y-58816569D02*
X76819344Y-58816569D01*
X76819344Y-58816569D02*
X76724106Y-58768950D01*
X76724106Y-58768950D02*
X76676487Y-58721330D01*
X76676487Y-58721330D02*
X76628868Y-58626092D01*
X76628868Y-58626092D02*
X76628868Y-58340378D01*
X76628868Y-58340378D02*
X76676487Y-58245140D01*
X76676487Y-58245140D02*
X76724106Y-58197521D01*
X76724106Y-58197521D02*
X76819344Y-58149902D01*
X76819344Y-58149902D02*
X77009820Y-58149902D01*
X77009820Y-58149902D02*
X77105058Y-58197521D01*
X77533630Y-58816569D02*
X77533630Y-57816569D01*
X77962201Y-58816569D02*
X77962201Y-58292759D01*
X77962201Y-58292759D02*
X77914582Y-58197521D01*
X77914582Y-58197521D02*
X77819344Y-58149902D01*
X77819344Y-58149902D02*
X77676487Y-58149902D01*
X77676487Y-58149902D02*
X77581249Y-58197521D01*
X77581249Y-58197521D02*
X77533630Y-58245140D01*
X79628868Y-58768950D02*
X79533630Y-58816569D01*
X79533630Y-58816569D02*
X79343154Y-58816569D01*
X79343154Y-58816569D02*
X79247916Y-58768950D01*
X79247916Y-58768950D02*
X79200297Y-58721330D01*
X79200297Y-58721330D02*
X79152678Y-58626092D01*
X79152678Y-58626092D02*
X79152678Y-58340378D01*
X79152678Y-58340378D02*
X79200297Y-58245140D01*
X79200297Y-58245140D02*
X79247916Y-58197521D01*
X79247916Y-58197521D02*
X79343154Y-58149902D01*
X79343154Y-58149902D02*
X79533630Y-58149902D01*
X79533630Y-58149902D02*
X79628868Y-58197521D01*
X80438392Y-58768950D02*
X80343154Y-58816569D01*
X80343154Y-58816569D02*
X80152678Y-58816569D01*
X80152678Y-58816569D02*
X80057440Y-58768950D01*
X80057440Y-58768950D02*
X80009821Y-58673711D01*
X80009821Y-58673711D02*
X80009821Y-58292759D01*
X80009821Y-58292759D02*
X80057440Y-58197521D01*
X80057440Y-58197521D02*
X80152678Y-58149902D01*
X80152678Y-58149902D02*
X80343154Y-58149902D01*
X80343154Y-58149902D02*
X80438392Y-58197521D01*
X80438392Y-58197521D02*
X80486011Y-58292759D01*
X80486011Y-58292759D02*
X80486011Y-58387997D01*
X80486011Y-58387997D02*
X80009821Y-58483235D01*
X80914583Y-58149902D02*
X80914583Y-58816569D01*
X80914583Y-58245140D02*
X80962202Y-58197521D01*
X80962202Y-58197521D02*
X81057440Y-58149902D01*
X81057440Y-58149902D02*
X81200297Y-58149902D01*
X81200297Y-58149902D02*
X81295535Y-58197521D01*
X81295535Y-58197521D02*
X81343154Y-58292759D01*
X81343154Y-58292759D02*
X81343154Y-58816569D01*
X81676488Y-58149902D02*
X82057440Y-58149902D01*
X81819345Y-57816569D02*
X81819345Y-58673711D01*
X81819345Y-58673711D02*
X81866964Y-58768950D01*
X81866964Y-58768950D02*
X81962202Y-58816569D01*
X81962202Y-58816569D02*
X82057440Y-58816569D01*
X82771726Y-58768950D02*
X82676488Y-58816569D01*
X82676488Y-58816569D02*
X82486012Y-58816569D01*
X82486012Y-58816569D02*
X82390774Y-58768950D01*
X82390774Y-58768950D02*
X82343155Y-58673711D01*
X82343155Y-58673711D02*
X82343155Y-58292759D01*
X82343155Y-58292759D02*
X82390774Y-58197521D01*
X82390774Y-58197521D02*
X82486012Y-58149902D01*
X82486012Y-58149902D02*
X82676488Y-58149902D01*
X82676488Y-58149902D02*
X82771726Y-58197521D01*
X82771726Y-58197521D02*
X82819345Y-58292759D01*
X82819345Y-58292759D02*
X82819345Y-58387997D01*
X82819345Y-58387997D02*
X82343155Y-58483235D01*
X83247917Y-58816569D02*
X83247917Y-58149902D01*
X83247917Y-58340378D02*
X83295536Y-58245140D01*
X83295536Y-58245140D02*
X83343155Y-58197521D01*
X83343155Y-58197521D02*
X83438393Y-58149902D01*
X83438393Y-58149902D02*
X83533631Y-58149902D01*
X104370535Y-144314069D02*
X104370535Y-143314069D01*
X104370535Y-143314069D02*
X104703868Y-144028354D01*
X104703868Y-144028354D02*
X105037201Y-143314069D01*
X105037201Y-143314069D02*
X105037201Y-144314069D01*
X105418154Y-143314069D02*
X106084820Y-144314069D01*
X106084820Y-143314069D02*
X105418154Y-144314069D01*
X106227678Y-144409307D02*
X106989582Y-144409307D01*
X107180059Y-144266450D02*
X107275297Y-144314069D01*
X107275297Y-144314069D02*
X107465773Y-144314069D01*
X107465773Y-144314069D02*
X107561011Y-144266450D01*
X107561011Y-144266450D02*
X107608630Y-144171211D01*
X107608630Y-144171211D02*
X107608630Y-144123592D01*
X107608630Y-144123592D02*
X107561011Y-144028354D01*
X107561011Y-144028354D02*
X107465773Y-143980735D01*
X107465773Y-143980735D02*
X107322916Y-143980735D01*
X107322916Y-143980735D02*
X107227678Y-143933116D01*
X107227678Y-143933116D02*
X107180059Y-143837878D01*
X107180059Y-143837878D02*
X107180059Y-143790259D01*
X107180059Y-143790259D02*
X107227678Y-143695021D01*
X107227678Y-143695021D02*
X107322916Y-143647402D01*
X107322916Y-143647402D02*
X107465773Y-143647402D01*
X107465773Y-143647402D02*
X107561011Y-143695021D01*
X107894345Y-143647402D02*
X108275297Y-143647402D01*
X108037202Y-143314069D02*
X108037202Y-144171211D01*
X108037202Y-144171211D02*
X108084821Y-144266450D01*
X108084821Y-144266450D02*
X108180059Y-144314069D01*
X108180059Y-144314069D02*
X108275297Y-144314069D01*
X109037202Y-144314069D02*
X109037202Y-143790259D01*
X109037202Y-143790259D02*
X108989583Y-143695021D01*
X108989583Y-143695021D02*
X108894345Y-143647402D01*
X108894345Y-143647402D02*
X108703869Y-143647402D01*
X108703869Y-143647402D02*
X108608631Y-143695021D01*
X109037202Y-144266450D02*
X108941964Y-144314069D01*
X108941964Y-144314069D02*
X108703869Y-144314069D01*
X108703869Y-144314069D02*
X108608631Y-144266450D01*
X108608631Y-144266450D02*
X108561012Y-144171211D01*
X108561012Y-144171211D02*
X108561012Y-144075973D01*
X108561012Y-144075973D02*
X108608631Y-143980735D01*
X108608631Y-143980735D02*
X108703869Y-143933116D01*
X108703869Y-143933116D02*
X108941964Y-143933116D01*
X108941964Y-143933116D02*
X109037202Y-143885497D01*
X109513393Y-144314069D02*
X109513393Y-143314069D01*
X109513393Y-143695021D02*
X109608631Y-143647402D01*
X109608631Y-143647402D02*
X109799107Y-143647402D01*
X109799107Y-143647402D02*
X109894345Y-143695021D01*
X109894345Y-143695021D02*
X109941964Y-143742640D01*
X109941964Y-143742640D02*
X109989583Y-143837878D01*
X109989583Y-143837878D02*
X109989583Y-144123592D01*
X109989583Y-144123592D02*
X109941964Y-144218830D01*
X109941964Y-144218830D02*
X109894345Y-144266450D01*
X109894345Y-144266450D02*
X109799107Y-144314069D01*
X109799107Y-144314069D02*
X109608631Y-144314069D01*
X109608631Y-144314069D02*
X109513393Y-144266450D01*
X109008069Y-90891964D02*
X108008069Y-90891964D01*
X108008069Y-90891964D02*
X108722354Y-90558631D01*
X108722354Y-90558631D02*
X108008069Y-90225298D01*
X108008069Y-90225298D02*
X109008069Y-90225298D01*
X108008069Y-89844345D02*
X109008069Y-89177679D01*
X108008069Y-89177679D02*
X109008069Y-89844345D01*
X109103307Y-89034822D02*
X109103307Y-88272917D01*
X108960450Y-88082440D02*
X109008069Y-87987202D01*
X109008069Y-87987202D02*
X109008069Y-87796726D01*
X109008069Y-87796726D02*
X108960450Y-87701488D01*
X108960450Y-87701488D02*
X108865211Y-87653869D01*
X108865211Y-87653869D02*
X108817592Y-87653869D01*
X108817592Y-87653869D02*
X108722354Y-87701488D01*
X108722354Y-87701488D02*
X108674735Y-87796726D01*
X108674735Y-87796726D02*
X108674735Y-87939583D01*
X108674735Y-87939583D02*
X108627116Y-88034821D01*
X108627116Y-88034821D02*
X108531878Y-88082440D01*
X108531878Y-88082440D02*
X108484259Y-88082440D01*
X108484259Y-88082440D02*
X108389021Y-88034821D01*
X108389021Y-88034821D02*
X108341402Y-87939583D01*
X108341402Y-87939583D02*
X108341402Y-87796726D01*
X108341402Y-87796726D02*
X108389021Y-87701488D01*
X108341402Y-87368154D02*
X108341402Y-86987202D01*
X108008069Y-87225297D02*
X108865211Y-87225297D01*
X108865211Y-87225297D02*
X108960450Y-87177678D01*
X108960450Y-87177678D02*
X109008069Y-87082440D01*
X109008069Y-87082440D02*
X109008069Y-86987202D01*
X109008069Y-86225297D02*
X108484259Y-86225297D01*
X108484259Y-86225297D02*
X108389021Y-86272916D01*
X108389021Y-86272916D02*
X108341402Y-86368154D01*
X108341402Y-86368154D02*
X108341402Y-86558630D01*
X108341402Y-86558630D02*
X108389021Y-86653868D01*
X108960450Y-86225297D02*
X109008069Y-86320535D01*
X109008069Y-86320535D02*
X109008069Y-86558630D01*
X109008069Y-86558630D02*
X108960450Y-86653868D01*
X108960450Y-86653868D02*
X108865211Y-86701487D01*
X108865211Y-86701487D02*
X108769973Y-86701487D01*
X108769973Y-86701487D02*
X108674735Y-86653868D01*
X108674735Y-86653868D02*
X108627116Y-86558630D01*
X108627116Y-86558630D02*
X108627116Y-86320535D01*
X108627116Y-86320535D02*
X108579497Y-86225297D01*
X109008069Y-85749106D02*
X108008069Y-85749106D01*
X108389021Y-85749106D02*
X108341402Y-85653868D01*
X108341402Y-85653868D02*
X108341402Y-85463392D01*
X108341402Y-85463392D02*
X108389021Y-85368154D01*
X108389021Y-85368154D02*
X108436640Y-85320535D01*
X108436640Y-85320535D02*
X108531878Y-85272916D01*
X108531878Y-85272916D02*
X108817592Y-85272916D01*
X108817592Y-85272916D02*
X108912830Y-85320535D01*
X108912830Y-85320535D02*
X108960450Y-85368154D01*
X108960450Y-85368154D02*
X109008069Y-85463392D01*
X109008069Y-85463392D02*
X109008069Y-85653868D01*
X109008069Y-85653868D02*
X108960450Y-85749106D01*
X109008069Y-128991964D02*
X108008069Y-128991964D01*
X108008069Y-128991964D02*
X108722354Y-128658631D01*
X108722354Y-128658631D02*
X108008069Y-128325298D01*
X108008069Y-128325298D02*
X109008069Y-128325298D01*
X108008069Y-127944345D02*
X109008069Y-127277679D01*
X108008069Y-127277679D02*
X109008069Y-127944345D01*
X109103307Y-127134822D02*
X109103307Y-126372917D01*
X108960450Y-126182440D02*
X109008069Y-126087202D01*
X109008069Y-126087202D02*
X109008069Y-125896726D01*
X109008069Y-125896726D02*
X108960450Y-125801488D01*
X108960450Y-125801488D02*
X108865211Y-125753869D01*
X108865211Y-125753869D02*
X108817592Y-125753869D01*
X108817592Y-125753869D02*
X108722354Y-125801488D01*
X108722354Y-125801488D02*
X108674735Y-125896726D01*
X108674735Y-125896726D02*
X108674735Y-126039583D01*
X108674735Y-126039583D02*
X108627116Y-126134821D01*
X108627116Y-126134821D02*
X108531878Y-126182440D01*
X108531878Y-126182440D02*
X108484259Y-126182440D01*
X108484259Y-126182440D02*
X108389021Y-126134821D01*
X108389021Y-126134821D02*
X108341402Y-126039583D01*
X108341402Y-126039583D02*
X108341402Y-125896726D01*
X108341402Y-125896726D02*
X108389021Y-125801488D01*
X108341402Y-125468154D02*
X108341402Y-125087202D01*
X108008069Y-125325297D02*
X108865211Y-125325297D01*
X108865211Y-125325297D02*
X108960450Y-125277678D01*
X108960450Y-125277678D02*
X109008069Y-125182440D01*
X109008069Y-125182440D02*
X109008069Y-125087202D01*
X109008069Y-124325297D02*
X108484259Y-124325297D01*
X108484259Y-124325297D02*
X108389021Y-124372916D01*
X108389021Y-124372916D02*
X108341402Y-124468154D01*
X108341402Y-124468154D02*
X108341402Y-124658630D01*
X108341402Y-124658630D02*
X108389021Y-124753868D01*
X108960450Y-124325297D02*
X109008069Y-124420535D01*
X109008069Y-124420535D02*
X109008069Y-124658630D01*
X109008069Y-124658630D02*
X108960450Y-124753868D01*
X108960450Y-124753868D02*
X108865211Y-124801487D01*
X108865211Y-124801487D02*
X108769973Y-124801487D01*
X108769973Y-124801487D02*
X108674735Y-124753868D01*
X108674735Y-124753868D02*
X108627116Y-124658630D01*
X108627116Y-124658630D02*
X108627116Y-124420535D01*
X108627116Y-124420535D02*
X108579497Y-124325297D01*
X109008069Y-123849106D02*
X108008069Y-123849106D01*
X108389021Y-123849106D02*
X108341402Y-123753868D01*
X108341402Y-123753868D02*
X108341402Y-123563392D01*
X108341402Y-123563392D02*
X108389021Y-123468154D01*
X108389021Y-123468154D02*
X108436640Y-123420535D01*
X108436640Y-123420535D02*
X108531878Y-123372916D01*
X108531878Y-123372916D02*
X108817592Y-123372916D01*
X108817592Y-123372916D02*
X108912830Y-123420535D01*
X108912830Y-123420535D02*
X108960450Y-123468154D01*
X108960450Y-123468154D02*
X109008069Y-123563392D01*
X109008069Y-123563392D02*
X109008069Y-123753868D01*
X109008069Y-123753868D02*
X108960450Y-123849106D01*
X54674106Y-58768950D02*
X54769344Y-58816569D01*
X54769344Y-58816569D02*
X54959820Y-58816569D01*
X54959820Y-58816569D02*
X55055058Y-58768950D01*
X55055058Y-58768950D02*
X55102677Y-58673711D01*
X55102677Y-58673711D02*
X55102677Y-58626092D01*
X55102677Y-58626092D02*
X55055058Y-58530854D01*
X55055058Y-58530854D02*
X54959820Y-58483235D01*
X54959820Y-58483235D02*
X54816963Y-58483235D01*
X54816963Y-58483235D02*
X54721725Y-58435616D01*
X54721725Y-58435616D02*
X54674106Y-58340378D01*
X54674106Y-58340378D02*
X54674106Y-58292759D01*
X54674106Y-58292759D02*
X54721725Y-58197521D01*
X54721725Y-58197521D02*
X54816963Y-58149902D01*
X54816963Y-58149902D02*
X54959820Y-58149902D01*
X54959820Y-58149902D02*
X55055058Y-58197521D01*
X55436011Y-58149902D02*
X55626487Y-58816569D01*
X55626487Y-58816569D02*
X55816963Y-58340378D01*
X55816963Y-58340378D02*
X56007439Y-58816569D01*
X56007439Y-58816569D02*
X56197915Y-58149902D01*
X56578868Y-58816569D02*
X56578868Y-58149902D01*
X56578868Y-57816569D02*
X56531249Y-57864188D01*
X56531249Y-57864188D02*
X56578868Y-57911807D01*
X56578868Y-57911807D02*
X56626487Y-57864188D01*
X56626487Y-57864188D02*
X56578868Y-57816569D01*
X56578868Y-57816569D02*
X56578868Y-57911807D01*
X56912201Y-58149902D02*
X57293153Y-58149902D01*
X57055058Y-57816569D02*
X57055058Y-58673711D01*
X57055058Y-58673711D02*
X57102677Y-58768950D01*
X57102677Y-58768950D02*
X57197915Y-58816569D01*
X57197915Y-58816569D02*
X57293153Y-58816569D01*
X58055058Y-58768950D02*
X57959820Y-58816569D01*
X57959820Y-58816569D02*
X57769344Y-58816569D01*
X57769344Y-58816569D02*
X57674106Y-58768950D01*
X57674106Y-58768950D02*
X57626487Y-58721330D01*
X57626487Y-58721330D02*
X57578868Y-58626092D01*
X57578868Y-58626092D02*
X57578868Y-58340378D01*
X57578868Y-58340378D02*
X57626487Y-58245140D01*
X57626487Y-58245140D02*
X57674106Y-58197521D01*
X57674106Y-58197521D02*
X57769344Y-58149902D01*
X57769344Y-58149902D02*
X57959820Y-58149902D01*
X57959820Y-58149902D02*
X58055058Y-58197521D01*
X58483630Y-58816569D02*
X58483630Y-57816569D01*
X58912201Y-58816569D02*
X58912201Y-58292759D01*
X58912201Y-58292759D02*
X58864582Y-58197521D01*
X58864582Y-58197521D02*
X58769344Y-58149902D01*
X58769344Y-58149902D02*
X58626487Y-58149902D01*
X58626487Y-58149902D02*
X58531249Y-58197521D01*
X58531249Y-58197521D02*
X58483630Y-58245140D01*
X60578868Y-58768950D02*
X60483630Y-58816569D01*
X60483630Y-58816569D02*
X60293154Y-58816569D01*
X60293154Y-58816569D02*
X60197916Y-58768950D01*
X60197916Y-58768950D02*
X60150297Y-58721330D01*
X60150297Y-58721330D02*
X60102678Y-58626092D01*
X60102678Y-58626092D02*
X60102678Y-58340378D01*
X60102678Y-58340378D02*
X60150297Y-58245140D01*
X60150297Y-58245140D02*
X60197916Y-58197521D01*
X60197916Y-58197521D02*
X60293154Y-58149902D01*
X60293154Y-58149902D02*
X60483630Y-58149902D01*
X60483630Y-58149902D02*
X60578868Y-58197521D01*
X61388392Y-58768950D02*
X61293154Y-58816569D01*
X61293154Y-58816569D02*
X61102678Y-58816569D01*
X61102678Y-58816569D02*
X61007440Y-58768950D01*
X61007440Y-58768950D02*
X60959821Y-58673711D01*
X60959821Y-58673711D02*
X60959821Y-58292759D01*
X60959821Y-58292759D02*
X61007440Y-58197521D01*
X61007440Y-58197521D02*
X61102678Y-58149902D01*
X61102678Y-58149902D02*
X61293154Y-58149902D01*
X61293154Y-58149902D02*
X61388392Y-58197521D01*
X61388392Y-58197521D02*
X61436011Y-58292759D01*
X61436011Y-58292759D02*
X61436011Y-58387997D01*
X61436011Y-58387997D02*
X60959821Y-58483235D01*
X61864583Y-58149902D02*
X61864583Y-58816569D01*
X61864583Y-58245140D02*
X61912202Y-58197521D01*
X61912202Y-58197521D02*
X62007440Y-58149902D01*
X62007440Y-58149902D02*
X62150297Y-58149902D01*
X62150297Y-58149902D02*
X62245535Y-58197521D01*
X62245535Y-58197521D02*
X62293154Y-58292759D01*
X62293154Y-58292759D02*
X62293154Y-58816569D01*
X62626488Y-58149902D02*
X63007440Y-58149902D01*
X62769345Y-57816569D02*
X62769345Y-58673711D01*
X62769345Y-58673711D02*
X62816964Y-58768950D01*
X62816964Y-58768950D02*
X62912202Y-58816569D01*
X62912202Y-58816569D02*
X63007440Y-58816569D01*
X63721726Y-58768950D02*
X63626488Y-58816569D01*
X63626488Y-58816569D02*
X63436012Y-58816569D01*
X63436012Y-58816569D02*
X63340774Y-58768950D01*
X63340774Y-58768950D02*
X63293155Y-58673711D01*
X63293155Y-58673711D02*
X63293155Y-58292759D01*
X63293155Y-58292759D02*
X63340774Y-58197521D01*
X63340774Y-58197521D02*
X63436012Y-58149902D01*
X63436012Y-58149902D02*
X63626488Y-58149902D01*
X63626488Y-58149902D02*
X63721726Y-58197521D01*
X63721726Y-58197521D02*
X63769345Y-58292759D01*
X63769345Y-58292759D02*
X63769345Y-58387997D01*
X63769345Y-58387997D02*
X63293155Y-58483235D01*
X64197917Y-58816569D02*
X64197917Y-58149902D01*
X64197917Y-58340378D02*
X64245536Y-58245140D01*
X64245536Y-58245140D02*
X64293155Y-58197521D01*
X64293155Y-58197521D02*
X64388393Y-58149902D01*
X64388393Y-58149902D02*
X64483631Y-58149902D01*
X111824106Y-58768950D02*
X111919344Y-58816569D01*
X111919344Y-58816569D02*
X112109820Y-58816569D01*
X112109820Y-58816569D02*
X112205058Y-58768950D01*
X112205058Y-58768950D02*
X112252677Y-58673711D01*
X112252677Y-58673711D02*
X112252677Y-58626092D01*
X112252677Y-58626092D02*
X112205058Y-58530854D01*
X112205058Y-58530854D02*
X112109820Y-58483235D01*
X112109820Y-58483235D02*
X111966963Y-58483235D01*
X111966963Y-58483235D02*
X111871725Y-58435616D01*
X111871725Y-58435616D02*
X111824106Y-58340378D01*
X111824106Y-58340378D02*
X111824106Y-58292759D01*
X111824106Y-58292759D02*
X111871725Y-58197521D01*
X111871725Y-58197521D02*
X111966963Y-58149902D01*
X111966963Y-58149902D02*
X112109820Y-58149902D01*
X112109820Y-58149902D02*
X112205058Y-58197521D01*
X112586011Y-58149902D02*
X112776487Y-58816569D01*
X112776487Y-58816569D02*
X112966963Y-58340378D01*
X112966963Y-58340378D02*
X113157439Y-58816569D01*
X113157439Y-58816569D02*
X113347915Y-58149902D01*
X113728868Y-58816569D02*
X113728868Y-58149902D01*
X113728868Y-57816569D02*
X113681249Y-57864188D01*
X113681249Y-57864188D02*
X113728868Y-57911807D01*
X113728868Y-57911807D02*
X113776487Y-57864188D01*
X113776487Y-57864188D02*
X113728868Y-57816569D01*
X113728868Y-57816569D02*
X113728868Y-57911807D01*
X114062201Y-58149902D02*
X114443153Y-58149902D01*
X114205058Y-57816569D02*
X114205058Y-58673711D01*
X114205058Y-58673711D02*
X114252677Y-58768950D01*
X114252677Y-58768950D02*
X114347915Y-58816569D01*
X114347915Y-58816569D02*
X114443153Y-58816569D01*
X115205058Y-58768950D02*
X115109820Y-58816569D01*
X115109820Y-58816569D02*
X114919344Y-58816569D01*
X114919344Y-58816569D02*
X114824106Y-58768950D01*
X114824106Y-58768950D02*
X114776487Y-58721330D01*
X114776487Y-58721330D02*
X114728868Y-58626092D01*
X114728868Y-58626092D02*
X114728868Y-58340378D01*
X114728868Y-58340378D02*
X114776487Y-58245140D01*
X114776487Y-58245140D02*
X114824106Y-58197521D01*
X114824106Y-58197521D02*
X114919344Y-58149902D01*
X114919344Y-58149902D02*
X115109820Y-58149902D01*
X115109820Y-58149902D02*
X115205058Y-58197521D01*
X115633630Y-58816569D02*
X115633630Y-57816569D01*
X116062201Y-58816569D02*
X116062201Y-58292759D01*
X116062201Y-58292759D02*
X116014582Y-58197521D01*
X116014582Y-58197521D02*
X115919344Y-58149902D01*
X115919344Y-58149902D02*
X115776487Y-58149902D01*
X115776487Y-58149902D02*
X115681249Y-58197521D01*
X115681249Y-58197521D02*
X115633630Y-58245140D01*
X117728868Y-58768950D02*
X117633630Y-58816569D01*
X117633630Y-58816569D02*
X117443154Y-58816569D01*
X117443154Y-58816569D02*
X117347916Y-58768950D01*
X117347916Y-58768950D02*
X117300297Y-58721330D01*
X117300297Y-58721330D02*
X117252678Y-58626092D01*
X117252678Y-58626092D02*
X117252678Y-58340378D01*
X117252678Y-58340378D02*
X117300297Y-58245140D01*
X117300297Y-58245140D02*
X117347916Y-58197521D01*
X117347916Y-58197521D02*
X117443154Y-58149902D01*
X117443154Y-58149902D02*
X117633630Y-58149902D01*
X117633630Y-58149902D02*
X117728868Y-58197521D01*
X118538392Y-58768950D02*
X118443154Y-58816569D01*
X118443154Y-58816569D02*
X118252678Y-58816569D01*
X118252678Y-58816569D02*
X118157440Y-58768950D01*
X118157440Y-58768950D02*
X118109821Y-58673711D01*
X118109821Y-58673711D02*
X118109821Y-58292759D01*
X118109821Y-58292759D02*
X118157440Y-58197521D01*
X118157440Y-58197521D02*
X118252678Y-58149902D01*
X118252678Y-58149902D02*
X118443154Y-58149902D01*
X118443154Y-58149902D02*
X118538392Y-58197521D01*
X118538392Y-58197521D02*
X118586011Y-58292759D01*
X118586011Y-58292759D02*
X118586011Y-58387997D01*
X118586011Y-58387997D02*
X118109821Y-58483235D01*
X119014583Y-58149902D02*
X119014583Y-58816569D01*
X119014583Y-58245140D02*
X119062202Y-58197521D01*
X119062202Y-58197521D02*
X119157440Y-58149902D01*
X119157440Y-58149902D02*
X119300297Y-58149902D01*
X119300297Y-58149902D02*
X119395535Y-58197521D01*
X119395535Y-58197521D02*
X119443154Y-58292759D01*
X119443154Y-58292759D02*
X119443154Y-58816569D01*
X119776488Y-58149902D02*
X120157440Y-58149902D01*
X119919345Y-57816569D02*
X119919345Y-58673711D01*
X119919345Y-58673711D02*
X119966964Y-58768950D01*
X119966964Y-58768950D02*
X120062202Y-58816569D01*
X120062202Y-58816569D02*
X120157440Y-58816569D01*
X120871726Y-58768950D02*
X120776488Y-58816569D01*
X120776488Y-58816569D02*
X120586012Y-58816569D01*
X120586012Y-58816569D02*
X120490774Y-58768950D01*
X120490774Y-58768950D02*
X120443155Y-58673711D01*
X120443155Y-58673711D02*
X120443155Y-58292759D01*
X120443155Y-58292759D02*
X120490774Y-58197521D01*
X120490774Y-58197521D02*
X120586012Y-58149902D01*
X120586012Y-58149902D02*
X120776488Y-58149902D01*
X120776488Y-58149902D02*
X120871726Y-58197521D01*
X120871726Y-58197521D02*
X120919345Y-58292759D01*
X120919345Y-58292759D02*
X120919345Y-58387997D01*
X120919345Y-58387997D02*
X120443155Y-58483235D01*
X121347917Y-58816569D02*
X121347917Y-58149902D01*
X121347917Y-58340378D02*
X121395536Y-58245140D01*
X121395536Y-58245140D02*
X121443155Y-58197521D01*
X121443155Y-58197521D02*
X121538393Y-58149902D01*
X121538393Y-58149902D02*
X121633631Y-58149902D01*
X66270535Y-144314069D02*
X66270535Y-143314069D01*
X66270535Y-143314069D02*
X66603868Y-144028354D01*
X66603868Y-144028354D02*
X66937201Y-143314069D01*
X66937201Y-143314069D02*
X66937201Y-144314069D01*
X67318154Y-143314069D02*
X67984820Y-144314069D01*
X67984820Y-143314069D02*
X67318154Y-144314069D01*
X68127678Y-144409307D02*
X68889582Y-144409307D01*
X69080059Y-144266450D02*
X69175297Y-144314069D01*
X69175297Y-144314069D02*
X69365773Y-144314069D01*
X69365773Y-144314069D02*
X69461011Y-144266450D01*
X69461011Y-144266450D02*
X69508630Y-144171211D01*
X69508630Y-144171211D02*
X69508630Y-144123592D01*
X69508630Y-144123592D02*
X69461011Y-144028354D01*
X69461011Y-144028354D02*
X69365773Y-143980735D01*
X69365773Y-143980735D02*
X69222916Y-143980735D01*
X69222916Y-143980735D02*
X69127678Y-143933116D01*
X69127678Y-143933116D02*
X69080059Y-143837878D01*
X69080059Y-143837878D02*
X69080059Y-143790259D01*
X69080059Y-143790259D02*
X69127678Y-143695021D01*
X69127678Y-143695021D02*
X69222916Y-143647402D01*
X69222916Y-143647402D02*
X69365773Y-143647402D01*
X69365773Y-143647402D02*
X69461011Y-143695021D01*
X69794345Y-143647402D02*
X70175297Y-143647402D01*
X69937202Y-143314069D02*
X69937202Y-144171211D01*
X69937202Y-144171211D02*
X69984821Y-144266450D01*
X69984821Y-144266450D02*
X70080059Y-144314069D01*
X70080059Y-144314069D02*
X70175297Y-144314069D01*
X70937202Y-144314069D02*
X70937202Y-143790259D01*
X70937202Y-143790259D02*
X70889583Y-143695021D01*
X70889583Y-143695021D02*
X70794345Y-143647402D01*
X70794345Y-143647402D02*
X70603869Y-143647402D01*
X70603869Y-143647402D02*
X70508631Y-143695021D01*
X70937202Y-144266450D02*
X70841964Y-144314069D01*
X70841964Y-144314069D02*
X70603869Y-144314069D01*
X70603869Y-144314069D02*
X70508631Y-144266450D01*
X70508631Y-144266450D02*
X70461012Y-144171211D01*
X70461012Y-144171211D02*
X70461012Y-144075973D01*
X70461012Y-144075973D02*
X70508631Y-143980735D01*
X70508631Y-143980735D02*
X70603869Y-143933116D01*
X70603869Y-143933116D02*
X70841964Y-143933116D01*
X70841964Y-143933116D02*
X70937202Y-143885497D01*
X71413393Y-144314069D02*
X71413393Y-143314069D01*
X71413393Y-143695021D02*
X71508631Y-143647402D01*
X71508631Y-143647402D02*
X71699107Y-143647402D01*
X71699107Y-143647402D02*
X71794345Y-143695021D01*
X71794345Y-143695021D02*
X71841964Y-143742640D01*
X71841964Y-143742640D02*
X71889583Y-143837878D01*
X71889583Y-143837878D02*
X71889583Y-144123592D01*
X71889583Y-144123592D02*
X71841964Y-144218830D01*
X71841964Y-144218830D02*
X71794345Y-144266450D01*
X71794345Y-144266450D02*
X71699107Y-144314069D01*
X71699107Y-144314069D02*
X71508631Y-144314069D01*
X71508631Y-144314069D02*
X71413393Y-144266450D01*
D11*
%TO.C,D3*%
X97381250Y-59281750D02*
X97631250Y-59531750D01*
X97631250Y-59531750D02*
X97381250Y-59781750D01*
X97631250Y-59531750D02*
X97881250Y-59781750D01*
X97881250Y-59281750D02*
X97631250Y-59531750D01*
%TO.C,D2*%
X78331250Y-59281750D02*
X78581250Y-59531750D01*
X78581250Y-59531750D02*
X78331250Y-59781750D01*
X78581250Y-59531750D02*
X78831250Y-59781750D01*
X78831250Y-59281750D02*
X78581250Y-59531750D01*
%TO.C,D1*%
X59281250Y-59281750D02*
X59531250Y-59531750D01*
X59531250Y-59531750D02*
X59281250Y-59781750D01*
X59531250Y-59531750D02*
X59781250Y-59781750D01*
X59781250Y-59281750D02*
X59531250Y-59531750D01*
%TO.C,D4*%
X116431250Y-59281750D02*
X116681250Y-59531750D01*
X116681250Y-59531750D02*
X116431250Y-59781750D01*
X116681250Y-59531750D02*
X116931250Y-59781750D01*
X116931250Y-59281750D02*
X116681250Y-59531750D01*
%TD*%
M02*
