%TF.GenerationSoftware,KiCad,Pcbnew,8.0.2*%
%TF.CreationDate,2025-04-27T21:29:10-07:00*%
%TF.ProjectId,t80-5700,7438302d-3537-4303-902e-6b696361645f,rev?*%
%TF.SameCoordinates,Original*%
%TF.FileFunction,Paste,Bot*%
%TF.FilePolarity,Positive*%
%FSLAX46Y46*%
G04 Gerber Fmt 4.6, Leading zero omitted, Abs format (unit mm)*
G04 Created by KiCad (PCBNEW 8.0.2) date 2025-04-27 21:29:10*
%MOMM*%
%LPD*%
G01*
G04 APERTURE LIST*
G04 Aperture macros list*
%AMRoundRect*
0 Rectangle with rounded corners*
0 $1 Rounding radius*
0 $2 $3 $4 $5 $6 $7 $8 $9 X,Y pos of 4 corners*
0 Add a 4 corners polygon primitive as box body*
4,1,4,$2,$3,$4,$5,$6,$7,$8,$9,$2,$3,0*
0 Add four circle primitives for the rounded corners*
1,1,$1+$1,$2,$3*
1,1,$1+$1,$4,$5*
1,1,$1+$1,$6,$7*
1,1,$1+$1,$8,$9*
0 Add four rect primitives between the rounded corners*
20,1,$1+$1,$2,$3,$4,$5,0*
20,1,$1+$1,$4,$5,$6,$7,0*
20,1,$1+$1,$6,$7,$8,$9,0*
20,1,$1+$1,$8,$9,$2,$3,0*%
%AMRotRect*
0 Rectangle, with rotation*
0 The origin of the aperture is its center*
0 $1 length*
0 $2 width*
0 $3 Rotation angle, in degrees counterclockwise*
0 Add horizontal line*
21,1,$1,$2,0,0,$3*%
G04 Aperture macros list end*
%ADD10RoundRect,0.140000X0.219203X0.021213X0.021213X0.219203X-0.219203X-0.021213X-0.021213X-0.219203X0*%
%ADD11RoundRect,0.225000X0.375000X-0.225000X0.375000X0.225000X-0.375000X0.225000X-0.375000X-0.225000X0*%
%ADD12RoundRect,0.140000X0.170000X-0.140000X0.170000X0.140000X-0.170000X0.140000X-0.170000X-0.140000X0*%
%ADD13RoundRect,0.140000X-0.170000X0.140000X-0.170000X-0.140000X0.170000X-0.140000X0.170000X0.140000X0*%
%ADD14RoundRect,0.135000X-0.185000X0.135000X-0.185000X-0.135000X0.185000X-0.135000X0.185000X0.135000X0*%
%ADD15RoundRect,0.140000X-0.140000X-0.170000X0.140000X-0.170000X0.140000X0.170000X-0.140000X0.170000X0*%
%ADD16RoundRect,0.200000X-0.200000X-0.275000X0.200000X-0.275000X0.200000X0.275000X-0.200000X0.275000X0*%
%ADD17RoundRect,0.250000X-0.625000X0.400000X-0.625000X-0.400000X0.625000X-0.400000X0.625000X0.400000X0*%
%ADD18RoundRect,0.250000X0.625000X-0.400000X0.625000X0.400000X-0.625000X0.400000X-0.625000X-0.400000X0*%
%ADD19RoundRect,0.150000X-0.150000X0.650000X-0.150000X-0.650000X0.150000X-0.650000X0.150000X0.650000X0*%
%ADD20RoundRect,0.249999X0.395001X-0.395001X0.395001X0.395001X-0.395001X0.395001X-0.395001X-0.395001X0*%
%ADD21RoundRect,0.050000X0.050000X-0.387500X0.050000X0.387500X-0.050000X0.387500X-0.050000X-0.387500X0*%
%ADD22RoundRect,0.050000X0.387500X-0.050000X0.387500X0.050000X-0.387500X0.050000X-0.387500X-0.050000X0*%
%ADD23RoundRect,0.135000X-0.135000X-0.185000X0.135000X-0.185000X0.135000X0.185000X-0.135000X0.185000X0*%
%ADD24RoundRect,0.150000X-0.150000X0.475000X-0.150000X-0.475000X0.150000X-0.475000X0.150000X0.475000X0*%
%ADD25RotRect,1.400000X1.200000X315.000000*%
%ADD26RoundRect,0.225000X-0.225000X-0.375000X0.225000X-0.375000X0.225000X0.375000X-0.225000X0.375000X0*%
%ADD27RoundRect,0.140000X-0.219203X-0.021213X-0.021213X-0.219203X0.219203X0.021213X0.021213X0.219203X0*%
%ADD28RoundRect,0.225000X0.225000X0.250000X-0.225000X0.250000X-0.225000X-0.250000X0.225000X-0.250000X0*%
%ADD29RoundRect,0.135000X-0.226274X-0.035355X-0.035355X-0.226274X0.226274X0.035355X0.035355X0.226274X0*%
%ADD30RoundRect,0.135000X0.135000X0.185000X-0.135000X0.185000X-0.135000X-0.185000X0.135000X-0.185000X0*%
%ADD31RoundRect,0.250000X-0.375000X-0.625000X0.375000X-0.625000X0.375000X0.625000X-0.375000X0.625000X0*%
%ADD32RoundRect,0.150000X0.150000X-0.512500X0.150000X0.512500X-0.150000X0.512500X-0.150000X-0.512500X0*%
%ADD33RoundRect,0.140000X0.021213X-0.219203X0.219203X-0.021213X-0.021213X0.219203X-0.219203X0.021213X0*%
%ADD34RoundRect,0.140000X0.140000X0.170000X-0.140000X0.170000X-0.140000X-0.170000X0.140000X-0.170000X0*%
%ADD35R,1.450000X0.600000*%
%ADD36R,1.450000X0.300000*%
G04 APERTURE END LIST*
D10*
%TO.C,C11*%
X98050000Y-40339411D03*
X97371178Y-39660589D03*
%TD*%
D11*
%TO.C,D10*%
X81756250Y-61975000D03*
X81756250Y-58675000D03*
%TD*%
D12*
%TO.C,C9*%
X108950000Y-37780000D03*
X108950000Y-36820000D03*
%TD*%
D13*
%TO.C,C6*%
X114900000Y-31020000D03*
X114900000Y-31980000D03*
%TD*%
D14*
%TO.C,R15*%
X113000000Y-22790000D03*
X113000000Y-23810000D03*
%TD*%
D15*
%TO.C,C5*%
X111820000Y-38900000D03*
X112780000Y-38900000D03*
%TD*%
D16*
%TO.C,R12*%
X87275000Y-54800000D03*
X88925000Y-54800000D03*
%TD*%
D17*
%TO.C,R9*%
X88106250Y-75600000D03*
X88106250Y-78700000D03*
%TD*%
D11*
%TO.C,D17*%
X100806250Y-100075000D03*
X100806250Y-96775000D03*
%TD*%
D18*
%TO.C,R11*%
X107156250Y-59650000D03*
X107156250Y-56550000D03*
%TD*%
D11*
%TO.C,D14*%
X81756250Y-138175000D03*
X81756250Y-134875000D03*
%TD*%
D19*
%TO.C,U2*%
X122185000Y-31100000D03*
X123455000Y-31100000D03*
X124725000Y-31100000D03*
X125995000Y-31100000D03*
X125995000Y-38300000D03*
X124725000Y-38300000D03*
X123455000Y-38300000D03*
X122185000Y-38300000D03*
%TD*%
D11*
%TO.C,D7*%
X62706250Y-100012500D03*
X62706250Y-96712500D03*
%TD*%
%TO.C,D9*%
X52387500Y-138175000D03*
X52387500Y-134875000D03*
%TD*%
%TO.C,D18*%
X100806250Y-119125000D03*
X100806250Y-115825000D03*
%TD*%
%TO.C,D15*%
X100806250Y-61975000D03*
X100806250Y-58675000D03*
%TD*%
D20*
%TO.C,U1*%
X105300000Y-43600000D03*
X106900000Y-43600000D03*
X105300000Y-42000000D03*
X106900000Y-42000000D03*
D21*
X108700000Y-46237500D03*
X108300000Y-46237500D03*
X107900000Y-46237500D03*
X107500000Y-46237500D03*
X107100000Y-46237500D03*
X106700000Y-46237500D03*
X106300000Y-46237500D03*
X105900000Y-46237500D03*
X105500000Y-46237500D03*
X105100000Y-46237500D03*
X104700000Y-46237500D03*
X104300000Y-46237500D03*
X103900000Y-46237500D03*
X103500000Y-46237500D03*
D22*
X102662500Y-45400000D03*
X102662500Y-45000000D03*
X102662500Y-44600000D03*
X102662500Y-44200000D03*
X102662500Y-43800000D03*
X102662500Y-43400000D03*
X102662500Y-43000000D03*
X102662500Y-42600000D03*
X102662500Y-42200000D03*
X102662500Y-41800000D03*
X102662500Y-41400000D03*
X102662500Y-41000000D03*
X102662500Y-40600000D03*
X102662500Y-40200000D03*
D21*
X103500000Y-39362500D03*
X103900000Y-39362500D03*
X104300000Y-39362500D03*
X104700000Y-39362500D03*
X105100000Y-39362500D03*
X105500000Y-39362500D03*
X105900000Y-39362500D03*
X106300000Y-39362500D03*
X106700000Y-39362500D03*
X107100000Y-39362500D03*
X107500000Y-39362500D03*
X107900000Y-39362500D03*
X108300000Y-39362500D03*
X108700000Y-39362500D03*
D22*
X109537500Y-40200000D03*
X109537500Y-40600000D03*
X109537500Y-41000000D03*
X109537500Y-41400000D03*
X109537500Y-41800000D03*
X109537500Y-42200000D03*
X109537500Y-42600000D03*
X109537500Y-43000000D03*
X109537500Y-43400000D03*
X109537500Y-43800000D03*
X109537500Y-44200000D03*
X109537500Y-44600000D03*
X109537500Y-45000000D03*
X109537500Y-45400000D03*
%TD*%
D23*
%TO.C,R3*%
X114890000Y-41100000D03*
X115910000Y-41100000D03*
%TD*%
D11*
%TO.C,D20*%
X119856250Y-61975000D03*
X119856250Y-58675000D03*
%TD*%
%TO.C,D22*%
X119856250Y-100075000D03*
X119856250Y-96775000D03*
%TD*%
D15*
%TO.C,C2*%
X112820000Y-43500000D03*
X113780000Y-43500000D03*
%TD*%
D24*
%TO.C,U4*%
X115423108Y-23809206D03*
X116373108Y-23809206D03*
X117323108Y-23809206D03*
X117323108Y-26159206D03*
X116373108Y-26159206D03*
X115423108Y-26159206D03*
%TD*%
D25*
%TO.C,Y1*%
X96523223Y-42621142D03*
X98078858Y-44176777D03*
X96876777Y-45378858D03*
X95321142Y-43823223D03*
%TD*%
D26*
%TO.C,D21*%
X110550000Y-81000000D03*
X113850000Y-81000000D03*
%TD*%
D12*
%TO.C,C7*%
X105350000Y-37950000D03*
X105350000Y-36990000D03*
%TD*%
D17*
%TO.C,R5*%
X69056250Y-75600000D03*
X69056250Y-78700000D03*
%TD*%
D11*
%TO.C,D12*%
X81756250Y-100075000D03*
X81756250Y-96775000D03*
%TD*%
D27*
%TO.C,C14*%
X94360589Y-44860589D03*
X95039411Y-45539411D03*
%TD*%
D28*
%TO.C,C4*%
X109875000Y-32600000D03*
X108325000Y-32600000D03*
%TD*%
D11*
%TO.C,D6*%
X62706250Y-81025000D03*
X62706250Y-77725000D03*
%TD*%
D10*
%TO.C,C3*%
X98839411Y-39539411D03*
X98160589Y-38860589D03*
%TD*%
D29*
%TO.C,R17*%
X97939376Y-42039376D03*
X98660624Y-42760624D03*
%TD*%
D18*
%TO.C,R7*%
X69056250Y-59650000D03*
X69056250Y-56550000D03*
%TD*%
D26*
%TO.C,D23*%
X110550000Y-119100000D03*
X113850000Y-119100000D03*
%TD*%
D14*
%TO.C,R13*%
X120500000Y-34090000D03*
X120500000Y-35110000D03*
%TD*%
D12*
%TO.C,C8*%
X120500000Y-38280000D03*
X120500000Y-37320000D03*
%TD*%
D14*
%TO.C,R14*%
X120500000Y-32090000D03*
X120500000Y-33110000D03*
%TD*%
D23*
%TO.C,R16*%
X112890000Y-25900000D03*
X113910000Y-25900000D03*
%TD*%
D11*
%TO.C,D5*%
X62706250Y-61975000D03*
X62706250Y-58675000D03*
%TD*%
D13*
%TO.C,C13*%
X104880000Y-48020000D03*
X104880000Y-48980000D03*
%TD*%
%TO.C,C16*%
X108910000Y-47620000D03*
X108910000Y-48580000D03*
%TD*%
D11*
%TO.C,D8*%
X62706250Y-119125000D03*
X62706250Y-115825000D03*
%TD*%
D15*
%TO.C,C1*%
X111820000Y-40000000D03*
X112780000Y-40000000D03*
%TD*%
D11*
%TO.C,D11*%
X81756250Y-81025000D03*
X81756250Y-77725000D03*
%TD*%
D16*
%TO.C,R1*%
X73675000Y-46000000D03*
X75325000Y-46000000D03*
%TD*%
D15*
%TO.C,C12*%
X111920000Y-42500000D03*
X112880000Y-42500000D03*
%TD*%
D30*
%TO.C,R2*%
X115910000Y-42100000D03*
X114890000Y-42100000D03*
%TD*%
D31*
%TO.C,F1*%
X113600000Y-28400000D03*
X116400000Y-28400000D03*
%TD*%
D32*
%TO.C,U3*%
X113550000Y-33737500D03*
X111650000Y-33737500D03*
X112600000Y-31462500D03*
%TD*%
D11*
%TO.C,D13*%
X81756250Y-119125000D03*
X81756250Y-115825000D03*
%TD*%
%TO.C,D24*%
X119856250Y-138175000D03*
X119856250Y-134875000D03*
%TD*%
%TO.C,D19*%
X90487500Y-138175000D03*
X90487500Y-134875000D03*
%TD*%
D33*
%TO.C,C15*%
X94460589Y-42439411D03*
X95139411Y-41760589D03*
%TD*%
D11*
%TO.C,D16*%
X100806250Y-81025000D03*
X100806250Y-77725000D03*
%TD*%
D34*
%TO.C,C10*%
X109880000Y-33900000D03*
X108920000Y-33900000D03*
%TD*%
D35*
%TO.C,J1*%
X111035000Y-27781200D03*
X111035000Y-26981200D03*
D36*
X111035000Y-25781200D03*
X111035000Y-24781200D03*
X111035000Y-24281200D03*
X111035000Y-23281200D03*
D35*
X111035000Y-22081200D03*
X111035000Y-21281200D03*
X111035000Y-21281200D03*
X111035000Y-22081200D03*
D36*
X111035000Y-22781200D03*
X111035000Y-23781200D03*
X111035000Y-25281200D03*
X111035000Y-26281200D03*
D35*
X111035000Y-26981200D03*
X111035000Y-27781200D03*
%TD*%
M02*
